solid ascii
 facet normal -0.371705 0.641517 0.671038
  outer loop
   vertex -13.6295 -31.5858 -39.294
   vertex -13.7506 -31.656 -39.294
   vertex -13.6295 -31.656 -39.2269
  endloop
 endfacet
 facet normal -0.468241 0.25728 0.845315
  outer loop
   vertex -13.6295 -31.656 -39.2269
   vertex -13.7506 -31.656 -39.294
   vertex -13.6295 -32.156 -39.0747
  endloop
 endfacet
 facet normal 0.131547 0.288641 0.948357
  outer loop
   vertex -13.6295 -31.656 -39.2269
   vertex -13.6295 -32.156 -39.0747
   vertex -13.1295 -32.156 -39.1441
  endloop
 endfacet
 facet normal 0.136717 -0.0992231 0.985628
  outer loop
   vertex -13.1295 -32.156 -39.1441
   vertex -13.6295 -32.156 -39.0747
   vertex -13.1295 -32.656 -39.1944
  endloop
 endfacet
 facet normal 0.563712 -0.0827323 0.821817
  outer loop
   vertex -13.1295 -32.156 -39.1441
   vertex -13.1295 -32.656 -39.1944
   vertex -12.9843 -32.656 -39.294
  endloop
 endfacet
 facet normal 0.514655 -0.414947 0.750299
  outer loop
   vertex -12.9843 -32.656 -39.294
   vertex -13.1295 -32.656 -39.1944
   vertex -13.1295 -32.8361 -39.294
  endloop
 endfacet
 facet normal 0.591263 -0.476713 0.650502
  outer loop
   vertex -12.9843 -32.656 -39.294
   vertex -13.1295 -32.8361 -39.294
   vertex -12.6295 -32.656 -39.6165
  endloop
 endfacet
 facet normal 0.560568 -0.659474 0.500856
  outer loop
   vertex -12.6295 -32.656 -39.6165
   vertex -13.1295 -32.8361 -39.294
   vertex -12.6295 -32.7908 -39.794
  endloop
 endfacet
 facet normal 0.31706 -0.755275 0.573614
  outer loop
   vertex -12.6295 -32.656 -39.6165
   vertex -12.6295 -32.7908 -39.794
   vertex -12.3084 -32.656 -39.794
  endloop
 endfacet
 facet normal 0.38507 -0.917283 0.101556
  outer loop
   vertex -12.3084 -32.656 -39.794
   vertex -12.6295 -32.7908 -39.794
   vertex -12.1765 -32.656 -40.294
  endloop
 endfacet
 facet normal 0.752239 -0.628313 0.19839
  outer loop
   vertex -12.3084 -32.656 -39.794
   vertex -12.1765 -32.656 -40.294
   vertex -12.1295 -32.4419 -39.794
  endloop
 endfacet
 facet normal 0.724916 -0.655243 0.212492
  outer loop
   vertex -12.1295 -32.4419 -39.794
   vertex -12.1765 -32.656 -40.294
   vertex -12.1295 -32.604 -40.294
  endloop
 endfacet
 facet normal 0.943323 -0.315691 0.102377
  outer loop
   vertex -12.1295 -32.4419 -39.794
   vertex -12.1295 -32.604 -40.294
   vertex -11.9796 -32.156 -40.294
  endloop
 endfacet
 facet normal 0.889215 -0.297584 -0.347476
  outer loop
   vertex -11.9796 -32.156 -40.294
   vertex -12.1295 -32.604 -40.294
   vertex -12.1295 -32.156 -40.6777
  endloop
 endfacet
 facet normal 0.896046 0.272947 -0.350146
  outer loop
   vertex -11.9796 -32.156 -40.294
   vertex -12.1295 -32.156 -40.6777
   vertex -12.1295 -31.6638 -40.294
  endloop
 endfacet
 facet normal 0.759907 0.399639 -0.512669
  outer loop
   vertex -12.1295 -31.6638 -40.294
   vertex -12.1295 -32.156 -40.6777
   vertex -12.1336 -31.656 -40.294
  endloop
 endfacet
 facet normal 0.880823 0.463228 0.0978318
  outer loop
   vertex -12.1295 -31.6638 -40.294
   vertex -12.1336 -31.656 -40.294
   vertex -12.1891 -31.656 -39.794
  endloop
 endfacet
 facet normal 0.511851 0.857191 0.0568506
  outer loop
   vertex -12.1891 -31.656 -39.794
   vertex -12.1336 -31.656 -40.294
   vertex -12.6295 -31.3599 -40.294
  endloop
 endfacet
 facet normal 0.615615 0.7842 -0.0777637
  outer loop
   vertex -12.1891 -31.656 -39.794
   vertex -12.6295 -31.3599 -40.294
   vertex -12.6295 -31.3103 -39.794
  endloop
 endfacet
 facet normal -0.128805 0.98683 -0.0978571
  outer loop
   vertex -12.6295 -31.3103 -39.794
   vertex -12.6295 -31.3599 -40.294
   vertex -13.1295 -31.4251 -40.294
  endloop
 endfacet
 facet normal 0.0737247 0.953358 -0.292698
  outer loop
   vertex -12.6295 -31.3103 -39.794
   vertex -13.1295 -31.4251 -40.294
   vertex -13.1295 -31.2716 -39.794
  endloop
 endfacet
 facet normal -0.493008 0.831709 -0.25535
  outer loop
   vertex -13.1295 -31.2716 -39.794
   vertex -13.1295 -31.4251 -40.294
   vertex -13.6295 -31.568 -39.794
  endloop
 endfacet
 facet normal -0.441759 0.745251 0.49945
  outer loop
   vertex -13.1295 -31.2716 -39.794
   vertex -13.6295 -31.568 -39.794
   vertex -13.1295 -31.6067 -39.294
  endloop
 endfacet
 facet normal 0.0417805 0.998495 0.0355147
  outer loop
   vertex -13.1295 -31.6067 -39.294
   vertex -13.6295 -31.568 -39.794
   vertex -13.6295 -31.5858 -39.294
  endloop
 endfacet
 facet normal 0.0289029 0.690739 0.722526
  outer loop
   vertex -13.1295 -31.6067 -39.294
   vertex -13.6295 -31.5858 -39.294
   vertex -13.6295 -31.656 -39.2269
  endloop
 endfacet
 facet normal -0.456346 0.262328 0.850254
  outer loop
   vertex -13.6295 -32.156 -39.0747
   vertex -13.7506 -31.656 -39.294
   vertex -14.0381 -32.156 -39.294
  endloop
 endfacet
 facet normal -0.832479 0.478546 -0.279235
  outer loop
   vertex -14.0381 -32.156 -39.294
   vertex -13.7506 -31.656 -39.294
   vertex -13.8704 -32.156 -39.794
  endloop
 endfacet
 facet normal -0.915455 -0.260098 -0.307068
  outer loop
   vertex -14.0381 -32.156 -39.294
   vertex -13.8704 -32.156 -39.794
   vertex -13.7283 -32.656 -39.794
  endloop
 endfacet
 facet normal -0.807723 -0.229489 -0.543064
  outer loop
   vertex -13.7283 -32.656 -39.794
   vertex -13.8704 -32.156 -39.794
   vertex -13.6295 -32.156 -40.1522
  endloop
 endfacet
 facet normal -0.708438 -0.313174 -0.632485
  outer loop
   vertex -13.7283 -32.656 -39.794
   vertex -13.6295 -32.156 -40.1522
   vertex -13.6295 -32.656 -39.9047
  endloop
 endfacet
 facet normal -0.61688 -0.349242 -0.705329
  outer loop
   vertex -13.6295 -32.656 -39.9047
   vertex -13.6295 -32.156 -40.1522
   vertex -13.1843 -32.656 -40.294
  endloop
 endfacet
 facet normal -0.431727 -0.754945 -0.493629
  outer loop
   vertex -13.6295 -32.656 -39.9047
   vertex -13.1843 -32.656 -40.294
   vertex -13.1295 -32.6874 -40.294
  endloop
 endfacet
 facet normal -0.496317 -0.867891 -0.0208444
  outer loop
   vertex -13.1295 -32.6874 -40.294
   vertex -13.1843 -32.656 -40.294
   vertex -13.1295 -32.6753 -40.794
  endloop
 endfacet
 facet normal -0.261382 -0.964957 -0.0231757
  outer loop
   vertex -13.1295 -32.6874 -40.294
   vertex -13.1295 -32.6753 -40.794
   vertex -12.6295 -32.8228 -40.294
  endloop
 endfacet
 facet normal -0.182888 -0.977472 -0.10536
  outer loop
   vertex -12.6295 -32.8228 -40.294
   vertex -13.1295 -32.6753 -40.794
   vertex -12.6295 -32.7689 -40.794
  endloop
 endfacet
 facet normal 0.419896 -0.902345 -0.0972621
  outer loop
   vertex -12.6295 -32.8228 -40.294
   vertex -12.6295 -32.7689 -40.794
   vertex -12.3869 -32.656 -40.794
  endloop
 endfacet
 facet normal 0.410283 -0.881687 -0.233013
  outer loop
   vertex -12.3869 -32.656 -40.794
   vertex -12.6295 -32.7689 -40.794
   vertex -12.6295 -32.656 -41.2212
  endloop
 endfacet
 facet normal 0.640457 -0.676396 -0.363736
  outer loop
   vertex -12.3869 -32.656 -40.794
   vertex -12.6295 -32.656 -41.2212
   vertex -12.1428 -32.156 -41.294
  endloop
 endfacet
 facet normal 0.490966 -0.573413 -0.655858
  outer loop
   vertex -12.1428 -32.156 -41.294
   vertex -12.6295 -32.656 -41.2212
   vertex -12.6295 -32.5727 -41.294
  endloop
 endfacet
 facet normal 0.435894 -0.509092 -0.742174
  outer loop
   vertex -12.1428 -32.156 -41.294
   vertex -12.6295 -32.5727 -41.294
   vertex -12.6295 -32.156 -41.5799
  endloop
 endfacet
 facet normal -0.806591 -0.334367 -0.487453
  outer loop
   vertex -12.6295 -32.156 -41.5799
   vertex -12.6295 -32.5727 -41.294
   vertex -12.8023 -32.156 -41.294
  endloop
 endfacet
 facet normal -0.567269 0.748785 -0.342822
  outer loop
   vertex -12.6295 -32.156 -41.5799
   vertex -12.8023 -32.156 -41.294
   vertex -12.6295 -32.0251 -41.294
  endloop
 endfacet
 facet normal -0.503672 0.664839 -0.551637
  outer loop
   vertex -12.6295 -32.0251 -41.294
   vertex -12.8023 -32.156 -41.294
   vertex -12.6295 -31.656 -40.8491
  endloop
 endfacet
 facet normal 0.538184 0.648626 -0.538184
  outer loop
   vertex -12.6295 -32.0251 -41.294
   vertex -12.6295 -31.656 -40.8491
   vertex -12.5744 -31.656 -40.794
  endloop
 endfacet
 facet normal 0.485524 0.727003 -0.485524
  outer loop
   vertex -12.5744 -31.656 -40.794
   vertex -12.6295 -31.656 -40.8491
   vertex -12.6295 -31.6192 -40.794
  endloop
 endfacet
 facet normal 0.498805 0.746889 -0.439716
  outer loop
   vertex -12.5744 -31.656 -40.794
   vertex -12.6295 -31.6192 -40.794
   vertex -12.1336 -31.656 -40.294
  endloop
 endfacet
 facet normal 0.468352 0.784344 -0.406755
  outer loop
   vertex -12.1336 -31.656 -40.294
   vertex -12.6295 -31.6192 -40.794
   vertex -12.6295 -31.3599 -40.294
  endloop
 endfacet
 facet normal -0.461905 -0.0401636 0.88602
  outer loop
   vertex -13.6295 -32.656 -39.1037
   vertex -14.0381 -32.156 -39.294
   vertex -13.9946 -32.656 -39.294
  endloop
 endfacet
 facet normal -0.880036 -0.0765211 -0.468701
  outer loop
   vertex -13.9946 -32.656 -39.294
   vertex -14.0381 -32.156 -39.294
   vertex -13.7283 -32.656 -39.794
  endloop
 endfacet
 facet normal -0.661736 -0.661736 -0.352436
  outer loop
   vertex -13.9946 -32.656 -39.294
   vertex -13.7283 -32.656 -39.794
   vertex -13.6295 -32.7548 -39.794
  endloop
 endfacet
 facet normal -0.597927 -0.597927 -0.533822
  outer loop
   vertex -13.6295 -32.7548 -39.794
   vertex -13.7283 -32.656 -39.794
   vertex -13.6295 -32.656 -39.9047
  endloop
 endfacet
 facet normal -0.492163 -0.649363 -0.579744
  outer loop
   vertex -13.6295 -32.7548 -39.794
   vertex -13.6295 -32.656 -39.9047
   vertex -13.1295 -32.6874 -40.294
  endloop
 endfacet
 facet normal -0.472293 -0.0509564 0.879967
  outer loop
   vertex -14.0381 -32.156 -39.294
   vertex -13.6295 -32.656 -39.1037
   vertex -13.6295 -32.156 -39.0747
  endloop
 endfacet
 facet normal 0.178267 -0.0568843 0.982336
  outer loop
   vertex -13.6295 -32.156 -39.0747
   vertex -13.6295 -32.656 -39.1037
   vertex -13.1295 -32.656 -39.1944
  endloop
 endfacet
 facet normal -0.419611 -0.419611 0.804893
  outer loop
   vertex -13.6295 -32.656 -39.1037
   vertex -13.9946 -32.656 -39.294
   vertex -13.6295 -33.0211 -39.294
  endloop
 endfacet
 facet normal -0.661736 -0.661736 -0.352436
  outer loop
   vertex -13.6295 -33.0211 -39.294
   vertex -13.9946 -32.656 -39.294
   vertex -13.6295 -32.7548 -39.794
  endloop
 endfacet
 facet normal 0.310444 -0.839015 -0.446853
  outer loop
   vertex -13.6295 -33.0211 -39.294
   vertex -13.6295 -32.7548 -39.794
   vertex -13.1295 -32.8361 -39.294
  endloop
 endfacet
 facet normal -0.203632 -0.97803 0.0446214
  outer loop
   vertex -13.1295 -32.8361 -39.294
   vertex -13.6295 -32.7548 -39.794
   vertex -13.1295 -32.8589 -39.794
  endloop
 endfacet
 facet normal 0.134787 -0.989845 0.0451605
  outer loop
   vertex -13.1295 -32.8361 -39.294
   vertex -13.1295 -32.8589 -39.794
   vertex -12.6295 -32.7908 -39.794
  endloop
 endfacet
 facet normal 0.127745 -0.938132 -0.321853
  outer loop
   vertex -12.6295 -32.7908 -39.794
   vertex -13.1295 -32.8589 -39.794
   vertex -13.1295 -32.6874 -40.294
  endloop
 endfacet
 facet normal -0.260955 -0.963382 0.0616226
  outer loop
   vertex -12.6295 -32.7908 -39.794
   vertex -13.1295 -32.6874 -40.294
   vertex -12.6295 -32.8228 -40.294
  endloop
 endfacet
 facet normal -0.501074 0.864792 -0.0325557
  outer loop
   vertex -13.6295 -31.5858 -39.294
   vertex -13.7182 -31.656 -39.794
   vertex -13.7506 -31.656 -39.294
  endloop
 endfacet
 facet normal -0.95482 0.290638 -0.0620365
  outer loop
   vertex -13.7506 -31.656 -39.294
   vertex -13.7182 -31.656 -39.794
   vertex -13.8704 -32.156 -39.794
  endloop
 endfacet
 facet normal -0.704151 0.709601 0.0252393
  outer loop
   vertex -13.6295 -31.5858 -39.294
   vertex -13.6295 -31.568 -39.794
   vertex -13.7182 -31.656 -39.794
  endloop
 endfacet
 facet normal -0.626098 0.630944 -0.45816
  outer loop
   vertex -13.7182 -31.656 -39.794
   vertex -13.6295 -31.568 -39.794
   vertex -13.6295 -31.656 -39.9152
  endloop
 endfacet
 facet normal -0.783708 0.238553 -0.573493
  outer loop
   vertex -13.7182 -31.656 -39.794
   vertex -13.6295 -31.656 -39.9152
   vertex -13.8704 -32.156 -39.794
  endloop
 endfacet
 facet normal -0.802271 0.255756 -0.539398
  outer loop
   vertex -13.8704 -32.156 -39.794
   vertex -13.6295 -31.656 -39.9152
   vertex -13.6295 -32.156 -40.1522
  endloop
 endfacet
 facet normal 0.051169 0.584055 0.8101
  outer loop
   vertex -13.1295 -31.6067 -39.294
   vertex -13.6295 -31.656 -39.2269
   vertex -13.1295 -31.656 -39.2585
  endloop
 endfacet
 facet normal 0.0614561 0.222627 0.972965
  outer loop
   vertex -13.1295 -31.656 -39.2585
   vertex -13.6295 -31.656 -39.2269
   vertex -13.1295 -32.156 -39.1441
  endloop
 endfacet
 facet normal 0.504692 0.192558 0.841551
  outer loop
   vertex -13.1295 -31.656 -39.2585
   vertex -13.1295 -32.156 -39.1441
   vertex -12.8795 -32.156 -39.294
  endloop
 endfacet
 facet normal 0.511354 -0.107185 0.85266
  outer loop
   vertex -12.8795 -32.156 -39.294
   vertex -13.1295 -32.156 -39.1441
   vertex -12.9843 -32.656 -39.294
  endloop
 endfacet
 facet normal 0.52272 -0.109567 0.845434
  outer loop
   vertex -12.8795 -32.156 -39.294
   vertex -12.9843 -32.656 -39.294
   vertex -12.6295 -32.156 -39.4486
  endloop
 endfacet
 facet normal 0.652753 -0.241188 0.718152
  outer loop
   vertex -12.6295 -32.156 -39.4486
   vertex -12.9843 -32.656 -39.294
   vertex -12.6295 -32.656 -39.6165
  endloop
 endfacet
 facet normal 0.422453 -0.288566 0.859222
  outer loop
   vertex -12.6295 -32.156 -39.4486
   vertex -12.6295 -32.656 -39.6165
   vertex -12.1295 -32.156 -39.6944
  endloop
 endfacet
 facet normal 0.456972 -0.328148 0.826738
  outer loop
   vertex -12.1295 -32.156 -39.6944
   vertex -12.6295 -32.656 -39.6165
   vertex -12.3084 -32.656 -39.794
  endloop
 endfacet
 facet normal 0.366492 -0.306115 0.878622
  outer loop
   vertex -12.1295 -32.156 -39.6944
   vertex -12.3084 -32.656 -39.794
   vertex -12.1295 -32.4419 -39.794
  endloop
 endfacet
 facet normal 0.158874 -0.456406 0.875473
  outer loop
   vertex -13.6295 -32.656 -39.1037
   vertex -13.6295 -33.0211 -39.294
   vertex -13.1295 -32.656 -39.1944
  endloop
 endfacet
 facet normal 0.176267 -0.476383 0.861388
  outer loop
   vertex -13.1295 -32.656 -39.1944
   vertex -13.6295 -33.0211 -39.294
   vertex -13.1295 -32.8361 -39.294
  endloop
 endfacet
 facet normal -0.664995 0.604325 -0.43883
  outer loop
   vertex -13.6295 -31.568 -39.794
   vertex -13.3795 -31.656 -40.294
   vertex -13.6295 -31.656 -39.9152
  endloop
 endfacet
 facet normal -0.808605 0.247852 -0.533598
  outer loop
   vertex -13.6295 -31.656 -39.9152
   vertex -13.3795 -31.656 -40.294
   vertex -13.5328 -32.156 -40.294
  endloop
 endfacet
 facet normal -0.798003 0.258195 -0.544542
  outer loop
   vertex -13.6295 -31.656 -39.9152
   vertex -13.5328 -32.156 -40.294
   vertex -13.6295 -32.156 -40.1522
  endloop
 endfacet
 facet normal -0.715886 -0.498868 -0.488507
  outer loop
   vertex -13.6295 -32.156 -40.1522
   vertex -13.5328 -32.156 -40.294
   vertex -13.1843 -32.656 -40.294
  endloop
 endfacet
 facet normal -0.614336 0.665297 -0.424229
  outer loop
   vertex -13.6295 -31.568 -39.794
   vertex -13.1295 -31.4251 -40.294
   vertex -13.3795 -31.656 -40.294
  endloop
 endfacet
 facet normal -0.636451 0.689246 -0.346222
  outer loop
   vertex -13.3795 -31.656 -40.294
   vertex -13.1295 -31.4251 -40.294
   vertex -13.1295 -31.656 -40.7536
  endloop
 endfacet
 facet normal -0.764162 0.493207 -0.415696
  outer loop
   vertex -13.3795 -31.656 -40.294
   vertex -13.1295 -31.656 -40.7536
   vertex -13.4302 -32.156 -40.794
  endloop
 endfacet
 facet normal -0.741721 0.48367 -0.464664
  outer loop
   vertex -13.4302 -32.156 -40.794
   vertex -13.1295 -31.656 -40.7536
   vertex -13.1295 -31.6948 -40.794
  endloop
 endfacet
 facet normal -0.620739 0.404779 -0.671444
  outer loop
   vertex -13.4302 -32.156 -40.794
   vertex -13.1295 -31.6948 -40.794
   vertex -13.1295 -32.156 -41.072
  endloop
 endfacet
 facet normal -0.109596 0.513178 -0.851256
  outer loop
   vertex -13.1295 -32.156 -41.072
   vertex -13.1295 -31.6948 -40.794
   vertex -12.9476 -31.656 -40.794
  endloop
 endfacet
 facet normal -0.145767 0.520734 -0.841182
  outer loop
   vertex -13.1295 -32.156 -41.072
   vertex -12.9476 -31.656 -40.794
   vertex -12.6295 -31.656 -40.8491
  endloop
 endfacet
 facet normal -0.0957976 0.827774 -0.552823
  outer loop
   vertex -12.6295 -31.656 -40.8491
   vertex -12.9476 -31.656 -40.794
   vertex -12.6295 -31.6192 -40.794
  endloop
 endfacet
 facet normal -0.193227 -0.928056 -0.318396
  outer loop
   vertex -13.6295 -32.7548 -39.794
   vertex -13.1295 -32.6874 -40.294
   vertex -13.1295 -32.8589 -39.794
  endloop
 endfacet
 facet normal -0.938228 0.287584 -0.192417
  outer loop
   vertex -13.3795 -31.656 -40.294
   vertex -13.4302 -32.156 -40.794
   vertex -13.5328 -32.156 -40.294
  endloop
 endfacet
 facet normal -0.869165 -0.461279 -0.178253
  outer loop
   vertex -13.5328 -32.156 -40.294
   vertex -13.4302 -32.156 -40.794
   vertex -13.1649 -32.656 -40.794
  endloop
 endfacet
 facet normal -0.820024 -0.571437 -0.0319384
  outer loop
   vertex -13.5328 -32.156 -40.294
   vertex -13.1649 -32.656 -40.794
   vertex -13.1843 -32.656 -40.294
  endloop
 endfacet
 facet normal -0.479948 -0.877098 -0.018693
  outer loop
   vertex -13.1843 -32.656 -40.294
   vertex -13.1649 -32.656 -40.794
   vertex -13.1295 -32.6753 -40.794
  endloop
 endfacet
 facet normal -0.638655 -0.338944 -0.690823
  outer loop
   vertex -13.4302 -32.156 -40.794
   vertex -13.1295 -32.156 -41.072
   vertex -13.1649 -32.656 -40.794
  endloop
 endfacet
 facet normal -0.622079 -0.346414 -0.70215
  outer loop
   vertex -13.1649 -32.656 -40.794
   vertex -13.1295 -32.156 -41.072
   vertex -13.1295 -32.656 -40.8253
  endloop
 endfacet
 facet normal -0.422061 -0.771311 -0.476387
  outer loop
   vertex -13.1649 -32.656 -40.794
   vertex -13.1295 -32.656 -40.8253
   vertex -13.1295 -32.6753 -40.794
  endloop
 endfacet
 facet normal -0.157209 -0.840224 -0.51895
  outer loop
   vertex -13.1295 -32.6753 -40.794
   vertex -13.1295 -32.656 -40.8253
   vertex -12.6295 -32.7689 -40.794
  endloop
 endfacet
 facet normal 0.396673 0.536842 0.744615
  outer loop
   vertex -13.1295 -31.6067 -39.294
   vertex -13.1295 -31.656 -39.2585
   vertex -13.0628 -31.656 -39.294
  endloop
 endfacet
 facet normal 0.463335 0.169876 0.869749
  outer loop
   vertex -13.0628 -31.656 -39.294
   vertex -13.1295 -31.656 -39.2585
   vertex -12.8795 -32.156 -39.294
  endloop
 endfacet
 facet normal 0.456234 0.167273 0.873997
  outer loop
   vertex -13.0628 -31.656 -39.294
   vertex -12.8795 -32.156 -39.294
   vertex -12.6295 -31.656 -39.5202
  endloop
 endfacet
 facet normal 0.522026 0.120947 0.844311
  outer loop
   vertex -12.6295 -31.656 -39.5202
   vertex -12.8795 -32.156 -39.294
   vertex -12.6295 -32.156 -39.4486
  endloop
 endfacet
 facet normal 0.437621 0.127503 0.890073
  outer loop
   vertex -12.6295 -31.656 -39.5202
   vertex -12.6295 -32.156 -39.4486
   vertex -12.1295 -32.156 -39.6944
  endloop
 endfacet
 facet normal 0.378722 0.574634 0.72551
  outer loop
   vertex -13.0628 -31.656 -39.294
   vertex -12.6295 -31.656 -39.5202
   vertex -12.6295 -31.3103 -39.794
  endloop
 endfacet
 facet normal 0.438135 0.558118 0.704657
  outer loop
   vertex -12.6295 -31.3103 -39.794
   vertex -12.6295 -31.656 -39.5202
   vertex -12.1891 -31.656 -39.794
  endloop
 endfacet
 facet normal 0.405554 0.54886 0.730943
  outer loop
   vertex -13.0628 -31.656 -39.294
   vertex -12.6295 -31.3103 -39.794
   vertex -13.1295 -31.6067 -39.294
  endloop
 endfacet
 facet normal 0.0641073 0.828993 0.555572
  outer loop
   vertex -13.1295 -31.6067 -39.294
   vertex -12.6295 -31.3103 -39.794
   vertex -13.1295 -31.2716 -39.794
  endloop
 endfacet
 facet normal -0.0992906 0.889181 -0.446653
  outer loop
   vertex -13.1295 -31.4251 -40.294
   vertex -12.9476 -31.656 -40.794
   vertex -13.1295 -31.656 -40.7536
  endloop
 endfacet
 facet normal -0.152213 0.712731 -0.684723
  outer loop
   vertex -13.1295 -31.656 -40.7536
   vertex -12.9476 -31.656 -40.794
   vertex -13.1295 -31.6948 -40.794
  endloop
 endfacet
 facet normal -0.102806 0.888334 -0.447541
  outer loop
   vertex -12.9476 -31.656 -40.794
   vertex -13.1295 -31.4251 -40.294
   vertex -12.6295 -31.6192 -40.794
  endloop
 endfacet
 facet normal -0.115099 0.881828 -0.45731
  outer loop
   vertex -12.6295 -31.6192 -40.794
   vertex -13.1295 -31.4251 -40.294
   vertex -12.6295 -31.3599 -40.294
  endloop
 endfacet
 facet normal -0.411028 0.681121 -0.605912
  outer loop
   vertex -12.6295 -31.656 -40.8491
   vertex -12.8023 -32.156 -41.294
   vertex -13.1295 -32.156 -41.072
  endloop
 endfacet
 facet normal -0.546772 -0.226661 -0.806018
  outer loop
   vertex -13.1295 -32.156 -41.072
   vertex -12.8023 -32.156 -41.294
   vertex -12.6295 -32.5727 -41.294
  endloop
 endfacet
 facet normal -0.661825 -0.493428 -0.564373
  outer loop
   vertex -13.1295 -32.156 -41.072
   vertex -12.6295 -32.5727 -41.294
   vertex -12.6295 -32.656 -41.2212
  endloop
 endfacet
 facet normal -0.578938 -0.360757 -0.731222
  outer loop
   vertex -13.1295 -32.156 -41.072
   vertex -12.6295 -32.656 -41.2212
   vertex -13.1295 -32.656 -40.8253
  endloop
 endfacet
 facet normal -0.19828 -0.947611 -0.250435
  outer loop
   vertex -13.1295 -32.656 -40.8253
   vertex -12.6295 -32.656 -41.2212
   vertex -12.6295 -32.7689 -40.794
  endloop
 endfacet
 facet normal 0.514349 0.226125 0.827232
  outer loop
   vertex -12.6295 -31.656 -39.5202
   vertex -12.1295 -31.7917 -39.794
   vertex -12.1891 -31.656 -39.794
  endloop
 endfacet
 facet normal 0.91063 0.400343 0.102369
  outer loop
   vertex -12.1891 -31.656 -39.794
   vertex -12.1295 -31.7917 -39.794
   vertex -12.1295 -31.6638 -40.294
  endloop
 endfacet
 facet normal 0.514349 0.226126 0.827232
  outer loop
   vertex -12.6295 -31.656 -39.5202
   vertex -12.1295 -32.156 -39.6944
   vertex -12.1295 -31.7917 -39.794
  endloop
 endfacet
 facet normal 0.694257 0.189777 0.694257
  outer loop
   vertex -12.1295 -31.7917 -39.794
   vertex -12.1295 -32.156 -39.6944
   vertex -12.0299 -32.156 -39.794
  endloop
 endfacet
 facet normal 0.962426 0.263081 0.0672706
  outer loop
   vertex -12.1295 -31.7917 -39.794
   vertex -12.0299 -32.156 -39.794
   vertex -12.1295 -31.6638 -40.294
  endloop
 endfacet
 facet normal 0.952198 0.290052 0.0958576
  outer loop
   vertex -12.1295 -31.6638 -40.294
   vertex -12.0299 -32.156 -39.794
   vertex -11.9796 -32.156 -40.294
  endloop
 endfacet
 facet normal 0.344899 -0.936726 0.0599175
  outer loop
   vertex -12.6295 -32.7908 -39.794
   vertex -12.6295 -32.8228 -40.294
   vertex -12.1765 -32.656 -40.294
  endloop
 endfacet
 facet normal 0.341925 -0.928649 -0.143871
  outer loop
   vertex -12.1765 -32.656 -40.294
   vertex -12.6295 -32.8228 -40.294
   vertex -12.3869 -32.656 -40.794
  endloop
 endfacet
 facet normal 0.870379 -0.329115 -0.366228
  outer loop
   vertex -12.1765 -32.656 -40.294
   vertex -12.3869 -32.656 -40.794
   vertex -12.1978 -32.156 -40.794
  endloop
 endfacet
 facet normal 0.930447 -0.351828 0.102399
  outer loop
   vertex -12.1978 -32.156 -40.794
   vertex -12.3869 -32.656 -40.794
   vertex -12.1428 -32.156 -41.294
  endloop
 endfacet
 facet normal 0.795736 0.599279 0.0875739
  outer loop
   vertex -12.1978 -32.156 -40.794
   vertex -12.1428 -32.156 -41.294
   vertex -12.5744 -31.656 -40.794
  endloop
 endfacet
 facet normal 0.208581 0.77569 -0.59565
  outer loop
   vertex -12.5744 -31.656 -40.794
   vertex -12.1428 -32.156 -41.294
   vertex -12.6295 -32.0251 -41.294
  endloop
 endfacet
 facet normal 0.801793 0.367935 -0.470905
  outer loop
   vertex -12.1336 -31.656 -40.294
   vertex -12.1295 -32.156 -40.6777
   vertex -12.1978 -32.156 -40.794
  endloop
 endfacet
 facet normal 0.791081 -0.397902 -0.464614
  outer loop
   vertex -12.1978 -32.156 -40.794
   vertex -12.1295 -32.156 -40.6777
   vertex -12.1295 -32.604 -40.294
  endloop
 endfacet
 facet normal 0.607128 -0.548776 -0.574665
  outer loop
   vertex -12.1978 -32.156 -40.794
   vertex -12.1295 -32.604 -40.294
   vertex -12.1765 -32.656 -40.294
  endloop
 endfacet
 facet normal 0.653122 0.491875 -0.575752
  outer loop
   vertex -12.1978 -32.156 -40.794
   vertex -12.5744 -31.656 -40.794
   vertex -12.1336 -31.656 -40.294
  endloop
 endfacet
 facet normal 0.237495 0.883221 -0.404371
  outer loop
   vertex -12.6295 -32.0251 -41.294
   vertex -12.1428 -32.156 -41.294
   vertex -12.6295 -32.156 -41.5799
  endloop
 endfacet
 facet normal 0.686579 -0.239207 0.686579
  outer loop
   vertex -12.1295 -32.156 -39.6944
   vertex -12.1295 -32.4419 -39.794
   vertex -12.0299 -32.156 -39.794
  endloop
 endfacet
 facet normal 0.940089 -0.327531 0.0946386
  outer loop
   vertex -12.0299 -32.156 -39.794
   vertex -12.1295 -32.4419 -39.794
   vertex -11.9796 -32.156 -40.294
  endloop
 endfacet
 facet normal -0.865053 0.339021 0.369796
  outer loop
   vertex -5.6295 -31.6361 -39.794
   vertex -5.63732 -31.656 -39.794
   vertex -5.6295 -31.656 -39.7757
  endloop
 endfacet
 facet normal -0.914848 0.100539 0.391082
  outer loop
   vertex -5.6295 -31.656 -39.7757
   vertex -5.63732 -31.656 -39.794
   vertex -5.6295 -32.156 -39.6472
  endloop
 endfacet
 facet normal -0.877845 0.11925 0.463861
  outer loop
   vertex -5.6295 -31.656 -39.7757
   vertex -5.6295 -32.156 -39.6472
   vertex -5.37496 -31.656 -39.294
  endloop
 endfacet
 facet normal -0.671959 -0.167482 0.721402
  outer loop
   vertex -5.37496 -31.656 -39.294
   vertex -5.6295 -32.156 -39.6472
   vertex -5.25033 -32.156 -39.294
  endloop
 endfacet
 facet normal -0.568922 -0.141801 0.810074
  outer loop
   vertex -5.37496 -31.656 -39.294
   vertex -5.25033 -32.156 -39.294
   vertex -5.1295 -32.156 -39.2091
  endloop
 endfacet
 facet normal -0.524587 -0.40851 0.746946
  outer loop
   vertex -5.1295 -32.156 -39.2091
   vertex -5.25033 -32.156 -39.294
   vertex -5.1295 -32.3112 -39.294
  endloop
 endfacet
 facet normal -0.14222 -0.474957 0.868441
  outer loop
   vertex -5.1295 -32.156 -39.2091
   vertex -5.1295 -32.3112 -39.294
   vertex -4.6295 -32.156 -39.1273
  endloop
 endfacet
 facet normal -0.140528 -0.478572 0.86673
  outer loop
   vertex -4.6295 -32.156 -39.1273
   vertex -5.1295 -32.3112 -39.294
   vertex -4.6295 -32.458 -39.294
  endloop
 endfacet
 facet normal 0.414704 -0.439844 0.796591
  outer loop
   vertex -4.6295 -32.156 -39.1273
   vertex -4.6295 -32.458 -39.294
   vertex -4.30921 -32.156 -39.294
  endloop
 endfacet
 facet normal 0.685883 -0.727462 0.0190895
  outer loop
   vertex -4.30921 -32.156 -39.294
   vertex -4.6295 -32.458 -39.294
   vertex -4.29529 -32.156 -39.794
  endloop
 endfacet
 facet normal 0.975154 -0.219858 0.0271405
  outer loop
   vertex -4.30921 -32.156 -39.294
   vertex -4.29529 -32.156 -39.794
   vertex -4.18256 -31.656 -39.794
  endloop
 endfacet
 facet normal 0.950613 -0.214325 -0.224501
  outer loop
   vertex -4.18256 -31.656 -39.794
   vertex -4.29529 -32.156 -39.794
   vertex -4.41337 -32.156 -40.294
  endloop
 endfacet
 facet normal 0.937971 -0.331537 -0.101453
  outer loop
   vertex -4.18256 -31.656 -39.794
   vertex -4.41337 -32.156 -40.294
   vertex -4.23664 -31.656 -40.294
  endloop
 endfacet
 facet normal 0.912765 -0.322628 -0.250542
  outer loop
   vertex -4.23664 -31.656 -40.294
   vertex -4.41337 -32.156 -40.294
   vertex -4.37389 -31.656 -40.794
  endloop
 endfacet
 facet normal 0.894201 0.374379 -0.245446
  outer loop
   vertex -4.23664 -31.656 -40.294
   vertex -4.37389 -31.656 -40.794
   vertex -4.44598 -31.156 -40.294
  endloop
 endfacet
 facet normal 0.971606 0.221983 -0.0818888
  outer loop
   vertex -4.44598 -31.156 -40.294
   vertex -4.37389 -31.656 -40.794
   vertex -4.48812 -31.156 -40.794
  endloop
 endfacet
 facet normal 0.50405 0.862629 -0.0424823
  outer loop
   vertex -4.44598 -31.156 -40.294
   vertex -4.48812 -31.156 -40.794
   vertex -4.6295 -31.0734 -40.794
  endloop
 endfacet
 facet normal 0.501682 0.858576 -0.105652
  outer loop
   vertex -4.6295 -31.0734 -40.794
   vertex -4.48812 -31.156 -40.794
   vertex -4.6295 -31.1349 -41.294
  endloop
 endfacet
 facet normal -0.0887521 0.988597 -0.121651
  outer loop
   vertex -4.6295 -31.0734 -40.794
   vertex -4.6295 -31.1349 -41.294
   vertex -4.86435 -31.156 -41.294
  endloop
 endfacet
 facet normal -0.085426 0.951548 -0.295395
  outer loop
   vertex -4.86435 -31.156 -41.294
   vertex -4.6295 -31.1349 -41.294
   vertex -4.6295 -31.156 -41.3619
  endloop
 endfacet
 facet normal -0.265083 -0.299199 -0.91663
  outer loop
   vertex -4.86435 -31.156 -41.294
   vertex -4.6295 -31.156 -41.3619
   vertex -4.6295 -31.3641 -41.294
  endloop
 endfacet
 facet normal 0.939259 -0.106497 -0.326267
  outer loop
   vertex -4.6295 -31.3641 -41.294
   vertex -4.6295 -31.156 -41.3619
   vertex -4.60591 -31.156 -41.294
  endloop
 endfacet
 facet normal 0.823248 -0.0933435 -0.559955
  outer loop
   vertex -4.6295 -31.3641 -41.294
   vertex -4.60591 -31.156 -41.294
   vertex -4.6295 -31.656 -41.2453
  endloop
 endfacet
 facet normal 0.866712 -0.0886699 -0.490865
  outer loop
   vertex -4.6295 -31.656 -41.2453
   vertex -4.60591 -31.156 -41.294
   vertex -4.37389 -31.656 -40.794
  endloop
 endfacet
 facet normal 0.781507 -0.43971 -0.442608
  outer loop
   vertex -4.6295 -31.656 -41.2453
   vertex -4.37389 -31.656 -40.794
   vertex -4.6295 -32.1103 -40.794
  endloop
 endfacet
 facet normal 0.782508 -0.440273 -0.440273
  outer loop
   vertex -4.6295 -32.1103 -40.794
   vertex -4.37389 -31.656 -40.794
   vertex -4.6295 -32.156 -40.7483
  endloop
 endfacet
 facet normal 0.214037 -0.69072 -0.69072
  outer loop
   vertex -4.6295 -32.1103 -40.794
   vertex -4.6295 -32.156 -40.7483
   vertex -4.77694 -32.156 -40.794
  endloop
 endfacet
 facet normal 0.155428 -0.851034 -0.501581
  outer loop
   vertex -4.77694 -32.156 -40.794
   vertex -4.6295 -32.156 -40.7483
   vertex -4.6295 -32.4238 -40.294
  endloop
 endfacet
 facet normal 0.456754 -0.721151 -0.520882
  outer loop
   vertex -4.77694 -32.156 -40.794
   vertex -4.6295 -32.4238 -40.294
   vertex -4.99617 -32.656 -40.294
  endloop
 endfacet
 facet normal 0.49921 -0.788183 -0.359941
  outer loop
   vertex -4.99617 -32.656 -40.294
   vertex -4.6295 -32.4238 -40.294
   vertex -4.6295 -32.6521 -39.794
  endloop
 endfacet
 facet normal 0.394163 -0.874632 -0.282231
  outer loop
   vertex -4.99617 -32.656 -40.294
   vertex -4.6295 -32.6521 -39.794
   vertex -4.63816 -32.656 -39.794
  endloop
 endfacet
 facet normal 0.285841 -0.634272 0.718327
  outer loop
   vertex -4.63816 -32.656 -39.794
   vertex -4.6295 -32.6521 -39.794
   vertex -5.1295 -32.3112 -39.294
  endloop
 endfacet
 facet normal 0.325557 -0.59804 0.732367
  outer loop
   vertex -4.63816 -32.656 -39.794
   vertex -5.1295 -32.3112 -39.294
   vertex -5.1295 -32.656 -39.5756
  endloop
 endfacet
 facet normal -0.596607 -0.5076 0.621613
  outer loop
   vertex -5.1295 -32.656 -39.5756
   vertex -5.1295 -32.3112 -39.294
   vertex -5.6295 -32.156 -39.6472
  endloop
 endfacet
 facet normal -0.469946 -0.354174 0.808524
  outer loop
   vertex -5.1295 -32.656 -39.5756
   vertex -5.6295 -32.156 -39.6472
   vertex -5.6295 -32.4912 -39.794
  endloop
 endfacet
 facet normal -0.776112 -0.253021 0.577607
  outer loop
   vertex -5.6295 -32.4912 -39.794
   vertex -5.6295 -32.156 -39.6472
   vertex -5.73877 -32.156 -39.794
  endloop
 endfacet
 facet normal -0.950169 -0.309766 -0.0349725
  outer loop
   vertex -5.6295 -32.4912 -39.794
   vertex -5.73877 -32.156 -39.794
   vertex -5.6295 -32.4347 -40.294
  endloop
 endfacet
 facet normal -0.96648 -0.245787 -0.0742011
  outer loop
   vertex -5.6295 -32.4347 -40.294
   vertex -5.73877 -32.156 -39.794
   vertex -5.70038 -32.156 -40.294
  endloop
 endfacet
 facet normal -0.790395 -0.201006 -0.578681
  outer loop
   vertex -5.6295 -32.4347 -40.294
   vertex -5.70038 -32.156 -40.294
   vertex -5.6295 -32.156 -40.3908
  endloop
 endfacet
 facet normal -0.763346 0.323974 -0.558877
  outer loop
   vertex -5.6295 -32.156 -40.3908
   vertex -5.70038 -32.156 -40.294
   vertex -5.6295 -31.989 -40.294
  endloop
 endfacet
 facet normal -0.636547 0.386788 -0.667235
  outer loop
   vertex -5.6295 -32.156 -40.3908
   vertex -5.6295 -31.989 -40.294
   vertex -5.20688 -32.156 -40.794
  endloop
 endfacet
 facet normal -0.684597 0.281089 -0.672544
  outer loop
   vertex -5.20688 -32.156 -40.794
   vertex -5.6295 -31.989 -40.294
   vertex -5.49278 -31.656 -40.294
  endloop
 endfacet
 facet normal -0.917751 -0.162286 -0.362487
  outer loop
   vertex -5.20688 -32.156 -40.794
   vertex -5.49278 -31.656 -40.294
   vertex -5.29529 -31.656 -40.794
  endloop
 endfacet
 facet normal -0.797056 0.515357 -0.314816
  outer loop
   vertex -5.29529 -31.656 -40.794
   vertex -5.49278 -31.656 -40.294
   vertex -5.16949 -31.156 -40.294
  endloop
 endfacet
 facet normal -0.845865 0.468257 -0.255436
  outer loop
   vertex -5.29529 -31.656 -40.794
   vertex -5.16949 -31.156 -40.294
   vertex -5.1295 -31.156 -40.4264
  endloop
 endfacet
 facet normal -0.663571 0.720777 -0.200386
  outer loop
   vertex -5.1295 -31.156 -40.4264
   vertex -5.16949 -31.156 -40.294
   vertex -5.1295 -31.1192 -40.294
  endloop
 endfacet
 facet normal -0.337405 0.906961 -0.252149
  outer loop
   vertex -5.1295 -31.156 -40.4264
   vertex -5.1295 -31.1192 -40.294
   vertex -4.8548 -31.156 -40.794
  endloop
 endfacet
 facet normal -0.333317 0.90905 -0.250057
  outer loop
   vertex -4.8548 -31.156 -40.794
   vertex -5.1295 -31.1192 -40.294
   vertex -4.6295 -31.0734 -40.794
  endloop
 endfacet
 facet normal -0.344246 0.938856 0.00657254
  outer loop
   vertex -4.8548 -31.156 -40.794
   vertex -4.6295 -31.0734 -40.794
   vertex -4.86435 -31.156 -41.294
  endloop
 endfacet
 facet normal -0.791795 0.160661 0.589279
  outer loop
   vertex -5.6295 -32.156 -39.6472
   vertex -5.63732 -31.656 -39.794
   vertex -5.73877 -32.156 -39.794
  endloop
 endfacet
 facet normal -0.977266 0.198295 -0.0750292
  outer loop
   vertex -5.73877 -32.156 -39.794
   vertex -5.63732 -31.656 -39.794
   vertex -5.70038 -32.156 -40.294
  endloop
 endfacet
 facet normal -0.893604 0.35021 -0.280759
  outer loop
   vertex -5.63732 -31.656 -39.794
   vertex -5.6295 -31.6361 -39.794
   vertex -5.6295 -31.656 -39.8189
  endloop
 endfacet
 facet normal -0.908474 0.32609 -0.261422
  outer loop
   vertex -5.6295 -31.656 -39.8189
   vertex -5.6295 -31.6361 -39.794
   vertex -5.49278 -31.656 -40.294
  endloop
 endfacet
 facet normal -0.893931 0.367039 -0.257237
  outer loop
   vertex -5.6295 -31.656 -39.8189
   vertex -5.49278 -31.656 -40.294
   vertex -5.6295 -31.989 -40.294
  endloop
 endfacet
 facet normal -0.887846 0.376813 -0.264087
  outer loop
   vertex -5.6295 -31.989 -40.294
   vertex -5.70038 -32.156 -40.294
   vertex -5.6295 -31.656 -39.8189
  endloop
 endfacet
 facet normal -0.879567 0.387291 -0.276348
  outer loop
   vertex -5.6295 -31.656 -39.8189
   vertex -5.70038 -32.156 -40.294
   vertex -5.63732 -31.656 -39.794
  endloop
 endfacet
 facet normal -0.407637 0.465785 0.785415
  outer loop
   vertex -5.1295 -30.9164 -39.294
   vertex -5.40324 -31.156 -39.294
   vertex -5.1295 -31.156 -39.1519
  endloop
 endfacet
 facet normal -0.460217 0.0438383 0.886724
  outer loop
   vertex -5.1295 -31.156 -39.1519
   vertex -5.40324 -31.156 -39.294
   vertex -5.1295 -31.656 -39.1272
  endloop
 endfacet
 facet normal -0.104281 0.049109 0.993335
  outer loop
   vertex -5.1295 -31.156 -39.1519
   vertex -5.1295 -31.656 -39.1272
   vertex -4.6295 -31.656 -39.0747
  endloop
 endfacet
 facet normal -0.103841 -0.103939 0.989148
  outer loop
   vertex -4.6295 -31.656 -39.0747
   vertex -5.1295 -31.656 -39.1272
   vertex -4.6295 -32.156 -39.1273
  endloop
 endfacet
 facet normal 0.349623 -0.097909 0.93176
  outer loop
   vertex -4.6295 -31.656 -39.0747
   vertex -4.6295 -32.156 -39.1273
   vertex -4.1295 -31.656 -39.2623
  endloop
 endfacet
 facet normal 0.450781 -0.216862 0.865891
  outer loop
   vertex -4.1295 -31.656 -39.2623
   vertex -4.6295 -32.156 -39.1273
   vertex -4.30921 -32.156 -39.294
  endloop
 endfacet
 facet normal 0.570978 -0.254651 0.780472
  outer loop
   vertex -4.1295 -31.656 -39.2623
   vertex -4.30921 -32.156 -39.294
   vertex -4.1295 -31.7531 -39.294
  endloop
 endfacet
 facet normal 0.899463 -0.401153 -0.173326
  outer loop
   vertex -4.1295 -31.7531 -39.294
   vertex -4.30921 -32.156 -39.294
   vertex -4.18256 -31.656 -39.794
  endloop
 endfacet
 facet normal 0.957396 -0.247035 -0.149556
  outer loop
   vertex -4.1295 -31.7531 -39.294
   vertex -4.18256 -31.656 -39.794
   vertex -4.1295 -31.656 -39.4543
  endloop
 endfacet
 facet normal 0.810632 0.5717 -0.12663
  outer loop
   vertex -4.1295 -31.656 -39.4543
   vertex -4.18256 -31.656 -39.794
   vertex -4.45708 -31.156 -39.294
  endloop
 endfacet
 facet normal 0.772237 0.585235 -0.247286
  outer loop
   vertex -4.1295 -31.656 -39.4543
   vertex -4.45708 -31.156 -39.294
   vertex -4.1295 -31.5883 -39.294
  endloop
 endfacet
 facet normal 0.431525 0.327028 0.840737
  outer loop
   vertex -4.1295 -31.5883 -39.294
   vertex -4.45708 -31.156 -39.294
   vertex -4.6295 -31.156 -39.2055
  endloop
 endfacet
 facet normal 0.46584 0.374734 0.801603
  outer loop
   vertex -4.1295 -31.5883 -39.294
   vertex -4.6295 -31.156 -39.2055
   vertex -4.1295 -31.656 -39.2623
  endloop
 endfacet
 facet normal 0.341228 0.237871 0.909385
  outer loop
   vertex -4.1295 -31.656 -39.2623
   vertex -4.6295 -31.156 -39.2055
   vertex -4.6295 -31.656 -39.0747
  endloop
 endfacet
 facet normal -0.56176 -0.031782 0.826689
  outer loop
   vertex -5.1295 -31.656 -39.1272
   vertex -5.40324 -31.156 -39.294
   vertex -5.37496 -31.656 -39.294
  endloop
 endfacet
 facet normal -0.998349 -0.0564824 0.0103969
  outer loop
   vertex -5.37496 -31.656 -39.294
   vertex -5.40324 -31.156 -39.294
   vertex -5.40845 -31.156 -39.794
  endloop
 endfacet
 facet normal -0.818649 0.37774 0.432581
  outer loop
   vertex -5.37496 -31.656 -39.294
   vertex -5.40845 -31.156 -39.794
   vertex -5.6295 -31.656 -39.7757
  endloop
 endfacet
 facet normal -0.826392 0.380523 0.415065
  outer loop
   vertex -5.6295 -31.656 -39.7757
   vertex -5.40845 -31.156 -39.794
   vertex -5.6295 -31.6361 -39.794
  endloop
 endfacet
 facet normal -0.556952 -0.134305 0.819614
  outer loop
   vertex -5.37496 -31.656 -39.294
   vertex -5.1295 -32.156 -39.2091
   vertex -5.1295 -31.656 -39.1272
  endloop
 endfacet
 facet normal -0.15954 -0.159636 0.974199
  outer loop
   vertex -5.1295 -31.656 -39.1272
   vertex -5.1295 -32.156 -39.2091
   vertex -4.6295 -32.156 -39.1273
  endloop
 endfacet
 facet normal -0.658557 0.752499 0.0068583
  outer loop
   vertex -5.40324 -31.156 -39.294
   vertex -5.1295 -30.9164 -39.294
   vertex -5.40845 -31.156 -39.794
  endloop
 endfacet
 facet normal -0.640343 0.768014 -0.0107375
  outer loop
   vertex -5.40845 -31.156 -39.794
   vertex -5.1295 -30.9164 -39.294
   vertex -5.1295 -30.9234 -39.794
  endloop
 endfacet
 facet normal -0.612343 0.734432 -0.292651
  outer loop
   vertex -5.40845 -31.156 -39.794
   vertex -5.1295 -30.9234 -39.794
   vertex -5.16949 -31.156 -40.294
  endloop
 endfacet
 facet normal -0.650847 0.706955 -0.276791
  outer loop
   vertex -5.16949 -31.156 -40.294
   vertex -5.1295 -30.9234 -39.794
   vertex -5.1295 -31.1192 -40.294
  endloop
 endfacet
 facet normal -0.473504 -0.389575 0.789953
  outer loop
   vertex -5.1295 -32.656 -39.5756
   vertex -5.6295 -32.4912 -39.794
   vertex -5.49389 -32.656 -39.794
  endloop
 endfacet
 facet normal -0.770247 -0.63372 -0.0715468
  outer loop
   vertex -5.49389 -32.656 -39.794
   vertex -5.6295 -32.4912 -39.794
   vertex -5.6295 -32.4347 -40.294
  endloop
 endfacet
 facet normal -0.701977 -0.701971 -0.120269
  outer loop
   vertex -5.49389 -32.656 -39.794
   vertex -5.6295 -32.4347 -40.294
   vertex -5.40822 -32.656 -40.294
  endloop
 endfacet
 facet normal -0.30058 -0.300578 -0.905154
  outer loop
   vertex -5.40822 -32.656 -40.294
   vertex -5.6295 -32.4347 -40.294
   vertex -5.1295 -32.656 -40.3866
  endloop
 endfacet
 facet normal -0.197911 -0.778228 -0.59598
  outer loop
   vertex -5.40822 -32.656 -40.294
   vertex -5.1295 -32.656 -40.3866
   vertex -5.1295 -32.7269 -40.294
  endloop
 endfacet
 facet normal 0.388859 -0.731447 -0.560154
  outer loop
   vertex -5.1295 -32.7269 -40.294
   vertex -5.1295 -32.656 -40.3866
   vertex -4.99617 -32.656 -40.294
  endloop
 endfacet
 facet normal 0.466048 -0.87664 -0.119586
  outer loop
   vertex -5.1295 -32.7269 -40.294
   vertex -4.99617 -32.656 -40.294
   vertex -5.1295 -32.7951 -39.794
  endloop
 endfacet
 facet normal 0.267338 -0.944398 -0.191421
  outer loop
   vertex -5.1295 -32.7951 -39.794
   vertex -4.99617 -32.656 -40.294
   vertex -4.63816 -32.656 -39.794
  endloop
 endfacet
 facet normal 0.232245 -0.820429 0.522454
  outer loop
   vertex -5.1295 -32.7951 -39.794
   vertex -4.63816 -32.656 -39.794
   vertex -5.1295 -32.656 -39.5756
  endloop
 endfacet
 facet normal -0.602039 -0.468824 0.646338
  outer loop
   vertex -5.6295 -32.156 -39.6472
   vertex -5.1295 -32.3112 -39.294
   vertex -5.25033 -32.156 -39.294
  endloop
 endfacet
 facet normal -0.306473 -0.802903 0.511294
  outer loop
   vertex -5.1295 -32.656 -39.5756
   vertex -5.49389 -32.656 -39.794
   vertex -5.1295 -32.7951 -39.794
  endloop
 endfacet
 facet normal -0.353749 -0.926757 -0.126422
  outer loop
   vertex -5.1295 -32.7951 -39.794
   vertex -5.49389 -32.656 -39.794
   vertex -5.1295 -32.7269 -40.294
  endloop
 endfacet
 facet normal -0.878011 0.404292 -0.256211
  outer loop
   vertex -5.6295 -31.6361 -39.794
   vertex -5.40845 -31.156 -39.794
   vertex -5.49278 -31.656 -40.294
  endloop
 endfacet
 facet normal -0.779333 0.503898 -0.372459
  outer loop
   vertex -5.49278 -31.656 -40.294
   vertex -5.40845 -31.156 -39.794
   vertex -5.16949 -31.156 -40.294
  endloop
 endfacet
 facet normal -0.246245 -0.968289 -0.0421891
  outer loop
   vertex -5.40822 -32.656 -40.294
   vertex -5.1295 -32.7269 -40.294
   vertex -5.49389 -32.656 -39.794
  endloop
 endfacet
 facet normal -0.866028 0.448953 -0.220083
  outer loop
   vertex -5.29529 -31.656 -40.794
   vertex -5.1295 -31.156 -40.4264
   vertex -5.1295 -31.3362 -40.794
  endloop
 endfacet
 facet normal -0.50751 0.773685 -0.379271
  outer loop
   vertex -5.1295 -31.3362 -40.794
   vertex -5.1295 -31.156 -40.4264
   vertex -4.8548 -31.156 -40.794
  endloop
 endfacet
 facet normal -0.351114 0.535264 -0.768252
  outer loop
   vertex -5.1295 -31.3362 -40.794
   vertex -4.8548 -31.156 -40.794
   vertex -4.6295 -31.656 -41.2453
  endloop
 endfacet
 facet normal -0.905639 -0.423696 0.017291
  outer loop
   vertex -4.6295 -31.656 -41.2453
   vertex -4.8548 -31.156 -40.794
   vertex -4.86435 -31.156 -41.294
  endloop
 endfacet
 facet normal -0.144158 -0.162712 -0.976086
  outer loop
   vertex -4.6295 -31.656 -41.2453
   vertex -4.86435 -31.156 -41.294
   vertex -4.6295 -31.3641 -41.294
  endloop
 endfacet
 facet normal -0.55924 -0.586189 -0.586202
  outer loop
   vertex -5.6295 -32.156 -40.3908
   vertex -5.20688 -32.156 -40.794
   vertex -5.1295 -32.2298 -40.794
  endloop
 endfacet
 facet normal -0.559244 -0.586194 -0.586194
  outer loop
   vertex -5.1295 -32.2298 -40.794
   vertex -5.20688 -32.156 -40.794
   vertex -5.1295 -32.156 -40.8678
  endloop
 endfacet
 facet normal 0.146457 -0.699482 -0.699482
  outer loop
   vertex -5.1295 -32.2298 -40.794
   vertex -5.1295 -32.156 -40.8678
   vertex -4.77694 -32.156 -40.794
  endloop
 endfacet
 facet normal 0.150407 -0.679228 -0.71835
  outer loop
   vertex -4.77694 -32.156 -40.794
   vertex -5.1295 -32.156 -40.8678
   vertex -5.1295 -31.7053 -41.294
  endloop
 endfacet
 facet normal 0.117169 -0.695142 -0.709259
  outer loop
   vertex -4.77694 -32.156 -40.794
   vertex -5.1295 -31.7053 -41.294
   vertex -4.83719 -31.656 -41.294
  endloop
 endfacet
 facet normal 0.153774 -0.912313 -0.379523
  outer loop
   vertex -4.83719 -31.656 -41.294
   vertex -5.1295 -31.7053 -41.294
   vertex -5.1295 -31.656 -41.4124
  endloop
 endfacet
 facet normal 0.354983 0.326186 -0.876122
  outer loop
   vertex -4.83719 -31.656 -41.294
   vertex -5.1295 -31.656 -41.4124
   vertex -5.1295 -31.3379 -41.294
  endloop
 endfacet
 facet normal -0.940803 0.118264 -0.317651
  outer loop
   vertex -5.1295 -31.3379 -41.294
   vertex -5.1295 -31.656 -41.4124
   vertex -5.16949 -31.656 -41.294
  endloop
 endfacet
 facet normal -0.992191 0.124724 -0.000421068
  outer loop
   vertex -5.1295 -31.3379 -41.294
   vertex -5.16949 -31.656 -41.294
   vertex -5.1295 -31.3362 -40.794
  endloop
 endfacet
 facet normal -0.866443 0.449169 -0.217999
  outer loop
   vertex -5.1295 -31.3362 -40.794
   vertex -5.16949 -31.656 -41.294
   vertex -5.29529 -31.656 -40.794
  endloop
 endfacet
 facet normal -0.629502 -0.25495 -0.73398
  outer loop
   vertex -5.6295 -32.156 -40.3908
   vertex -5.1295 -32.2298 -40.794
   vertex -5.6295 -32.4347 -40.294
  endloop
 endfacet
 facet normal -0.402457 -0.632603 -0.661696
  outer loop
   vertex -5.6295 -32.4347 -40.294
   vertex -5.1295 -32.2298 -40.794
   vertex -5.1295 -32.656 -40.3866
  endloop
 endfacet
 facet normal -0.569712 -0.564643 -0.597166
  outer loop
   vertex -5.1295 -32.156 -40.8678
   vertex -5.20688 -32.156 -40.794
   vertex -5.1295 -31.7053 -41.294
  endloop
 endfacet
 facet normal -0.639602 -0.519119 -0.566943
  outer loop
   vertex -5.1295 -31.7053 -41.294
   vertex -5.20688 -32.156 -40.794
   vertex -5.16949 -31.656 -41.294
  endloop
 endfacet
 facet normal -0.751065 -0.609586 -0.253588
  outer loop
   vertex -5.1295 -31.7053 -41.294
   vertex -5.16949 -31.656 -41.294
   vertex -5.1295 -31.656 -41.4124
  endloop
 endfacet
 facet normal -0.955824 -0.169019 -0.240487
  outer loop
   vertex -5.16949 -31.656 -41.294
   vertex -5.20688 -32.156 -40.794
   vertex -5.29529 -31.656 -40.794
  endloop
 endfacet
 facet normal 0.0794834 0.665937 0.741762
  outer loop
   vertex -4.6295 -31.0574 -39.294
   vertex -5.1295 -31.156 -39.1519
   vertex -4.6295 -31.156 -39.2055
  endloop
 endfacet
 facet normal 0.103114 0.251711 0.962294
  outer loop
   vertex -4.6295 -31.156 -39.2055
   vertex -5.1295 -31.156 -39.1519
   vertex -4.6295 -31.656 -39.0747
  endloop
 endfacet
 facet normal 0.142375 0.504893 0.851359
  outer loop
   vertex -5.1295 -31.156 -39.1519
   vertex -4.6295 -31.0574 -39.294
   vertex -5.1295 -30.9164 -39.294
  endloop
 endfacet
 facet normal 0.271381 0.962378 -0.0134549
  outer loop
   vertex -5.1295 -30.9164 -39.294
   vertex -4.6295 -31.0574 -39.294
   vertex -5.1295 -30.9234 -39.794
  endloop
 endfacet
 facet normal 0.110072 0.982057 0.153128
  outer loop
   vertex -5.1295 -30.9234 -39.794
   vertex -4.6295 -31.0574 -39.294
   vertex -4.6295 -30.9795 -39.794
  endloop
 endfacet
 facet normal 0.491838 0.860291 0.134142
  outer loop
   vertex -4.6295 -30.9795 -39.794
   vertex -4.6295 -31.0574 -39.294
   vertex -4.45708 -31.156 -39.294
  endloop
 endfacet
 facet normal 0.611863 0.788099 0.0672633
  outer loop
   vertex -4.6295 -30.9795 -39.794
   vertex -4.45708 -31.156 -39.294
   vertex -4.40212 -31.156 -39.794
  endloop
 endfacet
 facet normal 0.911012 0.400034 0.100149
  outer loop
   vertex -4.40212 -31.156 -39.794
   vertex -4.45708 -31.156 -39.294
   vertex -4.18256 -31.656 -39.794
  endloop
 endfacet
 facet normal 0.911158 0.400098 -0.0985526
  outer loop
   vertex -4.40212 -31.156 -39.794
   vertex -4.18256 -31.656 -39.794
   vertex -4.23664 -31.656 -40.294
  endloop
 endfacet
 facet normal -0.264023 -0.899136 0.349064
  outer loop
   vertex -5.1295 -32.3112 -39.294
   vertex -4.6295 -32.6521 -39.794
   vertex -4.6295 -32.458 -39.294
  endloop
 endfacet
 facet normal 0.81051 -0.546022 0.211977
  outer loop
   vertex -4.6295 -32.458 -39.294
   vertex -4.6295 -32.6521 -39.794
   vertex -4.29529 -32.156 -39.794
  endloop
 endfacet
 facet normal 0.103805 0.926142 -0.362608
  outer loop
   vertex -5.1295 -30.9234 -39.794
   vertex -4.6295 -30.9795 -39.794
   vertex -5.1295 -31.1192 -40.294
  endloop
 endfacet
 facet normal -0.177729 0.97939 -0.0959537
  outer loop
   vertex -5.1295 -31.1192 -40.294
   vertex -4.6295 -30.9795 -39.794
   vertex -4.6295 -31.0284 -40.294
  endloop
 endfacet
 facet normal -0.177859 0.980105 -0.08809
  outer loop
   vertex -5.1295 -31.1192 -40.294
   vertex -4.6295 -31.0284 -40.294
   vertex -4.6295 -31.0734 -40.794
  endloop
 endfacet
 facet normal 0.569164 0.818923 -0.0736032
  outer loop
   vertex -4.6295 -31.0734 -40.794
   vertex -4.6295 -31.0284 -40.294
   vertex -4.44598 -31.156 -40.294
  endloop
 endfacet
 facet normal 0.153168 -0.731535 -0.664377
  outer loop
   vertex -4.77694 -32.156 -40.794
   vertex -4.99617 -32.656 -40.294
   vertex -5.1295 -32.2298 -40.794
  endloop
 endfacet
 facet normal 0.448486 -0.617643 -0.646047
  outer loop
   vertex -5.1295 -32.2298 -40.794
   vertex -4.99617 -32.656 -40.294
   vertex -5.1295 -32.656 -40.3866
  endloop
 endfacet
 facet normal 0.223284 0.205171 -0.952916
  outer loop
   vertex -4.83719 -31.656 -41.294
   vertex -5.1295 -31.3379 -41.294
   vertex -4.6295 -31.656 -41.2453
  endloop
 endfacet
 facet normal 0.536998 0.843579 -0.00284793
  outer loop
   vertex -4.6295 -31.656 -41.2453
   vertex -5.1295 -31.3379 -41.294
   vertex -5.1295 -31.3362 -40.794
  endloop
 endfacet
 facet normal 0.16398 -0.69524 -0.699823
  outer loop
   vertex -4.6295 -31.656 -41.2453
   vertex -4.6295 -32.1103 -40.794
   vertex -4.83719 -31.656 -41.294
  endloop
 endfacet
 facet normal 0.210256 -0.678518 -0.703851
  outer loop
   vertex -4.83719 -31.656 -41.294
   vertex -4.6295 -32.1103 -40.794
   vertex -4.77694 -32.156 -40.794
  endloop
 endfacet
 facet normal 0.356794 0.624081 0.695141
  outer loop
   vertex -4.6295 -31.156 -39.2055
   vertex -4.45708 -31.156 -39.294
   vertex -4.6295 -31.0574 -39.294
  endloop
 endfacet
 facet normal 0.569998 0.820123 -0.050004
  outer loop
   vertex -4.6295 -31.0284 -40.294
   vertex -4.40212 -31.156 -39.794
   vertex -4.44598 -31.156 -40.294
  endloop
 endfacet
 facet normal 0.919413 0.384935 -0.0806569
  outer loop
   vertex -4.44598 -31.156 -40.294
   vertex -4.40212 -31.156 -39.794
   vertex -4.23664 -31.656 -40.294
  endloop
 endfacet
 facet normal 0.611424 0.787533 -0.0771568
  outer loop
   vertex -4.6295 -30.9795 -39.794
   vertex -4.40212 -31.156 -39.794
   vertex -4.6295 -31.0284 -40.294
  endloop
 endfacet
 facet normal 0.747981 -0.603744 -0.275713
  outer loop
   vertex -4.6295 -32.6521 -39.794
   vertex -4.6295 -32.4238 -40.294
   vertex -4.41337 -32.156 -40.294
  endloop
 endfacet
 facet normal 0.729746 -0.589025 -0.347159
  outer loop
   vertex -4.41337 -32.156 -40.294
   vertex -4.6295 -32.4238 -40.294
   vertex -4.6295 -32.156 -40.7483
  endloop
 endfacet
 facet normal 0.807395 -0.447863 -0.384098
  outer loop
   vertex -4.41337 -32.156 -40.294
   vertex -4.6295 -32.156 -40.7483
   vertex -4.37389 -31.656 -40.794
  endloop
 endfacet
 facet normal 0.813893 -0.548301 -0.192212
  outer loop
   vertex -4.29529 -32.156 -39.794
   vertex -4.6295 -32.6521 -39.794
   vertex -4.41337 -32.156 -40.294
  endloop
 endfacet
 facet normal 0.658298 0.73661 -0.15508
  outer loop
   vertex -4.6295 -31.1349 -41.294
   vertex -4.48812 -31.156 -40.794
   vertex -4.60591 -31.156 -41.294
  endloop
 endfacet
 facet normal 0.950145 0.21708 -0.223832
  outer loop
   vertex -4.60591 -31.156 -41.294
   vertex -4.48812 -31.156 -40.794
   vertex -4.37389 -31.656 -40.794
  endloop
 endfacet
 facet normal 0.649195 0.726424 -0.225508
  outer loop
   vertex -4.6295 -31.1349 -41.294
   vertex -4.60591 -31.156 -41.294
   vertex -4.6295 -31.156 -41.3619
  endloop
 endfacet
 facet normal 0.596443 0.339918 0.727126
  outer loop
   vertex -4.1295 -31.5883 -39.294
   vertex -4.1295 -31.656 -39.2623
   vertex -4.09089 -31.656 -39.294
  endloop
 endfacet
 facet normal 0.614941 -0.244604 0.749677
  outer loop
   vertex -4.09089 -31.656 -39.294
   vertex -4.1295 -31.656 -39.2623
   vertex -4.1295 -31.7531 -39.294
  endloop
 endfacet
 facet normal 0.906768 -0.360683 -0.218359
  outer loop
   vertex -4.09089 -31.656 -39.294
   vertex -4.1295 -31.7531 -39.294
   vertex -4.1295 -31.656 -39.4543
  endloop
 endfacet
 facet normal 0.850399 0.484649 -0.204784
  outer loop
   vertex -4.1295 -31.5883 -39.294
   vertex -4.09089 -31.656 -39.294
   vertex -4.1295 -31.656 -39.4543
  endloop
 endfacet
endsolid
