solid ascii
 facet normal -0.90513 0.386549 0.176975
  outer loop
   vertex -13.1295 -35.036 -19.794
   vertex -13.1808 -35.156 -19.794
   vertex -13.1295 -35.156 -19.5318
  endloop
 endfacet
 facet normal -0.957451 -0.219643 0.187205
  outer loop
   vertex -13.1295 -35.156 -19.5318
   vertex -13.1808 -35.156 -19.794
   vertex -13.1295 -35.3795 -19.794
  endloop
 endfacet
 facet normal -0.951895 -0.23321 0.198768
  outer loop
   vertex -13.1295 -35.156 -19.5318
   vertex -13.1295 -35.3795 -19.794
   vertex -13.0798 -35.156 -19.294
  endloop
 endfacet
 facet normal -0.942206 -0.260905 0.210184
  outer loop
   vertex -13.0798 -35.156 -19.294
   vertex -13.1295 -35.3795 -19.794
   vertex -13.0529 -35.656 -19.794
  endloop
 endfacet
 facet normal -0.928386 -0.286572 0.236594
  outer loop
   vertex -13.0798 -35.156 -19.294
   vertex -13.0529 -35.656 -19.794
   vertex -12.9255 -35.656 -19.294
  endloop
 endfacet
 facet normal -0.666434 -0.725962 0.169837
  outer loop
   vertex -12.9255 -35.656 -19.294
   vertex -13.0529 -35.656 -19.794
   vertex -12.6295 -36.0447 -19.794
  endloop
 endfacet
 facet normal -0.662466 -0.728555 0.174201
  outer loop
   vertex -12.9255 -35.656 -19.294
   vertex -12.6295 -36.0447 -19.794
   vertex -12.6295 -35.9251 -19.294
  endloop
 endfacet
 facet normal -0.218102 -0.94917 0.226952
  outer loop
   vertex -12.6295 -35.9251 -19.294
   vertex -12.6295 -36.0447 -19.794
   vertex -12.1295 -36.04 -19.294
  endloop
 endfacet
 facet normal -0.213939 -0.931053 0.295585
  outer loop
   vertex -12.6295 -35.9251 -19.294
   vertex -12.1295 -36.04 -19.294
   vertex -12.1295 -35.8813 -18.794
  endloop
 endfacet
 facet normal 0.206798 -0.932517 0.29605
  outer loop
   vertex -12.1295 -35.8813 -18.794
   vertex -12.1295 -36.04 -19.294
   vertex -11.6295 -35.7704 -18.794
  endloop
 endfacet
 facet normal 0.146871 -0.662285 0.734716
  outer loop
   vertex -12.1295 -35.8813 -18.794
   vertex -11.6295 -35.7704 -18.794
   vertex -11.6295 -35.656 -18.6909
  endloop
 endfacet
 facet normal 0.366662 -0.622915 0.69104
  outer loop
   vertex -11.6295 -35.656 -18.6909
   vertex -11.6295 -35.7704 -18.794
   vertex -11.4351 -35.656 -18.794
  endloop
 endfacet
 facet normal 0.434422 -0.375411 0.818746
  outer loop
   vertex -11.6295 -35.656 -18.6909
   vertex -11.4351 -35.656 -18.794
   vertex -11.1295 -35.156 -18.7269
  endloop
 endfacet
 facet normal 0.447766 -0.382173 0.808362
  outer loop
   vertex -11.1295 -35.156 -18.7269
   vertex -11.4351 -35.656 -18.794
   vertex -11.1295 -35.2979 -18.794
  endloop
 endfacet
 facet normal 0.683994 -0.311794 0.659498
  outer loop
   vertex -11.1295 -35.156 -18.7269
   vertex -11.1295 -35.2979 -18.794
   vertex -11.0648 -35.156 -18.794
  endloop
 endfacet
 facet normal 0.89917 -0.40988 0.153271
  outer loop
   vertex -11.0648 -35.156 -18.794
   vertex -11.1295 -35.2979 -18.794
   vertex -10.9796 -35.156 -19.294
  endloop
 endfacet
 facet normal 0.969276 0.182227 0.165221
  outer loop
   vertex -11.0648 -35.156 -18.794
   vertex -10.9796 -35.156 -19.294
   vertex -11.0736 -34.656 -19.294
  endloop
 endfacet
 facet normal 0.919984 0.17296 -0.351731
  outer loop
   vertex -11.0736 -34.656 -19.294
   vertex -10.9796 -35.156 -19.294
   vertex -11.1295 -35.156 -19.6862
  endloop
 endfacet
 facet normal 0.876703 0.232303 -0.421221
  outer loop
   vertex -11.0736 -34.656 -19.294
   vertex -11.1295 -35.156 -19.6862
   vertex -11.1295 -34.656 -19.4104
  endloop
 endfacet
 facet normal 0.854719 0.250683 -0.454548
  outer loop
   vertex -11.1295 -34.656 -19.4104
   vertex -11.1295 -35.156 -19.6862
   vertex -11.3335 -34.656 -19.794
  endloop
 endfacet
 facet normal 0.633432 0.696624 -0.336866
  outer loop
   vertex -11.1295 -34.656 -19.4104
   vertex -11.3335 -34.656 -19.794
   vertex -11.6295 -34.3868 -19.794
  endloop
 endfacet
 facet normal 0.666319 0.732792 -0.137963
  outer loop
   vertex -11.6295 -34.3868 -19.794
   vertex -11.3335 -34.656 -19.794
   vertex -11.6295 -34.481 -20.294
  endloop
 endfacet
 facet normal 0.454368 0.875434 -0.164818
  outer loop
   vertex -11.6295 -34.3868 -19.794
   vertex -11.6295 -34.481 -20.294
   vertex -12.1295 -34.2215 -20.294
  endloop
 endfacet
 facet normal 0.419043 0.807374 -0.415391
  outer loop
   vertex -12.1295 -34.2215 -20.294
   vertex -11.6295 -34.481 -20.294
   vertex -12.1295 -34.4787 -20.794
  endloop
 endfacet
 facet normal -0.259434 0.858766 -0.441831
  outer loop
   vertex -12.1295 -34.2215 -20.294
   vertex -12.1295 -34.4787 -20.794
   vertex -12.6295 -34.6298 -20.794
  endloop
 endfacet
 facet normal -0.183318 0.606809 -0.773419
  outer loop
   vertex -12.6295 -34.6298 -20.794
   vertex -12.1295 -34.4787 -20.794
   vertex -12.1295 -34.656 -20.9331
  endloop
 endfacet
 facet normal -0.192662 0.568521 -0.799791
  outer loop
   vertex -12.6295 -34.6298 -20.794
   vertex -12.1295 -34.656 -20.9331
   vertex -12.6295 -34.656 -20.8126
  endloop
 endfacet
 facet normal -0.229528 0.198567 -0.952832
  outer loop
   vertex -12.6295 -34.656 -20.8126
   vertex -12.1295 -34.656 -20.9331
   vertex -12.1295 -35.156 -21.0373
  endloop
 endfacet
 facet normal -0.248238 0.179453 -0.951932
  outer loop
   vertex -12.6295 -34.656 -20.8126
   vertex -12.1295 -35.156 -21.0373
   vertex -12.6295 -35.156 -20.9069
  endloop
 endfacet
 facet normal -0.238833 -0.322718 -0.915867
  outer loop
   vertex -12.6295 -35.156 -20.9069
   vertex -12.1295 -35.156 -21.0373
   vertex -12.1295 -35.656 -20.8611
  endloop
 endfacet
 facet normal -0.265701 -0.348044 -0.899037
  outer loop
   vertex -12.6295 -35.156 -20.9069
   vertex -12.1295 -35.656 -20.8611
   vertex -12.3566 -35.656 -20.794
  endloop
 endfacet
 facet normal -0.200949 -0.705196 -0.67994
  outer loop
   vertex -12.3566 -35.656 -20.794
   vertex -12.1295 -35.656 -20.8611
   vertex -12.1295 -35.7207 -20.794
  endloop
 endfacet
 facet normal -0.23822 -0.835992 -0.494336
  outer loop
   vertex -12.3566 -35.656 -20.794
   vertex -12.1295 -35.7207 -20.794
   vertex -12.6295 -35.656 -20.6625
  endloop
 endfacet
 facet normal -0.239154 -0.832622 -0.499546
  outer loop
   vertex -12.6295 -35.656 -20.6625
   vertex -12.1295 -35.7207 -20.794
   vertex -12.6295 -35.8771 -20.294
  endloop
 endfacet
 facet normal -0.650953 -0.650948 -0.390547
  outer loop
   vertex -12.6295 -35.656 -20.6625
   vertex -12.6295 -35.8771 -20.294
   vertex -12.8506 -35.656 -20.294
  endloop
 endfacet
 facet normal -0.67982 -0.679814 -0.275131
  outer loop
   vertex -12.8506 -35.656 -20.294
   vertex -12.6295 -35.8771 -20.294
   vertex -13.0529 -35.656 -19.794
  endloop
 endfacet
 facet normal -0.887346 -0.289224 -0.359119
  outer loop
   vertex -12.8506 -35.656 -20.294
   vertex -13.0529 -35.656 -19.794
   vertex -13.0135 -35.156 -20.294
  endloop
 endfacet
 facet normal -0.925152 -0.229496 -0.302368
  outer loop
   vertex -13.0135 -35.156 -20.294
   vertex -13.0529 -35.656 -19.794
   vertex -13.1295 -35.156 -19.9392
  endloop
 endfacet
 facet normal -0.889772 0.351764 -0.290805
  outer loop
   vertex -13.0135 -35.156 -20.294
   vertex -13.1295 -35.156 -19.9392
   vertex -13.1295 -35.036 -19.794
  endloop
 endfacet
 facet normal -0.874695 0.373551 -0.308816
  outer loop
   vertex -13.1295 -35.036 -19.794
   vertex -13.1295 -35.156 -19.9392
   vertex -13.1808 -35.156 -19.794
  endloop
 endfacet
 facet normal -0.92164 -0.211427 -0.32539
  outer loop
   vertex -13.1808 -35.156 -19.794
   vertex -13.1295 -35.156 -19.9392
   vertex -13.1295 -35.3795 -19.794
  endloop
 endfacet
 facet normal -0.891473 -0.246857 -0.379917
  outer loop
   vertex -13.1295 -35.3795 -19.794
   vertex -13.1295 -35.156 -19.9392
   vertex -13.0529 -35.656 -19.794
  endloop
 endfacet
 facet normal -0.600769 0.346209 0.720566
  outer loop
   vertex -12.6295 -35.0396 -18.794
   vertex -12.6966 -35.156 -18.794
   vertex -12.6295 -35.156 -18.7381
  endloop
 endfacet
 facet normal -0.636039 -0.11612 0.76287
  outer loop
   vertex -12.6295 -35.156 -18.7381
   vertex -12.6966 -35.156 -18.794
   vertex -12.6295 -35.5234 -18.794
  endloop
 endfacet
 facet normal -0.346672 -0.141149 0.927306
  outer loop
   vertex -12.6295 -35.156 -18.7381
   vertex -12.6295 -35.5234 -18.794
   vertex -12.1295 -35.656 -18.6273
  endloop
 endfacet
 facet normal -0.344179 -0.128223 0.930108
  outer loop
   vertex -12.1295 -35.656 -18.6273
   vertex -12.6295 -35.5234 -18.794
   vertex -12.5801 -35.656 -18.794
  endloop
 endfacet
 facet normal -0.285098 -0.570199 0.770449
  outer loop
   vertex -12.1295 -35.656 -18.6273
   vertex -12.5801 -35.656 -18.794
   vertex -12.1295 -35.8813 -18.794
  endloop
 endfacet
 facet normal -0.395855 -0.791714 0.465282
  outer loop
   vertex -12.1295 -35.8813 -18.794
   vertex -12.5801 -35.656 -18.794
   vertex -12.6295 -35.9251 -19.294
  endloop
 endfacet
 facet normal -0.669203 0.522005 0.528846
  outer loop
   vertex -12.6295 -34.3959 -19.294
   vertex -12.8324 -34.656 -19.294
   vertex -12.6295 -34.656 -19.0373
  endloop
 endfacet
 facet normal -0.73017 0.365915 0.577025
  outer loop
   vertex -12.6295 -34.656 -19.0373
   vertex -12.8324 -34.656 -19.294
   vertex -12.6295 -35.0396 -18.794
  endloop
 endfacet
 facet normal -0.52276 0.456536 0.719928
  outer loop
   vertex -12.6295 -34.656 -19.0373
   vertex -12.6295 -35.0396 -18.794
   vertex -12.2945 -34.656 -18.794
  endloop
 endfacet
 facet normal -0.444268 0.387988 0.807521
  outer loop
   vertex -12.2945 -34.656 -18.794
   vertex -12.6295 -35.0396 -18.794
   vertex -12.6295 -35.156 -18.7381
  endloop
 endfacet
 facet normal -0.42378 0.376103 0.823989
  outer loop
   vertex -12.2945 -34.656 -18.794
   vertex -12.6295 -35.156 -18.7381
   vertex -12.1295 -34.656 -18.7091
  endloop
 endfacet
 facet normal -0.314879 0.262097 0.912226
  outer loop
   vertex -12.1295 -34.656 -18.7091
   vertex -12.6295 -35.156 -18.7381
   vertex -12.1295 -35.156 -18.5655
  endloop
 endfacet
 facet normal -0.0283809 0.276032 0.960729
  outer loop
   vertex -12.1295 -34.656 -18.7091
   vertex -12.1295 -35.156 -18.5655
   vertex -11.6295 -35.156 -18.5507
  endloop
 endfacet
 facet normal -0.0284333 -0.269779 0.962503
  outer loop
   vertex -11.6295 -35.156 -18.5507
   vertex -12.1295 -35.156 -18.5655
   vertex -11.6295 -35.656 -18.6909
  endloop
 endfacet
 facet normal 0.321298 -0.255578 0.911837
  outer loop
   vertex -11.6295 -35.156 -18.5507
   vertex -11.6295 -35.656 -18.6909
   vertex -11.1295 -35.156 -18.7269
  endloop
 endfacet
 facet normal -0.698253 0.402387 0.592054
  outer loop
   vertex -12.6295 -35.0396 -18.794
   vertex -12.8324 -34.656 -19.294
   vertex -12.6966 -35.156 -18.794
  endloop
 endfacet
 facet normal -0.738724 0.365586 0.566246
  outer loop
   vertex -12.6966 -35.156 -18.794
   vertex -12.8324 -34.656 -19.294
   vertex -13.0798 -35.156 -19.294
  endloop
 endfacet
 facet normal -0.770867 -0.237949 0.590884
  outer loop
   vertex -12.6966 -35.156 -18.794
   vertex -13.0798 -35.156 -19.294
   vertex -12.9255 -35.656 -19.294
  endloop
 endfacet
 facet normal -0.813982 -0.148606 0.56156
  outer loop
   vertex -12.6966 -35.156 -18.794
   vertex -12.6295 -35.656 -18.8291
   vertex -12.6295 -35.5234 -18.794
  endloop
 endfacet
 facet normal -0.566077 -0.21089 0.796921
  outer loop
   vertex -12.6295 -35.5234 -18.794
   vertex -12.6295 -35.656 -18.8291
   vertex -12.5801 -35.656 -18.794
  endloop
 endfacet
 facet normal -0.834105 -0.149166 0.531054
  outer loop
   vertex -12.6966 -35.156 -18.794
   vertex -12.9255 -35.656 -19.294
   vertex -12.6295 -35.656 -18.8291
  endloop
 endfacet
 facet normal -0.618413 -0.680106 0.393728
  outer loop
   vertex -12.6295 -35.656 -18.8291
   vertex -12.9255 -35.656 -19.294
   vertex -12.6295 -35.9251 -19.294
  endloop
 endfacet
 facet normal -0.335289 -0.815341 0.472018
  outer loop
   vertex -12.6295 -35.656 -18.8291
   vertex -12.6295 -35.9251 -19.294
   vertex -12.5801 -35.656 -18.794
  endloop
 endfacet
 facet normal -0.774635 0.604246 0.186621
  outer loop
   vertex -12.6295 -34.3959 -19.294
   vertex -12.9529 -34.656 -19.794
   vertex -12.8324 -34.656 -19.294
  endloop
 endfacet
 facet normal -0.876063 0.433553 0.211057
  outer loop
   vertex -12.8324 -34.656 -19.294
   vertex -12.9529 -34.656 -19.794
   vertex -13.0798 -35.156 -19.294
  endloop
 endfacet
 facet normal -0.718547 0.687165 0.107212
  outer loop
   vertex -12.6295 -34.3959 -19.294
   vertex -12.6295 -34.3179 -19.794
   vertex -12.9529 -34.656 -19.794
  endloop
 endfacet
 facet normal -0.722435 0.690884 0.027702
  outer loop
   vertex -12.9529 -34.656 -19.794
   vertex -12.6295 -34.3179 -19.794
   vertex -12.972 -34.656 -20.294
  endloop
 endfacet
 facet normal -0.995844 0.0826818 0.038186
  outer loop
   vertex -12.9529 -34.656 -19.794
   vertex -12.972 -34.656 -20.294
   vertex -13.0135 -35.156 -20.294
  endloop
 endfacet
 facet normal -0.883154 0.0733255 -0.463317
  outer loop
   vertex -13.0135 -35.156 -20.294
   vertex -12.972 -34.656 -20.294
   vertex -12.7512 -35.156 -20.794
  endloop
 endfacet
 facet normal -0.850806 -0.277314 -0.446347
  outer loop
   vertex -13.0135 -35.156 -20.294
   vertex -12.7512 -35.156 -20.794
   vertex -12.8506 -35.656 -20.294
  endloop
 endfacet
 facet normal -0.812059 -0.324021 -0.485356
  outer loop
   vertex -12.8506 -35.656 -20.294
   vertex -12.7512 -35.156 -20.794
   vertex -12.6295 -35.4611 -20.794
  endloop
 endfacet
 facet normal -0.81008 -0.327962 -0.486017
  outer loop
   vertex -12.8506 -35.656 -20.294
   vertex -12.6295 -35.4611 -20.794
   vertex -12.6295 -35.656 -20.6625
  endloop
 endfacet
 facet normal -0.370958 -0.519446 -0.769783
  outer loop
   vertex -12.6295 -35.656 -20.6625
   vertex -12.6295 -35.4611 -20.794
   vertex -12.3566 -35.656 -20.794
  endloop
 endfacet
 facet normal -0.890363 0.413931 0.189512
  outer loop
   vertex -13.1295 -35.036 -19.794
   vertex -13.1295 -35.156 -19.5318
   vertex -12.9529 -34.656 -19.794
  endloop
 endfacet
 facet normal -0.891659 0.412647 0.18619
  outer loop
   vertex -12.9529 -34.656 -19.794
   vertex -13.1295 -35.156 -19.5318
   vertex -13.0798 -35.156 -19.294
  endloop
 endfacet
 facet normal -0.740595 0.669743 0.0544391
  outer loop
   vertex -12.6295 -34.3179 -19.794
   vertex -12.6295 -34.2772 -20.294
   vertex -12.972 -34.656 -20.294
  endloop
 endfacet
 facet normal -0.670448 0.606307 -0.427658
  outer loop
   vertex -12.972 -34.656 -20.294
   vertex -12.6295 -34.2772 -20.294
   vertex -12.6531 -34.656 -20.794
  endloop
 endfacet
 facet normal -0.831775 0.16326 -0.530563
  outer loop
   vertex -12.972 -34.656 -20.294
   vertex -12.6531 -34.656 -20.794
   vertex -12.7512 -35.156 -20.794
  endloop
 endfacet
 facet normal -0.615471 0.120804 -0.778847
  outer loop
   vertex -12.7512 -35.156 -20.794
   vertex -12.6531 -34.656 -20.794
   vertex -12.6295 -34.656 -20.8126
  endloop
 endfacet
 facet normal -0.673607 0.136918 -0.726297
  outer loop
   vertex -12.7512 -35.156 -20.794
   vertex -12.6295 -34.656 -20.8126
   vertex -12.6295 -35.156 -20.9069
  endloop
 endfacet
 facet normal -0.865762 0.402494 -0.297415
  outer loop
   vertex -13.1295 -35.036 -19.794
   vertex -12.9529 -34.656 -19.794
   vertex -13.0135 -35.156 -20.294
  endloop
 endfacet
 facet normal -0.656531 -0.715175 -0.239774
  outer loop
   vertex -13.0529 -35.656 -19.794
   vertex -12.6295 -35.8771 -20.294
   vertex -12.6295 -36.0447 -19.794
  endloop
 endfacet
 facet normal -0.0488341 -0.947001 -0.317497
  outer loop
   vertex -12.6295 -36.0447 -19.794
   vertex -12.6295 -35.8771 -20.294
   vertex -12.1295 -36.0705 -19.794
  endloop
 endfacet
 facet normal -0.0514037 -0.996832 0.0606973
  outer loop
   vertex -12.6295 -36.0447 -19.794
   vertex -12.1295 -36.0705 -19.794
   vertex -12.1295 -36.04 -19.294
  endloop
 endfacet
 facet normal 0.310125 -0.948938 0.057781
  outer loop
   vertex -12.1295 -36.04 -19.294
   vertex -12.1295 -36.0705 -19.794
   vertex -11.6295 -35.8766 -19.294
  endloop
 endfacet
 facet normal 0.304499 -0.931723 0.197921
  outer loop
   vertex -12.1295 -36.04 -19.294
   vertex -11.6295 -35.8766 -19.294
   vertex -11.6295 -35.7704 -18.794
  endloop
 endfacet
 facet normal 0.583181 -0.794612 0.168796
  outer loop
   vertex -11.6295 -35.7704 -18.794
   vertex -11.6295 -35.8766 -19.294
   vertex -11.3289 -35.656 -19.294
  endloop
 endfacet
 facet normal 0.504347 -0.856826 0.107159
  outer loop
   vertex -11.6295 -35.7704 -18.794
   vertex -11.3289 -35.656 -19.294
   vertex -11.4351 -35.656 -18.794
  endloop
 endfacet
 facet normal 0.750877 -0.640882 0.15954
  outer loop
   vertex -11.4351 -35.656 -18.794
   vertex -11.3289 -35.656 -19.294
   vertex -11.1295 -35.2979 -18.794
  endloop
 endfacet
 facet normal -0.67246 0.604896 -0.426495
  outer loop
   vertex -12.6295 -34.2772 -20.294
   vertex -12.6295 -34.6298 -20.794
   vertex -12.6531 -34.656 -20.794
  endloop
 endfacet
 facet normal -0.54149 0.487085 -0.685228
  outer loop
   vertex -12.6531 -34.656 -20.794
   vertex -12.6295 -34.6298 -20.794
   vertex -12.6295 -34.656 -20.8126
  endloop
 endfacet
 facet normal -0.656282 -0.261865 -0.707616
  outer loop
   vertex -12.7512 -35.156 -20.794
   vertex -12.6295 -35.156 -20.9069
   vertex -12.6295 -35.4611 -20.794
  endloop
 endfacet
 facet normal -0.240573 -0.33687 -0.910298
  outer loop
   vertex -12.6295 -35.4611 -20.794
   vertex -12.6295 -35.156 -20.9069
   vertex -12.3566 -35.656 -20.794
  endloop
 endfacet
 facet normal -0.387925 0.529702 0.754274
  outer loop
   vertex -12.2945 -34.656 -18.794
   vertex -12.1295 -34.656 -18.7091
   vertex -12.1295 -34.5352 -18.794
  endloop
 endfacet
 facet normal -0.0647394 0.573501 0.816643
  outer loop
   vertex -12.1295 -34.5352 -18.794
   vertex -12.1295 -34.656 -18.7091
   vertex -11.6295 -34.4787 -18.794
  endloop
 endfacet
 facet normal -0.0898433 0.795887 0.598743
  outer loop
   vertex -12.1295 -34.5352 -18.794
   vertex -11.6295 -34.4787 -18.794
   vertex -12.1295 -34.159 -19.294
  endloop
 endfacet
 facet normal 0.147439 0.893607 0.423944
  outer loop
   vertex -12.1295 -34.159 -19.294
   vertex -11.6295 -34.4787 -18.794
   vertex -11.6295 -34.2415 -19.294
  endloop
 endfacet
 facet normal 0.16206 0.982219 -0.0947733
  outer loop
   vertex -12.1295 -34.159 -19.294
   vertex -11.6295 -34.2415 -19.294
   vertex -12.1295 -34.2073 -19.794
  endloop
 endfacet
 facet normal 0.326053 0.90778 -0.263866
  outer loop
   vertex -12.1295 -34.2073 -19.794
   vertex -11.6295 -34.2415 -19.294
   vertex -11.6295 -34.3868 -19.794
  endloop
 endfacet
 facet normal 0.337912 0.940797 -0.0267442
  outer loop
   vertex -12.1295 -34.2073 -19.794
   vertex -11.6295 -34.3868 -19.794
   vertex -12.1295 -34.2215 -20.294
  endloop
 endfacet
 facet normal -0.324083 -0.115993 0.938891
  outer loop
   vertex -12.6295 -35.156 -18.7381
   vertex -12.1295 -35.656 -18.6273
   vertex -12.1295 -35.156 -18.5655
  endloop
 endfacet
 facet normal 0.125251 -0.121645 0.984639
  outer loop
   vertex -12.1295 -35.156 -18.5655
   vertex -12.1295 -35.656 -18.6273
   vertex -11.6295 -35.656 -18.6909
  endloop
 endfacet
 facet normal -0.458296 0.625791 0.63115
  outer loop
   vertex -12.2945 -34.656 -18.794
   vertex -12.1295 -34.5352 -18.794
   vertex -12.6295 -34.656 -19.0373
  endloop
 endfacet
 facet normal -0.458564 0.624275 0.632456
  outer loop
   vertex -12.6295 -34.656 -19.0373
   vertex -12.1295 -34.5352 -18.794
   vertex -12.6295 -34.3959 -19.294
  endloop
 endfacet
 facet normal -0.354057 0.747354 0.562232
  outer loop
   vertex -12.1295 -34.5352 -18.794
   vertex -12.1295 -34.159 -19.294
   vertex -12.6295 -34.3959 -19.294
  endloop
 endfacet
 facet normal -0.42394 0.894864 0.139618
  outer loop
   vertex -12.6295 -34.3959 -19.294
   vertex -12.1295 -34.159 -19.294
   vertex -12.6295 -34.3179 -19.794
  endloop
 endfacet
 facet normal -0.215062 0.972086 -0.0937955
  outer loop
   vertex -12.1295 -34.159 -19.294
   vertex -12.1295 -34.2073 -19.794
   vertex -12.6295 -34.3179 -19.794
  endloop
 endfacet
 facet normal -0.215337 0.97333 0.0791157
  outer loop
   vertex -12.6295 -34.3179 -19.794
   vertex -12.1295 -34.2073 -19.794
   vertex -12.6295 -34.2772 -20.294
  endloop
 endfacet
 facet normal -0.110795 0.993442 -0.0282407
  outer loop
   vertex -12.1295 -34.2073 -19.794
   vertex -12.1295 -34.2215 -20.294
   vertex -12.6295 -34.2772 -20.294
  endloop
 endfacet
 facet normal -0.0907721 0.813906 -0.573861
  outer loop
   vertex -12.6295 -34.2772 -20.294
   vertex -12.1295 -34.2215 -20.294
   vertex -12.6295 -34.6298 -20.794
  endloop
 endfacet
 facet normal -0.103274 -0.958054 -0.267333
  outer loop
   vertex -12.1295 -36.0705 -19.794
   vertex -12.6295 -35.8771 -20.294
   vertex -12.1295 -35.931 -20.294
  endloop
 endfacet
 facet normal -0.0988799 -0.917289 -0.38575
  outer loop
   vertex -12.1295 -35.931 -20.294
   vertex -12.6295 -35.8771 -20.294
   vertex -12.1295 -35.7207 -20.794
  endloop
 endfacet
 facet normal 0.43757 -0.828874 -0.348568
  outer loop
   vertex -12.1295 -35.931 -20.294
   vertex -12.1295 -35.7207 -20.794
   vertex -11.6295 -35.667 -20.294
  endloop
 endfacet
 facet normal 0.201483 -0.974695 -0.0968243
  outer loop
   vertex -11.6295 -35.667 -20.294
   vertex -12.1295 -35.7207 -20.794
   vertex -11.8165 -35.656 -20.794
  endloop
 endfacet
 facet normal 0.219925 -0.969998 -0.103618
  outer loop
   vertex -11.6295 -35.667 -20.294
   vertex -11.8165 -35.656 -20.794
   vertex -11.6295 -35.656 -20.3971
  endloop
 endfacet
 facet normal 0.405391 -0.893967 -0.191001
  outer loop
   vertex -11.6295 -35.656 -20.3971
   vertex -11.8165 -35.656 -20.794
   vertex -11.6295 -35.5712 -20.794
  endloop
 endfacet
 facet normal 0.834148 -0.539368 -0.115239
  outer loop
   vertex -11.6295 -35.656 -20.3971
   vertex -11.6295 -35.5712 -20.794
   vertex -11.361 -35.156 -20.794
  endloop
 endfacet
 facet normal 0.509682 -0.329565 -0.794739
  outer loop
   vertex -11.361 -35.156 -20.794
   vertex -11.6295 -35.5712 -20.794
   vertex -11.6295 -35.156 -20.9662
  endloop
 endfacet
 facet normal 0.513914 0.30619 -0.801337
  outer loop
   vertex -11.361 -35.156 -20.794
   vertex -11.6295 -35.156 -20.9662
   vertex -11.6295 -34.7054 -20.794
  endloop
 endfacet
 facet normal 0.294919 0.341055 -0.892583
  outer loop
   vertex -11.6295 -34.7054 -20.794
   vertex -11.6295 -35.156 -20.9662
   vertex -11.6866 -34.656 -20.794
  endloop
 endfacet
 facet normal 0.531166 0.614258 -0.583566
  outer loop
   vertex -11.6295 -34.7054 -20.794
   vertex -11.6866 -34.656 -20.794
   vertex -11.6295 -34.656 -20.742
  endloop
 endfacet
 facet normal 0.344046 0.859511 -0.377986
  outer loop
   vertex -11.6295 -34.656 -20.742
   vertex -11.6866 -34.656 -20.794
   vertex -12.1295 -34.4787 -20.794
  endloop
 endfacet
 facet normal 0.345427 0.874115 -0.341472
  outer loop
   vertex -11.6295 -34.656 -20.742
   vertex -12.1295 -34.4787 -20.794
   vertex -11.6295 -34.481 -20.294
  endloop
 endfacet
 facet normal -0.0850217 0.615035 0.783903
  outer loop
   vertex -11.6295 -34.4787 -18.794
   vertex -12.1295 -34.656 -18.7091
   vertex -11.6295 -34.656 -18.6549
  endloop
 endfacet
 facet normal -0.105585 0.202874 0.973496
  outer loop
   vertex -11.6295 -34.656 -18.6549
   vertex -12.1295 -34.656 -18.7091
   vertex -11.6295 -35.156 -18.5507
  endloop
 endfacet
 facet normal 0.326096 0.192862 0.925454
  outer loop
   vertex -11.6295 -34.656 -18.6549
   vertex -11.6295 -35.156 -18.5507
   vertex -11.1295 -35.156 -18.7269
  endloop
 endfacet
 facet normal 0.101718 -0.591803 0.799639
  outer loop
   vertex -11.6295 -35.656 -18.6909
   vertex -12.1295 -35.656 -18.6273
   vertex -12.1295 -35.8813 -18.794
  endloop
 endfacet
 facet normal 0.50236 -0.846973 -0.173986
  outer loop
   vertex -11.6295 -35.8766 -19.294
   vertex -12.1295 -36.0705 -19.794
   vertex -11.6295 -35.7739 -19.794
  endloop
 endfacet
 facet normal 0.496055 -0.836342 -0.233371
  outer loop
   vertex -11.6295 -35.7739 -19.794
   vertex -12.1295 -36.0705 -19.794
   vertex -12.1295 -35.931 -20.294
  endloop
 endfacet
 facet normal 0.45872 -0.868939 -0.185798
  outer loop
   vertex -11.6295 -35.7739 -19.794
   vertex -12.1295 -35.931 -20.294
   vertex -11.6295 -35.667 -20.294
  endloop
 endfacet
 facet normal 0.239868 0.599249 -0.763783
  outer loop
   vertex -12.1295 -34.4787 -20.794
   vertex -11.6866 -34.656 -20.794
   vertex -12.1295 -34.656 -20.9331
  endloop
 endfacet
 facet normal 0.281664 0.341016 -0.896869
  outer loop
   vertex -12.1295 -34.656 -20.9331
   vertex -11.6866 -34.656 -20.794
   vertex -11.6295 -35.156 -20.9662
  endloop
 endfacet
 facet normal 0.137898 0.202065 -0.969615
  outer loop
   vertex -12.1295 -34.656 -20.9331
   vertex -11.6295 -35.156 -20.9662
   vertex -12.1295 -35.156 -21.0373
  endloop
 endfacet
 facet normal 0.132945 -0.329386 -0.934789
  outer loop
   vertex -12.1295 -35.156 -21.0373
   vertex -11.6295 -35.156 -20.9662
   vertex -12.1295 -35.656 -20.8611
  endloop
 endfacet
 facet normal 0.190281 -0.419607 -0.887537
  outer loop
   vertex -11.6295 -35.5712 -20.794
   vertex -11.8165 -35.656 -20.794
   vertex -12.1295 -35.656 -20.8611
  endloop
 endfacet
 facet normal 0.147189 -0.712039 -0.686539
  outer loop
   vertex -12.1295 -35.656 -20.8611
   vertex -11.8165 -35.656 -20.794
   vertex -12.1295 -35.7207 -20.794
  endloop
 endfacet
 facet normal 0.185654 -0.376395 -0.907667
  outer loop
   vertex -11.6295 -35.5712 -20.794
   vertex -12.1295 -35.656 -20.8611
   vertex -11.6295 -35.156 -20.9662
  endloop
 endfacet
 facet normal 0.287619 0.591187 0.753507
  outer loop
   vertex -11.6295 -34.4787 -18.794
   vertex -11.6295 -34.656 -18.6549
   vertex -11.2651 -34.656 -18.794
  endloop
 endfacet
 facet normal 0.3496 0.197305 0.915888
  outer loop
   vertex -11.2651 -34.656 -18.794
   vertex -11.6295 -34.656 -18.6549
   vertex -11.1295 -34.8963 -18.794
  endloop
 endfacet
 facet normal 0.790262 0.446003 0.4202
  outer loop
   vertex -11.2651 -34.656 -18.794
   vertex -11.1295 -34.8963 -18.794
   vertex -11.1295 -34.656 -19.049
  endloop
 endfacet
 facet normal 0.946111 0.235708 0.222072
  outer loop
   vertex -11.1295 -34.656 -19.049
   vertex -11.1295 -34.8963 -18.794
   vertex -11.0648 -35.156 -18.794
  endloop
 endfacet
 facet normal 0.948055 0.2331 0.216465
  outer loop
   vertex -11.1295 -34.656 -19.049
   vertex -11.0648 -35.156 -18.794
   vertex -11.0736 -34.656 -19.294
  endloop
 endfacet
 facet normal 0.362989 0.233108 0.902164
  outer loop
   vertex -11.6295 -34.656 -18.6549
   vertex -11.1295 -35.156 -18.7269
   vertex -11.1295 -34.8963 -18.794
  endloop
 endfacet
 facet normal 0.708575 0.17653 0.683198
  outer loop
   vertex -11.1295 -34.8963 -18.794
   vertex -11.1295 -35.156 -18.7269
   vertex -11.0648 -35.156 -18.794
  endloop
 endfacet
 facet normal 0.444864 0.863796 0.236544
  outer loop
   vertex -11.2651 -34.656 -18.794
   vertex -11.1295 -34.656 -19.049
   vertex -11.1295 -34.5889 -19.294
  endloop
 endfacet
 facet normal 0.756507 0.630763 0.17273
  outer loop
   vertex -11.1295 -34.5889 -19.294
   vertex -11.1295 -34.656 -19.049
   vertex -11.0736 -34.656 -19.294
  endloop
 endfacet
 facet normal 0.720556 0.600788 -0.346199
  outer loop
   vertex -11.1295 -34.5889 -19.294
   vertex -11.0736 -34.656 -19.294
   vertex -11.1295 -34.656 -19.4104
  endloop
 endfacet
 facet normal 0.425471 0.874536 0.232725
  outer loop
   vertex -11.2651 -34.656 -18.794
   vertex -11.1295 -34.5889 -19.294
   vertex -11.6295 -34.4787 -18.794
  endloop
 endfacet
 facet normal 0.531675 0.765202 0.363026
  outer loop
   vertex -11.6295 -34.4787 -18.794
   vertex -11.1295 -34.5889 -19.294
   vertex -11.6295 -34.2415 -19.294
  endloop
 endfacet
 facet normal 0.764159 -0.628442 0.145335
  outer loop
   vertex -11.3289 -35.656 -19.294
   vertex -11.1295 -35.4136 -19.294
   vertex -11.1295 -35.2979 -18.794
  endloop
 endfacet
 facet normal 0.858453 -0.499704 0.115563
  outer loop
   vertex -11.1295 -35.2979 -18.794
   vertex -11.1295 -35.4136 -19.294
   vertex -10.9796 -35.156 -19.294
  endloop
 endfacet
 facet normal 0.647403 0.660356 -0.380524
  outer loop
   vertex -11.1295 -34.656 -19.4104
   vertex -11.6295 -34.3868 -19.794
   vertex -11.1295 -34.5889 -19.294
  endloop
 endfacet
 facet normal 0.555008 0.798784 -0.232184
  outer loop
   vertex -11.1295 -34.5889 -19.294
   vertex -11.6295 -34.3868 -19.794
   vertex -11.6295 -34.2415 -19.294
  endloop
 endfacet
 facet normal 0.874598 0.269969 -0.402735
  outer loop
   vertex -11.3335 -34.656 -19.794
   vertex -11.1295 -35.156 -19.6862
   vertex -11.1792 -35.156 -19.794
  endloop
 endfacet
 facet normal 0.76616 -0.53715 -0.352802
  outer loop
   vertex -11.1792 -35.156 -19.794
   vertex -11.1295 -35.156 -19.6862
   vertex -11.1295 -35.4136 -19.294
  endloop
 endfacet
 facet normal 0.716145 -0.588956 -0.374521
  outer loop
   vertex -11.1792 -35.156 -19.794
   vertex -11.1295 -35.4136 -19.294
   vertex -11.3289 -35.656 -19.294
  endloop
 endfacet
 facet normal 0.807452 -0.520132 -0.278358
  outer loop
   vertex -11.1792 -35.156 -19.794
   vertex -11.3289 -35.656 -19.294
   vertex -11.5012 -35.656 -19.794
  endloop
 endfacet
 facet normal 0.579734 -0.789915 -0.199855
  outer loop
   vertex -11.5012 -35.656 -19.794
   vertex -11.3289 -35.656 -19.294
   vertex -11.6295 -35.8766 -19.294
  endloop
 endfacet
 facet normal 0.669223 -0.727863 -0.149519
  outer loop
   vertex -11.5012 -35.656 -19.794
   vertex -11.6295 -35.8766 -19.294
   vertex -11.6295 -35.7739 -19.794
  endloop
 endfacet
 facet normal 0.701292 0.691536 -0.173108
  outer loop
   vertex -11.6295 -34.481 -20.294
   vertex -11.3335 -34.656 -19.794
   vertex -11.4569 -34.656 -20.294
  endloop
 endfacet
 facet normal 0.925117 0.303334 -0.228357
  outer loop
   vertex -11.4569 -34.656 -20.294
   vertex -11.3335 -34.656 -19.794
   vertex -11.293 -35.156 -20.294
  endloop
 endfacet
 facet normal 0.942376 0.308993 -0.12826
  outer loop
   vertex -11.4569 -34.656 -20.294
   vertex -11.293 -35.156 -20.294
   vertex -11.361 -35.156 -20.794
  endloop
 endfacet
 facet normal 0.835181 -0.5381 -0.11367
  outer loop
   vertex -11.361 -35.156 -20.794
   vertex -11.293 -35.156 -20.294
   vertex -11.6151 -35.656 -20.294
  endloop
 endfacet
 facet normal 0.833653 -0.539913 -0.11626
  outer loop
   vertex -11.361 -35.156 -20.794
   vertex -11.6151 -35.656 -20.294
   vertex -11.6295 -35.656 -20.3971
  endloop
 endfacet
 facet normal 0.605916 -0.791028 -0.0845
  outer loop
   vertex -11.6295 -35.656 -20.3971
   vertex -11.6151 -35.656 -20.294
   vertex -11.6295 -35.667 -20.294
  endloop
 endfacet
 facet normal 0.933683 0.288207 -0.212537
  outer loop
   vertex -11.3335 -34.656 -19.794
   vertex -11.1792 -35.156 -19.794
   vertex -11.293 -35.156 -20.294
  endloop
 endfacet
 facet normal 0.825649 -0.531958 -0.187945
  outer loop
   vertex -11.293 -35.156 -20.294
   vertex -11.1792 -35.156 -19.794
   vertex -11.6151 -35.656 -20.294
  endloop
 endfacet
 facet normal 0.825679 -0.531874 -0.188055
  outer loop
   vertex -11.1792 -35.156 -19.794
   vertex -11.5012 -35.656 -19.794
   vertex -11.6151 -35.656 -20.294
  endloop
 endfacet
 facet normal 0.66893 -0.727545 -0.152354
  outer loop
   vertex -11.6151 -35.656 -20.294
   vertex -11.5012 -35.656 -19.794
   vertex -11.6295 -35.7739 -19.794
  endloop
 endfacet
 facet normal 0.599515 -0.782672 -0.167352
  outer loop
   vertex -11.6151 -35.656 -20.294
   vertex -11.6295 -35.7739 -19.794
   vertex -11.6295 -35.667 -20.294
  endloop
 endfacet
 facet normal 0.68668 0.677127 -0.264519
  outer loop
   vertex -11.6295 -34.481 -20.294
   vertex -11.4569 -34.656 -20.294
   vertex -11.6295 -34.656 -20.742
  endloop
 endfacet
 facet normal 0.872772 0.353887 -0.336204
  outer loop
   vertex -11.6295 -34.656 -20.742
   vertex -11.4569 -34.656 -20.294
   vertex -11.6295 -34.7054 -20.794
  endloop
 endfacet
 facet normal 0.811586 0.483543 -0.327894
  outer loop
   vertex -11.6295 -34.7054 -20.794
   vertex -11.4569 -34.656 -20.294
   vertex -11.361 -35.156 -20.794
  endloop
 endfacet
 facet normal 0.820607 -0.477674 -0.313738
  outer loop
   vertex -11.1295 -35.4136 -19.294
   vertex -11.1295 -35.156 -19.6862
   vertex -10.9796 -35.156 -19.294
  endloop
 endfacet
 facet normal -0.54149 0.487085 0.685228
  outer loop
   vertex -8.1295 -35.1298 -18.794
   vertex -8.15309 -35.156 -18.794
   vertex -8.1295 -35.156 -18.7754
  endloop
 endfacet
 facet normal -0.613339 0.146316 0.776149
  outer loop
   vertex -8.1295 -35.156 -18.7754
   vertex -8.15309 -35.156 -18.794
   vertex -8.1295 -35.656 -18.6811
  endloop
 endfacet
 facet normal -0.260175 0.178872 0.948849
  outer loop
   vertex -8.1295 -35.156 -18.7754
   vertex -8.1295 -35.656 -18.6811
   vertex -7.6295 -35.656 -18.544
  endloop
 endfacet
 facet normal -0.253968 -0.278616 0.926214
  outer loop
   vertex -7.6295 -35.656 -18.544
   vertex -8.1295 -35.656 -18.6811
   vertex -7.6295 -36.156 -18.6944
  endloop
 endfacet
 facet normal 0 -0.288061 0.957612
  outer loop
   vertex -7.6295 -35.656 -18.544
   vertex -7.6295 -36.156 -18.6944
   vertex -7.1295 -36.156 -18.6944
  endloop
 endfacet
 facet normal 0 -0.707107 0.707107
  outer loop
   vertex -7.1295 -36.156 -18.6944
   vertex -7.6295 -36.156 -18.6944
   vertex -7.6295 -36.2556 -18.794
  endloop
 endfacet
 facet normal 0 -0.707107 0.707107
  outer loop
   vertex -7.1295 -36.156 -18.6944
   vertex -7.6295 -36.2556 -18.794
   vertex -7.1295 -36.2556 -18.794
  endloop
 endfacet
 facet normal 0 -0.991089 0.133202
  outer loop
   vertex -7.1295 -36.2556 -18.794
   vertex -7.6295 -36.2556 -18.794
   vertex -7.6295 -36.3228 -19.294
  endloop
 endfacet
 facet normal -0.0757374 -0.97544 0.206836
  outer loop
   vertex -7.1295 -36.2556 -18.794
   vertex -7.6295 -36.3228 -19.294
   vertex -7.1295 -36.3616 -19.294
  endloop
 endfacet
 facet normal -0.0649733 -0.836806 -0.543631
  outer loop
   vertex -7.1295 -36.3616 -19.294
   vertex -7.6295 -36.3228 -19.294
   vertex -7.6295 -36.156 -19.5507
  endloop
 endfacet
 facet normal -0.15971 -0.898616 -0.408635
  outer loop
   vertex -7.1295 -36.3616 -19.294
   vertex -7.6295 -36.156 -19.5507
   vertex -7.1295 -36.156 -19.7462
  endloop
 endfacet
 facet normal -0.207381 -0.821859 -0.530604
  outer loop
   vertex -7.1295 -36.156 -19.7462
   vertex -7.6295 -36.156 -19.5507
   vertex -7.1295 -36.1251 -19.794
  endloop
 endfacet
 facet normal 0.265971 -0.809863 -0.522859
  outer loop
   vertex -7.1295 -36.156 -19.7462
   vertex -7.1295 -36.1251 -19.794
   vertex -6.6295 -35.9609 -19.794
  endloop
 endfacet
 facet normal 0.267158 -0.813476 -0.516608
  outer loop
   vertex -6.6295 -35.9609 -19.794
   vertex -7.1295 -36.1251 -19.794
   vertex -7.1295 -35.8076 -20.294
  endloop
 endfacet
 facet normal 0.391635 -0.693788 -0.604384
  outer loop
   vertex -6.6295 -35.9609 -19.794
   vertex -7.1295 -35.8076 -20.294
   vertex -6.86097 -35.656 -20.294
  endloop
 endfacet
 facet normal 0.450923 -0.798817 -0.398196
  outer loop
   vertex -6.86097 -35.656 -20.294
   vertex -7.1295 -35.8076 -20.294
   vertex -7.1295 -35.656 -20.5981
  endloop
 endfacet
 facet normal 0.633099 -0.535375 -0.55907
  outer loop
   vertex -6.86097 -35.656 -20.294
   vertex -7.1295 -35.656 -20.5981
   vertex -7.1295 -35.4514 -20.794
  endloop
 endfacet
 facet normal -0.463022 -0.613029 -0.640161
  outer loop
   vertex -7.1295 -35.4514 -20.794
   vertex -7.1295 -35.656 -20.5981
   vertex -7.54993 -35.656 -20.294
  endloop
 endfacet
 facet normal -0.324427 -0.748091 -0.578884
  outer loop
   vertex -7.1295 -35.4514 -20.794
   vertex -7.54993 -35.656 -20.294
   vertex -7.6295 -35.6215 -20.294
  endloop
 endfacet
 facet normal -0.346988 -0.800112 -0.489306
  outer loop
   vertex -7.6295 -35.6215 -20.294
   vertex -7.54993 -35.656 -20.294
   vertex -7.6295 -35.656 -20.2376
  endloop
 endfacet
 facet normal -0.731645 -0.581558 -0.35565
  outer loop
   vertex -7.6295 -35.6215 -20.294
   vertex -7.6295 -35.656 -20.2376
   vertex -8.1295 -35.2982 -19.794
  endloop
 endfacet
 facet normal -0.75087 -0.449903 -0.48351
  outer loop
   vertex -8.1295 -35.2982 -19.794
   vertex -7.6295 -35.656 -20.2376
   vertex -7.91513 -35.656 -19.794
  endloop
 endfacet
 facet normal -0.643862 -0.385787 -0.660765
  outer loop
   vertex -8.1295 -35.2982 -19.794
   vertex -7.91513 -35.656 -19.794
   vertex -8.1295 -35.656 -19.5851
  endloop
 endfacet
 facet normal -0.563908 -0.589153 -0.578711
  outer loop
   vertex -8.1295 -35.656 -19.5851
   vertex -7.91513 -35.656 -19.794
   vertex -7.6295 -35.9294 -19.794
  endloop
 endfacet
 facet normal -0.550588 -0.491319 -0.674876
  outer loop
   vertex -8.1295 -35.656 -19.5851
   vertex -7.6295 -35.9294 -19.794
   vertex -8.1295 -36.0559 -19.294
  endloop
 endfacet
 facet normal -0.444725 -0.65536 -0.61051
  outer loop
   vertex -8.1295 -36.0559 -19.294
   vertex -7.6295 -35.9294 -19.794
   vertex -7.6295 -36.156 -19.5507
  endloop
 endfacet
 facet normal -0.467776 -0.5382 -0.70109
  outer loop
   vertex -8.1295 -36.0559 -19.294
   vertex -7.6295 -36.156 -19.5507
   vertex -8.0143 -36.156 -19.294
  endloop
 endfacet
 facet normal -0.341617 -0.788128 -0.512007
  outer loop
   vertex -8.0143 -36.156 -19.294
   vertex -7.6295 -36.156 -19.5507
   vertex -7.6295 -36.3228 -19.294
  endloop
 endfacet
 facet normal -0.396474 -0.914687 0.0784596
  outer loop
   vertex -8.0143 -36.156 -19.294
   vertex -7.6295 -36.3228 -19.294
   vertex -7.91536 -36.156 -18.794
  endloop
 endfacet
 facet normal -0.326392 -0.936811 0.125907
  outer loop
   vertex -7.91536 -36.156 -18.794
   vertex -7.6295 -36.3228 -19.294
   vertex -7.6295 -36.2556 -18.794
  endloop
 endfacet
 facet normal -0.239209 -0.686578 0.686578
  outer loop
   vertex -7.91536 -36.156 -18.794
   vertex -7.6295 -36.2556 -18.794
   vertex -7.6295 -36.156 -18.6944
  endloop
 endfacet
 facet normal -0.674034 0.132299 0.726757
  outer loop
   vertex -8.1295 -35.656 -18.6811
   vertex -8.15309 -35.156 -18.794
   vertex -8.25123 -35.656 -18.794
  endloop
 endfacet
 facet normal -0.964859 0.189382 0.182161
  outer loop
   vertex -8.25123 -35.656 -18.794
   vertex -8.15309 -35.156 -18.794
   vertex -8.34563 -35.656 -19.294
  endloop
 endfacet
 facet normal -0.867837 -0.469056 0.163843
  outer loop
   vertex -8.25123 -35.656 -18.794
   vertex -8.34563 -35.656 -19.294
   vertex -8.1295 -36.0559 -19.294
  endloop
 endfacet
 facet normal -0.736548 -0.398096 -0.546825
  outer loop
   vertex -8.1295 -36.0559 -19.294
   vertex -8.34563 -35.656 -19.294
   vertex -8.1295 -35.656 -19.5851
  endloop
 endfacet
 facet normal -0.656282 -0.261865 0.707616
  outer loop
   vertex -8.1295 -35.656 -18.6811
   vertex -8.25123 -35.656 -18.794
   vertex -8.1295 -35.9611 -18.794
  endloop
 endfacet
 facet normal -0.926509 -0.369688 0.0700894
  outer loop
   vertex -8.1295 -35.9611 -18.794
   vertex -8.25123 -35.656 -18.794
   vertex -8.1295 -36.0559 -19.294
  endloop
 endfacet
 facet normal -0.666611 -0.73236 0.138848
  outer loop
   vertex -8.1295 -35.9611 -18.794
   vertex -8.1295 -36.0559 -19.294
   vertex -7.91536 -36.156 -18.794
  endloop
 endfacet
 facet normal -0.650541 -0.74848 0.128738
  outer loop
   vertex -7.91536 -36.156 -18.794
   vertex -8.1295 -36.0559 -19.294
   vertex -8.0143 -36.156 -19.294
  endloop
 endfacet
 facet normal -0.690733 0.621333 0.369911
  outer loop
   vertex -8.1295 -35.1298 -18.794
   vertex -8.42086 -35.156 -19.294
   vertex -8.15309 -35.156 -18.794
  endloop
 endfacet
 facet normal -0.873893 -0.131485 0.467999
  outer loop
   vertex -8.15309 -35.156 -18.794
   vertex -8.42086 -35.156 -19.294
   vertex -8.34563 -35.656 -19.294
  endloop
 endfacet
 facet normal -0.753252 0.512673 0.412041
  outer loop
   vertex -8.1295 -35.1298 -18.794
   vertex -8.1295 -34.7279 -19.294
   vertex -8.42086 -35.156 -19.294
  endloop
 endfacet
 facet normal -0.778 0.529517 -0.338125
  outer loop
   vertex -8.42086 -35.156 -19.294
   vertex -8.1295 -34.7279 -19.294
   vertex -8.20356 -35.156 -19.794
  endloop
 endfacet
 facet normal -0.90852 -0.136695 -0.39485
  outer loop
   vertex -8.42086 -35.156 -19.294
   vertex -8.20356 -35.156 -19.794
   vertex -8.34563 -35.656 -19.294
  endloop
 endfacet
 facet normal -0.721906 -0.375877 -0.581006
  outer loop
   vertex -8.34563 -35.656 -19.294
   vertex -8.20356 -35.156 -19.794
   vertex -8.1295 -35.2982 -19.794
  endloop
 endfacet
 facet normal -0.758301 -0.328692 -0.562975
  outer loop
   vertex -8.34563 -35.656 -19.294
   vertex -8.1295 -35.2982 -19.794
   vertex -8.1295 -35.656 -19.5851
  endloop
 endfacet
 facet normal -0.986607 0.162985 0.00658174
  outer loop
   vertex -8.1295 -34.7279 -19.294
   vertex -8.1295 -34.7077 -19.794
   vertex -8.20356 -35.156 -19.794
  endloop
 endfacet
 facet normal -0.936754 0.15475 -0.313918
  outer loop
   vertex -8.20356 -35.156 -19.794
   vertex -8.1295 -34.7077 -19.794
   vertex -8.1295 -35.156 -20.015
  endloop
 endfacet
 facet normal -0.85021 -0.442681 -0.284916
  outer loop
   vertex -8.20356 -35.156 -19.794
   vertex -8.1295 -35.156 -20.015
   vertex -8.1295 -35.2982 -19.794
  endloop
 endfacet
 facet normal -0.735282 -0.569922 -0.36681
  outer loop
   vertex -8.1295 -35.2982 -19.794
   vertex -8.1295 -35.156 -20.015
   vertex -7.6295 -35.6215 -20.294
  endloop
 endfacet
 facet normal -0.94535 0.275764 0.173975
  outer loop
   vertex -8.1295 -34.3651 -20.294
   vertex -8.21436 -34.656 -20.294
   vertex -8.1295 -34.656 -19.8329
  endloop
 endfacet
 facet normal -0.936437 -0.305591 0.172335
  outer loop
   vertex -8.1295 -34.656 -19.8329
   vertex -8.21436 -34.656 -20.294
   vertex -8.1295 -34.916 -20.294
  endloop
 endfacet
 facet normal -0.89998 -0.379714 0.214136
  outer loop
   vertex -8.1295 -34.656 -19.8329
   vertex -8.1295 -34.916 -20.294
   vertex -8.12025 -34.656 -19.794
  endloop
 endfacet
 facet normal -0.918132 -0.344361 0.196086
  outer loop
   vertex -8.12025 -34.656 -19.794
   vertex -8.1295 -34.916 -20.294
   vertex -8.0395 -35.156 -20.294
  endloop
 endfacet
 facet normal -0.940725 0.151519 -0.303443
  outer loop
   vertex -8.12025 -34.656 -19.794
   vertex -8.0395 -35.156 -20.294
   vertex -8.1295 -35.156 -20.015
  endloop
 endfacet
 facet normal -0.729358 -0.642408 -0.235264
  outer loop
   vertex -8.1295 -35.156 -20.015
   vertex -8.0395 -35.156 -20.294
   vertex -7.6295 -35.6215 -20.294
  endloop
 endfacet
 facet normal -0.941501 0.274642 -0.195315
  outer loop
   vertex -8.21436 -34.656 -20.294
   vertex -8.1295 -34.3651 -20.294
   vertex -8.1295 -34.656 -20.7031
  endloop
 endfacet
 facet normal -0.852211 0.426374 -0.303221
  outer loop
   vertex -8.1295 -34.656 -20.7031
   vertex -8.1295 -34.3651 -20.294
   vertex -8.02489 -34.156 -20.294
  endloop
 endfacet
 facet normal -0.616497 0.571807 -0.541266
  outer loop
   vertex -8.1295 -34.656 -20.7031
   vertex -8.02489 -34.156 -20.294
   vertex -7.6295 -34.156 -20.7443
  endloop
 endfacet
 facet normal -0.498646 0.748122 -0.437796
  outer loop
   vertex -7.6295 -34.156 -20.7443
   vertex -8.02489 -34.156 -20.294
   vertex -7.6295 -33.8925 -20.294
  endloop
 endfacet
 facet normal 0.320926 0.817426 -0.478352
  outer loop
   vertex -7.6295 -34.156 -20.7443
   vertex -7.6295 -33.8925 -20.294
   vertex -7.1295 -34.156 -20.4089
  endloop
 endfacet
 facet normal 0.303519 0.800894 -0.516184
  outer loop
   vertex -7.1295 -34.156 -20.4089
   vertex -7.6295 -33.8925 -20.294
   vertex -7.1295 -34.0819 -20.294
  endloop
 endfacet
 facet normal 0.522709 0.716575 -0.46184
  outer loop
   vertex -7.1295 -34.156 -20.4089
   vertex -7.1295 -34.0819 -20.294
   vertex -7.02799 -34.156 -20.294
  endloop
 endfacet
 facet normal 0.587629 0.805572 -0.075804
  outer loop
   vertex -7.02799 -34.156 -20.294
   vertex -7.1295 -34.0819 -20.294
   vertex -6.96349 -34.156 -19.794
  endloop
 endfacet
 facet normal 0.65774 0.748451 -0.0848483
  outer loop
   vertex -7.02799 -34.156 -20.294
   vertex -6.96349 -34.156 -19.794
   vertex -6.6295 -34.5062 -20.294
  endloop
 endfacet
 facet normal 0.304866 0.863725 -0.401293
  outer loop
   vertex -6.6295 -34.5062 -20.294
   vertex -6.96349 -34.156 -19.794
   vertex -6.6295 -34.2739 -19.794
  endloop
 endfacet
 facet normal 0.63387 0.701431 -0.32589
  outer loop
   vertex -6.6295 -34.5062 -20.294
   vertex -6.6295 -34.2739 -19.794
   vertex -6.20666 -34.656 -19.794
  endloop
 endfacet
 facet normal 0.642637 0.711132 0.285148
  outer loop
   vertex -6.20666 -34.656 -19.794
   vertex -6.6295 -34.2739 -19.794
   vertex -6.42852 -34.656 -19.294
  endloop
 endfacet
 facet normal 0.849541 0.369032 0.376954
  outer loop
   vertex -6.20666 -34.656 -19.794
   vertex -6.42852 -34.656 -19.294
   vertex -6.1295 -34.8336 -19.794
  endloop
 endfacet
 facet normal 0.759836 0.6043 0.239729
  outer loop
   vertex -6.1295 -34.8336 -19.794
   vertex -6.42852 -34.656 -19.294
   vertex -6.1295 -35.032 -19.294
  endloop
 endfacet
 facet normal 0.851865 0.486851 0.193137
  outer loop
   vertex -6.1295 -34.8336 -19.794
   vertex -6.1295 -35.032 -19.294
   vertex -6.05862 -35.156 -19.294
  endloop
 endfacet
 facet normal 0.722988 0.413196 0.553676
  outer loop
   vertex -6.05862 -35.156 -19.294
   vertex -6.1295 -35.032 -19.294
   vertex -6.1295 -35.156 -19.2014
  endloop
 endfacet
 facet normal 0.792684 -0.0560531 0.60705
  outer loop
   vertex -6.05862 -35.156 -19.294
   vertex -6.1295 -35.156 -19.2014
   vertex -6.09398 -35.656 -19.294
  endloop
 endfacet
 facet normal 0.83989 -0.0405171 0.541241
  outer loop
   vertex -6.09398 -35.656 -19.294
   vertex -6.1295 -35.156 -19.2014
   vertex -6.1295 -35.656 -19.2389
  endloop
 endfacet
 facet normal 0.718862 -0.518303 0.463248
  outer loop
   vertex -6.09398 -35.656 -19.294
   vertex -6.1295 -35.656 -19.2389
   vertex -6.1295 -35.7053 -19.294
  endloop
 endfacet
 facet normal 0.636294 -0.575188 0.514091
  outer loop
   vertex -6.1295 -35.7053 -19.294
   vertex -6.1295 -35.656 -19.2389
   vertex -6.53695 -36.156 -19.294
  endloop
 endfacet
 facet normal 0.732724 -0.662357 -0.1562
  outer loop
   vertex -6.1295 -35.7053 -19.294
   vertex -6.53695 -36.156 -19.294
   vertex -6.19155 -35.656 -19.794
  endloop
 endfacet
 facet normal 0.525669 -0.755036 -0.391909
  outer loop
   vertex -6.19155 -35.656 -19.794
   vertex -6.53695 -36.156 -19.294
   vertex -6.6295 -35.9609 -19.794
  endloop
 endfacet
 facet normal 0.462747 -0.664659 -0.586595
  outer loop
   vertex -6.19155 -35.656 -19.794
   vertex -6.6295 -35.9609 -19.794
   vertex -6.6295 -35.656 -20.1395
  endloop
 endfacet
 facet normal 0.404056 -0.685835 -0.605284
  outer loop
   vertex -6.6295 -35.656 -20.1395
   vertex -6.6295 -35.9609 -19.794
   vertex -6.86097 -35.656 -20.294
  endloop
 endfacet
 facet normal 0.479529 -0.504019 -0.718343
  outer loop
   vertex -6.6295 -35.656 -20.1395
   vertex -6.86097 -35.656 -20.294
   vertex -6.6295 -35.4358 -20.294
  endloop
 endfacet
 facet normal 0.520393 -0.54697 -0.655755
  outer loop
   vertex -6.6295 -35.4358 -20.294
   vertex -6.86097 -35.656 -20.294
   vertex -6.96549 -35.156 -20.794
  endloop
 endfacet
 facet normal 0.620683 -0.428299 -0.656744
  outer loop
   vertex -6.6295 -35.4358 -20.294
   vertex -6.96549 -35.156 -20.794
   vertex -6.6295 -35.156 -20.4765
  endloop
 endfacet
 facet normal 0.683586 0.0976926 -0.723302
  outer loop
   vertex -6.6295 -35.156 -20.4765
   vertex -6.96549 -35.156 -20.794
   vertex -7.03695 -34.656 -20.794
  endloop
 endfacet
 facet normal 0.67185 0.0798273 -0.736373
  outer loop
   vertex -6.6295 -35.156 -20.4765
   vertex -7.03695 -34.656 -20.794
   vertex -6.6295 -34.656 -20.4223
  endloop
 endfacet
 facet normal 0.602122 0.449351 -0.659949
  outer loop
   vertex -6.6295 -34.656 -20.4223
   vertex -7.03695 -34.656 -20.794
   vertex -7.1295 -34.532 -20.794
  endloop
 endfacet
 facet normal 0.571736 0.587053 -0.573138
  outer loop
   vertex -6.6295 -34.656 -20.4223
   vertex -7.1295 -34.532 -20.794
   vertex -7.1295 -34.156 -20.4089
  endloop
 endfacet
 facet normal 0.421735 0.648791 -0.633412
  outer loop
   vertex -7.1295 -34.156 -20.4089
   vertex -7.1295 -34.532 -20.794
   vertex -7.6295 -34.207 -20.794
  endloop
 endfacet
 facet normal 0.433103 0.62903 -0.645557
  outer loop
   vertex -7.1295 -34.156 -20.4089
   vertex -7.6295 -34.207 -20.794
   vertex -7.6295 -34.156 -20.7443
  endloop
 endfacet
 facet normal -0.562051 0.577218 -0.592383
  outer loop
   vertex -7.6295 -34.156 -20.7443
   vertex -7.6295 -34.207 -20.794
   vertex -8.09066 -34.656 -20.794
  endloop
 endfacet
 facet normal -0.687914 0.663654 -0.293833
  outer loop
   vertex -7.6295 -34.156 -20.7443
   vertex -8.09066 -34.656 -20.794
   vertex -8.1295 -34.656 -20.7031
  endloop
 endfacet
 facet normal -0.826823 -0.437763 -0.353166
  outer loop
   vertex -8.1295 -34.656 -20.7031
   vertex -8.09066 -34.656 -20.794
   vertex -8.0395 -35.156 -20.294
  endloop
 endfacet
 facet normal -0.913814 -0.342742 -0.217881
  outer loop
   vertex -8.1295 -34.656 -20.7031
   vertex -8.0395 -35.156 -20.294
   vertex -8.1295 -34.916 -20.294
  endloop
 endfacet
 facet normal -0.932696 -0.30437 -0.193488
  outer loop
   vertex -8.1295 -34.916 -20.294
   vertex -8.21436 -34.656 -20.294
   vertex -8.1295 -34.656 -20.7031
  endloop
 endfacet
 facet normal -0.210734 0.558094 0.802572
  outer loop
   vertex -7.6295 -34.9404 -18.794
   vertex -8.1295 -35.156 -18.7754
   vertex -7.6295 -35.156 -18.6441
  endloop
 endfacet
 facet normal -0.249336 0.190052 0.949585
  outer loop
   vertex -7.6295 -35.156 -18.6441
   vertex -8.1295 -35.156 -18.7754
   vertex -7.6295 -35.656 -18.544
  endloop
 endfacet
 facet normal -0 0.19625 0.980554
  outer loop
   vertex -7.6295 -35.156 -18.6441
   vertex -7.6295 -35.656 -18.544
   vertex -7.1295 -35.656 -18.544
  endloop
 endfacet
 facet normal 0 -0.288061 0.957612
  outer loop
   vertex -7.1295 -35.656 -18.544
   vertex -7.6295 -35.656 -18.544
   vertex -7.1295 -36.156 -18.6944
  endloop
 endfacet
 facet normal 0.207786 -0.281774 0.936712
  outer loop
   vertex -7.1295 -35.656 -18.544
   vertex -7.1295 -36.156 -18.6944
   vertex -6.6295 -35.656 -18.6549
  endloop
 endfacet
 facet normal 0.280543 -0.351104 0.893321
  outer loop
   vertex -6.6295 -35.656 -18.6549
   vertex -7.1295 -36.156 -18.6944
   vertex -6.81237 -36.156 -18.794
  endloop
 endfacet
 facet normal 0.255677 -0.344758 0.903201
  outer loop
   vertex -6.6295 -35.656 -18.6549
   vertex -6.81237 -36.156 -18.794
   vertex -6.6295 -36.0204 -18.794
  endloop
 endfacet
 facet normal 0.534434 -0.720637 0.44166
  outer loop
   vertex -6.6295 -36.0204 -18.794
   vertex -6.81237 -36.156 -18.794
   vertex -6.6295 -36.156 -19.0153
  endloop
 endfacet
 facet normal 0.868549 -0.422557 0.258975
  outer loop
   vertex -6.6295 -36.0204 -18.794
   vertex -6.6295 -36.156 -19.0153
   vertex -6.45223 -35.656 -18.794
  endloop
 endfacet
 facet normal 0.710189 -0.479801 0.515191
  outer loop
   vertex -6.45223 -35.656 -18.794
   vertex -6.6295 -36.156 -19.0153
   vertex -6.1295 -35.656 -19.2389
  endloop
 endfacet
 facet normal 0.808665 -0.0439148 0.586628
  outer loop
   vertex -6.45223 -35.656 -18.794
   vertex -6.1295 -35.656 -19.2389
   vertex -6.1295 -35.156 -19.2014
  endloop
 endfacet
 facet normal -0.214345 0.565909 0.796118
  outer loop
   vertex -8.1295 -35.156 -18.7754
   vertex -7.6295 -34.9404 -18.794
   vertex -8.1295 -35.1298 -18.794
  endloop
 endfacet
 facet normal -0.283146 0.747558 0.600821
  outer loop
   vertex -8.1295 -35.1298 -18.794
   vertex -7.6295 -34.9404 -18.794
   vertex -8.1295 -34.7279 -19.294
  endloop
 endfacet
 facet normal -0.309417 -0.339936 0.888091
  outer loop
   vertex -7.91536 -36.156 -18.794
   vertex -7.6295 -36.156 -18.6944
   vertex -8.1295 -35.9611 -18.794
  endloop
 endfacet
 facet normal -0.306593 -0.330349 0.892676
  outer loop
   vertex -8.1295 -35.9611 -18.794
   vertex -7.6295 -36.156 -18.6944
   vertex -8.1295 -35.656 -18.6811
  endloop
 endfacet
 facet normal -0.374033 0.675516 0.635435
  outer loop
   vertex -7.6295 -34.4301 -19.294
   vertex -8.03745 -34.656 -19.294
   vertex -7.6295 -34.656 -19.0539
  endloop
 endfacet
 facet normal -0.398535 0.618675 0.677061
  outer loop
   vertex -7.6295 -34.656 -19.0539
   vertex -8.03745 -34.656 -19.294
   vertex -7.6295 -34.9404 -18.794
  endloop
 endfacet
 facet normal -0.0156845 0.674477 0.738129
  outer loop
   vertex -7.6295 -34.656 -19.0539
   vertex -7.6295 -34.9404 -18.794
   vertex -7.1295 -34.9288 -18.794
  endloop
 endfacet
 facet normal -0.0132751 0.570865 0.820937
  outer loop
   vertex -7.1295 -34.9288 -18.794
   vertex -7.6295 -34.9404 -18.794
   vertex -7.6295 -35.156 -18.6441
  endloop
 endfacet
 facet normal -0 0.550726 0.834686
  outer loop
   vertex -7.1295 -34.9288 -18.794
   vertex -7.6295 -35.156 -18.6441
   vertex -7.1295 -35.156 -18.6441
  endloop
 endfacet
 facet normal -0 0.19625 0.980554
  outer loop
   vertex -7.1295 -35.156 -18.6441
   vertex -7.6295 -35.156 -18.6441
   vertex -7.1295 -35.656 -18.544
  endloop
 endfacet
 facet normal 0.212541 0.191766 0.95815
  outer loop
   vertex -7.1295 -35.156 -18.6441
   vertex -7.1295 -35.656 -18.544
   vertex -6.6295 -35.656 -18.6549
  endloop
 endfacet
 facet normal -0.446248 0.571142 0.688955
  outer loop
   vertex -7.6295 -34.9404 -18.794
   vertex -8.03745 -34.656 -19.294
   vertex -8.1295 -34.7279 -19.294
  endloop
 endfacet
 facet normal -0.612506 0.783932 0.101424
  outer loop
   vertex -8.1295 -34.7279 -19.294
   vertex -8.03745 -34.656 -19.294
   vertex -8.12025 -34.656 -19.794
  endloop
 endfacet
 facet normal -0.984352 0.176073 0.00711023
  outer loop
   vertex -8.1295 -34.7279 -19.294
   vertex -8.12025 -34.656 -19.794
   vertex -8.1295 -34.7077 -19.794
  endloop
 endfacet
 facet normal -0.927017 0.165817 -0.336369
  outer loop
   vertex -8.1295 -34.7077 -19.794
   vertex -8.12025 -34.656 -19.794
   vertex -8.1295 -35.156 -20.015
  endloop
 endfacet
 facet normal -0.513146 0.700196 0.496393
  outer loop
   vertex -7.6295 -34.1025 -19.794
   vertex -7.70249 -34.156 -19.794
   vertex -7.6295 -34.156 -19.7185
  endloop
 endfacet
 facet normal -0.48909 0.732767 0.473122
  outer loop
   vertex -7.6295 -34.156 -19.7185
   vertex -7.70249 -34.156 -19.794
   vertex -7.6295 -34.4301 -19.294
  endloop
 endfacet
 facet normal -0.174711 0.827183 0.534083
  outer loop
   vertex -7.6295 -34.156 -19.7185
   vertex -7.6295 -34.4301 -19.294
   vertex -7.1295 -34.3245 -19.294
  endloop
 endfacet
 facet normal -0.152055 0.719916 0.677201
  outer loop
   vertex -7.1295 -34.3245 -19.294
   vertex -7.6295 -34.4301 -19.294
   vertex -7.6295 -34.656 -19.0539
  endloop
 endfacet
 facet normal -0.0769378 0.658416 0.748712
  outer loop
   vertex -7.1295 -34.3245 -19.294
   vertex -7.6295 -34.656 -19.0539
   vertex -7.1295 -34.656 -19.0025
  endloop
 endfacet
 facet normal -0.0813718 0.605257 0.79186
  outer loop
   vertex -7.1295 -34.656 -19.0025
   vertex -7.6295 -34.656 -19.0539
   vertex -7.1295 -34.9288 -18.794
  endloop
 endfacet
 facet normal 0.208407 0.593937 0.777049
  outer loop
   vertex -7.1295 -34.656 -19.0025
   vertex -7.1295 -34.9288 -18.794
   vertex -6.6295 -35.1042 -18.794
  endloop
 endfacet
 facet normal 0.189735 0.540723 0.819524
  outer loop
   vertex -6.6295 -35.1042 -18.794
   vertex -7.1295 -34.9288 -18.794
   vertex -7.1295 -35.156 -18.6441
  endloop
 endfacet
 facet normal 0.185407 0.555875 0.810325
  outer loop
   vertex -6.6295 -35.1042 -18.794
   vertex -7.1295 -35.156 -18.6441
   vertex -6.6295 -35.156 -18.7585
  endloop
 endfacet
 facet normal 0.21863 0.197911 0.955527
  outer loop
   vertex -6.6295 -35.156 -18.7585
   vertex -7.1295 -35.156 -18.6441
   vertex -6.6295 -35.656 -18.6549
  endloop
 endfacet
 facet normal 0.609235 0.160833 0.776509
  outer loop
   vertex -6.6295 -35.156 -18.7585
   vertex -6.6295 -35.656 -18.6549
   vertex -6.45223 -35.656 -18.794
  endloop
 endfacet
 facet normal 0.591188 -0.287619 0.753507
  outer loop
   vertex -6.45223 -35.656 -18.794
   vertex -6.6295 -35.656 -18.6549
   vertex -6.6295 -36.0204 -18.794
  endloop
 endfacet
 facet normal -0.424381 0.766447 0.482141
  outer loop
   vertex -7.6295 -34.4301 -19.294
   vertex -7.70249 -34.156 -19.794
   vertex -8.03745 -34.656 -19.294
  endloop
 endfacet
 facet normal -0.761274 0.636059 0.126058
  outer loop
   vertex -8.03745 -34.656 -19.294
   vertex -7.70249 -34.156 -19.794
   vertex -8.12025 -34.656 -19.794
  endloop
 endfacet
 facet normal -0.552353 0.753695 0.356159
  outer loop
   vertex -7.6295 -34.1025 -19.794
   vertex -8.02489 -34.156 -20.294
   vertex -7.70249 -34.156 -19.794
  endloop
 endfacet
 facet normal -0.687799 0.57467 0.443494
  outer loop
   vertex -7.70249 -34.156 -19.794
   vertex -8.02489 -34.156 -20.294
   vertex -8.12025 -34.656 -19.794
  endloop
 endfacet
 facet normal -0.523555 0.785494 0.329984
  outer loop
   vertex -8.02489 -34.156 -20.294
   vertex -7.6295 -34.1025 -19.794
   vertex -7.6295 -33.8925 -20.294
  endloop
 endfacet
 facet normal -0.00554264 0.921936 0.387303
  outer loop
   vertex -7.6295 -33.8925 -20.294
   vertex -7.6295 -34.1025 -19.794
   vertex -7.1295 -34.0995 -19.794
  endloop
 endfacet
 facet normal 0.354189 0.934598 0.0328142
  outer loop
   vertex -7.6295 -33.8925 -20.294
   vertex -7.1295 -34.0995 -19.794
   vertex -7.1295 -34.0819 -20.294
  endloop
 endfacet
 facet normal 0.321983 0.946162 0.0332202
  outer loop
   vertex -7.1295 -34.0819 -20.294
   vertex -7.1295 -34.0995 -19.794
   vertex -6.96349 -34.156 -19.794
  endloop
 endfacet
 facet normal -0.860681 0.430611 0.271666
  outer loop
   vertex -8.1295 -34.3651 -20.294
   vertex -8.1295 -34.656 -19.8329
   vertex -8.02489 -34.156 -20.294
  endloop
 endfacet
 facet normal -0.897898 0.384886 0.213641
  outer loop
   vertex -8.02489 -34.156 -20.294
   vertex -8.1295 -34.656 -19.8329
   vertex -8.12025 -34.656 -19.794
  endloop
 endfacet
 facet normal -0.631674 -0.659953 -0.406755
  outer loop
   vertex -7.91513 -35.656 -19.794
   vertex -7.6295 -35.656 -20.2376
   vertex -7.6295 -35.9294 -19.794
  endloop
 endfacet
 facet normal -0.30244 -0.811428 -0.500115
  outer loop
   vertex -7.6295 -35.9294 -19.794
   vertex -7.6295 -35.656 -20.2376
   vertex -7.1295 -35.8076 -20.294
  endloop
 endfacet
 facet normal -0.313758 -0.801531 -0.509023
  outer loop
   vertex -7.6295 -35.9294 -19.794
   vertex -7.1295 -35.8076 -20.294
   vertex -7.1295 -36.1251 -19.794
  endloop
 endfacet
 facet normal -0.942373 -0.279817 -0.183398
  outer loop
   vertex -8.0395 -35.156 -20.294
   vertex -8.09066 -34.656 -20.794
   vertex -7.94219 -35.156 -20.794
  endloop
 endfacet
 facet normal -0.390485 -0.115946 -0.913279
  outer loop
   vertex -7.94219 -35.156 -20.794
   vertex -8.09066 -34.656 -20.794
   vertex -7.6295 -34.656 -20.9912
  endloop
 endfacet
 facet normal -0.503952 -0.0253004 -0.863361
  outer loop
   vertex -7.94219 -35.156 -20.794
   vertex -7.6295 -34.656 -20.9912
   vertex -7.6295 -35.156 -20.9765
  endloop
 endfacet
 facet normal 0.109235 -0.0291166 -0.993589
  outer loop
   vertex -7.6295 -35.156 -20.9765
   vertex -7.6295 -34.656 -20.9912
   vertex -7.1295 -35.156 -20.9216
  endloop
 endfacet
 facet normal 0.100423 -0.394389 -0.91344
  outer loop
   vertex -7.6295 -35.156 -20.9765
   vertex -7.1295 -35.156 -20.9216
   vertex -7.1295 -35.4514 -20.794
  endloop
 endfacet
 facet normal 0.581079 -0.322603 -0.747177
  outer loop
   vertex -7.1295 -35.4514 -20.794
   vertex -7.1295 -35.156 -20.9216
   vertex -6.96549 -35.156 -20.794
  endloop
 endfacet
 facet normal 0.726958 -0.403592 -0.555559
  outer loop
   vertex -7.1295 -35.4514 -20.794
   vertex -6.96549 -35.156 -20.794
   vertex -6.86097 -35.656 -20.294
  endloop
 endfacet
 facet normal -0.735565 -0.647875 -0.197993
  outer loop
   vertex -8.0395 -35.156 -20.294
   vertex -7.6295 -35.4687 -20.794
   vertex -7.6295 -35.6215 -20.294
  endloop
 endfacet
 facet normal 0.0330123 -0.955818 -0.292101
  outer loop
   vertex -7.6295 -35.6215 -20.294
   vertex -7.6295 -35.4687 -20.794
   vertex -7.1295 -35.4514 -20.794
  endloop
 endfacet
 facet normal -0.700503 -0.700507 -0.136327
  outer loop
   vertex -8.0395 -35.156 -20.294
   vertex -7.94219 -35.156 -20.794
   vertex -7.6295 -35.4687 -20.794
  endloop
 endfacet
 facet normal -0.450149 -0.450152 -0.771187
  outer loop
   vertex -7.6295 -35.4687 -20.794
   vertex -7.94219 -35.156 -20.794
   vertex -7.6295 -35.156 -20.9765
  endloop
 endfacet
 facet normal 0.0174087 -0.50404 -0.863505
  outer loop
   vertex -7.6295 -35.4687 -20.794
   vertex -7.6295 -35.156 -20.9765
   vertex -7.1295 -35.4514 -20.794
  endloop
 endfacet
 facet normal -0.364545 0.374383 -0.85261
  outer loop
   vertex -8.09066 -34.656 -20.794
   vertex -7.6295 -34.207 -20.794
   vertex -7.6295 -34.656 -20.9912
  endloop
 endfacet
 facet normal 0.225325 0.39171 -0.892072
  outer loop
   vertex -7.6295 -34.656 -20.9912
   vertex -7.6295 -34.207 -20.794
   vertex -7.1295 -34.656 -20.8649
  endloop
 endfacet
 facet normal 0.24343 0.109233 -0.963748
  outer loop
   vertex -7.6295 -34.656 -20.9912
   vertex -7.1295 -34.656 -20.8649
   vertex -7.1295 -35.156 -20.9216
  endloop
 endfacet
 facet normal 0.605559 0.089624 -0.790737
  outer loop
   vertex -7.1295 -35.156 -20.9216
   vertex -7.1295 -34.656 -20.8649
   vertex -7.03695 -34.656 -20.794
  endloop
 endfacet
 facet normal 0.611553 0.0873982 -0.786362
  outer loop
   vertex -7.1295 -35.156 -20.9216
   vertex -7.03695 -34.656 -20.794
   vertex -6.96549 -35.156 -20.794
  endloop
 endfacet
 facet normal -0.0458913 0.921429 0.385828
  outer loop
   vertex -7.1295 -34.0995 -19.794
   vertex -7.6295 -34.156 -19.7185
   vertex -7.1295 -34.156 -19.6591
  endloop
 endfacet
 facet normal -0.0497851 0.906821 0.418565
  outer loop
   vertex -7.1295 -34.156 -19.6591
   vertex -7.6295 -34.156 -19.7185
   vertex -7.1295 -34.3245 -19.294
  endloop
 endfacet
 facet normal 0.310938 0.86294 0.398311
  outer loop
   vertex -7.1295 -34.156 -19.6591
   vertex -7.1295 -34.3245 -19.294
   vertex -6.6295 -34.2739 -19.794
  endloop
 endfacet
 facet normal 0.277936 0.887403 0.367786
  outer loop
   vertex -6.6295 -34.2739 -19.794
   vertex -7.1295 -34.3245 -19.294
   vertex -6.6295 -34.4811 -19.294
  endloop
 endfacet
 facet normal 0.626525 0.720012 0.29841
  outer loop
   vertex -6.6295 -34.2739 -19.794
   vertex -6.6295 -34.4811 -19.294
   vertex -6.42852 -34.656 -19.294
  endloop
 endfacet
 facet normal 0.511796 0.588163 0.626203
  outer loop
   vertex -6.42852 -34.656 -19.294
   vertex -6.6295 -34.4811 -19.294
   vertex -6.6295 -34.656 -19.1297
  endloop
 endfacet
 facet normal 0.565273 0.449564 0.691635
  outer loop
   vertex -6.42852 -34.656 -19.294
   vertex -6.6295 -34.656 -19.1297
   vertex -6.1295 -35.032 -19.294
  endloop
 endfacet
 facet normal 0.58095 0.48797 0.651447
  outer loop
   vertex -6.1295 -35.032 -19.294
   vertex -6.6295 -34.656 -19.1297
   vertex -6.6295 -35.1042 -18.794
  endloop
 endfacet
 facet normal 0.581635 0.486516 0.651922
  outer loop
   vertex -6.1295 -35.032 -19.294
   vertex -6.6295 -35.1042 -18.794
   vertex -6.1295 -35.156 -19.2014
  endloop
 endfacet
 facet normal 0.565335 0.537846 0.625395
  outer loop
   vertex -6.1295 -35.156 -19.2014
   vertex -6.6295 -35.1042 -18.794
   vertex -6.58023 -35.156 -18.794
  endloop
 endfacet
 facet normal 0.660919 0.169203 0.731134
  outer loop
   vertex -6.1295 -35.156 -19.2014
   vertex -6.58023 -35.156 -18.794
   vertex -6.45223 -35.656 -18.794
  endloop
 endfacet
 facet normal 0.578418 0.148082 0.802187
  outer loop
   vertex -6.45223 -35.656 -18.794
   vertex -6.58023 -35.156 -18.794
   vertex -6.6295 -35.156 -18.7585
  endloop
 endfacet
 facet normal -0.00490446 0.815784 0.578336
  outer loop
   vertex -7.6295 -34.1025 -19.794
   vertex -7.6295 -34.156 -19.7185
   vertex -7.1295 -34.0995 -19.794
  endloop
 endfacet
 facet normal -0.275351 -0.703416 -0.655277
  outer loop
   vertex -7.6295 -35.9294 -19.794
   vertex -7.1295 -36.1251 -19.794
   vertex -7.6295 -36.156 -19.5507
  endloop
 endfacet
 facet normal -0.305978 -0.848649 -0.431476
  outer loop
   vertex -7.6295 -35.656 -20.2376
   vertex -7.54993 -35.656 -20.294
   vertex -7.1295 -35.8076 -20.294
  endloop
 endfacet
 facet normal -0.307088 -0.851726 -0.42457
  outer loop
   vertex -7.1295 -35.8076 -20.294
   vertex -7.54993 -35.656 -20.294
   vertex -7.1295 -35.656 -20.5981
  endloop
 endfacet
 facet normal 0.306969 0.472237 -0.826294
  outer loop
   vertex -7.6295 -34.207 -20.794
   vertex -7.1295 -34.532 -20.794
   vertex -7.1295 -34.656 -20.8649
  endloop
 endfacet
 facet normal 0.553676 0.413196 -0.722988
  outer loop
   vertex -7.1295 -34.656 -20.8649
   vertex -7.1295 -34.532 -20.794
   vertex -7.03695 -34.656 -20.794
  endloop
 endfacet
 facet normal 0.216783 -0.690292 0.690292
  outer loop
   vertex -7.1295 -36.156 -18.6944
   vertex -7.1295 -36.2556 -18.794
   vertex -6.81237 -36.156 -18.794
  endloop
 endfacet
 facet normal 0.290835 -0.926093 0.240348
  outer loop
   vertex -6.81237 -36.156 -18.794
   vertex -7.1295 -36.2556 -18.794
   vertex -6.6295 -36.156 -19.0153
  endloop
 endfacet
 facet normal 0.182389 0.673137 0.716673
  outer loop
   vertex -6.6295 -34.4811 -19.294
   vertex -7.1295 -34.656 -19.0025
   vertex -6.6295 -34.656 -19.1297
  endloop
 endfacet
 facet normal 0.199589 0.587454 0.784259
  outer loop
   vertex -6.6295 -34.656 -19.1297
   vertex -7.1295 -34.656 -19.0025
   vertex -6.6295 -35.1042 -18.794
  endloop
 endfacet
 facet normal 0.202543 0.646686 0.735373
  outer loop
   vertex -7.1295 -34.3245 -19.294
   vertex -7.1295 -34.656 -19.0025
   vertex -6.6295 -34.4811 -19.294
  endloop
 endfacet
 facet normal 0.289207 -0.927737 0.235931
  outer loop
   vertex -6.6295 -36.156 -19.0153
   vertex -7.1295 -36.2556 -18.794
   vertex -6.6295 -36.2269 -19.294
  endloop
 endfacet
 facet normal 0.254901 -0.945935 0.20058
  outer loop
   vertex -6.6295 -36.2269 -19.294
   vertex -7.1295 -36.2556 -18.794
   vertex -7.1295 -36.3616 -19.294
  endloop
 endfacet
 facet normal 0.238236 -0.88409 -0.402029
  outer loop
   vertex -6.6295 -36.2269 -19.294
   vertex -7.1295 -36.3616 -19.294
   vertex -7.1295 -36.156 -19.7462
  endloop
 endfacet
 facet normal 0.299489 0.880062 0.368507
  outer loop
   vertex -7.1295 -34.0995 -19.794
   vertex -7.1295 -34.156 -19.6591
   vertex -6.96349 -34.156 -19.794
  endloop
 endfacet
 facet normal 0.308011 0.872636 0.378993
  outer loop
   vertex -6.96349 -34.156 -19.794
   vertex -7.1295 -34.156 -19.6591
   vertex -6.6295 -34.2739 -19.794
  endloop
 endfacet
 facet normal 0.284465 -0.841622 -0.459078
  outer loop
   vertex -7.1295 -36.156 -19.7462
   vertex -6.6295 -35.9609 -19.794
   vertex -6.6295 -36.156 -19.4363
  endloop
 endfacet
 facet normal 0.592989 -0.706887 -0.385584
  outer loop
   vertex -6.6295 -36.156 -19.4363
   vertex -6.6295 -35.9609 -19.794
   vertex -6.53695 -36.156 -19.294
  endloop
 endfacet
 facet normal 0.565422 -0.738326 -0.367659
  outer loop
   vertex -6.6295 -36.156 -19.4363
   vertex -6.53695 -36.156 -19.294
   vertex -6.6295 -36.2269 -19.294
  endloop
 endfacet
 facet normal 0.59598 -0.778228 0.19791
  outer loop
   vertex -6.6295 -36.2269 -19.294
   vertex -6.53695 -36.156 -19.294
   vertex -6.6295 -36.156 -19.0153
  endloop
 endfacet
 facet normal 0.26624 -0.862846 -0.429666
  outer loop
   vertex -6.6295 -36.156 -19.4363
   vertex -6.6295 -36.2269 -19.294
   vertex -7.1295 -36.156 -19.7462
  endloop
 endfacet
 facet normal 0.533066 0.550243 -0.642708
  outer loop
   vertex -6.6295 -34.656 -20.4223
   vertex -7.1295 -34.156 -20.4089
   vertex -6.6295 -34.5062 -20.294
  endloop
 endfacet
 facet normal 0.570219 0.64886 -0.503817
  outer loop
   vertex -6.6295 -34.5062 -20.294
   vertex -7.1295 -34.156 -20.4089
   vertex -7.02799 -34.156 -20.294
  endloop
 endfacet
 facet normal 0.511076 0.486225 0.708793
  outer loop
   vertex -6.6295 -35.156 -18.7585
   vertex -6.58023 -35.156 -18.794
   vertex -6.6295 -35.1042 -18.794
  endloop
 endfacet
 facet normal 0.738148 -0.628533 0.24512
  outer loop
   vertex -6.6295 -36.156 -19.0153
   vertex -6.53695 -36.156 -19.294
   vertex -6.1295 -35.656 -19.2389
  endloop
 endfacet
 facet normal 0.881144 -0.426616 -0.203921
  outer loop
   vertex -6.1295 -35.656 -19.5259
   vertex -6.19155 -35.656 -19.794
   vertex -6.1295 -35.5278 -19.794
  endloop
 endfacet
 facet normal 0.670443 -0.324603 -0.667187
  outer loop
   vertex -6.1295 -35.5278 -19.794
   vertex -6.19155 -35.656 -19.794
   vertex -6.44704 -35.156 -20.294
  endloop
 endfacet
 facet normal 0.718999 -0.255246 -0.646445
  outer loop
   vertex -6.1295 -35.5278 -19.794
   vertex -6.44704 -35.156 -20.294
   vertex -6.1295 -35.156 -19.9408
  endloop
 endfacet
 facet normal 0.710067 0.297039 -0.638414
  outer loop
   vertex -6.1295 -35.156 -19.9408
   vertex -6.44704 -35.156 -20.294
   vertex -6.20666 -34.656 -19.794
  endloop
 endfacet
 facet normal 0.690324 0.29987 -0.658431
  outer loop
   vertex -6.1295 -35.156 -19.9408
   vertex -6.20666 -34.656 -19.794
   vertex -6.1295 -34.8336 -19.794
  endloop
 endfacet
 facet normal 0.668174 -0.727758 -0.154634
  outer loop
   vertex -6.19155 -35.656 -19.794
   vertex -6.1295 -35.656 -19.5259
   vertex -6.1295 -35.7053 -19.294
  endloop
 endfacet
 facet normal 0.804956 -0.580377 -0.123318
  outer loop
   vertex -6.1295 -35.7053 -19.294
   vertex -6.1295 -35.656 -19.5259
   vertex -6.09398 -35.656 -19.294
  endloop
 endfacet
 facet normal 0.693363 0.593606 -0.408509
  outer loop
   vertex -6.6295 -34.5062 -20.294
   vertex -6.20666 -34.656 -19.794
   vertex -6.50124 -34.656 -20.294
  endloop
 endfacet
 facet normal 0.857848 0.0929951 -0.505419
  outer loop
   vertex -6.50124 -34.656 -20.294
   vertex -6.20666 -34.656 -19.794
   vertex -6.44704 -35.156 -20.294
  endloop
 endfacet
 facet normal 0.705041 0.0764301 -0.705036
  outer loop
   vertex -6.50124 -34.656 -20.294
   vertex -6.44704 -35.156 -20.294
   vertex -6.6295 -35.156 -20.4765
  endloop
 endfacet
 facet normal 0.642124 -0.418761 -0.642119
  outer loop
   vertex -6.6295 -35.156 -20.4765
   vertex -6.44704 -35.156 -20.294
   vertex -6.6295 -35.4358 -20.294
  endloop
 endfacet
 facet normal 0.599957 -0.391262 -0.697829
  outer loop
   vertex -6.44704 -35.156 -20.294
   vertex -6.19155 -35.656 -19.794
   vertex -6.6295 -35.4358 -20.294
  endloop
 endfacet
 facet normal 0.542487 -0.482502 -0.687677
  outer loop
   vertex -6.6295 -35.4358 -20.294
   vertex -6.19155 -35.656 -19.794
   vertex -6.6295 -35.656 -20.1395
  endloop
 endfacet
 facet normal 0.604902 0.517872 -0.604898
  outer loop
   vertex -6.6295 -34.5062 -20.294
   vertex -6.50124 -34.656 -20.294
   vertex -6.6295 -34.656 -20.4223
  endloop
 endfacet
 facet normal 0.705041 0.0764302 -0.705036
  outer loop
   vertex -6.6295 -34.656 -20.4223
   vertex -6.50124 -34.656 -20.294
   vertex -6.6295 -35.156 -20.4765
  endloop
 endfacet
 facet normal 0.944583 0.320163 0.07252
  outer loop
   vertex -6.1295 -34.8336 -19.794
   vertex -6.05862 -35.156 -19.294
   vertex -6.02023 -35.156 -19.794
  endloop
 endfacet
 facet normal 0.994597 -0.070331 0.0763598
  outer loop
   vertex -6.02023 -35.156 -19.794
   vertex -6.05862 -35.156 -19.294
   vertex -6.09398 -35.656 -19.294
  endloop
 endfacet
 facet normal 0.947502 -0.284901 -0.145156
  outer loop
   vertex -6.02023 -35.156 -19.794
   vertex -6.09398 -35.656 -19.294
   vertex -6.1295 -35.656 -19.5259
  endloop
 endfacet
 facet normal 0.950838 -0.27941 -0.133557
  outer loop
   vertex -6.1295 -35.656 -19.5259
   vertex -6.1295 -35.5278 -19.794
   vertex -6.02023 -35.156 -19.794
  endloop
 endfacet
 facet normal 0.780813 -0.229447 -0.581106
  outer loop
   vertex -6.02023 -35.156 -19.794
   vertex -6.1295 -35.5278 -19.794
   vertex -6.1295 -35.156 -19.9408
  endloop
 endfacet
 facet normal 0.774109 0.262381 -0.576117
  outer loop
   vertex -6.02023 -35.156 -19.794
   vertex -6.1295 -35.156 -19.9408
   vertex -6.1295 -34.8336 -19.794
  endloop
 endfacet
endsolid
