solid ascii
 facet normal -0.455498 0.488243 0.744406
  outer loop
   vertex -11.1295 -32.0684 -39.294
   vertex -11.2234 -32.156 -39.294
   vertex -11.1295 -32.156 -39.2365
  endloop
 endfacet
 facet normal -0.509023 0.221064 0.831881
  outer loop
   vertex -11.1295 -32.156 -39.2365
   vertex -11.2234 -32.156 -39.294
   vertex -11.1295 -32.656 -39.1037
  endloop
 endfacet
 facet normal -0.0712601 0.256173 0.964001
  outer loop
   vertex -11.1295 -32.156 -39.2365
   vertex -11.1295 -32.656 -39.1037
   vertex -10.6295 -32.656 -39.0667
  endloop
 endfacet
 facet normal -0.0736446 0.0452478 0.996258
  outer loop
   vertex -10.6295 -32.656 -39.0667
   vertex -11.1295 -32.656 -39.1037
   vertex -10.6295 -33.156 -39.044
  endloop
 endfacet
 facet normal 0.229909 0.0441556 0.97221
  outer loop
   vertex -10.6295 -32.656 -39.0667
   vertex -10.6295 -33.156 -39.044
   vertex -10.1295 -33.156 -39.1622
  endloop
 endfacet
 facet normal 0.220864 -0.280947 0.933963
  outer loop
   vertex -10.1295 -33.156 -39.1622
   vertex -10.6295 -33.156 -39.044
   vertex -10.6295 -33.656 -39.1944
  endloop
 endfacet
 facet normal 0.30655 -0.363152 0.879857
  outer loop
   vertex -10.1295 -33.156 -39.1622
   vertex -10.6295 -33.656 -39.1944
   vertex -10.3436 -33.656 -39.294
  endloop
 endfacet
 facet normal 0.23921 -0.686578 0.686578
  outer loop
   vertex -10.3436 -33.656 -39.294
   vertex -10.6295 -33.656 -39.1944
   vertex -10.6295 -33.7556 -39.294
  endloop
 endfacet
 facet normal 0.318569 -0.914353 0.249944
  outer loop
   vertex -10.3436 -33.656 -39.294
   vertex -10.6295 -33.7556 -39.294
   vertex -10.1295 -33.656 -39.5669
  endloop
 endfacet
 facet normal 0.322886 -0.910205 0.259366
  outer loop
   vertex -10.1295 -33.656 -39.5669
   vertex -10.6295 -33.7556 -39.294
   vertex -10.1295 -33.7207 -39.794
  endloop
 endfacet
 facet normal 0.67994 -0.705196 0.200948
  outer loop
   vertex -10.1295 -33.656 -39.5669
   vertex -10.1295 -33.7207 -39.794
   vertex -10.0624 -33.656 -39.794
  endloop
 endfacet
 facet normal 0.693734 -0.719502 -0.0323865
  outer loop
   vertex -10.0624 -33.656 -39.794
   vertex -10.1295 -33.7207 -39.794
   vertex -10.0857 -33.656 -40.294
  endloop
 endfacet
 facet normal 0.913549 -0.404487 -0.0426484
  outer loop
   vertex -10.0624 -33.656 -39.794
   vertex -10.0857 -33.656 -40.294
   vertex -9.84101 -33.156 -39.794
  endloop
 endfacet
 facet normal 0.812249 -0.560181 0.162627
  outer loop
   vertex -9.84101 -33.156 -39.794
   vertex -10.0857 -33.656 -40.294
   vertex -9.74091 -33.156 -40.294
  endloop
 endfacet
 facet normal 0.966565 -0.16823 0.193524
  outer loop
   vertex -9.84101 -33.156 -39.794
   vertex -9.74091 -33.156 -40.294
   vertex -9.75399 -32.656 -39.794
  endloop
 endfacet
 facet normal 0.908867 -0.282792 0.306576
  outer loop
   vertex -9.75399 -32.656 -39.794
   vertex -9.74091 -33.156 -40.294
   vertex -9.6295 -32.656 -40.1631
  endloop
 endfacet
 facet normal 0.873246 0.388171 0.29456
  outer loop
   vertex -9.75399 -32.656 -39.794
   vertex -9.6295 -32.656 -40.1631
   vertex -9.6295 -32.5566 -40.294
  endloop
 endfacet
 facet normal 0.83873 0.43379 0.329178
  outer loop
   vertex -9.6295 -32.5566 -40.294
   vertex -9.6295 -32.656 -40.1631
   vertex -9.57811 -32.656 -40.294
  endloop
 endfacet
 facet normal 0.837919 0.433371 0.331786
  outer loop
   vertex -9.6295 -32.5566 -40.294
   vertex -9.57811 -32.656 -40.294
   vertex -9.6295 -32.1738 -40.794
  endloop
 endfacet
 facet normal 0.812977 0.458665 0.358741
  outer loop
   vertex -9.6295 -32.1738 -40.794
   vertex -9.57811 -32.656 -40.294
   vertex -9.35748 -32.656 -40.794
  endloop
 endfacet
 facet normal 0.869726 0.490681 -0.0529944
  outer loop
   vertex -9.6295 -32.1738 -40.794
   vertex -9.35748 -32.656 -40.794
   vertex -9.6295 -32.2278 -41.294
  endloop
 endfacet
 facet normal 0.919264 0.325453 -0.221435
  outer loop
   vertex -9.6295 -32.2278 -41.294
   vertex -9.35748 -32.656 -40.794
   vertex -9.47792 -32.656 -41.294
  endloop
 endfacet
 facet normal 0.936447 0.331536 0.114679
  outer loop
   vertex -9.6295 -32.2278 -41.294
   vertex -9.47792 -32.656 -41.294
   vertex -9.6295 -32.156 -41.5017
  endloop
 endfacet
 facet normal 0.935671 0.332615 0.117843
  outer loop
   vertex -9.6295 -32.156 -41.5017
   vertex -9.47792 -32.656 -41.294
   vertex -9.59269 -32.156 -41.794
  endloop
 endfacet
 facet normal 0.732561 0.67442 0.092262
  outer loop
   vertex -9.6295 -32.156 -41.5017
   vertex -9.59269 -32.156 -41.794
   vertex -9.6295 -32.116 -41.794
  endloop
 endfacet
 facet normal 0.725259 0.667698 -0.167865
  outer loop
   vertex -9.6295 -32.116 -41.794
   vertex -9.59269 -32.156 -41.794
   vertex -9.6295 -32.156 -41.9531
  endloop
 endfacet
 facet normal 0.251986 0.938525 -0.235954
  outer loop
   vertex -9.6295 -32.116 -41.794
   vertex -9.6295 -32.156 -41.9531
   vertex -10.1295 -32.1075 -42.294
  endloop
 endfacet
 facet normal 0.243864 0.943752 -0.223299
  outer loop
   vertex -10.1295 -32.1075 -42.294
   vertex -9.6295 -32.156 -41.9531
   vertex -9.94169 -32.156 -42.294
  endloop
 endfacet
 facet normal 0.182992 0.708175 -0.681911
  outer loop
   vertex -10.1295 -32.1075 -42.294
   vertex -9.94169 -32.156 -42.294
   vertex -10.1295 -32.156 -42.3444
  endloop
 endfacet
 facet normal 0.259181 0 -0.965829
  outer loop
   vertex -10.1295 -32.156 -42.3444
   vertex -9.94169 -32.156 -42.294
   vertex -10.1295 -32.656 -42.3444
  endloop
 endfacet
 facet normal -0.259181 0 -0.965829
  outer loop
   vertex -10.1295 -32.156 -42.3444
   vertex -10.1295 -32.656 -42.3444
   vertex -10.3173 -32.656 -42.294
  endloop
 endfacet
 facet normal -0.182992 -0.708175 -0.681911
  outer loop
   vertex -10.3173 -32.656 -42.294
   vertex -10.1295 -32.656 -42.3444
   vertex -10.1295 -32.7045 -42.294
  endloop
 endfacet
 facet normal -0.248682 -0.962396 -0.109318
  outer loop
   vertex -10.3173 -32.656 -42.294
   vertex -10.1295 -32.7045 -42.294
   vertex -10.5371 -32.656 -41.794
  endloop
 endfacet
 facet normal -0.483085 -0.817138 -0.314506
  outer loop
   vertex -10.5371 -32.656 -41.794
   vertex -10.1295 -32.7045 -42.294
   vertex -10.1295 -32.897 -41.794
  endloop
 endfacet
 facet normal -0.454604 -0.768962 -0.449482
  outer loop
   vertex -10.5371 -32.656 -41.794
   vertex -10.1295 -32.897 -41.794
   vertex -10.6295 -32.656 -41.7006
  endloop
 endfacet
 facet normal -0.443262 -0.70509 -0.553504
  outer loop
   vertex -10.6295 -32.656 -41.7006
   vertex -10.1295 -32.897 -41.794
   vertex -10.1295 -33.156 -41.464
  endloop
 endfacet
 facet normal -0.107409 -0.510872 -0.85292
  outer loop
   vertex -10.6295 -32.656 -41.7006
   vertex -10.1295 -33.156 -41.464
   vertex -10.6295 -33.156 -41.4011
  endloop
 endfacet
 facet normal -0.0806551 -0.763735 -0.640472
  outer loop
   vertex -10.6295 -33.156 -41.4011
   vertex -10.1295 -33.156 -41.464
   vertex -10.1295 -33.2986 -41.294
  endloop
 endfacet
 facet normal -0.0458728 -0.697684 -0.714935
  outer loop
   vertex -10.6295 -33.156 -41.4011
   vertex -10.1295 -33.2986 -41.294
   vertex -10.6295 -33.2657 -41.294
  endloop
 endfacet
 facet normal -0.0545778 -0.83008 -0.554968
  outer loop
   vertex -10.6295 -33.2657 -41.294
   vertex -10.1295 -33.2986 -41.294
   vertex -10.1295 -33.6329 -40.794
  endloop
 endfacet
 facet normal -0.0800719 -0.839951 -0.536722
  outer loop
   vertex -10.6295 -33.2657 -41.294
   vertex -10.1295 -33.6329 -40.794
   vertex -10.6295 -33.5852 -40.794
  endloop
 endfacet
 facet normal -0.0941897 -0.988045 -0.122043
  outer loop
   vertex -10.6295 -33.5852 -40.794
   vertex -10.1295 -33.6329 -40.794
   vertex -10.6295 -33.647 -40.294
  endloop
 endfacet
 facet normal -0.636681 -0.765311 -0.0945312
  outer loop
   vertex -10.6295 -33.5852 -40.794
   vertex -10.6295 -33.647 -40.294
   vertex -11.1295 -33.1693 -40.794
  endloop
 endfacet
 facet normal -0.689963 -0.723843 -0.00162913
  outer loop
   vertex -11.1295 -33.1693 -40.794
   vertex -10.6295 -33.647 -40.294
   vertex -11.1295 -33.1704 -40.294
  endloop
 endfacet
 facet normal -0.793867 -0.60809 -0.00136861
  outer loop
   vertex -11.1295 -33.1693 -40.794
   vertex -11.1295 -33.1704 -40.294
   vertex -11.1405 -33.156 -40.294
  endloop
 endfacet
 facet normal -0.734565 -0.562666 -0.379237
  outer loop
   vertex -11.1405 -33.156 -40.294
   vertex -11.1295 -33.1704 -40.294
   vertex -11.3987 -33.156 -39.794
  endloop
 endfacet
 facet normal -0.886328 0.0709687 -0.457588
  outer loop
   vertex -11.1405 -33.156 -40.294
   vertex -11.3987 -33.156 -39.794
   vertex -11.3586 -32.656 -39.794
  endloop
 endfacet
 facet normal -0.962087 0.0770347 -0.261639
  outer loop
   vertex -11.3586 -32.656 -39.794
   vertex -11.3987 -33.156 -39.794
   vertex -11.4946 -32.656 -39.294
  endloop
 endfacet
 facet normal -0.854945 0.463693 -0.232502
  outer loop
   vertex -11.3586 -32.656 -39.794
   vertex -11.4946 -32.656 -39.294
   vertex -11.2234 -32.156 -39.294
  endloop
 endfacet
 facet normal -0.448399 0.243196 0.860113
  outer loop
   vertex -11.2234 -32.156 -39.294
   vertex -11.4946 -32.656 -39.294
   vertex -11.1295 -32.656 -39.1037
  endloop
 endfacet
 facet normal -0.472508 0.0410857 0.880368
  outer loop
   vertex -11.1295 -33.156 -39.0747
   vertex -11.4946 -32.656 -39.294
   vertex -11.5381 -33.156 -39.294
  endloop
 endfacet
 facet normal -0.959895 0.083465 -0.267649
  outer loop
   vertex -11.5381 -33.156 -39.294
   vertex -11.4946 -32.656 -39.294
   vertex -11.3987 -33.156 -39.794
  endloop
 endfacet
 facet normal -0.823725 -0.518385 -0.229681
  outer loop
   vertex -11.5381 -33.156 -39.294
   vertex -11.3987 -33.156 -39.794
   vertex -11.2234 -33.656 -39.294
  endloop
 endfacet
 facet normal -0.86608 -0.471019 -0.167469
  outer loop
   vertex -11.2234 -33.656 -39.294
   vertex -11.3987 -33.156 -39.794
   vertex -11.1295 -33.6509 -39.794
  endloop
 endfacet
 facet normal -0.661922 -0.737886 -0.13185
  outer loop
   vertex -11.2234 -33.656 -39.294
   vertex -11.1295 -33.6509 -39.794
   vertex -11.1295 -33.656 -39.7654
  endloop
 endfacet
 facet normal -0.583749 -0.799274 -0.142819
  outer loop
   vertex -11.1295 -33.656 -39.7654
   vertex -11.1295 -33.6509 -39.794
   vertex -11.1225 -33.656 -39.794
  endloop
 endfacet
 facet normal -0.319492 -0.944359 -0.0781664
  outer loop
   vertex -11.1295 -33.656 -39.7654
   vertex -11.1225 -33.656 -39.794
   vertex -10.6295 -33.8228 -39.794
  endloop
 endfacet
 facet normal -0.304472 -0.899963 -0.312031
  outer loop
   vertex -10.6295 -33.8228 -39.794
   vertex -11.1225 -33.656 -39.794
   vertex -10.6295 -33.656 -40.2751
  endloop
 endfacet
 facet normal -0.0816983 -0.941663 -0.32649
  outer loop
   vertex -10.6295 -33.8228 -39.794
   vertex -10.6295 -33.656 -40.2751
   vertex -10.1295 -33.6928 -40.294
  endloop
 endfacet
 facet normal -0.0822787 -0.91828 -0.387288
  outer loop
   vertex -10.1295 -33.6928 -40.294
   vertex -10.6295 -33.656 -40.2751
   vertex -10.5404 -33.656 -40.294
  endloop
 endfacet
 facet normal -0.0886563 -0.989458 -0.114509
  outer loop
   vertex -10.1295 -33.6928 -40.294
   vertex -10.5404 -33.656 -40.294
   vertex -10.1295 -33.656 -40.6121
  endloop
 endfacet
 facet normal -0.097173 -0.987322 -0.125509
  outer loop
   vertex -10.1295 -33.656 -40.6121
   vertex -10.5404 -33.656 -40.294
   vertex -10.1295 -33.6329 -40.794
  endloop
 endfacet
 facet normal 0.658098 -0.746921 -0.0949494
  outer loop
   vertex -10.1295 -33.656 -40.6121
   vertex -10.1295 -33.6329 -40.794
   vertex -9.6295 -33.1923 -40.794
  endloop
 endfacet
 facet normal 0.590905 -0.670659 -0.448384
  outer loop
   vertex -9.6295 -33.1923 -40.794
   vertex -10.1295 -33.6329 -40.794
   vertex -10.1295 -33.2986 -41.294
  endloop
 endfacet
 facet normal 0.513685 -0.78471 -0.346927
  outer loop
   vertex -9.6295 -33.1923 -40.794
   vertex -10.1295 -33.2986 -41.294
   vertex -9.91167 -33.156 -41.294
  endloop
 endfacet
 facet normal 0.448349 -0.684902 -0.574363
  outer loop
   vertex -9.91167 -33.156 -41.294
   vertex -10.1295 -33.2986 -41.294
   vertex -10.1295 -33.156 -41.464
  endloop
 endfacet
 facet normal 0.51397 -0.549827 -0.658426
  outer loop
   vertex -9.91167 -33.156 -41.294
   vertex -10.1295 -33.156 -41.464
   vertex -9.6295 -32.8922 -41.294
  endloop
 endfacet
 facet normal 0.529966 -0.66704 -0.523635
  outer loop
   vertex -9.6295 -32.8922 -41.294
   vertex -10.1295 -33.156 -41.464
   vertex -10.1295 -32.897 -41.794
  endloop
 endfacet
 facet normal 0.278945 -0.921511 -0.270199
  outer loop
   vertex -9.6295 -32.8922 -41.294
   vertex -10.1295 -32.897 -41.794
   vertex -9.6295 -32.7456 -41.794
  endloop
 endfacet
 facet normal 0.271862 -0.89811 -0.345672
  outer loop
   vertex -9.6295 -32.7456 -41.794
   vertex -10.1295 -32.897 -41.794
   vertex -10.1295 -32.7045 -42.294
  endloop
 endfacet
 facet normal 0.237597 -0.919497 -0.313165
  outer loop
   vertex -9.6295 -32.7456 -41.794
   vertex -10.1295 -32.7045 -42.294
   vertex -9.94169 -32.656 -42.294
  endloop
 endfacet
 facet normal 0.182992 -0.708175 -0.681911
  outer loop
   vertex -9.94169 -32.656 -42.294
   vertex -10.1295 -32.7045 -42.294
   vertex -10.1295 -32.656 -42.3444
  endloop
 endfacet
 facet normal 0.259181 0 -0.965829
  outer loop
   vertex -9.94169 -32.656 -42.294
   vertex -10.1295 -32.656 -42.3444
   vertex -9.94169 -32.156 -42.294
  endloop
 endfacet
 facet normal -0.46167 0.0512807 0.885568
  outer loop
   vertex -11.4946 -32.656 -39.294
   vertex -11.1295 -33.156 -39.0747
   vertex -11.1295 -32.656 -39.1037
  endloop
 endfacet
 facet normal -0.0612141 0.0577018 0.996455
  outer loop
   vertex -11.1295 -32.656 -39.1037
   vertex -11.1295 -33.156 -39.0747
   vertex -10.6295 -33.156 -39.044
  endloop
 endfacet
 facet normal -0.453252 -0.28524 0.844512
  outer loop
   vertex -11.5381 -33.156 -39.294
   vertex -11.2234 -33.656 -39.294
   vertex -11.1295 -33.656 -39.2436
  endloop
 endfacet
 facet normal -0.348879 -0.675078 0.650041
  outer loop
   vertex -11.1295 -33.656 -39.2436
   vertex -11.2234 -33.656 -39.294
   vertex -11.1295 -33.7045 -39.294
  endloop
 endfacet
 facet normal -0.0680863 -0.718667 0.692013
  outer loop
   vertex -11.1295 -33.656 -39.2436
   vertex -11.1295 -33.7045 -39.294
   vertex -10.6295 -33.656 -39.1944
  endloop
 endfacet
 facet normal -0.0720272 -0.70527 0.70527
  outer loop
   vertex -10.6295 -33.656 -39.1944
   vertex -11.1295 -33.7045 -39.294
   vertex -10.6295 -33.7556 -39.294
  endloop
 endfacet
 facet normal -0.45326 -0.285247 0.844505
  outer loop
   vertex -11.5381 -33.156 -39.294
   vertex -11.1295 -33.656 -39.2436
   vertex -11.1295 -33.156 -39.0747
  endloop
 endfacet
 facet normal -0.0928126 -0.318626 0.943326
  outer loop
   vertex -11.1295 -33.156 -39.0747
   vertex -11.1295 -33.656 -39.2436
   vertex -10.6295 -33.656 -39.1944
  endloop
 endfacet
 facet normal -0.0587264 -0.287564 0.955959
  outer loop
   vertex -11.1295 -33.156 -39.0747
   vertex -10.6295 -33.656 -39.1944
   vertex -10.6295 -33.156 -39.044
  endloop
 endfacet
 facet normal -0.607576 0.651253 -0.454666
  outer loop
   vertex -11.2234 -32.156 -39.294
   vertex -11.1295 -32.0684 -39.294
   vertex -11.1295 -32.156 -39.4195
  endloop
 endfacet
 facet normal -0.573373 0.671779 -0.468996
  outer loop
   vertex -11.1295 -32.156 -39.4195
   vertex -11.1295 -32.0684 -39.294
   vertex -10.8232 -32.156 -39.794
  endloop
 endfacet
 facet normal -0.494806 0.768999 -0.404732
  outer loop
   vertex -11.1295 -32.156 -39.4195
   vertex -10.8232 -32.156 -39.794
   vertex -11.1295 -32.3531 -39.794
  endloop
 endfacet
 facet normal -0.54106 0.840883 0.013032
  outer loop
   vertex -11.1295 -32.3531 -39.794
   vertex -10.8232 -32.156 -39.794
   vertex -10.8352 -32.156 -40.294
  endloop
 endfacet
 facet normal -0.67971 0.724496 -0.114457
  outer loop
   vertex -11.1295 -32.3531 -39.794
   vertex -10.8352 -32.156 -40.294
   vertex -11.1295 -32.4321 -40.294
  endloop
 endfacet
 facet normal -0.666983 0.710931 0.22296
  outer loop
   vertex -11.1295 -32.4321 -40.294
   vertex -10.8352 -32.156 -40.294
   vertex -11.0023 -32.156 -40.794
  endloop
 endfacet
 facet normal -0.614159 0.746496 0.256033
  outer loop
   vertex -11.1295 -32.4321 -40.294
   vertex -11.0023 -32.156 -40.794
   vertex -11.1295 -32.2606 -40.794
  endloop
 endfacet
 facet normal -0.502851 0.611204 -0.611204
  outer loop
   vertex -11.1295 -32.2606 -40.794
   vertex -11.0023 -32.156 -40.794
   vertex -11.1295 -32.656 -41.1894
  endloop
 endfacet
 facet normal -0.727678 0.485018 -0.485018
  outer loop
   vertex -11.1295 -32.2606 -40.794
   vertex -11.1295 -32.656 -41.1894
   vertex -11.393 -32.656 -40.794
  endloop
 endfacet
 facet normal -0.768133 -0.384506 -0.511983
  outer loop
   vertex -11.393 -32.656 -40.794
   vertex -11.1295 -32.656 -41.1894
   vertex -11.1428 -33.156 -40.794
  endloop
 endfacet
 facet normal -0.87682 -0.438912 0.196326
  outer loop
   vertex -11.393 -32.656 -40.794
   vertex -11.1428 -33.156 -40.794
   vertex -11.2811 -32.656 -40.294
  endloop
 endfacet
 facet normal -0.962669 -0.270648 0.00431127
  outer loop
   vertex -11.2811 -32.656 -40.294
   vertex -11.1428 -33.156 -40.794
   vertex -11.1405 -33.156 -40.294
  endloop
 endfacet
 facet normal -0.952128 -0.267684 -0.147637
  outer loop
   vertex -11.2811 -32.656 -40.294
   vertex -11.1405 -33.156 -40.294
   vertex -11.3586 -32.656 -39.794
  endloop
 endfacet
 facet normal -0.760137 0.574988 -0.302622
  outer loop
   vertex -11.1295 -32.156 -39.4195
   vertex -11.1295 -32.3531 -39.794
   vertex -11.3586 -32.656 -39.794
  endloop
 endfacet
 facet normal -0.791504 0.598714 -0.12273
  outer loop
   vertex -11.3586 -32.656 -39.794
   vertex -11.1295 -32.3531 -39.794
   vertex -11.2811 -32.656 -40.294
  endloop
 endfacet
 facet normal -0.620432 0.632062 -0.464287
  outer loop
   vertex -11.1295 -32.156 -39.4195
   vertex -11.3586 -32.656 -39.794
   vertex -11.2234 -32.156 -39.294
  endloop
 endfacet
 facet normal -0.457204 -0.884687 -0.0910715
  outer loop
   vertex -11.2234 -33.656 -39.294
   vertex -11.1295 -33.656 -39.7654
   vertex -11.1295 -33.7045 -39.294
  endloop
 endfacet
 facet normal -0.319935 -0.942459 -0.0970187
  outer loop
   vertex -11.1295 -33.7045 -39.294
   vertex -11.1295 -33.656 -39.7654
   vertex -10.6295 -33.8228 -39.794
  endloop
 endfacet
 facet normal -0.100702 -0.986051 0.132525
  outer loop
   vertex -11.1295 -33.7045 -39.294
   vertex -10.6295 -33.8228 -39.794
   vertex -10.6295 -33.7556 -39.294
  endloop
 endfacet
 facet normal 0.198345 -0.971398 0.130555
  outer loop
   vertex -10.6295 -33.7556 -39.294
   vertex -10.6295 -33.8228 -39.794
   vertex -10.1295 -33.7207 -39.794
  endloop
 endfacet
 facet normal -0.824843 0.558435 -0.0882227
  outer loop
   vertex -11.1295 -32.3531 -39.794
   vertex -11.1295 -32.4321 -40.294
   vertex -11.2811 -32.656 -40.294
  endloop
 endfacet
 facet normal -0.814196 0.551227 0.182304
  outer loop
   vertex -11.2811 -32.656 -40.294
   vertex -11.1295 -32.4321 -40.294
   vertex -11.393 -32.656 -40.794
  endloop
 endfacet
 facet normal -0.798354 -0.434186 -0.417269
  outer loop
   vertex -11.3987 -33.156 -39.794
   vertex -11.1295 -33.1704 -40.294
   vertex -11.1295 -33.6509 -39.794
  endloop
 endfacet
 facet normal -0.566398 -0.594211 -0.571058
  outer loop
   vertex -11.1295 -33.6509 -39.794
   vertex -11.1295 -33.1704 -40.294
   vertex -10.6295 -33.647 -40.294
  endloop
 endfacet
 facet normal -0.506609 -0.693652 -0.512049
  outer loop
   vertex -11.1295 -33.6509 -39.794
   vertex -10.6295 -33.647 -40.294
   vertex -11.1225 -33.656 -39.794
  endloop
 endfacet
 facet normal -0.387157 -0.832276 -0.396769
  outer loop
   vertex -11.1225 -33.656 -39.794
   vertex -10.6295 -33.647 -40.294
   vertex -10.6295 -33.656 -40.2751
  endloop
 endfacet
 facet normal -0.817445 0.54485 0.186872
  outer loop
   vertex -11.1295 -32.2606 -40.794
   vertex -11.393 -32.656 -40.794
   vertex -11.1295 -32.4321 -40.294
  endloop
 endfacet
 facet normal -0.707103 -0.707103 0.00316673
  outer loop
   vertex -11.1405 -33.156 -40.294
   vertex -11.1428 -33.156 -40.794
   vertex -11.1295 -33.1693 -40.794
  endloop
 endfacet
 facet normal -0.656009 -0.656009 -0.373235
  outer loop
   vertex -11.1295 -33.1693 -40.794
   vertex -11.1428 -33.156 -40.794
   vertex -11.1295 -33.156 -40.8173
  endloop
 endfacet
 facet normal -0.552122 -0.724682 -0.412307
  outer loop
   vertex -11.1295 -33.1693 -40.794
   vertex -11.1295 -33.156 -40.8173
   vertex -10.6295 -33.2657 -41.294
  endloop
 endfacet
 facet normal -0.550489 -0.727223 -0.41001
  outer loop
   vertex -10.6295 -33.2657 -41.294
   vertex -11.1295 -33.156 -40.8173
   vertex -10.7744 -33.156 -41.294
  endloop
 endfacet
 facet normal -0.467386 -0.61744 -0.632707
  outer loop
   vertex -10.6295 -33.2657 -41.294
   vertex -10.7744 -33.156 -41.294
   vertex -10.6295 -33.156 -41.4011
  endloop
 endfacet
 facet normal -0.535289 -0.434029 -0.724627
  outer loop
   vertex -10.6295 -33.156 -41.4011
   vertex -10.7744 -33.156 -41.294
   vertex -10.6295 -32.656 -41.7006
  endloop
 endfacet
 facet normal -0.815688 -0.345369 -0.464084
  outer loop
   vertex -11.1428 -33.156 -40.794
   vertex -11.1295 -32.656 -41.1894
   vertex -11.1295 -33.156 -40.8173
  endloop
 endfacet
 facet normal -0.732847 -0.406205 -0.545832
  outer loop
   vertex -11.1295 -33.156 -40.8173
   vertex -11.1295 -32.656 -41.1894
   vertex -10.7744 -33.156 -41.294
  endloop
 endfacet
 facet normal -0.0904031 0.548339 0.831355
  outer loop
   vertex -10.6295 -31.9864 -39.294
   vertex -11.1295 -32.156 -39.2365
   vertex -10.6295 -32.156 -39.1822
  endloop
 endfacet
 facet normal -0.105364 0.223746 0.968936
  outer loop
   vertex -10.6295 -32.156 -39.1822
   vertex -11.1295 -32.156 -39.2365
   vertex -10.6295 -32.656 -39.0667
  endloop
 endfacet
 facet normal 0.0833758 0.224215 0.970967
  outer loop
   vertex -10.6295 -32.156 -39.1822
   vertex -10.6295 -32.656 -39.0667
   vertex -10.1295 -32.656 -39.1096
  endloop
 endfacet
 facet normal 0.0850879 -0.104237 0.990906
  outer loop
   vertex -10.1295 -32.656 -39.1096
   vertex -10.6295 -32.656 -39.0667
   vertex -10.1295 -33.156 -39.1622
  endloop
 endfacet
 facet normal 0.656652 -0.0789014 0.750055
  outer loop
   vertex -10.1295 -32.656 -39.1096
   vertex -10.1295 -33.156 -39.1622
   vertex -9.979 -33.156 -39.294
  endloop
 endfacet
 facet normal 0.629849 -0.292742 0.719439
  outer loop
   vertex -9.979 -33.156 -39.294
   vertex -10.1295 -33.156 -39.1622
   vertex -10.1295 -33.4798 -39.294
  endloop
 endfacet
 facet normal 0.875437 -0.406887 0.26087
  outer loop
   vertex -9.979 -33.156 -39.294
   vertex -10.1295 -33.4798 -39.294
   vertex -10.0624 -33.656 -39.794
  endloop
 endfacet
 facet normal 0.878089 -0.402014 0.259508
  outer loop
   vertex -10.0624 -33.656 -39.794
   vertex -10.1295 -33.4798 -39.294
   vertex -10.1295 -33.656 -39.5669
  endloop
 endfacet
 facet normal -0.0895216 0.54624 0.832831
  outer loop
   vertex -11.1295 -32.156 -39.2365
   vertex -10.6295 -31.9864 -39.294
   vertex -11.1295 -32.0684 -39.294
  endloop
 endfacet
 facet normal -0.160157 0.977243 -0.139087
  outer loop
   vertex -11.1295 -32.0684 -39.294
   vertex -10.6295 -31.9864 -39.294
   vertex -10.6295 -32.0576 -39.794
  endloop
 endfacet
 facet normal -0.415537 0.817926 -0.397902
  outer loop
   vertex -11.1295 -32.0684 -39.294
   vertex -10.6295 -32.0576 -39.794
   vertex -10.8232 -32.156 -39.794
  endloop
 endfacet
 facet normal -0.452909 0.89149 0.0109088
  outer loop
   vertex -10.8232 -32.156 -39.794
   vertex -10.6295 -32.0576 -39.794
   vertex -10.8352 -32.156 -40.294
  endloop
 endfacet
 facet normal -0.490831 0.870717 0.0305979
  outer loop
   vertex -10.6295 -32.0576 -39.794
   vertex -10.6295 -32.04 -40.294
   vertex -10.8352 -32.156 -40.294
  endloop
 endfacet
 facet normal -0.484576 0.85962 0.161985
  outer loop
   vertex -10.8352 -32.156 -40.294
   vertex -10.6295 -32.04 -40.294
   vertex -11.0023 -32.156 -40.794
  endloop
 endfacet
 facet normal -0.41488 0.904405 0.0996266
  outer loop
   vertex -10.6295 -32.04 -40.294
   vertex -10.6295 -31.985 -40.794
   vertex -11.0023 -32.156 -40.794
  endloop
 endfacet
 facet normal -0.383748 0.83654 -0.391074
  outer loop
   vertex -11.0023 -32.156 -40.794
   vertex -10.6295 -31.985 -40.794
   vertex -10.6295 -32.156 -41.1599
  endloop
 endfacet
 facet normal -0.562319 0.596159 -0.573055
  outer loop
   vertex -11.0023 -32.156 -40.794
   vertex -10.6295 -32.156 -41.1599
   vertex -11.1295 -32.656 -41.1894
  endloop
 endfacet
 facet normal -0.554758 0.589434 -0.587207
  outer loop
   vertex -11.1295 -32.656 -41.1894
   vertex -10.6295 -32.156 -41.1599
   vertex -11.0188 -32.656 -41.294
  endloop
 endfacet
 facet normal -0.651057 -0.318142 -0.689138
  outer loop
   vertex -11.1295 -32.656 -41.1894
   vertex -11.0188 -32.656 -41.294
   vertex -10.7744 -33.156 -41.294
  endloop
 endfacet
 facet normal -0.681114 -0.33283 -0.652157
  outer loop
   vertex -10.7744 -33.156 -41.294
   vertex -11.0188 -32.656 -41.294
   vertex -10.6295 -32.656 -41.7006
  endloop
 endfacet
 facet normal -0.59537 0.60527 -0.528378
  outer loop
   vertex -11.0188 -32.656 -41.294
   vertex -10.6295 -32.156 -41.1599
   vertex -10.6295 -32.2731 -41.294
  endloop
 endfacet
 facet normal -0.554143 0.627094 -0.54743
  outer loop
   vertex -10.6295 -32.2731 -41.294
   vertex -10.6295 -32.156 -41.1599
   vertex -10.497 -32.156 -41.294
  endloop
 endfacet
 facet normal -0.54344 0.614981 -0.571377
  outer loop
   vertex -10.6295 -32.2731 -41.294
   vertex -10.497 -32.156 -41.294
   vertex -10.5371 -32.656 -41.794
  endloop
 endfacet
 facet normal -0.941992 0.272093 -0.196509
  outer loop
   vertex -10.5371 -32.656 -41.794
   vertex -10.497 -32.156 -41.294
   vertex -10.3927 -32.156 -41.794
  endloop
 endfacet
 facet normal -0.885034 0.255641 -0.389053
  outer loop
   vertex -10.5371 -32.656 -41.794
   vertex -10.3927 -32.156 -41.794
   vertex -10.3173 -32.656 -42.294
  endloop
 endfacet
 facet normal -0.988829 0 -0.149058
  outer loop
   vertex -10.3173 -32.656 -42.294
   vertex -10.3927 -32.156 -41.794
   vertex -10.3173 -32.156 -42.294
  endloop
 endfacet
 facet normal -0.259181 -0 -0.965829
  outer loop
   vertex -10.3173 -32.656 -42.294
   vertex -10.3173 -32.156 -42.294
   vertex -10.1295 -32.156 -42.3444
  endloop
 endfacet
 facet normal -0.182992 0.708175 -0.681911
  outer loop
   vertex -10.1295 -32.156 -42.3444
   vertex -10.3173 -32.156 -42.294
   vertex -10.1295 -32.1075 -42.294
  endloop
 endfacet
 facet normal -0.574026 -0.689998 -0.440904
  outer loop
   vertex -11.1295 -33.1693 -40.794
   vertex -10.6295 -33.2657 -41.294
   vertex -10.6295 -33.5852 -40.794
  endloop
 endfacet
 facet normal -0.582192 0.591872 -0.55744
  outer loop
   vertex -11.0188 -32.656 -41.294
   vertex -10.6295 -32.2731 -41.294
   vertex -10.6295 -32.656 -41.7006
  endloop
 endfacet
 facet normal -0.569832 0.598213 -0.563412
  outer loop
   vertex -10.6295 -32.656 -41.7006
   vertex -10.6295 -32.2731 -41.294
   vertex -10.5371 -32.656 -41.794
  endloop
 endfacet
 facet normal 0.0867288 0.678012 0.729916
  outer loop
   vertex -10.1295 -32.0996 -39.294
   vertex -10.6295 -32.156 -39.1822
   vertex -10.1295 -32.156 -39.2416
  endloop
 endfacet
 facet normal 0.114137 0.25347 0.960586
  outer loop
   vertex -10.1295 -32.156 -39.2416
   vertex -10.6295 -32.156 -39.1822
   vertex -10.1295 -32.656 -39.1096
  endloop
 endfacet
 facet normal 0.516161 0.218523 0.828146
  outer loop
   vertex -10.1295 -32.156 -39.2416
   vertex -10.1295 -32.656 -39.1096
   vertex -9.83371 -32.656 -39.294
  endloop
 endfacet
 facet normal 0.522806 -0.151913 0.838807
  outer loop
   vertex -9.83371 -32.656 -39.294
   vertex -10.1295 -32.656 -39.1096
   vertex -9.979 -33.156 -39.294
  endloop
 endfacet
 facet normal 0.92824 -0.269722 0.256167
  outer loop
   vertex -9.83371 -32.656 -39.294
   vertex -9.979 -33.156 -39.294
   vertex -9.84101 -33.156 -39.794
  endloop
 endfacet
 facet normal 0.886589 -0.39255 0.244672
  outer loop
   vertex -9.84101 -33.156 -39.794
   vertex -9.979 -33.156 -39.294
   vertex -10.0624 -33.656 -39.794
  endloop
 endfacet
 facet normal 0.123608 0.546371 0.828372
  outer loop
   vertex -10.6295 -32.156 -39.1822
   vertex -10.1295 -32.0996 -39.294
   vertex -10.6295 -31.9864 -39.294
  endloop
 endfacet
 facet normal 0.218562 0.966087 -0.1375
  outer loop
   vertex -10.6295 -31.9864 -39.294
   vertex -10.1295 -32.0996 -39.294
   vertex -10.6295 -32.0576 -39.794
  endloop
 endfacet
 facet normal 0.29618 -0.359986 0.884696
  outer loop
   vertex -10.1295 -33.156 -39.1622
   vertex -10.3436 -33.656 -39.294
   vertex -10.1295 -33.4798 -39.294
  endloop
 endfacet
 facet normal 0.568619 -0.691116 0.446129
  outer loop
   vertex -10.1295 -33.4798 -39.294
   vertex -10.3436 -33.656 -39.294
   vertex -10.1295 -33.656 -39.5669
  endloop
 endfacet
 facet normal -0.0208921 0.994324 0.104324
  outer loop
   vertex -10.6295 -32.0576 -39.794
   vertex -10.1295 -32.0996 -39.294
   vertex -10.1295 -32.0471 -39.794
  endloop
 endfacet
 facet normal 0.513035 0.853682 0.0895678
  outer loop
   vertex -10.1295 -32.0471 -39.794
   vertex -10.1295 -32.0996 -39.294
   vertex -10.0356 -32.156 -39.294
  endloop
 endfacet
 facet normal 0.580047 0.811753 0.0678503
  outer loop
   vertex -10.1295 -32.0471 -39.794
   vertex -10.0356 -32.156 -39.294
   vertex -9.97711 -32.156 -39.794
  endloop
 endfacet
 facet normal 0.908037 0.405199 0.106217
  outer loop
   vertex -9.97711 -32.156 -39.794
   vertex -10.0356 -32.156 -39.294
   vertex -9.75399 -32.656 -39.794
  endloop
 endfacet
 facet normal 0.904262 0.403514 0.139594
  outer loop
   vertex -9.97711 -32.156 -39.794
   vertex -9.75399 -32.656 -39.794
   vertex -9.89992 -32.156 -40.294
  endloop
 endfacet
 facet normal 0.789983 0.533222 0.302656
  outer loop
   vertex -9.89992 -32.156 -40.294
   vertex -9.75399 -32.656 -39.794
   vertex -9.6295 -32.5566 -40.294
  endloop
 endfacet
 facet normal 0.761909 0.514272 0.393724
  outer loop
   vertex -9.89992 -32.156 -40.294
   vertex -9.6295 -32.5566 -40.294
   vertex -9.6295 -32.1738 -40.794
  endloop
 endfacet
 facet normal -0.0209938 0.999163 0.0351116
  outer loop
   vertex -10.6295 -32.0576 -39.794
   vertex -10.1295 -32.0471 -39.794
   vertex -10.6295 -32.04 -40.294
  endloop
 endfacet
 facet normal -0.0461238 0.997119 0.0602127
  outer loop
   vertex -10.6295 -32.04 -40.294
   vertex -10.1295 -32.0471 -39.794
   vertex -10.1295 -32.0169 -40.294
  endloop
 endfacet
 facet normal -0.0459304 0.992938 0.109379
  outer loop
   vertex -10.6295 -32.04 -40.294
   vertex -10.1295 -32.0169 -40.294
   vertex -10.6295 -31.985 -40.794
  endloop
 endfacet
 facet normal -0.114812 0.977442 0.177271
  outer loop
   vertex -10.6295 -31.985 -40.794
   vertex -10.1295 -32.0169 -40.294
   vertex -10.1295 -31.9262 -40.794
  endloop
 endfacet
 facet normal -0.116643 0.993029 -0.0169442
  outer loop
   vertex -10.6295 -31.985 -40.794
   vertex -10.1295 -31.9262 -40.794
   vertex -10.1295 -31.9348 -41.294
  endloop
 endfacet
 facet normal 0.43048 0.902469 -0.015399
  outer loop
   vertex -10.1295 -31.9348 -41.294
   vertex -10.1295 -31.9262 -40.794
   vertex -9.64781 -32.156 -40.794
  endloop
 endfacet
 facet normal 0.4466 0.894063 -0.0346487
  outer loop
   vertex -10.1295 -31.9348 -41.294
   vertex -9.64781 -32.156 -40.794
   vertex -9.6866 -32.156 -41.294
  endloop
 endfacet
 facet normal 0.781404 0.621074 -0.0606239
  outer loop
   vertex -9.6866 -32.156 -41.294
   vertex -9.64781 -32.156 -40.794
   vertex -9.6295 -32.2278 -41.294
  endloop
 endfacet
 facet normal 0.765319 0.608289 0.210409
  outer loop
   vertex -9.6866 -32.156 -41.294
   vertex -9.6295 -32.2278 -41.294
   vertex -9.6295 -32.156 -41.5017
  endloop
 endfacet
 facet normal -0.0910429 -0.898923 -0.428542
  outer loop
   vertex -10.6295 -33.656 -40.2751
   vertex -10.6295 -33.647 -40.294
   vertex -10.5404 -33.656 -40.294
  endloop
 endfacet
 facet normal -0.0999387 -0.986758 -0.127756
  outer loop
   vertex -10.5404 -33.656 -40.294
   vertex -10.6295 -33.647 -40.294
   vertex -10.1295 -33.6329 -40.794
  endloop
 endfacet
 facet normal 0.19976 -0.978325 -0.054562
  outer loop
   vertex -10.6295 -33.8228 -39.794
   vertex -10.1295 -33.6928 -40.294
   vertex -10.1295 -33.7207 -39.794
  endloop
 endfacet
 facet normal 0.643174 -0.764532 -0.0426386
  outer loop
   vertex -10.1295 -33.7207 -39.794
   vertex -10.1295 -33.6928 -40.294
   vertex -10.0857 -33.656 -40.294
  endloop
 endfacet
 facet normal -0.394012 0.832615 -0.389239
  outer loop
   vertex -10.6295 -32.156 -41.1599
   vertex -10.6295 -31.985 -40.794
   vertex -10.497 -32.156 -41.294
  endloop
 endfacet
 facet normal -0.473864 0.787118 -0.394838
  outer loop
   vertex -10.497 -32.156 -41.294
   vertex -10.6295 -31.985 -40.794
   vertex -10.1295 -31.9348 -41.294
  endloop
 endfacet
 facet normal -0.512811 0.851811 -0.106978
  outer loop
   vertex -10.497 -32.156 -41.294
   vertex -10.1295 -31.9348 -41.294
   vertex -10.3927 -32.156 -41.794
  endloop
 endfacet
 facet normal -0.5521 0.830238 -0.0767516
  outer loop
   vertex -10.3927 -32.156 -41.794
   vertex -10.1295 -31.9348 -41.294
   vertex -10.1295 -31.981 -41.794
  endloop
 endfacet
 facet normal -0.551814 0.829808 -0.0831814
  outer loop
   vertex -10.3927 -32.156 -41.794
   vertex -10.1295 -31.981 -41.794
   vertex -10.3173 -32.156 -42.294
  endloop
 endfacet
 facet normal -0.242999 0.940404 -0.237892
  outer loop
   vertex -10.3173 -32.156 -42.294
   vertex -10.1295 -31.981 -41.794
   vertex -10.1295 -32.1075 -42.294
  endloop
 endfacet
 facet normal 0.378564 0.629925 0.678148
  outer loop
   vertex -10.1295 -32.0996 -39.294
   vertex -10.1295 -32.156 -39.2416
   vertex -10.0356 -32.156 -39.294
  endloop
 endfacet
 facet normal 0.478254 0.193101 0.856729
  outer loop
   vertex -10.0356 -32.156 -39.294
   vertex -10.1295 -32.156 -39.2416
   vertex -9.83371 -32.656 -39.294
  endloop
 endfacet
 facet normal 0.917297 0.37037 0.14626
  outer loop
   vertex -10.0356 -32.156 -39.294
   vertex -9.83371 -32.656 -39.294
   vertex -9.75399 -32.656 -39.794
  endloop
 endfacet
 facet normal 0.973254 -0.169394 0.155182
  outer loop
   vertex -9.75399 -32.656 -39.794
   vertex -9.83371 -32.656 -39.294
   vertex -9.84101 -33.156 -39.794
  endloop
 endfacet
 facet normal 0.516511 0.85256 0.0797355
  outer loop
   vertex -9.97711 -32.156 -39.794
   vertex -9.89992 -32.156 -40.294
   vertex -10.1295 -32.0169 -40.294
  endloop
 endfacet
 facet normal 0.512037 0.845176 0.153283
  outer loop
   vertex -10.1295 -32.0169 -40.294
   vertex -9.89992 -32.156 -40.294
   vertex -10.1295 -31.9262 -40.794
  endloop
 endfacet
 facet normal 0.580686 0.812647 0.0490731
  outer loop
   vertex -10.1295 -32.0471 -39.794
   vertex -9.97711 -32.156 -39.794
   vertex -10.1295 -32.0169 -40.294
  endloop
 endfacet
 facet normal 0.905137 -0.284419 0.315963
  outer loop
   vertex -9.6295 -32.656 -40.1631
   vertex -9.74091 -33.156 -40.294
   vertex -9.6295 -32.8015 -40.294
  endloop
 endfacet
 facet normal 0.921828 -0.289664 0.257542
  outer loop
   vertex -9.6295 -32.8015 -40.294
   vertex -9.74091 -33.156 -40.294
   vertex -9.6295 -33.156 -40.6928
  endloop
 endfacet
 facet normal 0.897271 -0.329931 0.293343
  outer loop
   vertex -9.6295 -32.8015 -40.294
   vertex -9.6295 -33.156 -40.6928
   vertex -9.5964 -33.156 -40.794
  endloop
 endfacet
 facet normal 0.718593 -0.654548 0.234928
  outer loop
   vertex -9.5964 -33.156 -40.794
   vertex -9.6295 -33.156 -40.6928
   vertex -9.6295 -33.1923 -40.794
  endloop
 endfacet
 facet normal 0.700428 -0.638003 -0.319925
  outer loop
   vertex -9.5964 -33.156 -40.794
   vertex -9.6295 -33.1923 -40.794
   vertex -9.6295 -33.156 -40.8665
  endloop
 endfacet
 facet normal 0.561835 -0.739486 -0.370813
  outer loop
   vertex -9.6295 -33.156 -40.8665
   vertex -9.6295 -33.1923 -40.794
   vertex -9.91167 -33.156 -41.294
  endloop
 endfacet
 facet normal 0.622572 -0.666006 -0.410901
  outer loop
   vertex -9.6295 -33.156 -40.8665
   vertex -9.91167 -33.156 -41.294
   vertex -9.6295 -32.8922 -41.294
  endloop
 endfacet
 facet normal 0.420731 0.882032 0.212144
  outer loop
   vertex -10.1295 -31.9262 -40.794
   vertex -9.89992 -32.156 -40.294
   vertex -9.64781 -32.156 -40.794
  endloop
 endfacet
 facet normal 0.658302 0.675618 0.331933
  outer loop
   vertex -9.64781 -32.156 -40.794
   vertex -9.89992 -32.156 -40.294
   vertex -9.6295 -32.1738 -40.794
  endloop
 endfacet
 facet normal 0.69579 0.714093 -0.0771232
  outer loop
   vertex -9.64781 -32.156 -40.794
   vertex -9.6295 -32.1738 -40.794
   vertex -9.6295 -32.2278 -41.294
  endloop
 endfacet
 facet normal 0.704629 -0.678912 0.206339
  outer loop
   vertex -10.1295 -33.656 -40.6121
   vertex -9.6295 -33.1923 -40.794
   vertex -9.74091 -33.156 -40.294
  endloop
 endfacet
 facet normal 0.770608 -0.599843 0.215293
  outer loop
   vertex -9.74091 -33.156 -40.294
   vertex -9.6295 -33.1923 -40.794
   vertex -9.6295 -33.156 -40.6928
  endloop
 endfacet
 facet normal 0.81798 -0.564134 -0.112526
  outer loop
   vertex -9.74091 -33.156 -40.294
   vertex -10.0857 -33.656 -40.294
   vertex -10.1295 -33.656 -40.6121
  endloop
 endfacet
 facet normal 0.64125 -0.762244 -0.0882139
  outer loop
   vertex -10.1295 -33.656 -40.6121
   vertex -10.0857 -33.656 -40.294
   vertex -10.1295 -33.6928 -40.294
  endloop
 endfacet
 facet normal 0.442182 0.888649 0.121569
  outer loop
   vertex -9.6295 -32.156 -41.5017
   vertex -9.6295 -32.116 -41.794
   vertex -9.6866 -32.156 -41.294
  endloop
 endfacet
 facet normal 0.443548 0.887953 0.121669
  outer loop
   vertex -9.6866 -32.156 -41.294
   vertex -9.6295 -32.116 -41.794
   vertex -10.1295 -31.9348 -41.294
  endloop
 endfacet
 facet normal 0.259679 0.961595 -0.088895
  outer loop
   vertex -10.1295 -31.9348 -41.294
   vertex -9.6295 -32.116 -41.794
   vertex -10.1295 -31.981 -41.794
  endloop
 endfacet
 facet normal 0.253267 0.937854 -0.237247
  outer loop
   vertex -10.1295 -31.981 -41.794
   vertex -9.6295 -32.116 -41.794
   vertex -10.1295 -32.1075 -42.294
  endloop
 endfacet
 facet normal 0.613389 0 -0.789781
  outer loop
   vertex -9.94169 -32.656 -42.294
   vertex -9.94169 -32.156 -42.294
   vertex -9.6295 -32.656 -42.0515
  endloop
 endfacet
 facet normal 0.731082 0.131846 -0.66943
  outer loop
   vertex -9.6295 -32.656 -42.0515
   vertex -9.94169 -32.156 -42.294
   vertex -9.6295 -32.156 -41.9531
  endloop
 endfacet
 facet normal 0.973285 0.044368 -0.225272
  outer loop
   vertex -9.6295 -32.656 -42.0515
   vertex -9.6295 -32.156 -41.9531
   vertex -9.59269 -32.156 -41.794
  endloop
 endfacet
 facet normal 0.247329 -0.915104 -0.318454
  outer loop
   vertex -9.94169 -32.656 -42.294
   vertex -9.6295 -32.656 -42.0515
   vertex -9.6295 -32.7456 -41.794
  endloop
 endfacet
 facet normal 0.727817 -0.647675 -0.225389
  outer loop
   vertex -9.6295 -32.7456 -41.794
   vertex -9.6295 -32.656 -42.0515
   vertex -9.54975 -32.656 -41.794
  endloop
 endfacet
 facet normal 0.733239 -0.6525 -0.191321
  outer loop
   vertex -9.6295 -32.7456 -41.794
   vertex -9.54975 -32.656 -41.794
   vertex -9.6295 -32.8922 -41.294
  endloop
 endfacet
 facet normal 0.835542 -0.536155 -0.120035
  outer loop
   vertex -9.6295 -32.8922 -41.294
   vertex -9.54975 -32.656 -41.794
   vertex -9.47792 -32.656 -41.294
  endloop
 endfacet
 facet normal 0.79847 -0.512367 -0.316111
  outer loop
   vertex -9.6295 -32.8922 -41.294
   vertex -9.47792 -32.656 -41.294
   vertex -9.6295 -33.156 -40.8665
  endloop
 endfacet
 facet normal 0.769258 -0.533654 -0.351363
  outer loop
   vertex -9.6295 -33.156 -40.8665
   vertex -9.47792 -32.656 -41.294
   vertex -9.5964 -33.156 -40.794
  endloop
 endfacet
 facet normal 0.884281 -0.312408 0.347056
  outer loop
   vertex -9.6295 -32.656 -40.1631
   vertex -9.6295 -32.8015 -40.294
   vertex -9.57811 -32.656 -40.294
  endloop
 endfacet
 facet normal 0.903465 -0.319185 0.286133
  outer loop
   vertex -9.57811 -32.656 -40.294
   vertex -9.6295 -32.8015 -40.294
   vertex -9.5964 -33.156 -40.794
  endloop
 endfacet
 facet normal 0.838278 -0.400573 0.369906
  outer loop
   vertex -9.57811 -32.656 -40.294
   vertex -9.5964 -33.156 -40.794
   vertex -9.35748 -32.656 -40.794
  endloop
 endfacet
 facet normal 0.881693 -0.421319 -0.212385
  outer loop
   vertex -9.35748 -32.656 -40.794
   vertex -9.5964 -33.156 -40.794
   vertex -9.47792 -32.656 -41.294
  endloop
 endfacet
 facet normal 0.986281 0.0846983 -0.141691
  outer loop
   vertex -9.47792 -32.656 -41.294
   vertex -9.54975 -32.656 -41.794
   vertex -9.59269 -32.156 -41.794
  endloop
 endfacet
 facet normal 0.952046 0.0817584 -0.294828
  outer loop
   vertex -9.59269 -32.156 -41.794
   vertex -9.54975 -32.656 -41.794
   vertex -9.6295 -32.656 -42.0515
  endloop
 endfacet
 facet normal -0.590274 0.274713 0.759019
  outer loop
   vertex -7.6295 -32.3036 -39.294
   vertex -7.79351 -32.656 -39.294
   vertex -7.6295 -32.656 -39.1665
  endloop
 endfacet
 facet normal -0.601343 -0.201166 0.773252
  outer loop
   vertex -7.6295 -32.656 -39.1665
   vertex -7.79351 -32.656 -39.294
   vertex -7.6295 -33.1463 -39.294
  endloop
 endfacet
 facet normal -0.264359 -0.242818 0.933356
  outer loop
   vertex -7.6295 -32.656 -39.1665
   vertex -7.6295 -33.1463 -39.294
   vertex -7.1295 -33.156 -39.1549
  endloop
 endfacet
 facet normal -0.264699 -0.235727 0.935076
  outer loop
   vertex -7.1295 -33.156 -39.1549
   vertex -7.6295 -33.1463 -39.294
   vertex -7.62084 -33.156 -39.294
  endloop
 endfacet
 facet normal -0.217386 -0.602508 0.767937
  outer loop
   vertex -7.1295 -33.156 -39.1549
   vertex -7.62084 -33.156 -39.294
   vertex -7.1295 -33.3333 -39.294
  endloop
 endfacet
 facet normal -0.308919 -0.856202 0.414109
  outer loop
   vertex -7.1295 -33.3333 -39.294
   vertex -7.62084 -33.156 -39.294
   vertex -7.6295 -33.3947 -39.794
  endloop
 endfacet
 facet normal -0.328878 -0.839747 0.432046
  outer loop
   vertex -7.1295 -33.3333 -39.294
   vertex -7.6295 -33.3947 -39.794
   vertex -7.1295 -33.5905 -39.794
  endloop
 endfacet
 facet normal -0.361354 -0.92267 -0.134551
  outer loop
   vertex -7.1295 -33.5905 -39.794
   vertex -7.6295 -33.3947 -39.794
   vertex -7.6295 -33.3218 -40.294
  endloop
 endfacet
 facet normal -0.294356 -0.932988 -0.207095
  outer loop
   vertex -7.1295 -33.5905 -39.794
   vertex -7.6295 -33.3218 -40.294
   vertex -7.1295 -33.4795 -40.294
  endloop
 endfacet
 facet normal -0.285627 -0.90532 -0.314346
  outer loop
   vertex -7.1295 -33.4795 -40.294
   vertex -7.6295 -33.3218 -40.294
   vertex -7.1295 -33.3059 -40.794
  endloop
 endfacet
 facet normal 0.153018 -0.933549 -0.324148
  outer loop
   vertex -7.1295 -33.4795 -40.294
   vertex -7.1295 -33.3059 -40.794
   vertex -6.6295 -33.3976 -40.294
  endloop
 endfacet
 facet normal 0.0553146 -0.970835 -0.23328
  outer loop
   vertex -6.6295 -33.3976 -40.294
   vertex -7.1295 -33.3059 -40.794
   vertex -6.6295 -33.2774 -40.794
  endloop
 endfacet
 facet normal 0.330006 -0.917853 -0.220549
  outer loop
   vertex -6.6295 -33.3976 -40.294
   vertex -6.6295 -33.2774 -40.794
   vertex -6.29173 -33.156 -40.794
  endloop
 endfacet
 facet normal 0.319682 -0.889139 -0.327469
  outer loop
   vertex -6.29173 -33.156 -40.794
   vertex -6.6295 -33.2774 -40.794
   vertex -6.6295 -33.156 -41.1237
  endloop
 endfacet
 facet normal 0.473812 -0.734803 -0.485353
  outer loop
   vertex -6.29173 -33.156 -40.794
   vertex -6.6295 -33.156 -41.1237
   vertex -6.1295 -33.0514 -40.794
  endloop
 endfacet
 facet normal 0.438488 -0.799044 -0.411409
  outer loop
   vertex -6.1295 -33.0514 -40.794
   vertex -6.6295 -33.156 -41.1237
   vertex -6.6295 -33.0683 -41.294
  endloop
 endfacet
 facet normal 0.535159 -0.671604 -0.512399
  outer loop
   vertex -6.1295 -33.0514 -40.794
   vertex -6.6295 -33.0683 -41.294
   vertex -6.1295 -32.6699 -41.294
  endloop
 endfacet
 facet normal 0.618207 -0.775826 -0.126153
  outer loop
   vertex -6.1295 -32.6699 -41.294
   vertex -6.6295 -33.0683 -41.294
   vertex -6.6295 -32.987 -41.794
  endloop
 endfacet
 facet normal 0.746235 -0.518657 -0.417286
  outer loop
   vertex -6.1295 -32.6699 -41.294
   vertex -6.6295 -32.987 -41.794
   vertex -6.39942 -32.656 -41.794
  endloop
 endfacet
 facet normal 0.759962 -0.528198 -0.378766
  outer loop
   vertex -6.39942 -32.656 -41.794
   vertex -6.6295 -32.987 -41.794
   vertex -6.6295 -32.656 -42.2556
  endloop
 endfacet
 facet normal 0.867987 0.243827 -0.432605
  outer loop
   vertex -6.39942 -32.656 -41.794
   vertex -6.6295 -32.656 -42.2556
   vertex -6.53988 -32.156 -41.794
  endloop
 endfacet
 facet normal 0.93606 0.132966 -0.325747
  outer loop
   vertex -6.53988 -32.156 -41.794
   vertex -6.6295 -32.656 -42.2556
   vertex -6.6295 -32.156 -42.0515
  endloop
 endfacet
 facet normal 0.647675 0.727817 -0.225389
  outer loop
   vertex -6.53988 -32.156 -41.794
   vertex -6.6295 -32.156 -42.0515
   vertex -6.6295 -32.0762 -41.794
  endloop
 endfacet
 facet normal 0.16404 0.942304 -0.291811
  outer loop
   vertex -6.6295 -32.0762 -41.794
   vertex -6.6295 -32.156 -42.0515
   vertex -7.1295 -31.9892 -41.794
  endloop
 endfacet
 facet normal 0.169812 0.975462 -0.140136
  outer loop
   vertex -6.6295 -32.0762 -41.794
   vertex -7.1295 -31.9892 -41.794
   vertex -6.6295 -32.0044 -41.294
  endloop
 endfacet
 facet normal 0.00568207 0.999678 0.0247303
  outer loop
   vertex -6.6295 -32.0044 -41.294
   vertex -7.1295 -31.9892 -41.794
   vertex -7.1295 -32.0016 -41.294
  endloop
 endfacet
 facet normal 0.00545315 0.959403 -0.281986
  outer loop
   vertex -6.6295 -32.0044 -41.294
   vertex -7.1295 -32.0016 -41.294
   vertex -6.6295 -31.8575 -40.794
  endloop
 endfacet
 facet normal -0.0949307 0.977781 -0.1869
  outer loop
   vertex -6.6295 -31.8575 -40.794
   vertex -7.1295 -32.0016 -41.294
   vertex -7.1295 -31.906 -40.794
  endloop
 endfacet
 facet normal -0.0909343 0.936618 0.338344
  outer loop
   vertex -6.6295 -31.8575 -40.794
   vertex -7.1295 -31.906 -40.794
   vertex -6.6295 -32.0381 -40.294
  endloop
 endfacet
 facet normal 0.156846 0.982277 0.102625
  outer loop
   vertex -6.6295 -32.0381 -40.294
   vertex -7.1295 -31.906 -40.794
   vertex -7.1295 -31.9582 -40.294
  endloop
 endfacet
 facet normal 0.156502 0.980126 0.121903
  outer loop
   vertex -6.6295 -32.0381 -40.294
   vertex -7.1295 -31.9582 -40.294
   vertex -7.1295 -32.0204 -39.794
  endloop
 endfacet
 facet normal -0.22804 0.966207 0.120171
  outer loop
   vertex -7.1295 -32.0204 -39.794
   vertex -7.1295 -31.9582 -40.294
   vertex -7.6295 -32.0762 -40.294
  endloop
 endfacet
 facet normal -0.117315 0.993074 0.00644765
  outer loop
   vertex -7.1295 -32.0204 -39.794
   vertex -7.6295 -32.0762 -40.294
   vertex -7.6295 -32.0795 -39.794
  endloop
 endfacet
 facet normal -0.664772 0.74703 0.00485018
  outer loop
   vertex -7.6295 -32.0795 -39.794
   vertex -7.6295 -32.0762 -40.294
   vertex -7.71912 -32.156 -40.294
  endloop
 endfacet
 facet normal -0.637116 0.770759 -0.00373796
  outer loop
   vertex -7.6295 -32.0795 -39.794
   vertex -7.71912 -32.156 -40.294
   vertex -7.72206 -32.156 -39.794
  endloop
 endfacet
 facet normal -0.909412 0.415862 -0.00533552
  outer loop
   vertex -7.72206 -32.156 -39.794
   vertex -7.71912 -32.156 -40.294
   vertex -7.94777 -32.656 -40.294
  endloop
 endfacet
 facet normal -0.815626 0.549452 -0.181262
  outer loop
   vertex -7.72206 -32.156 -39.794
   vertex -7.94777 -32.656 -40.294
   vertex -8.05889 -32.656 -39.794
  endloop
 endfacet
 facet normal -0.94674 -0.243753 -0.2104
  outer loop
   vertex -8.05889 -32.656 -39.794
   vertex -7.94777 -32.656 -40.294
   vertex -7.81903 -33.156 -40.294
  endloop
 endfacet
 facet normal -0.946286 -0.199445 -0.25449
  outer loop
   vertex -8.05889 -32.656 -39.794
   vertex -7.81903 -33.156 -40.294
   vertex -7.9535 -33.156 -39.794
  endloop
 endfacet
 facet normal -0.648305 -0.741149 -0.174353
  outer loop
   vertex -7.9535 -33.156 -39.794
   vertex -7.81903 -33.156 -40.294
   vertex -7.6295 -33.3218 -40.294
  endloop
 endfacet
 facet normal -0.589099 -0.799603 -0.116605
  outer loop
   vertex -7.9535 -33.156 -39.794
   vertex -7.6295 -33.3218 -40.294
   vertex -7.6295 -33.3947 -39.794
  endloop
 endfacet
 facet normal -0.623322 0.754072 0.206992
  outer loop
   vertex -7.6295 -32.0795 -39.794
   vertex -7.72206 -32.156 -39.794
   vertex -7.6295 -32.156 -39.5153
  endloop
 endfacet
 facet normal -0.858071 0.427222 0.284947
  outer loop
   vertex -7.6295 -32.156 -39.5153
   vertex -7.72206 -32.156 -39.794
   vertex -7.6295 -32.3036 -39.294
  endloop
 endfacet
 facet normal -0.557444 0.690681 0.460669
  outer loop
   vertex -7.6295 -32.156 -39.5153
   vertex -7.6295 -32.3036 -39.294
   vertex -7.44663 -32.156 -39.294
  endloop
 endfacet
 facet normal -0.264866 0.328173 0.906724
  outer loop
   vertex -7.44663 -32.156 -39.294
   vertex -7.6295 -32.3036 -39.294
   vertex -7.6295 -32.656 -39.1665
  endloop
 endfacet
 facet normal -0.312683 0.340555 0.886708
  outer loop
   vertex -7.44663 -32.156 -39.294
   vertex -7.6295 -32.656 -39.1665
   vertex -7.1295 -32.156 -39.1822
  endloop
 endfacet
 facet normal -0.1908 0.220864 0.956459
  outer loop
   vertex -7.1295 -32.156 -39.1822
   vertex -7.6295 -32.656 -39.1665
   vertex -7.1295 -32.656 -39.0667
  endloop
 endfacet
 facet normal 0.0718397 0.224417 0.971842
  outer loop
   vertex -7.1295 -32.156 -39.1822
   vertex -7.1295 -32.656 -39.0667
   vertex -6.6295 -32.656 -39.1037
  endloop
 endfacet
 facet normal 0.0725416 -0.178086 0.981337
  outer loop
   vertex -6.6295 -32.656 -39.1037
   vertex -7.1295 -32.656 -39.0667
   vertex -6.6295 -33.156 -39.1944
  endloop
 endfacet
 facet normal 0.252965 -0.172749 0.951928
  outer loop
   vertex -6.6295 -32.656 -39.1037
   vertex -6.6295 -33.156 -39.1944
   vertex -6.1295 -32.656 -39.2365
  endloop
 endfacet
 facet normal 0.406372 -0.33473 0.850187
  outer loop
   vertex -6.1295 -32.656 -39.2365
   vertex -6.6295 -33.156 -39.1944
   vertex -6.42114 -33.156 -39.294
  endloop
 endfacet
 facet normal 0.484197 -0.373356 0.791302
  outer loop
   vertex -6.1295 -32.656 -39.2365
   vertex -6.42114 -33.156 -39.294
   vertex -6.1295 -32.7778 -39.294
  endloop
 endfacet
 facet normal 0.759487 -0.585627 -0.283231
  outer loop
   vertex -6.1295 -32.7778 -39.294
   vertex -6.42114 -33.156 -39.294
   vertex -6.22206 -32.656 -39.794
  endloop
 endfacet
 facet normal 0.87291 -0.411656 -0.261853
  outer loop
   vertex -6.1295 -32.7778 -39.294
   vertex -6.22206 -32.656 -39.794
   vertex -6.1295 -32.656 -39.4855
  endloop
 endfacet
 facet normal 0.739306 0.635801 -0.221774
  outer loop
   vertex -6.1295 -32.656 -39.4855
   vertex -6.22206 -32.656 -39.794
   vertex -6.6295 -32.1822 -39.794
  endloop
 endfacet
 facet normal 0.735083 0.649795 -0.193442
  outer loop
   vertex -6.1295 -32.656 -39.4855
   vertex -6.6295 -32.1822 -39.794
   vertex -6.6295 -32.156 -39.7059
  endloop
 endfacet
 facet normal 0.370451 0.890241 -0.265022
  outer loop
   vertex -6.6295 -32.156 -39.7059
   vertex -6.6295 -32.1822 -39.794
   vertex -6.69253 -32.156 -39.794
  endloop
 endfacet
 facet normal 0.28988 0.934325 -0.207381
  outer loop
   vertex -6.6295 -32.156 -39.7059
   vertex -6.69253 -32.156 -39.794
   vertex -7.1295 -32.0204 -39.794
  endloop
 endfacet
 facet normal 0.286604 0.923767 0.253994
  outer loop
   vertex -7.1295 -32.0204 -39.794
   vertex -6.69253 -32.156 -39.794
   vertex -6.6295 -32.0381 -40.294
  endloop
 endfacet
 facet normal -0.870192 0.404987 0.280627
  outer loop
   vertex -7.6295 -32.3036 -39.294
   vertex -7.72206 -32.156 -39.794
   vertex -7.79351 -32.656 -39.294
  endloop
 endfacet
 facet normal -0.759079 0.511359 0.402879
  outer loop
   vertex -7.79351 -32.656 -39.294
   vertex -7.72206 -32.156 -39.794
   vertex -8.05889 -32.656 -39.794
  endloop
 endfacet
 facet normal -0.86838 -0.183025 0.460889
  outer loop
   vertex -7.79351 -32.656 -39.294
   vertex -8.05889 -32.656 -39.794
   vertex -7.9535 -33.156 -39.794
  endloop
 endfacet
 facet normal -0.817298 -0.273409 0.507219
  outer loop
   vertex -7.79351 -32.656 -39.294
   vertex -7.6295 -33.156 -39.2992
   vertex -7.6295 -33.1463 -39.294
  endloop
 endfacet
 facet normal -0.470228 -0.41876 0.776869
  outer loop
   vertex -7.6295 -33.1463 -39.294
   vertex -7.6295 -33.156 -39.2992
   vertex -7.62084 -33.156 -39.294
  endloop
 endfacet
 facet normal -0.805561 -0.269772 0.527536
  outer loop
   vertex -7.79351 -32.656 -39.294
   vertex -7.9535 -33.156 -39.794
   vertex -7.6295 -33.156 -39.2992
  endloop
 endfacet
 facet normal -0.5529 -0.750468 0.362076
  outer loop
   vertex -7.6295 -33.156 -39.2992
   vertex -7.9535 -33.156 -39.794
   vertex -7.6295 -33.3947 -39.794
  endloop
 endfacet
 facet normal -0.254367 -0.87103 0.420243
  outer loop
   vertex -7.6295 -33.156 -39.2992
   vertex -7.6295 -33.3947 -39.794
   vertex -7.62084 -33.156 -39.294
  endloop
 endfacet
 facet normal -0.664482 0.746704 -0.0299258
  outer loop
   vertex -7.6295 -32.0762 -40.294
   vertex -7.69661 -32.156 -40.794
   vertex -7.71912 -32.156 -40.294
  endloop
 endfacet
 facet normal -0.959057 0.279902 -0.0431924
  outer loop
   vertex -7.71912 -32.156 -40.294
   vertex -7.69661 -32.156 -40.794
   vertex -7.84253 -32.656 -40.794
  endloop
 endfacet
 facet normal -0.89321 0.408453 -0.187996
  outer loop
   vertex -7.71912 -32.156 -40.294
   vertex -7.84253 -32.656 -40.794
   vertex -7.94777 -32.656 -40.294
  endloop
 endfacet
 facet normal -0.948907 -0.244311 -0.199718
  outer loop
   vertex -7.94777 -32.656 -40.294
   vertex -7.84253 -32.656 -40.794
   vertex -7.81903 -33.156 -40.294
  endloop
 endfacet
 facet normal -0.693936 0.719711 -0.0216673
  outer loop
   vertex -7.6295 -32.0762 -40.294
   vertex -7.6295 -32.0913 -40.794
   vertex -7.69661 -32.156 -40.794
  endloop
 endfacet
 facet normal -0.692686 0.718416 -0.0637556
  outer loop
   vertex -7.69661 -32.156 -40.794
   vertex -7.6295 -32.0913 -40.794
   vertex -7.65059 -32.156 -41.294
  endloop
 endfacet
 facet normal -0.973356 0.211073 -0.0895887
  outer loop
   vertex -7.69661 -32.156 -40.794
   vertex -7.65059 -32.156 -41.294
   vertex -7.75901 -32.656 -41.294
  endloop
 endfacet
 facet normal -0.947619 0.205491 -0.244525
  outer loop
   vertex -7.75901 -32.656 -41.294
   vertex -7.65059 -32.156 -41.294
   vertex -7.62999 -32.656 -41.794
  endloop
 endfacet
 facet normal -0.772495 -0.602923 -0.199336
  outer loop
   vertex -7.75901 -32.656 -41.294
   vertex -7.62999 -32.656 -41.794
   vertex -7.6295 -32.6566 -41.794
  endloop
 endfacet
 facet normal -0.690329 -0.538793 -0.482853
  outer loop
   vertex -7.6295 -32.6566 -41.794
   vertex -7.62999 -32.656 -41.794
   vertex -7.6295 -32.656 -41.7947
  endloop
 endfacet
 facet normal -0.594761 -0.598673 -0.536516
  outer loop
   vertex -7.6295 -32.6566 -41.794
   vertex -7.6295 -32.656 -41.7947
   vertex -7.1295 -32.7053 -42.294
  endloop
 endfacet
 facet normal -0.59603 -0.59603 -0.538048
  outer loop
   vertex -7.1295 -32.7053 -42.294
   vertex -7.6295 -32.656 -41.7947
   vertex -7.17877 -32.656 -42.294
  endloop
 endfacet
 facet normal -0.504855 -0.504855 -0.700173
  outer loop
   vertex -7.1295 -32.7053 -42.294
   vertex -7.17877 -32.656 -42.294
   vertex -7.1295 -32.656 -42.3295
  endloop
 endfacet
 facet normal -0.582477 0.0902136 -0.807825
  outer loop
   vertex -7.1295 -32.656 -42.3295
   vertex -7.17877 -32.656 -42.294
   vertex -7.1295 -32.3379 -42.294
  endloop
 endfacet
 facet normal 0.110308 0.110307 -0.987757
  outer loop
   vertex -7.1295 -32.656 -42.3295
   vertex -7.1295 -32.3379 -42.294
   vertex -6.81138 -32.656 -42.294
  endloop
 endfacet
 facet normal 0.20215 0.202149 -0.958265
  outer loop
   vertex -6.81138 -32.656 -42.294
   vertex -7.1295 -32.3379 -42.294
   vertex -6.6295 -32.656 -42.2556
  endloop
 endfacet
 facet normal 0.122015 -0.806582 -0.578392
  outer loop
   vertex -6.81138 -32.656 -42.294
   vertex -6.6295 -32.656 -42.2556
   vertex -6.6295 -32.987 -41.794
  endloop
 endfacet
 facet normal -0.802549 -0.49055 -0.339523
  outer loop
   vertex -7.81903 -33.156 -40.294
   vertex -7.6295 -33.12 -40.794
   vertex -7.6295 -33.156 -40.742
  endloop
 endfacet
 facet normal -0.494605 -0.714642 -0.494623
  outer loop
   vertex -7.6295 -33.156 -40.742
   vertex -7.6295 -33.12 -40.794
   vertex -7.57751 -33.156 -40.794
  endloop
 endfacet
 facet normal -0.302489 -0.903877 -0.3025
  outer loop
   vertex -7.6295 -33.156 -40.742
   vertex -7.57751 -33.156 -40.794
   vertex -7.1295 -33.3059 -40.794
  endloop
 endfacet
 facet normal -0.297583 -0.889216 -0.347477
  outer loop
   vertex -7.1295 -33.3059 -40.794
   vertex -7.57751 -33.156 -40.794
   vertex -7.1295 -33.156 -41.1777
  endloop
 endfacet
 facet normal 0.0529939 -0.930104 -0.363454
  outer loop
   vertex -7.1295 -33.3059 -40.794
   vertex -7.1295 -33.156 -41.1777
   vertex -6.6295 -33.2774 -40.794
  endloop
 endfacet
 facet normal 0.0372604 -0.937729 -0.345364
  outer loop
   vertex -6.6295 -33.2774 -40.794
   vertex -7.1295 -33.156 -41.1777
   vertex -6.6295 -33.156 -41.1237
  endloop
 endfacet
 facet normal -0.85107 -0.390726 -0.350732
  outer loop
   vertex -7.81903 -33.156 -40.294
   vertex -7.84253 -32.656 -40.794
   vertex -7.6295 -33.12 -40.794
  endloop
 endfacet
 facet normal -0.88389 -0.405794 -0.232529
  outer loop
   vertex -7.6295 -33.12 -40.794
   vertex -7.84253 -32.656 -40.794
   vertex -7.6295 -32.8335 -41.294
  endloop
 endfacet
 facet normal -0.413027 -0.790183 -0.452791
  outer loop
   vertex -7.6295 -33.12 -40.794
   vertex -7.6295 -32.8335 -41.294
   vertex -7.1295 -33.0949 -41.294
  endloop
 endfacet
 facet normal -0.442019 -0.84565 -0.299157
  outer loop
   vertex -7.1295 -33.0949 -41.294
   vertex -7.6295 -32.8335 -41.294
   vertex -7.6295 -32.6566 -41.794
  endloop
 endfacet
 facet normal -0.626833 -0.777253 -0.0543956
  outer loop
   vertex -7.1295 -33.0949 -41.294
   vertex -7.6295 -32.6566 -41.794
   vertex -7.1295 -33.0599 -41.794
  endloop
 endfacet
 facet normal -0.549583 -0.681465 -0.483284
  outer loop
   vertex -7.1295 -33.0599 -41.794
   vertex -7.6295 -32.6566 -41.794
   vertex -7.1295 -32.7053 -42.294
  endloop
 endfacet
 facet normal 0.117985 -0.81 -0.574438
  outer loop
   vertex -7.1295 -33.0599 -41.794
   vertex -7.1295 -32.7053 -42.294
   vertex -6.6295 -32.987 -41.794
  endloop
 endfacet
 facet normal 0.124802 -0.805799 -0.578888
  outer loop
   vertex -6.6295 -32.987 -41.794
   vertex -7.1295 -32.7053 -42.294
   vertex -6.81138 -32.656 -42.294
  endloop
 endfacet
 facet normal -0.634246 -0.725076 -0.268322
  outer loop
   vertex -7.81903 -33.156 -40.294
   vertex -7.6295 -33.156 -40.742
   vertex -7.6295 -33.3218 -40.294
  endloop
 endfacet
 facet normal -0.302447 -0.893921 -0.330805
  outer loop
   vertex -7.6295 -33.3218 -40.294
   vertex -7.6295 -33.156 -40.742
   vertex -7.1295 -33.3059 -40.794
  endloop
 endfacet
 facet normal -0.674624 0.735143 -0.0666818
  outer loop
   vertex -7.6295 -32.0913 -40.794
   vertex -7.6295 -32.1367 -41.294
   vertex -7.65059 -32.156 -41.294
  endloop
 endfacet
 facet normal -0.671201 0.731413 -0.120516
  outer loop
   vertex -7.65059 -32.156 -41.294
   vertex -7.6295 -32.1367 -41.294
   vertex -7.6295 -32.156 -41.4114
  endloop
 endfacet
 facet normal -0.975258 0.134939 -0.17511
  outer loop
   vertex -7.65059 -32.156 -41.294
   vertex -7.6295 -32.156 -41.4114
   vertex -7.62999 -32.656 -41.794
  endloop
 endfacet
 facet normal -0.979054 0.124324 -0.161234
  outer loop
   vertex -7.62999 -32.656 -41.794
   vertex -7.6295 -32.156 -41.4114
   vertex -7.6295 -32.6522 -41.794
  endloop
 endfacet
 facet normal -0.815042 0.103497 -0.570084
  outer loop
   vertex -7.62999 -32.656 -41.794
   vertex -7.6295 -32.6522 -41.794
   vertex -7.6295 -32.656 -41.7947
  endloop
 endfacet
 facet normal -0.609767 0.141577 -0.779833
  outer loop
   vertex -7.6295 -32.656 -41.7947
   vertex -7.6295 -32.6522 -41.794
   vertex -7.5143 -32.156 -41.794
  endloop
 endfacet
 facet normal -0.750546 0.173813 -0.637549
  outer loop
   vertex -7.6295 -32.656 -41.7947
   vertex -7.5143 -32.156 -41.794
   vertex -7.1295 -32.156 -42.247
  endloop
 endfacet
 facet normal -0.376784 0.869251 -0.320058
  outer loop
   vertex -7.1295 -32.156 -42.247
   vertex -7.5143 -32.156 -41.794
   vertex -7.1295 -31.9892 -41.794
  endloop
 endfacet
 facet normal 0.13386 0.929965 -0.342413
  outer loop
   vertex -7.1295 -32.156 -42.247
   vertex -7.1295 -31.9892 -41.794
   vertex -6.6295 -32.156 -42.0515
  endloop
 endfacet
 facet normal -0.947844 0.276629 -0.15833
  outer loop
   vertex -7.69661 -32.156 -40.794
   vertex -7.75901 -32.656 -41.294
   vertex -7.84253 -32.656 -40.794
  endloop
 endfacet
 facet normal -0.800583 -0.584109 -0.133731
  outer loop
   vertex -7.84253 -32.656 -40.794
   vertex -7.75901 -32.656 -41.294
   vertex -7.6295 -32.8335 -41.294
  endloop
 endfacet
 facet normal -0.790831 -0.576994 -0.204117
  outer loop
   vertex -7.6295 -32.6566 -41.794
   vertex -7.6295 -32.8335 -41.294
   vertex -7.75901 -32.656 -41.294
  endloop
 endfacet
 facet normal -0.282388 0.528184 0.800798
  outer loop
   vertex -7.44663 -32.156 -39.294
   vertex -7.1295 -32.156 -39.1822
   vertex -7.1295 -31.9864 -39.294
  endloop
 endfacet
 facet normal -0.0275902 0.550384 0.834456
  outer loop
   vertex -7.1295 -31.9864 -39.294
   vertex -7.1295 -32.156 -39.1822
   vertex -6.6295 -31.9614 -39.294
  endloop
 endfacet
 facet normal -0.0499512 0.996454 -0.067714
  outer loop
   vertex -7.1295 -31.9864 -39.294
   vertex -6.6295 -31.9614 -39.294
   vertex -7.1295 -32.0204 -39.794
  endloop
 endfacet
 facet normal 0.305148 0.861035 -0.406822
  outer loop
   vertex -7.1295 -32.0204 -39.794
   vertex -6.6295 -31.9614 -39.294
   vertex -6.6295 -32.156 -39.7059
  endloop
 endfacet
 facet normal -0.192768 -0.170466 0.966324
  outer loop
   vertex -7.6295 -32.656 -39.1665
   vertex -7.1295 -33.156 -39.1549
   vertex -7.1295 -32.656 -39.0667
  endloop
 endfacet
 facet normal 0.0775518 -0.173201 0.981828
  outer loop
   vertex -7.1295 -32.656 -39.0667
   vertex -7.1295 -33.156 -39.1549
   vertex -6.6295 -33.156 -39.1944
  endloop
 endfacet
 facet normal -0.439316 0.821704 0.363048
  outer loop
   vertex -7.44663 -32.156 -39.294
   vertex -7.1295 -31.9864 -39.294
   vertex -7.6295 -32.156 -39.5153
  endloop
 endfacet
 facet normal -0.40592 0.881308 0.241918
  outer loop
   vertex -7.6295 -32.156 -39.5153
   vertex -7.1295 -31.9864 -39.294
   vertex -7.6295 -32.0795 -39.794
  endloop
 endfacet
 facet normal -0.117052 0.990841 -0.0673326
  outer loop
   vertex -7.6295 -32.0795 -39.794
   vertex -7.1295 -31.9864 -39.294
   vertex -7.1295 -32.0204 -39.794
  endloop
 endfacet
 facet normal -0.229606 0.972843 -0.029288
  outer loop
   vertex -7.6295 -32.0762 -40.294
   vertex -7.1295 -31.9582 -40.294
   vertex -7.6295 -32.0913 -40.794
  endloop
 endfacet
 facet normal -0.345846 0.933212 0.0974991
  outer loop
   vertex -7.6295 -32.0913 -40.794
   vertex -7.1295 -31.9582 -40.294
   vertex -7.1295 -31.906 -40.794
  endloop
 endfacet
 facet normal -0.346252 0.934306 -0.084747
  outer loop
   vertex -7.6295 -32.0913 -40.794
   vertex -7.1295 -31.906 -40.794
   vertex -7.6295 -32.1367 -41.294
  endloop
 endfacet
 facet normal -0.256477 0.949362 -0.181468
  outer loop
   vertex -7.6295 -32.1367 -41.294
   vertex -7.1295 -31.906 -40.794
   vertex -7.1295 -32.0016 -41.294
  endloop
 endfacet
 facet normal -0.260733 0.965116 0.0238753
  outer loop
   vertex -7.6295 -32.1367 -41.294
   vertex -7.1295 -32.0016 -41.294
   vertex -7.1295 -31.9892 -41.794
  endloop
 endfacet
 facet normal -0.370175 -0.822277 -0.43224
  outer loop
   vertex -7.1295 -33.156 -41.1777
   vertex -7.57751 -33.156 -40.794
   vertex -7.1295 -33.0949 -41.294
  endloop
 endfacet
 facet normal -0.485736 -0.701828 -0.521055
  outer loop
   vertex -7.1295 -33.0949 -41.294
   vertex -7.57751 -33.156 -40.794
   vertex -7.6295 -33.12 -40.794
  endloop
 endfacet
 facet normal -0.475102 0.868224 -0.143059
  outer loop
   vertex -7.6295 -32.1367 -41.294
   vertex -7.5143 -32.156 -41.794
   vertex -7.6295 -32.156 -41.4114
  endloop
 endfacet
 facet normal -0.934711 0.217023 -0.281453
  outer loop
   vertex -7.6295 -32.156 -41.4114
   vertex -7.5143 -32.156 -41.794
   vertex -7.6295 -32.6522 -41.794
  endloop
 endfacet
 facet normal -0.394529 0.910187 -0.126119
  outer loop
   vertex -7.5143 -32.156 -41.794
   vertex -7.6295 -32.1367 -41.294
   vertex -7.1295 -31.9892 -41.794
  endloop
 endfacet
 facet normal -0.850259 0.131687 -0.509626
  outer loop
   vertex -7.1295 -32.3379 -42.294
   vertex -7.17877 -32.656 -42.294
   vertex -7.1295 -32.156 -42.247
  endloop
 endfacet
 facet normal -0.735506 0.134886 -0.663955
  outer loop
   vertex -7.1295 -32.156 -42.247
   vertex -7.17877 -32.656 -42.294
   vertex -7.6295 -32.656 -41.7947
  endloop
 endfacet
 facet normal 0.0205316 0.457946 0.888743
  outer loop
   vertex -6.6295 -31.9614 -39.294
   vertex -7.1295 -32.156 -39.1822
   vertex -6.6295 -32.156 -39.1937
  endloop
 endfacet
 facet normal 0.0227301 0.177202 0.983912
  outer loop
   vertex -6.6295 -32.156 -39.1937
   vertex -7.1295 -32.156 -39.1822
   vertex -6.6295 -32.656 -39.1037
  endloop
 endfacet
 facet normal 0.253022 0.17148 0.952142
  outer loop
   vertex -6.6295 -32.156 -39.1937
   vertex -6.6295 -32.656 -39.1037
   vertex -6.1295 -32.656 -39.2365
  endloop
 endfacet
 facet normal 0.0620236 -0.616081 0.785237
  outer loop
   vertex -7.1295 -33.156 -39.1549
   vertex -7.1295 -33.3333 -39.294
   vertex -6.6295 -33.156 -39.1944
  endloop
 endfacet
 facet normal 0.0646703 -0.621168 0.781004
  outer loop
   vertex -6.6295 -33.156 -39.1944
   vertex -7.1295 -33.3333 -39.294
   vertex -6.6295 -33.2812 -39.294
  endloop
 endfacet
 facet normal 0.350374 -0.583013 0.733031
  outer loop
   vertex -6.6295 -33.156 -39.1944
   vertex -6.6295 -33.2812 -39.294
   vertex -6.42114 -33.156 -39.294
  endloop
 endfacet
 facet normal 0.512661 -0.853052 0.0973677
  outer loop
   vertex -6.42114 -33.156 -39.294
   vertex -6.6295 -33.2812 -39.294
   vertex -6.32617 -33.156 -39.794
  endloop
 endfacet
 facet normal 0.962503 -0.200425 0.182805
  outer loop
   vertex -6.42114 -33.156 -39.294
   vertex -6.32617 -33.156 -39.794
   vertex -6.22206 -32.656 -39.794
  endloop
 endfacet
 facet normal 0.978977 -0.203855 -0.0068192
  outer loop
   vertex -6.22206 -32.656 -39.794
   vertex -6.32617 -33.156 -39.794
   vertex -6.32966 -33.156 -40.294
  endloop
 endfacet
 facet normal 0.881035 -0.415582 0.225985
  outer loop
   vertex -6.22206 -32.656 -39.794
   vertex -6.32966 -33.156 -40.294
   vertex -6.1295 -32.656 -40.1548
  endloop
 endfacet
 facet normal 0.884361 -0.414026 0.21561
  outer loop
   vertex -6.1295 -32.656 -40.1548
   vertex -6.32966 -33.156 -40.294
   vertex -6.1295 -32.7285 -40.294
  endloop
 endfacet
 facet normal 0.889036 -0.406073 0.211469
  outer loop
   vertex -6.1295 -32.656 -40.1548
   vertex -6.1295 -32.7285 -40.294
   vertex -6.0964 -32.656 -40.294
  endloop
 endfacet
 facet normal 0.838876 -0.383162 0.386618
  outer loop
   vertex -6.0964 -32.656 -40.294
   vertex -6.1295 -32.7285 -40.294
   vertex -5.86596 -32.656 -40.794
  endloop
 endfacet
 facet normal 0.826764 0.413852 0.381036
  outer loop
   vertex -6.0964 -32.656 -40.294
   vertex -5.86596 -32.656 -40.794
   vertex -6.11625 -32.156 -40.794
  endloop
 endfacet
 facet normal 0.814088 0.407507 -0.413761
  outer loop
   vertex -6.11625 -32.156 -40.794
   vertex -5.86596 -32.656 -40.794
   vertex -6.12009 -32.656 -41.294
  endloop
 endfacet
 facet normal 0.852776 0.366016 -0.372567
  outer loop
   vertex -6.11625 -32.156 -40.794
   vertex -6.12009 -32.656 -41.294
   vertex -6.1295 -32.6341 -41.294
  endloop
 endfacet
 facet normal 0.766574 0.329017 -0.551464
  outer loop
   vertex -6.1295 -32.6341 -41.294
   vertex -6.12009 -32.656 -41.294
   vertex -6.1295 -32.656 -41.3071
  endloop
 endfacet
 facet normal 0.680476 0.375445 -0.62928
  outer loop
   vertex -6.1295 -32.6341 -41.294
   vertex -6.1295 -32.656 -41.3071
   vertex -6.39327 -32.156 -41.294
  endloop
 endfacet
 facet normal 0.790293 0.428375 -0.4381
  outer loop
   vertex -6.39327 -32.156 -41.294
   vertex -6.1295 -32.656 -41.3071
   vertex -6.39942 -32.656 -41.794
  endloop
 endfacet
 facet normal 0.926527 0.260271 -0.271673
  outer loop
   vertex -6.39327 -32.156 -41.294
   vertex -6.39942 -32.656 -41.794
   vertex -6.53988 -32.156 -41.794
  endloop
 endfacet
 facet normal 0.0921823 -0.885426 0.455548
  outer loop
   vertex -7.1295 -33.3333 -39.294
   vertex -7.1295 -33.5905 -39.794
   vertex -6.6295 -33.2812 -39.294
  endloop
 endfacet
 facet normal 0.148432 -0.900541 0.408649
  outer loop
   vertex -6.6295 -33.2812 -39.294
   vertex -7.1295 -33.5905 -39.794
   vertex -6.6295 -33.5081 -39.794
  endloop
 endfacet
 facet normal 0.72645 -0.625802 0.283977
  outer loop
   vertex -6.6295 -33.2812 -39.294
   vertex -6.6295 -33.5081 -39.794
   vertex -6.32617 -33.156 -39.794
  endloop
 endfacet
 facet normal 0.75763 -0.652663 -0.00527738
  outer loop
   vertex -6.32617 -33.156 -39.794
   vertex -6.6295 -33.5081 -39.794
   vertex -6.32966 -33.156 -40.294
  endloop
 endfacet
 facet normal 0.278127 0.926472 0.253564
  outer loop
   vertex -6.6295 -32.0381 -40.294
   vertex -6.69253 -32.156 -39.794
   vertex -6.6295 -32.156 -39.8631
  endloop
 endfacet
 facet normal 0.362591 0.871351 0.330567
  outer loop
   vertex -6.6295 -32.156 -39.8631
   vertex -6.69253 -32.156 -39.794
   vertex -6.6295 -32.1822 -39.794
  endloop
 endfacet
 facet normal 0.748064 0.620476 0.235392
  outer loop
   vertex -6.6295 -32.156 -39.8631
   vertex -6.6295 -32.1822 -39.794
   vertex -6.1295 -32.5954 -40.294
  endloop
 endfacet
 facet normal 0.756564 0.599464 0.261254
  outer loop
   vertex -6.1295 -32.5954 -40.294
   vertex -6.6295 -32.1822 -39.794
   vertex -6.1295 -32.656 -40.1548
  endloop
 endfacet
 facet normal 0.859242 0.468968 0.204382
  outer loop
   vertex -6.1295 -32.5954 -40.294
   vertex -6.1295 -32.656 -40.1548
   vertex -6.0964 -32.656 -40.294
  endloop
 endfacet
 facet normal 0.158866 -0.963841 -0.213943
  outer loop
   vertex -7.1295 -33.5905 -39.794
   vertex -7.1295 -33.4795 -40.294
   vertex -6.6295 -33.5081 -39.794
  endloop
 endfacet
 facet normal 0.158035 -0.964158 -0.213131
  outer loop
   vertex -6.6295 -33.5081 -39.794
   vertex -7.1295 -33.4795 -40.294
   vertex -6.6295 -33.3976 -40.294
  endloop
 endfacet
 facet normal 0.618304 -0.767413 -0.16964
  outer loop
   vertex -6.6295 -33.5081 -39.794
   vertex -6.6295 -33.3976 -40.294
   vertex -6.32966 -33.156 -40.294
  endloop
 endfacet
 facet normal 0.626688 -0.777819 0.0475304
  outer loop
   vertex -6.32966 -33.156 -40.294
   vertex -6.6295 -33.3976 -40.294
   vertex -6.29173 -33.156 -40.794
  endloop
 endfacet
 facet normal 0.903534 -0.423002 0.0685274
  outer loop
   vertex -6.32966 -33.156 -40.294
   vertex -6.29173 -33.156 -40.794
   vertex -6.1295 -32.7285 -40.294
  endloop
 endfacet
 facet normal 0.476284 -0.738636 0.477043
  outer loop
   vertex -6.1295 -32.7285 -40.294
   vertex -6.29173 -33.156 -40.794
   vertex -6.1295 -33.0514 -40.794
  endloop
 endfacet
 facet normal 0.783364 -0.522135 0.337217
  outer loop
   vertex -6.1295 -32.7285 -40.294
   vertex -6.1295 -33.0514 -40.794
   vertex -5.86596 -32.656 -40.794
  endloop
 endfacet
 facet normal 0.766384 -0.510817 -0.389515
  outer loop
   vertex -5.86596 -32.656 -40.794
   vertex -6.1295 -33.0514 -40.794
   vertex -6.12009 -32.656 -41.294
  endloop
 endfacet
 facet normal 0.0493267 -0.887992 -0.457206
  outer loop
   vertex -6.6295 -33.156 -41.1237
   vertex -7.1295 -33.156 -41.1777
   vertex -6.6295 -33.0683 -41.294
  endloop
 endfacet
 facet normal 0.0468967 -0.884183 -0.464781
  outer loop
   vertex -6.6295 -33.0683 -41.294
   vertex -7.1295 -33.156 -41.1777
   vertex -7.1295 -33.0949 -41.294
  endloop
 endfacet
 facet normal 0.0528362 -0.996167 -0.0697162
  outer loop
   vertex -6.6295 -33.0683 -41.294
   vertex -7.1295 -33.0949 -41.294
   vertex -7.1295 -33.0599 -41.794
  endloop
 endfacet
 facet normal 0.142309 -0.976991 -0.158864
  outer loop
   vertex -6.6295 -33.0683 -41.294
   vertex -7.1295 -33.0599 -41.794
   vertex -6.6295 -32.987 -41.794
  endloop
 endfacet
 facet normal 0.227359 0.243631 -0.942842
  outer loop
   vertex -7.1295 -32.3379 -42.294
   vertex -7.1295 -32.156 -42.247
   vertex -6.6295 -32.656 -42.2556
  endloop
 endfacet
 facet normal 0.340333 0.355357 -0.870572
  outer loop
   vertex -6.6295 -32.656 -42.2556
   vertex -7.1295 -32.156 -42.247
   vertex -6.6295 -32.156 -42.0515
  endloop
 endfacet
 facet normal 0.0902142 -0.582477 -0.807825
  outer loop
   vertex -7.1295 -32.7053 -42.294
   vertex -7.1295 -32.656 -42.3295
   vertex -6.81138 -32.656 -42.294
  endloop
 endfacet
 facet normal 0.151034 0.520507 0.840394
  outer loop
   vertex -6.1295 -32.1392 -39.294
   vertex -6.6295 -32.156 -39.1937
   vertex -6.1295 -32.156 -39.2836
  endloop
 endfacet
 facet normal 0.176131 0.0922002 0.980039
  outer loop
   vertex -6.1295 -32.156 -39.2836
   vertex -6.6295 -32.156 -39.1937
   vertex -6.1295 -32.656 -39.2365
  endloop
 endfacet
 facet normal 0.405845 0.0856039 0.909924
  outer loop
   vertex -6.1295 -32.156 -39.2836
   vertex -6.1295 -32.656 -39.2365
   vertex -6.00067 -32.656 -39.294
  endloop
 endfacet
 facet normal 0.374088 -0.39573 0.838723
  outer loop
   vertex -6.00067 -32.656 -39.294
   vertex -6.1295 -32.656 -39.2365
   vertex -6.1295 -32.7778 -39.294
  endloop
 endfacet
 facet normal 0.623559 -0.659635 -0.419591
  outer loop
   vertex -6.00067 -32.656 -39.294
   vertex -6.1295 -32.7778 -39.294
   vertex -6.1295 -32.656 -39.4855
  endloop
 endfacet
 facet normal 0.160752 0.452086 0.877369
  outer loop
   vertex -6.6295 -32.156 -39.1937
   vertex -6.1295 -32.1392 -39.294
   vertex -6.6295 -31.9614 -39.294
  endloop
 endfacet
 facet normal 0.241438 0.678999 -0.693302
  outer loop
   vertex -6.6295 -31.9614 -39.294
   vertex -6.1295 -32.1392 -39.294
   vertex -6.1295 -32.156 -39.3105
  endloop
 endfacet
 facet normal 0.320075 0.856593 -0.404723
  outer loop
   vertex -6.6295 -31.9614 -39.294
   vertex -6.1295 -32.156 -39.3105
   vertex -6.6295 -32.156 -39.7059
  endloop
 endfacet
 facet normal 0.598183 0.264698 -0.756381
  outer loop
   vertex -6.6295 -32.156 -39.7059
   vertex -6.1295 -32.156 -39.3105
   vertex -6.1295 -32.656 -39.4855
  endloop
 endfacet
 facet normal 0.542591 0.810201 0.221742
  outer loop
   vertex -6.6295 -32.0381 -40.294
   vertex -6.6295 -32.156 -39.8631
   vertex -6.45342 -32.156 -40.294
  endloop
 endfacet
 facet normal 0.764595 0.563701 0.312468
  outer loop
   vertex -6.45342 -32.156 -40.294
   vertex -6.6295 -32.156 -39.8631
   vertex -6.1295 -32.5954 -40.294
  endloop
 endfacet
 facet normal 0.705537 0.52016 0.481301
  outer loop
   vertex -6.45342 -32.156 -40.294
   vertex -6.1295 -32.5954 -40.294
   vertex -6.1295 -32.156 -40.7688
  endloop
 endfacet
 facet normal 0.802461 0.437977 0.405257
  outer loop
   vertex -6.1295 -32.156 -40.7688
   vertex -6.1295 -32.5954 -40.294
   vertex -6.0964 -32.656 -40.294
  endloop
 endfacet
 facet normal 0.791109 0.447935 0.416534
  outer loop
   vertex -6.1295 -32.156 -40.7688
   vertex -6.0964 -32.656 -40.294
   vertex -6.11625 -32.156 -40.794
  endloop
 endfacet
 facet normal 0.744243 0.640047 0.190898
  outer loop
   vertex -6.6295 -32.1822 -39.794
   vertex -6.22206 -32.656 -39.794
   vertex -6.1295 -32.656 -40.1548
  endloop
 endfacet
 facet normal 0.563927 0.730749 0.384698
  outer loop
   vertex -6.45342 -32.156 -40.294
   vertex -6.1295 -32.156 -40.7688
   vertex -6.1295 -32.1427 -40.794
  endloop
 endfacet
 facet normal 0.662628 0.662723 0.348886
  outer loop
   vertex -6.1295 -32.1427 -40.794
   vertex -6.1295 -32.156 -40.7688
   vertex -6.11625 -32.156 -40.794
  endloop
 endfacet
 facet normal 0.675992 0.676089 -0.293152
  outer loop
   vertex -6.1295 -32.1427 -40.794
   vertex -6.11625 -32.156 -40.794
   vertex -6.1295 -32.156 -40.8246
  endloop
 endfacet
 facet normal 0.854546 0.363893 -0.370584
  outer loop
   vertex -6.1295 -32.156 -40.8246
   vertex -6.11625 -32.156 -40.794
   vertex -6.1295 -32.6341 -41.294
  endloop
 endfacet
 facet normal 0.785643 0.433469 -0.44144
  outer loop
   vertex -6.1295 -32.156 -40.8246
   vertex -6.1295 -32.6341 -41.294
   vertex -6.39327 -32.156 -41.294
  endloop
 endfacet
 facet normal 0.519721 0.776051 0.35726
  outer loop
   vertex -6.45342 -32.156 -40.294
   vertex -6.1295 -32.1427 -40.794
   vertex -6.6295 -32.0381 -40.294
  endloop
 endfacet
 facet normal 0.472857 0.828725 0.299369
  outer loop
   vertex -6.6295 -32.0381 -40.294
   vertex -6.1295 -32.1427 -40.794
   vertex -6.6295 -31.8575 -40.794
  endloop
 endfacet
 facet normal 0.516787 0.805366 -0.290375
  outer loop
   vertex -6.1295 -32.156 -40.8246
   vertex -6.39327 -32.156 -41.294
   vertex -6.6295 -32.0044 -41.294
  endloop
 endfacet
 facet normal 0.536152 0.835544 -0.120035
  outer loop
   vertex -6.6295 -32.0044 -41.294
   vertex -6.39327 -32.156 -41.294
   vertex -6.6295 -32.0762 -41.794
  endloop
 endfacet
 facet normal 0.545956 0.768666 -0.333293
  outer loop
   vertex -6.1295 -32.156 -40.8246
   vertex -6.6295 -32.0044 -41.294
   vertex -6.1295 -32.1427 -40.794
  endloop
 endfacet
 facet normal 0.480185 0.841569 -0.247353
  outer loop
   vertex -6.1295 -32.1427 -40.794
   vertex -6.6295 -32.0044 -41.294
   vertex -6.6295 -31.8575 -40.794
  endloop
 endfacet
 facet normal 0.6525 0.733239 -0.191324
  outer loop
   vertex -6.39327 -32.156 -41.294
   vertex -6.53988 -32.156 -41.794
   vertex -6.6295 -32.0762 -41.794
  endloop
 endfacet
 facet normal 0.795814 -0.414797 -0.441161
  outer loop
   vertex -6.39942 -32.656 -41.794
   vertex -6.1295 -32.656 -41.3071
   vertex -6.1295 -32.6699 -41.294
  endloop
 endfacet
 facet normal 0.711562 -0.481299 -0.511889
  outer loop
   vertex -6.1295 -32.6699 -41.294
   vertex -6.1295 -32.656 -41.3071
   vertex -6.12009 -32.656 -41.294
  endloop
 endfacet
 facet normal 0.761646 -0.515176 -0.393052
  outer loop
   vertex -6.1295 -32.6699 -41.294
   vertex -6.12009 -32.656 -41.294
   vertex -6.1295 -33.0514 -40.794
  endloop
 endfacet
 facet normal 0.399794 0.482636 0.779248
  outer loop
   vertex -6.1295 -32.1392 -39.294
   vertex -6.1295 -32.156 -39.2836
   vertex -6.10919 -32.156 -39.294
  endloop
 endfacet
 facet normal 0.454256 0.0985886 0.885399
  outer loop
   vertex -6.10919 -32.156 -39.294
   vertex -6.1295 -32.156 -39.2836
   vertex -6.00067 -32.656 -39.294
  endloop
 endfacet
 facet normal 0.816526 0.177213 -0.549437
  outer loop
   vertex -6.10919 -32.156 -39.294
   vertex -6.00067 -32.656 -39.294
   vertex -6.1295 -32.656 -39.4855
  endloop
 endfacet
 facet normal 0.501459 0.605366 -0.618118
  outer loop
   vertex -6.1295 -32.1392 -39.294
   vertex -6.10919 -32.156 -39.294
   vertex -6.1295 -32.156 -39.3105
  endloop
 endfacet
 facet normal 0.607965 0.262255 -0.749401
  outer loop
   vertex -6.1295 -32.156 -39.3105
   vertex -6.10919 -32.156 -39.294
   vertex -6.1295 -32.656 -39.4855
  endloop
 endfacet
endsolid
