solid ascii
 facet normal -0.874077 0.147179 0.462956
  outer loop
   vertex -19.1295 -32.5678 -12.794
   vertex -19.1444 -32.656 -12.794
   vertex -19.1295 -32.656 -12.766
  endloop
 endfacet
 facet normal -0.864629 -0.206632 0.457952
  outer loop
   vertex -19.1295 -32.656 -12.766
   vertex -19.1444 -32.656 -12.794
   vertex -19.1295 -32.7182 -12.794
  endloop
 endfacet
 facet normal -0.836631 -0.225286 0.499294
  outer loop
   vertex -19.1295 -32.656 -12.766
   vertex -19.1295 -32.7182 -12.794
   vertex -18.8478 -32.656 -12.294
  endloop
 endfacet
 facet normal -0.837664 -0.221239 0.499373
  outer loop
   vertex -18.8478 -32.656 -12.294
   vertex -19.1295 -32.7182 -12.794
   vertex -19.0139 -33.156 -12.794
  endloop
 endfacet
 facet normal -0.79975 -0.270429 0.535974
  outer loop
   vertex -18.8478 -32.656 -12.294
   vertex -19.0139 -33.156 -12.794
   vertex -18.6788 -33.156 -12.294
  endloop
 endfacet
 facet normal -0.63899 -0.638987 0.428237
  outer loop
   vertex -18.6788 -33.156 -12.294
   vertex -19.0139 -33.156 -12.794
   vertex -18.6295 -33.5404 -12.794
  endloop
 endfacet
 facet normal -0.638988 -0.638988 0.428238
  outer loop
   vertex -18.6788 -33.156 -12.294
   vertex -18.6295 -33.5404 -12.794
   vertex -18.6295 -33.2053 -12.294
  endloop
 endfacet
 facet normal -0.226952 -0.809024 0.542193
  outer loop
   vertex -18.6295 -33.2053 -12.294
   vertex -18.6295 -33.5404 -12.794
   vertex -18.1295 -33.3455 -12.294
  endloop
 endfacet
 facet normal -0.181623 -0.64744 0.740159
  outer loop
   vertex -18.6295 -33.2053 -12.294
   vertex -18.1295 -33.3455 -12.294
   vertex -18.1295 -33.156 -12.1282
  endloop
 endfacet
 facet normal -0.0614344 -0.657146 0.751255
  outer loop
   vertex -18.1295 -33.156 -12.1282
   vertex -18.1295 -33.3455 -12.294
   vertex -17.6295 -33.156 -12.0873
  endloop
 endfacet
 facet normal -0.0701953 -0.508175 0.858388
  outer loop
   vertex -18.1295 -33.156 -12.1282
   vertex -17.6295 -33.156 -12.0873
   vertex -18.1295 -32.656 -11.8322
  endloop
 endfacet
 facet normal -0.362249 -0.684851 0.632262
  outer loop
   vertex -18.1295 -32.656 -11.8322
   vertex -17.6295 -33.156 -12.0873
   vertex -18.0628 -32.656 -11.794
  endloop
 endfacet
 facet normal -0.439273 -0.468201 0.766699
  outer loop
   vertex -18.1295 -32.656 -11.8322
   vertex -18.0628 -32.656 -11.794
   vertex -18.1295 -32.5934 -11.794
  endloop
 endfacet
 facet normal -0.544318 -0.580163 0.605911
  outer loop
   vertex -18.1295 -32.5934 -11.794
   vertex -18.0628 -32.656 -11.794
   vertex -17.6295 -32.656 -11.4047
  endloop
 endfacet
 facet normal -0.551677 -0.559329 0.618711
  outer loop
   vertex -18.1295 -32.5934 -11.794
   vertex -17.6295 -32.656 -11.4047
   vertex -18.1295 -32.156 -11.3985
  endloop
 endfacet
 facet normal -0.583455 -0.590353 0.557731
  outer loop
   vertex -18.1295 -32.156 -11.3985
   vertex -17.6295 -32.656 -11.4047
   vertex -17.6295 -32.5514 -11.294
  endloop
 endfacet
 facet normal -0.577231 -0.577231 0.577589
  outer loop
   vertex -18.1295 -32.156 -11.3985
   vertex -17.6295 -32.5514 -11.294
   vertex -18.0249 -32.156 -11.294
  endloop
 endfacet
 facet normal -0.485018 -0.485018 0.727678
  outer loop
   vertex -18.0249 -32.156 -11.294
   vertex -17.6295 -32.5514 -11.294
   vertex -17.6295 -32.156 -11.0305
  endloop
 endfacet
 facet normal -0.512668 0.381525 0.769162
  outer loop
   vertex -18.0249 -32.156 -11.294
   vertex -17.6295 -32.156 -11.0305
   vertex -17.6528 -31.656 -11.294
  endloop
 endfacet
 facet normal -0.453506 0.398943 0.79698
  outer loop
   vertex -17.6528 -31.656 -11.294
   vertex -17.6295 -32.156 -11.0305
   vertex -17.6295 -31.656 -11.2807
  endloop
 endfacet
 facet normal -0.373282 0.655996 0.655996
  outer loop
   vertex -17.6528 -31.656 -11.294
   vertex -17.6295 -31.656 -11.2807
   vertex -17.6295 -31.6427 -11.294
  endloop
 endfacet
 facet normal 0.373282 0.655996 0.655996
  outer loop
   vertex -17.6295 -31.6427 -11.294
   vertex -17.6295 -31.656 -11.2807
   vertex -17.6062 -31.656 -11.294
  endloop
 endfacet
 facet normal 0.431545 0.758386 0.488488
  outer loop
   vertex -17.6295 -31.6427 -11.294
   vertex -17.6062 -31.656 -11.294
   vertex -17.6295 -31.3207 -11.794
  endloop
 endfacet
 facet normal 0.567447 0.695852 0.44022
  outer loop
   vertex -17.6295 -31.3207 -11.794
   vertex -17.6062 -31.656 -11.294
   vertex -17.2183 -31.656 -11.794
  endloop
 endfacet
 facet normal 0.629581 0.772046 -0.0870283
  outer loop
   vertex -17.6295 -31.3207 -11.794
   vertex -17.2183 -31.656 -11.794
   vertex -17.6295 -31.377 -12.294
  endloop
 endfacet
 facet normal 0.740686 0.617558 -0.264588
  outer loop
   vertex -17.6295 -31.377 -12.294
   vertex -17.2183 -31.656 -11.794
   vertex -17.3969 -31.656 -12.294
  endloop
 endfacet
 facet normal 0.753779 0.628474 -0.191932
  outer loop
   vertex -17.6295 -31.377 -12.294
   vertex -17.3969 -31.656 -12.294
   vertex -17.6295 -31.5297 -12.794
  endloop
 endfacet
 facet normal 0.733843 0.656216 -0.175653
  outer loop
   vertex -17.6295 -31.5297 -12.794
   vertex -17.3969 -31.656 -12.294
   vertex -17.5166 -31.656 -12.794
  endloop
 endfacet
 facet normal 0.718594 0.64258 -0.265922
  outer loop
   vertex -17.6295 -31.5297 -12.794
   vertex -17.5166 -31.656 -12.794
   vertex -17.6295 -31.656 -13.0991
  endloop
 endfacet
 facet normal 0.886001 0.327873 -0.327873
  outer loop
   vertex -17.6295 -31.656 -13.0991
   vertex -17.5166 -31.656 -12.794
   vertex -17.6295 -31.8509 -13.294
  endloop
 endfacet
 facet normal 0.541213 0.594596 -0.594596
  outer loop
   vertex -17.6295 -31.656 -13.0991
   vertex -17.6295 -31.8509 -13.294
   vertex -17.8436 -31.656 -13.294
  endloop
 endfacet
 facet normal 0.30123 0.330942 -0.89428
  outer loop
   vertex -17.8436 -31.656 -13.294
   vertex -17.6295 -31.8509 -13.294
   vertex -17.6295 -32.156 -13.4069
  endloop
 endfacet
 facet normal 0.310138 0.333826 -0.890155
  outer loop
   vertex -17.8436 -31.656 -13.294
   vertex -17.6295 -32.156 -13.4069
   vertex -18.1295 -31.656 -13.3936
  endloop
 endfacet
 facet normal 0.253968 0.278616 -0.926214
  outer loop
   vertex -18.1295 -31.656 -13.3936
   vertex -17.6295 -32.156 -13.4069
   vertex -18.1295 -32.156 -13.544
  endloop
 endfacet
 facet normal -0.207786 0.281774 -0.936712
  outer loop
   vertex -18.1295 -31.656 -13.3936
   vertex -18.1295 -32.156 -13.544
   vertex -18.6295 -32.156 -13.4331
  endloop
 endfacet
 facet normal -0.216561 -0 -0.976269
  outer loop
   vertex -18.6295 -32.156 -13.4331
   vertex -18.1295 -32.156 -13.544
   vertex -18.1295 -32.656 -13.544
  endloop
 endfacet
 facet normal -0.196206 0.0212563 -0.980332
  outer loop
   vertex -18.6295 -32.156 -13.4331
   vertex -18.1295 -32.656 -13.544
   vertex -18.6295 -32.656 -13.4439
  endloop
 endfacet
 facet normal -0.193688 -0.161039 -0.967756
  outer loop
   vertex -18.6295 -32.656 -13.4439
   vertex -18.1295 -32.656 -13.544
   vertex -18.1295 -33.156 -13.4608
  endloop
 endfacet
 facet normal -0.247938 -0.216077 -0.944371
  outer loop
   vertex -18.6295 -32.656 -13.4439
   vertex -18.1295 -33.156 -13.4608
   vertex -18.6295 -33.156 -13.3295
  endloop
 endfacet
 facet normal -0.212203 -0.549255 -0.808263
  outer loop
   vertex -18.6295 -33.156 -13.3295
   vertex -18.1295 -33.156 -13.4608
   vertex -18.1295 -33.4015 -13.294
  endloop
 endfacet
 facet normal -0.223666 -0.570045 -0.790583
  outer loop
   vertex -18.6295 -33.156 -13.3295
   vertex -18.1295 -33.4015 -13.294
   vertex -18.6295 -33.2053 -13.294
  endloop
 endfacet
 facet normal -0.337052 -0.859028 -0.385315
  outer loop
   vertex -18.6295 -33.2053 -13.294
   vertex -18.1295 -33.4015 -13.294
   vertex -18.1295 -33.6257 -12.794
  endloop
 endfacet
 facet normal -0.140421 -0.82247 -0.551204
  outer loop
   vertex -18.6295 -33.2053 -13.294
   vertex -18.1295 -33.6257 -12.794
   vertex -18.6295 -33.5404 -12.794
  endloop
 endfacet
 facet normal -0.147314 -0.862845 0.483527
  outer loop
   vertex -18.6295 -33.5404 -12.794
   vertex -18.1295 -33.6257 -12.794
   vertex -18.1295 -33.3455 -12.294
  endloop
 endfacet
 facet normal -0.874077 0.147179 -0.462956
  outer loop
   vertex -19.1444 -32.656 -12.794
   vertex -19.1295 -32.5678 -12.794
   vertex -19.1295 -32.656 -12.822
  endloop
 endfacet
 facet normal -0.837618 0.165499 -0.520583
  outer loop
   vertex -19.1295 -32.656 -12.822
   vertex -19.1295 -32.5678 -12.794
   vertex -18.8362 -32.656 -13.294
  endloop
 endfacet
 facet normal -0.828429 -0.22048 -0.514872
  outer loop
   vertex -19.1295 -32.656 -12.822
   vertex -18.8362 -32.656 -13.294
   vertex -19.0139 -33.156 -12.794
  endloop
 endfacet
 facet normal -0.803674 -0.253009 -0.538604
  outer loop
   vertex -19.0139 -33.156 -12.794
   vertex -18.8362 -32.656 -13.294
   vertex -18.6788 -33.156 -13.294
  endloop
 endfacet
 facet normal -0.638989 -0.638989 -0.428236
  outer loop
   vertex -19.0139 -33.156 -12.794
   vertex -18.6788 -33.156 -13.294
   vertex -18.6295 -33.2053 -13.294
  endloop
 endfacet
 facet normal -0.504855 -0.504855 -0.700173
  outer loop
   vertex -18.6295 -33.2053 -13.294
   vertex -18.6788 -33.156 -13.294
   vertex -18.6295 -33.156 -13.3295
  endloop
 endfacet
 facet normal -0.864629 -0.206632 -0.457952
  outer loop
   vertex -19.1444 -32.656 -12.794
   vertex -19.1295 -32.656 -12.822
   vertex -19.1295 -32.7182 -12.794
  endloop
 endfacet
 facet normal -0.84144 -0.222236 -0.492535
  outer loop
   vertex -19.1295 -32.7182 -12.794
   vertex -19.1295 -32.656 -12.822
   vertex -19.0139 -33.156 -12.794
  endloop
 endfacet
 facet normal -0.764834 0.268176 0.585756
  outer loop
   vertex -18.6295 -31.3208 -12.294
   vertex -18.747 -31.656 -12.294
   vertex -18.6295 -31.656 -12.1405
  endloop
 endfacet
 facet normal -0.790407 0.0939011 0.605342
  outer loop
   vertex -18.6295 -31.656 -12.1405
   vertex -18.747 -31.656 -12.294
   vertex -18.6295 -32.156 -12.063
  endloop
 endfacet
 facet normal -0.743655 0.102483 0.660662
  outer loop
   vertex -18.6295 -31.656 -12.1405
   vertex -18.6295 -32.156 -12.063
   vertex -18.3216 -31.656 -11.794
  endloop
 endfacet
 facet normal -0.729871 0.0844821 0.678345
  outer loop
   vertex -18.3216 -31.656 -11.794
   vertex -18.6295 -32.156 -12.063
   vertex -18.3795 -32.156 -11.794
  endloop
 endfacet
 facet normal -0.841241 0.0973731 0.531819
  outer loop
   vertex -18.3216 -31.656 -11.794
   vertex -18.3795 -32.156 -11.794
   vertex -18.1295 -32.156 -11.3985
  endloop
 endfacet
 facet normal -0.761105 -0.434978 0.481158
  outer loop
   vertex -18.1295 -32.156 -11.3985
   vertex -18.3795 -32.156 -11.794
   vertex -18.1295 -32.5934 -11.794
  endloop
 endfacet
 facet normal -0.727515 0.139381 0.671784
  outer loop
   vertex -18.6295 -32.156 -12.063
   vertex -18.747 -31.656 -12.294
   vertex -18.8428 -32.156 -12.294
  endloop
 endfacet
 facet normal -0.900776 0.172576 0.398522
  outer loop
   vertex -18.8428 -32.156 -12.294
   vertex -18.747 -31.656 -12.294
   vertex -19.064 -32.156 -12.794
  endloop
 endfacet
 facet normal -0.914458 0.00919537 0.404576
  outer loop
   vertex -18.8428 -32.156 -12.294
   vertex -19.064 -32.156 -12.794
   vertex -18.8478 -32.656 -12.294
  endloop
 endfacet
 facet normal -0.850273 0.139807 0.507435
  outer loop
   vertex -18.8478 -32.656 -12.294
   vertex -19.064 -32.156 -12.794
   vertex -19.1295 -32.656 -12.766
  endloop
 endfacet
 facet normal -0.62872 0.00632212 0.777606
  outer loop
   vertex -18.8428 -32.156 -12.294
   vertex -18.8478 -32.656 -12.294
   vertex -18.6295 -32.656 -12.1175
  endloop
 endfacet
 facet normal -0.614138 -0.214214 0.75957
  outer loop
   vertex -18.6295 -32.656 -12.1175
   vertex -18.8478 -32.656 -12.294
   vertex -18.6295 -33.156 -12.2585
  endloop
 endfacet
 facet normal -0.243218 -0.263282 0.933556
  outer loop
   vertex -18.6295 -32.656 -12.1175
   vertex -18.6295 -33.156 -12.2585
   vertex -18.1295 -33.156 -12.1282
  endloop
 endfacet
 facet normal -0.206757 -0.572225 0.793606
  outer loop
   vertex -18.1295 -33.156 -12.1282
   vertex -18.6295 -33.156 -12.2585
   vertex -18.6295 -33.2053 -12.294
  endloop
 endfacet
 facet normal -0.732688 -0.0737098 0.676561
  outer loop
   vertex -18.8428 -32.156 -12.294
   vertex -18.6295 -32.656 -12.1175
   vertex -18.6295 -32.156 -12.063
  endloop
 endfacet
 facet normal -0.493339 -0.0942093 0.86472
  outer loop
   vertex -18.6295 -32.156 -12.063
   vertex -18.6295 -32.656 -12.1175
   vertex -18.1295 -32.656 -11.8322
  endloop
 endfacet
 facet normal -0.675761 -0.385869 0.628055
  outer loop
   vertex -18.6295 -32.156 -12.063
   vertex -18.1295 -32.656 -11.8322
   vertex -18.3795 -32.156 -11.794
  endloop
 endfacet
 facet normal -0.673821 -0.385094 0.630609
  outer loop
   vertex -18.3795 -32.156 -11.794
   vertex -18.1295 -32.656 -11.8322
   vertex -18.1295 -32.5934 -11.794
  endloop
 endfacet
 facet normal -0.57375 -0.194009 0.795721
  outer loop
   vertex -18.8478 -32.656 -12.294
   vertex -18.6788 -33.156 -12.294
   vertex -18.6295 -33.156 -12.2585
  endloop
 endfacet
 facet normal -0.504855 -0.504855 0.700173
  outer loop
   vertex -18.6295 -33.156 -12.2585
   vertex -18.6788 -33.156 -12.294
   vertex -18.6295 -33.2053 -12.294
  endloop
 endfacet
 facet normal -0.933862 0.327443 0.143818
  outer loop
   vertex -18.6295 -31.3208 -12.294
   vertex -18.824 -31.656 -12.794
   vertex -18.747 -31.656 -12.294
  endloop
 endfacet
 facet normal -0.892957 0.428622 0.137518
  outer loop
   vertex -18.747 -31.656 -12.294
   vertex -18.824 -31.656 -12.794
   vertex -19.064 -32.156 -12.794
  endloop
 endfacet
 facet normal -0.755744 0.640703 -0.135468
  outer loop
   vertex -18.6295 -31.3208 -12.294
   vertex -18.6295 -31.4265 -12.794
   vertex -18.824 -31.656 -12.794
  endloop
 endfacet
 facet normal -0.711699 0.603363 -0.359776
  outer loop
   vertex -18.824 -31.656 -12.794
   vertex -18.6295 -31.4265 -12.794
   vertex -18.6295 -31.656 -13.1788
  endloop
 endfacet
 facet normal -0.822715 0.387519 -0.415896
  outer loop
   vertex -18.824 -31.656 -12.794
   vertex -18.6295 -31.656 -13.1788
   vertex -18.8068 -32.156 -13.294
  endloop
 endfacet
 facet normal -0.799434 0.388933 -0.457861
  outer loop
   vertex -18.8068 -32.156 -13.294
   vertex -18.6295 -31.656 -13.1788
   vertex -18.6295 -31.7916 -13.294
  endloop
 endfacet
 facet normal -0.591187 0.287619 -0.753507
  outer loop
   vertex -18.8068 -32.156 -13.294
   vertex -18.6295 -31.7916 -13.294
   vertex -18.6295 -32.156 -13.4331
  endloop
 endfacet
 facet normal -0.272142 0.343151 -0.898992
  outer loop
   vertex -18.6295 -32.156 -13.4331
   vertex -18.6295 -31.7916 -13.294
   vertex -18.1295 -31.656 -13.3936
  endloop
 endfacet
 facet normal -0.885462 0.140793 0.442871
  outer loop
   vertex -19.1295 -32.656 -12.766
   vertex -19.064 -32.156 -12.794
   vertex -19.1295 -32.5678 -12.794
  endloop
 endfacet
 facet normal -0.844209 0.134234 -0.518934
  outer loop
   vertex -19.1295 -32.5678 -12.794
   vertex -19.064 -32.156 -12.794
   vertex -18.8362 -32.656 -13.294
  endloop
 endfacet
 facet normal -0.817831 0.392562 -0.420771
  outer loop
   vertex -18.824 -31.656 -12.794
   vertex -18.8068 -32.156 -13.294
   vertex -19.064 -32.156 -12.794
  endloop
 endfacet
 facet normal -0.887999 0.0522175 -0.456872
  outer loop
   vertex -19.064 -32.156 -12.794
   vertex -18.8068 -32.156 -13.294
   vertex -18.8362 -32.656 -13.294
  endloop
 endfacet
 facet normal -0.63899 -0.638987 -0.428237
  outer loop
   vertex -18.6295 -33.2053 -13.294
   vertex -18.6295 -33.5404 -12.794
   vertex -19.0139 -33.156 -12.794
  endloop
 endfacet
 facet normal -0.616863 0.0362738 -0.786234
  outer loop
   vertex -18.8068 -32.156 -13.294
   vertex -18.6295 -32.156 -13.4331
   vertex -18.8362 -32.656 -13.294
  endloop
 endfacet
 facet normal -0.587101 0.0175483 -0.809323
  outer loop
   vertex -18.8362 -32.656 -13.294
   vertex -18.6295 -32.156 -13.4331
   vertex -18.6295 -32.656 -13.4439
  endloop
 endfacet
 facet normal -0.577409 -0.181777 -0.795962
  outer loop
   vertex -18.8362 -32.656 -13.294
   vertex -18.6295 -32.656 -13.4439
   vertex -18.6788 -33.156 -13.294
  endloop
 endfacet
 facet normal -0.575043 -0.182476 -0.797514
  outer loop
   vertex -18.6788 -33.156 -13.294
   vertex -18.6295 -32.656 -13.4439
   vertex -18.6295 -33.156 -13.3295
  endloop
 endfacet
 facet normal -0.646328 0.496704 0.579263
  outer loop
   vertex -18.1295 -31.406 -11.794
   vertex -18.3216 -31.656 -11.794
   vertex -18.1295 -31.656 -11.5796
  endloop
 endfacet
 facet normal -0.72384 0.234952 0.648732
  outer loop
   vertex -18.1295 -31.656 -11.5796
   vertex -18.3216 -31.656 -11.794
   vertex -18.1295 -32.156 -11.3985
  endloop
 endfacet
 facet normal -0.490834 0.296684 0.819183
  outer loop
   vertex -18.1295 -31.656 -11.5796
   vertex -18.1295 -32.156 -11.3985
   vertex -17.6528 -31.656 -11.294
  endloop
 endfacet
 facet normal -0.625603 0.46557 0.625991
  outer loop
   vertex -17.6528 -31.656 -11.294
   vertex -18.1295 -32.156 -11.3985
   vertex -18.0249 -32.156 -11.294
  endloop
 endfacet
 facet normal -0.31911 0.747503 0.582588
  outer loop
   vertex -18.1295 -31.037 -12.294
   vertex -18.4082 -31.156 -12.294
   vertex -18.1295 -31.156 -12.1413
  endloop
 endfacet
 facet normal -0.304761 0.773012 0.556393
  outer loop
   vertex -18.1295 -31.156 -12.1413
   vertex -18.4082 -31.156 -12.294
   vertex -18.1295 -31.406 -11.794
  endloop
 endfacet
 facet normal 0.473232 0.714989 0.514629
  outer loop
   vertex -18.1295 -31.156 -12.1413
   vertex -18.1295 -31.406 -11.794
   vertex -17.6295 -31.377 -12.294
  endloop
 endfacet
 facet normal -0.167164 0.979724 -0.110439
  outer loop
   vertex -17.6295 -31.377 -12.294
   vertex -18.1295 -31.406 -11.794
   vertex -17.6295 -31.3207 -11.794
  endloop
 endfacet
 facet normal -0.635336 0.488257 0.598292
  outer loop
   vertex -18.1295 -31.406 -11.794
   vertex -18.4082 -31.156 -12.294
   vertex -18.3216 -31.656 -11.794
  endloop
 endfacet
 facet normal -0.442834 0.594486 0.671181
  outer loop
   vertex -18.3216 -31.656 -11.794
   vertex -18.4082 -31.156 -12.294
   vertex -18.6295 -31.3208 -12.294
  endloop
 endfacet
 facet normal -0.715256 0.29092 0.635433
  outer loop
   vertex -18.3216 -31.656 -11.794
   vertex -18.6295 -31.3208 -12.294
   vertex -18.6295 -31.656 -12.1405
  endloop
 endfacet
 facet normal -0.440694 -0.457295 0.772444
  outer loop
   vertex -18.6295 -32.656 -12.1175
   vertex -18.1295 -33.156 -12.1282
   vertex -18.1295 -32.656 -11.8322
  endloop
 endfacet
 facet normal -0.323803 0.758498 -0.565537
  outer loop
   vertex -18.4082 -31.156 -12.294
   vertex -18.1295 -31.037 -12.294
   vertex -18.1295 -31.156 -12.4536
  endloop
 endfacet
 facet normal 0.556695 0.665977 -0.496553
  outer loop
   vertex -18.1295 -31.156 -12.4536
   vertex -18.1295 -31.037 -12.294
   vertex -17.9872 -31.156 -12.294
  endloop
 endfacet
 facet normal 0.399333 0.844784 -0.356192
  outer loop
   vertex -18.1295 -31.156 -12.4536
   vertex -17.9872 -31.156 -12.294
   vertex -18.1295 -31.2995 -12.794
  endloop
 endfacet
 facet normal 0.489168 0.791467 -0.366461
  outer loop
   vertex -18.1295 -31.2995 -12.794
   vertex -17.9872 -31.156 -12.294
   vertex -17.6295 -31.377 -12.294
  endloop
 endfacet
 facet normal 0.403009 0.875289 -0.267307
  outer loop
   vertex -18.1295 -31.2995 -12.794
   vertex -17.6295 -31.377 -12.294
   vertex -17.6295 -31.5297 -12.794
  endloop
 endfacet
 facet normal -0.413357 0.554914 -0.721946
  outer loop
   vertex -18.4082 -31.156 -12.294
   vertex -18.1295 -31.156 -12.4536
   vertex -18.6295 -31.3208 -12.294
  endloop
 endfacet
 facet normal -0.393294 0.847186 -0.357205
  outer loop
   vertex -18.6295 -31.3208 -12.294
   vertex -18.1295 -31.156 -12.4536
   vertex -18.1295 -31.2995 -12.794
  endloop
 endfacet
 facet normal -0.241203 0.949483 -0.200756
  outer loop
   vertex -18.6295 -31.3208 -12.294
   vertex -18.1295 -31.2995 -12.794
   vertex -18.6295 -31.4265 -12.794
  endloop
 endfacet
 facet normal -0.220404 0.86761 -0.44573
  outer loop
   vertex -18.6295 -31.4265 -12.794
   vertex -18.1295 -31.2995 -12.794
   vertex -18.1295 -31.5564 -13.294
  endloop
 endfacet
 facet normal -0.262823 0.836878 -0.480167
  outer loop
   vertex -18.6295 -31.4265 -12.794
   vertex -18.1295 -31.5564 -13.294
   vertex -18.4466 -31.656 -13.294
  endloop
 endfacet
 facet normal -0.216785 0.690285 -0.690298
  outer loop
   vertex -18.4466 -31.656 -13.294
   vertex -18.1295 -31.5564 -13.294
   vertex -18.1295 -31.656 -13.3936
  endloop
 endfacet
 facet normal -0.277802 0.374593 -0.884594
  outer loop
   vertex -18.4466 -31.656 -13.294
   vertex -18.1295 -31.656 -13.3936
   vertex -18.6295 -31.7916 -13.294
  endloop
 endfacet
 facet normal -0.30705 0.817407 -0.487407
  outer loop
   vertex -18.6295 -31.4265 -12.794
   vertex -18.4466 -31.656 -13.294
   vertex -18.6295 -31.656 -13.1788
  endloop
 endfacet
 facet normal -0.432823 0.583624 -0.687057
  outer loop
   vertex -18.6295 -31.656 -13.1788
   vertex -18.4466 -31.656 -13.294
   vertex -18.6295 -31.7916 -13.294
  endloop
 endfacet
 facet normal -0.381418 0.670295 0.636573
  outer loop
   vertex -17.6528 -31.656 -11.294
   vertex -17.6295 -31.6427 -11.294
   vertex -18.1295 -31.656 -11.5796
  endloop
 endfacet
 facet normal -0.411061 0.593399 0.692031
  outer loop
   vertex -18.1295 -31.656 -11.5796
   vertex -17.6295 -31.6427 -11.294
   vertex -18.1295 -31.406 -11.794
  endloop
 endfacet
 facet normal -0.14199 0.832179 0.536019
  outer loop
   vertex -18.1295 -31.406 -11.794
   vertex -17.6295 -31.6427 -11.294
   vertex -17.6295 -31.3207 -11.794
  endloop
 endfacet
 facet normal -0.427339 -0.768828 0.475695
  outer loop
   vertex -17.6295 -32.656 -11.4047
   vertex -18.0628 -32.656 -11.794
   vertex -17.6295 -32.8969 -11.794
  endloop
 endfacet
 facet normal -0.384522 -0.691796 0.611197
  outer loop
   vertex -17.6295 -32.8969 -11.794
   vertex -18.0628 -32.656 -11.794
   vertex -17.6295 -33.156 -12.0873
  endloop
 endfacet
 facet normal 0.292123 -0.716725 0.633222
  outer loop
   vertex -17.6295 -32.8969 -11.794
   vertex -17.6295 -33.156 -12.0873
   vertex -17.1815 -33.156 -12.294
  endloop
 endfacet
 facet normal 0.272226 -0.760055 0.590093
  outer loop
   vertex -17.1815 -33.156 -12.294
   vertex -17.6295 -33.156 -12.0873
   vertex -17.6295 -33.3165 -12.294
  endloop
 endfacet
 facet normal 0.335636 -0.937093 0.0959447
  outer loop
   vertex -17.1815 -33.156 -12.294
   vertex -17.6295 -33.3165 -12.294
   vertex -17.1295 -33.156 -12.4759
  endloop
 endfacet
 facet normal 0.34933 -0.92596 0.143414
  outer loop
   vertex -17.1295 -33.156 -12.4759
   vertex -17.6295 -33.3165 -12.294
   vertex -17.1295 -33.2053 -12.794
  endloop
 endfacet
 facet normal 0.79765 -0.596014 0.0923114
  outer loop
   vertex -17.1295 -33.156 -12.4759
   vertex -17.1295 -33.2053 -12.794
   vertex -17.0927 -33.156 -12.794
  endloop
 endfacet
 facet normal 0.737195 -0.550841 -0.391303
  outer loop
   vertex -17.0927 -33.156 -12.794
   vertex -17.1295 -33.2053 -12.794
   vertex -17.1295 -33.156 -12.8634
  endloop
 endfacet
 facet normal 0.882993 -0.0255119 -0.468692
  outer loop
   vertex -17.0927 -33.156 -12.794
   vertex -17.1295 -33.156 -12.8634
   vertex -17.0782 -32.656 -12.794
  endloop
 endfacet
 facet normal 0.835924 -0.00957921 -0.548761
  outer loop
   vertex -17.0782 -32.656 -12.794
   vertex -17.1295 -33.156 -12.8634
   vertex -17.1295 -32.656 -12.8721
  endloop
 endfacet
 facet normal 0.767896 0.395242 -0.504103
  outer loop
   vertex -17.0782 -32.656 -12.794
   vertex -17.1295 -32.656 -12.8721
   vertex -17.1295 -32.5564 -12.794
  endloop
 endfacet
 facet normal 0.813743 0.358623 -0.457398
  outer loop
   vertex -17.1295 -32.5564 -12.794
   vertex -17.1295 -32.656 -12.8721
   vertex -17.306 -32.156 -12.794
  endloop
 endfacet
 facet normal 0.892595 0.393374 -0.220299
  outer loop
   vertex -17.1295 -32.5564 -12.794
   vertex -17.306 -32.156 -12.794
   vertex -17.1826 -32.156 -12.294
  endloop
 endfacet
 facet normal 0.896322 0.384277 -0.221219
  outer loop
   vertex -17.1826 -32.156 -12.294
   vertex -17.306 -32.156 -12.794
   vertex -17.3969 -31.656 -12.294
  endloop
 endfacet
 facet normal 0.873234 0.374378 -0.311936
  outer loop
   vertex -17.1826 -32.156 -12.294
   vertex -17.3969 -31.656 -12.294
   vertex -17.2183 -31.656 -11.794
  endloop
 endfacet
 facet normal 0.550443 0.658497 0.513219
  outer loop
   vertex -18.1295 -31.037 -12.294
   vertex -18.1295 -31.156 -12.1413
   vertex -17.9872 -31.156 -12.294
  endloop
 endfacet
 facet normal 0.472076 0.763813 0.440151
  outer loop
   vertex -17.9872 -31.156 -12.294
   vertex -18.1295 -31.156 -12.1413
   vertex -17.6295 -31.377 -12.294
  endloop
 endfacet
 facet normal 0.0458785 -0.789054 0.612608
  outer loop
   vertex -17.6295 -33.156 -12.0873
   vertex -18.1295 -33.3455 -12.294
   vertex -17.6295 -33.3165 -12.294
  endloop
 endfacet
 facet normal 0.0506572 -0.871242 0.488232
  outer loop
   vertex -17.6295 -33.3165 -12.294
   vertex -18.1295 -33.3455 -12.294
   vertex -18.1295 -33.6257 -12.794
  endloop
 endfacet
 facet normal 0.202209 -0.910415 0.36091
  outer loop
   vertex -17.6295 -33.3165 -12.294
   vertex -18.1295 -33.6257 -12.794
   vertex -17.6295 -33.5147 -12.794
  endloop
 endfacet
 facet normal 0.198617 -0.894239 -0.401109
  outer loop
   vertex -17.6295 -33.5147 -12.794
   vertex -18.1295 -33.6257 -12.794
   vertex -18.1295 -33.4015 -13.294
  endloop
 endfacet
 facet normal 0.0338971 -0.966913 -0.252845
  outer loop
   vertex -17.6295 -33.5147 -12.794
   vertex -18.1295 -33.4015 -13.294
   vertex -17.6295 -33.3839 -13.294
  endloop
 endfacet
 facet normal 0.0197002 -0.561947 -0.826939
  outer loop
   vertex -17.6295 -33.3839 -13.294
   vertex -18.1295 -33.4015 -13.294
   vertex -18.1295 -33.156 -13.4608
  endloop
 endfacet
 facet normal 0.0961473 -0.441813 -0.89194
  outer loop
   vertex -17.6295 -33.3839 -13.294
   vertex -18.1295 -33.156 -13.4608
   vertex -17.6295 -33.156 -13.4069
  endloop
 endfacet
 facet normal 0.105737 -0.163227 -0.980906
  outer loop
   vertex -17.6295 -33.156 -13.4069
   vertex -18.1295 -33.156 -13.4608
   vertex -18.1295 -32.656 -13.544
  endloop
 endfacet
 facet normal 0.216278 -0.0510662 -0.974995
  outer loop
   vertex -17.6295 -33.156 -13.4069
   vertex -18.1295 -32.656 -13.544
   vertex -17.6295 -32.656 -13.4331
  endloop
 endfacet
 facet normal 0.216561 0 -0.976269
  outer loop
   vertex -17.6295 -32.656 -13.4331
   vertex -18.1295 -32.656 -13.544
   vertex -18.1295 -32.156 -13.544
  endloop
 endfacet
 facet normal 0.264103 0.050447 -0.963174
  outer loop
   vertex -17.6295 -32.656 -13.4331
   vertex -18.1295 -32.156 -13.544
   vertex -17.6295 -32.156 -13.4069
  endloop
 endfacet
 facet normal 0.309423 0.888086 -0.339943
  outer loop
   vertex -17.6295 -31.656 -13.0991
   vertex -17.8436 -31.656 -13.294
   vertex -18.1295 -31.5564 -13.294
  endloop
 endfacet
 facet normal 0.239212 0.686571 -0.686584
  outer loop
   vertex -18.1295 -31.5564 -13.294
   vertex -17.8436 -31.656 -13.294
   vertex -18.1295 -31.656 -13.3936
  endloop
 endfacet
 facet normal 0.316048 0.876642 -0.362785
  outer loop
   vertex -17.6295 -31.656 -13.0991
   vertex -18.1295 -31.5564 -13.294
   vertex -17.6295 -31.5297 -12.794
  endloop
 endfacet
 facet normal 0.378993 0.823128 -0.422877
  outer loop
   vertex -17.6295 -31.5297 -12.794
   vertex -18.1295 -31.5564 -13.294
   vertex -18.1295 -31.2995 -12.794
  endloop
 endfacet
 facet normal 0.463648 0.3966 0.7923
  outer loop
   vertex -17.6295 -31.656 -11.2807
   vertex -17.6295 -32.156 -11.0305
   vertex -17.1792 -32.156 -11.294
  endloop
 endfacet
 facet normal 0.437796 -0.498645 0.748123
  outer loop
   vertex -17.1792 -32.156 -11.294
   vertex -17.6295 -32.156 -11.0305
   vertex -17.6295 -32.5514 -11.294
  endloop
 endfacet
 facet normal 0.614079 -0.699429 0.365658
  outer loop
   vertex -17.1792 -32.156 -11.294
   vertex -17.6295 -32.5514 -11.294
   vertex -17.1295 -32.156 -11.3774
  endloop
 endfacet
 facet normal 0.567567 -0.598481 0.56541
  outer loop
   vertex -17.1295 -32.156 -11.3774
   vertex -17.6295 -32.5514 -11.294
   vertex -17.6295 -32.656 -11.4047
  endloop
 endfacet
 facet normal 0.469299 -0.508762 0.721748
  outer loop
   vertex -17.1295 -32.156 -11.3774
   vertex -17.6295 -32.656 -11.4047
   vertex -17.1295 -32.656 -11.7298
  endloop
 endfacet
 facet normal 0.323702 -0.804602 0.497829
  outer loop
   vertex -17.1295 -32.656 -11.7298
   vertex -17.6295 -32.656 -11.4047
   vertex -17.6295 -32.8969 -11.794
  endloop
 endfacet
 facet normal 0.290761 -0.758844 0.582764
  outer loop
   vertex -17.1295 -32.656 -11.7298
   vertex -17.6295 -32.8969 -11.794
   vertex -17.1295 -32.7053 -11.794
  endloop
 endfacet
 facet normal 0.288287 -0.752385 0.59229
  outer loop
   vertex -17.1295 -32.7053 -11.794
   vertex -17.6295 -32.8969 -11.794
   vertex -17.1295 -33.0989 -12.294
  endloop
 endfacet
 facet normal 0.928576 -0.291623 0.22957
  outer loop
   vertex -17.1295 -32.7053 -11.794
   vertex -17.1295 -33.0989 -12.294
   vertex -16.9904 -32.656 -12.294
  endloop
 endfacet
 facet normal 0.948892 -0.298003 0.103913
  outer loop
   vertex -16.9904 -32.656 -12.294
   vertex -17.1295 -33.0989 -12.294
   vertex -17.0927 -33.156 -12.794
  endloop
 endfacet
 facet normal 0.984523 -0.0284453 -0.172933
  outer loop
   vertex -16.9904 -32.656 -12.294
   vertex -17.0927 -33.156 -12.794
   vertex -17.0782 -32.656 -12.794
  endloop
 endfacet
 facet normal 0.455589 0.38912 0.80064
  outer loop
   vertex -17.6295 -31.656 -11.2807
   vertex -17.1792 -32.156 -11.294
   vertex -17.6062 -31.656 -11.294
  endloop
 endfacet
 facet normal 0.654933 0.55938 0.508091
  outer loop
   vertex -17.6062 -31.656 -11.294
   vertex -17.1792 -32.156 -11.294
   vertex -17.2183 -31.656 -11.794
  endloop
 endfacet
 facet normal 0.726627 0.533671 0.432675
  outer loop
   vertex -17.1295 -32.156 -11.3774
   vertex -17.1295 -31.8182 -11.794
   vertex -17.1792 -32.156 -11.294
  endloop
 endfacet
 facet normal 0.811172 0.444062 0.380538
  outer loop
   vertex -17.1792 -32.156 -11.294
   vertex -17.1295 -31.8182 -11.794
   vertex -17.2183 -31.656 -11.794
  endloop
 endfacet
 facet normal 0.799822 0.437849 -0.410576
  outer loop
   vertex -17.1295 -31.8182 -11.794
   vertex -17.1295 -32.156 -12.1542
   vertex -17.2183 -31.656 -11.794
  endloop
 endfacet
 facet normal 0.861463 0.38856 -0.32696
  outer loop
   vertex -17.2183 -31.656 -11.794
   vertex -17.1295 -32.156 -12.1542
   vertex -17.1826 -32.156 -12.294
  endloop
 endfacet
 facet normal 0.869942 0.366312 -0.330178
  outer loop
   vertex -17.1826 -32.156 -12.294
   vertex -17.1295 -32.156 -12.1542
   vertex -17.1295 -32.282 -12.294
  endloop
 endfacet
 facet normal 0.893151 0.334077 -0.301122
  outer loop
   vertex -17.1295 -32.282 -12.294
   vertex -17.1295 -32.156 -12.1542
   vertex -17.0081 -32.156 -11.794
  endloop
 endfacet
 facet normal 0.893851 0.332422 -0.300875
  outer loop
   vertex -17.1295 -32.282 -12.294
   vertex -17.0081 -32.156 -11.794
   vertex -16.9904 -32.656 -12.294
  endloop
 endfacet
 facet normal 0.966518 -0.163584 0.197696
  outer loop
   vertex -16.9904 -32.656 -12.294
   vertex -17.0081 -32.156 -11.794
   vertex -17.0927 -32.656 -11.794
  endloop
 endfacet
 facet normal 0.790529 -0.590693 0.161698
  outer loop
   vertex -16.9904 -32.656 -12.294
   vertex -17.0927 -32.656 -11.794
   vertex -17.1295 -32.7053 -11.794
  endloop
 endfacet
 facet normal 0.727853 -0.543861 0.417666
  outer loop
   vertex -17.1295 -32.7053 -11.794
   vertex -17.0927 -32.656 -11.794
   vertex -17.1295 -32.656 -11.7298
  endloop
 endfacet
 facet normal 0.519925 -0.473242 0.71114
  outer loop
   vertex -17.6295 -32.8969 -11.794
   vertex -17.1815 -33.156 -12.294
   vertex -17.1295 -33.0989 -12.294
  endloop
 endfacet
 facet normal 0.723537 -0.658571 0.20683
  outer loop
   vertex -17.1295 -33.0989 -12.294
   vertex -17.1815 -33.156 -12.294
   vertex -17.1295 -33.156 -12.4759
  endloop
 endfacet
 facet normal 0.932837 -0.343746 0.107956
  outer loop
   vertex -17.1295 -33.0989 -12.294
   vertex -17.1295 -33.156 -12.4759
   vertex -17.0927 -33.156 -12.794
  endloop
 endfacet
 facet normal 0.899926 0.379121 -0.215407
  outer loop
   vertex -17.3969 -31.656 -12.294
   vertex -17.306 -32.156 -12.794
   vertex -17.5166 -31.656 -12.794
  endloop
 endfacet
 facet normal 0.863746 0.363879 -0.34862
  outer loop
   vertex -17.5166 -31.656 -12.794
   vertex -17.306 -32.156 -12.794
   vertex -17.5078 -32.156 -13.294
  endloop
 endfacet
 facet normal 0.875498 0.349335 -0.333868
  outer loop
   vertex -17.5166 -31.656 -12.794
   vertex -17.5078 -32.156 -13.294
   vertex -17.6295 -31.8509 -13.294
  endloop
 endfacet
 facet normal 0.656282 0.261865 -0.707616
  outer loop
   vertex -17.6295 -31.8509 -13.294
   vertex -17.5078 -32.156 -13.294
   vertex -17.6295 -32.156 -13.4069
  endloop
 endfacet
 facet normal 0.901411 0.379563 -0.208303
  outer loop
   vertex -17.1826 -32.156 -12.294
   vertex -17.1295 -32.282 -12.294
   vertex -17.1295 -32.5564 -12.794
  endloop
 endfacet
 facet normal 0.920588 0.342366 -0.18789
  outer loop
   vertex -17.1295 -32.5564 -12.794
   vertex -17.1295 -32.282 -12.294
   vertex -16.9904 -32.656 -12.294
  endloop
 endfacet
 facet normal 0.878486 0.452164 -0.154307
  outer loop
   vertex -17.1295 -32.5564 -12.794
   vertex -16.9904 -32.656 -12.294
   vertex -17.0782 -32.656 -12.794
  endloop
 endfacet
 facet normal 0.498636 -0.805804 0.31944
  outer loop
   vertex -17.6295 -33.3165 -12.294
   vertex -17.6295 -33.5147 -12.794
   vertex -17.1295 -33.2053 -12.794
  endloop
 endfacet
 facet normal 0.513659 -0.830083 -0.217065
  outer loop
   vertex -17.1295 -33.2053 -12.794
   vertex -17.6295 -33.5147 -12.794
   vertex -17.6295 -33.3839 -13.294
  endloop
 endfacet
 facet normal 0.687149 -0.528785 -0.49821
  outer loop
   vertex -17.1295 -33.2053 -12.794
   vertex -17.6295 -33.3839 -13.294
   vertex -17.4541 -33.156 -13.294
  endloop
 endfacet
 facet normal 0.499643 -0.384493 -0.776223
  outer loop
   vertex -17.4541 -33.156 -13.294
   vertex -17.6295 -33.3839 -13.294
   vertex -17.6295 -33.156 -13.4069
  endloop
 endfacet
 facet normal 0.541249 -0.0020358 -0.84086
  outer loop
   vertex -17.4541 -33.156 -13.294
   vertex -17.6295 -33.156 -13.4069
   vertex -17.4522 -32.656 -13.294
  endloop
 endfacet
 facet normal 0.616746 -0.0411718 -0.786085
  outer loop
   vertex -17.4522 -32.656 -13.294
   vertex -17.6295 -33.156 -13.4069
   vertex -17.6295 -32.656 -13.4331
  endloop
 endfacet
 facet normal 0.615823 0.0684128 -0.784908
  outer loop
   vertex -17.4522 -32.656 -13.294
   vertex -17.6295 -32.656 -13.4331
   vertex -17.5078 -32.156 -13.294
  endloop
 endfacet
 facet normal 0.67951 0.0383737 -0.732662
  outer loop
   vertex -17.5078 -32.156 -13.294
   vertex -17.6295 -32.656 -13.4331
   vertex -17.6295 -32.156 -13.4069
  endloop
 endfacet
 facet normal 0.743659 0.351291 -0.568828
  outer loop
   vertex -17.306 -32.156 -12.794
   vertex -17.1295 -32.656 -12.8721
   vertex -17.4522 -32.656 -13.294
  endloop
 endfacet
 facet normal 0.794237 -0.0106048 -0.607516
  outer loop
   vertex -17.4522 -32.656 -13.294
   vertex -17.1295 -32.656 -12.8721
   vertex -17.1295 -33.156 -12.8634
  endloop
 endfacet
 facet normal 0.798549 -0.00300358 -0.601922
  outer loop
   vertex -17.4522 -32.656 -13.294
   vertex -17.1295 -33.156 -12.8634
   vertex -17.4541 -33.156 -13.294
  endloop
 endfacet
 facet normal 0.609249 -0.646468 -0.459233
  outer loop
   vertex -17.4541 -33.156 -13.294
   vertex -17.1295 -33.156 -12.8634
   vertex -17.1295 -33.2053 -12.794
  endloop
 endfacet
 facet normal 0.922435 0.102475 -0.372308
  outer loop
   vertex -17.4522 -32.656 -13.294
   vertex -17.5078 -32.156 -13.294
   vertex -17.306 -32.156 -12.794
  endloop
 endfacet
 facet normal 0.907502 0.326284 0.264536
  outer loop
   vertex -17.1295 -31.8182 -11.794
   vertex -17.1295 -32.156 -11.3774
   vertex -17.0081 -32.156 -11.794
  endloop
 endfacet
 facet normal 0.947615 -0.160384 0.276229
  outer loop
   vertex -17.0081 -32.156 -11.794
   vertex -17.1295 -32.156 -11.3774
   vertex -17.0927 -32.656 -11.794
  endloop
 endfacet
 facet normal 0.818436 -0.331054 0.469645
  outer loop
   vertex -17.1295 -32.156 -11.3774
   vertex -17.1295 -32.656 -11.7298
   vertex -17.0927 -32.656 -11.794
  endloop
 endfacet
 facet normal 0.896965 0.322495 -0.302408
  outer loop
   vertex -17.1295 -31.8182 -11.794
   vertex -17.0081 -32.156 -11.794
   vertex -17.1295 -32.156 -12.1542
  endloop
 endfacet
 facet normal -0.95046 0.301406 0.0760328
  outer loop
   vertex -2.6295 -32.5605 -12.294
   vertex -2.65977 -32.656 -12.294
   vertex -2.6295 -32.656 -11.9156
  endloop
 endfacet
 facet normal -0.996394 -0.029093 0.0797073
  outer loop
   vertex -2.6295 -32.656 -11.9156
   vertex -2.65977 -32.656 -12.294
   vertex -2.6295 -33.156 -12.0981
  endloop
 endfacet
 facet normal -0.993293 -0.0396441 0.108615
  outer loop
   vertex -2.6295 -32.656 -11.9156
   vertex -2.6295 -33.156 -12.0981
   vertex -2.61621 -32.656 -11.794
  endloop
 endfacet
 facet normal -0.512067 -0.436344 0.739859
  outer loop
   vertex -2.61621 -32.656 -11.794
   vertex -2.6295 -33.156 -12.0981
   vertex -2.19014 -33.156 -11.794
  endloop
 endfacet
 facet normal -0.621956 -0.529983 0.576445
  outer loop
   vertex -2.61621 -32.656 -11.794
   vertex -2.19014 -33.156 -11.794
   vertex -2.15279 -32.656 -11.294
  endloop
 endfacet
 facet normal -0.366491 -0.644076 0.671454
  outer loop
   vertex -2.15279 -32.656 -11.294
   vertex -2.19014 -33.156 -11.794
   vertex -2.1295 -33.156 -11.7609
  endloop
 endfacet
 facet normal -0.366465 -0.644082 0.671462
  outer loop
   vertex -2.15279 -32.656 -11.294
   vertex -2.1295 -33.156 -11.7609
   vertex -2.1295 -32.6693 -11.294
  endloop
 endfacet
 facet normal 0.287501 -0.663014 0.691199
  outer loop
   vertex -2.1295 -32.6693 -11.294
   vertex -2.1295 -33.156 -11.7609
   vertex -2.09894 -32.656 -11.294
  endloop
 endfacet
 facet normal 0.293169 -0.676086 0.675988
  outer loop
   vertex -2.1295 -32.6693 -11.294
   vertex -2.09894 -32.656 -11.294
   vertex -2.1295 -32.656 -11.2807
  endloop
 endfacet
 facet normal 0.363857 -0.404621 0.838981
  outer loop
   vertex -2.1295 -32.656 -11.2807
   vertex -2.09894 -32.656 -11.294
   vertex -2.1295 -32.156 -11.0396
  endloop
 endfacet
 facet normal -0.507344 -0.374339 0.776191
  outer loop
   vertex -2.1295 -32.656 -11.2807
   vertex -2.1295 -32.156 -11.0396
   vertex -2.5187 -32.156 -11.294
  endloop
 endfacet
 facet normal -0.465452 0.525611 0.7121
  outer loop
   vertex -2.5187 -32.156 -11.294
   vertex -2.1295 -32.156 -11.0396
   vertex -2.1295 -31.8113 -11.294
  endloop
 endfacet
 facet normal -0.656365 0.7412 0.14074
  outer loop
   vertex -2.5187 -32.156 -11.294
   vertex -2.1295 -31.8113 -11.294
   vertex -2.62591 -32.156 -11.794
  endloop
 endfacet
 facet normal -0.659675 0.737059 0.146881
  outer loop
   vertex -2.62591 -32.156 -11.794
   vertex -2.1295 -31.8113 -11.294
   vertex -2.1295 -31.7117 -11.794
  endloop
 endfacet
 facet normal -0.656689 0.733723 -0.174385
  outer loop
   vertex -2.62591 -32.156 -11.794
   vertex -2.1295 -31.7117 -11.794
   vertex -2.49314 -32.156 -12.294
  endloop
 endfacet
 facet normal -0.740404 0.669769 -0.0566743
  outer loop
   vertex -2.49314 -32.156 -12.294
   vertex -2.1295 -31.7117 -11.794
   vertex -2.1295 -31.754 -12.294
  endloop
 endfacet
 facet normal -0.740745 0.670078 -0.0478747
  outer loop
   vertex -2.49314 -32.156 -12.294
   vertex -2.1295 -31.754 -12.294
   vertex -2.46082 -32.156 -12.794
  endloop
 endfacet
 facet normal -0.738965 0.67185 -0.050479
  outer loop
   vertex -2.46082 -32.156 -12.794
   vertex -2.1295 -31.754 -12.294
   vertex -2.1295 -31.7916 -12.794
  endloop
 endfacet
 facet normal -0.592337 0.53854 -0.599259
  outer loop
   vertex -2.46082 -32.156 -12.794
   vertex -2.1295 -31.7916 -12.794
   vertex -2.1295 -32.156 -13.1215
  endloop
 endfacet
 facet normal -0.236301 0.649491 -0.72272
  outer loop
   vertex -2.1295 -32.156 -13.1215
   vertex -2.1295 -31.7916 -12.794
   vertex -1.75684 -31.656 -12.794
  endloop
 endfacet
 facet normal -0.270927 0.660547 -0.700198
  outer loop
   vertex -2.1295 -32.156 -13.1215
   vertex -1.75684 -31.656 -12.794
   vertex -1.6295 -31.656 -12.8433
  endloop
 endfacet
 facet normal -0.220712 0.791144 -0.570419
  outer loop
   vertex -1.6295 -31.656 -12.8433
   vertex -1.75684 -31.656 -12.794
   vertex -1.6295 -31.6205 -12.794
  endloop
 endfacet
 facet normal 0.313471 0.770264 -0.555364
  outer loop
   vertex -1.6295 -31.656 -12.8433
   vertex -1.6295 -31.6205 -12.794
   vertex -1.54221 -31.656 -12.794
  endloop
 endfacet
 facet normal 0.372582 0.915511 -0.151728
  outer loop
   vertex -1.54221 -31.656 -12.794
   vertex -1.6295 -31.6205 -12.794
   vertex -1.33859 -31.656 -12.294
  endloop
 endfacet
 facet normal 0.364195 0.919437 -0.148313
  outer loop
   vertex -1.54221 -31.656 -12.794
   vertex -1.33859 -31.656 -12.294
   vertex -1.1295 -31.8195 -12.794
  endloop
 endfacet
 facet normal 0.327228 0.930029 -0.167235
  outer loop
   vertex -1.1295 -31.8195 -12.794
   vertex -1.33859 -31.656 -12.294
   vertex -1.1295 -31.7296 -12.294
  endloop
 endfacet
 facet normal 0.701459 0.701459 -0.126134
  outer loop
   vertex -1.1295 -31.8195 -12.794
   vertex -1.1295 -31.7296 -12.294
   vertex -0.70307 -32.156 -12.294
  endloop
 endfacet
 facet normal 0.639413 0.639413 0.426969
  outer loop
   vertex -0.70307 -32.156 -12.294
   vertex -1.1295 -31.7296 -12.294
   vertex -1.03695 -32.156 -11.794
  endloop
 endfacet
 facet normal 0.831058 -0.037198 0.55494
  outer loop
   vertex -0.70307 -32.156 -12.294
   vertex -1.03695 -32.156 -11.794
   vertex -1.05933 -32.656 -11.794
  endloop
 endfacet
 facet normal 0.659154 -0.0295036 0.751429
  outer loop
   vertex -1.05933 -32.656 -11.794
   vertex -1.03695 -32.156 -11.794
   vertex -1.1295 -32.156 -11.7128
  endloop
 endfacet
 facet normal 0.618837 -0.0405278 0.784473
  outer loop
   vertex -1.05933 -32.656 -11.794
   vertex -1.1295 -32.156 -11.7128
   vertex -1.1295 -32.656 -11.7386
  endloop
 endfacet
 facet normal 0.629156 -0.0401027 0.776244
  outer loop
   vertex -1.1295 -32.656 -11.7386
   vertex -1.1295 -32.156 -11.7128
   vertex -1.6295 -32.156 -11.3076
  endloop
 endfacet
 facet normal 0.454018 -0.276303 0.847068
  outer loop
   vertex -1.1295 -32.656 -11.7386
   vertex -1.6295 -32.156 -11.3076
   vertex -1.6295 -32.656 -11.4706
  endloop
 endfacet
 facet normal 0.336838 -0.291985 0.895145
  outer loop
   vertex -1.6295 -32.656 -11.4706
   vertex -1.6295 -32.156 -11.3076
   vertex -2.09894 -32.656 -11.294
  endloop
 endfacet
 facet normal 0.262364 -0.66711 0.69723
  outer loop
   vertex -1.6295 -32.656 -11.4706
   vertex -2.09894 -32.656 -11.294
   vertex -2.1295 -33.156 -11.7609
  endloop
 endfacet
 facet normal -0.803424 0.174422 0.569286
  outer loop
   vertex -2.6295 -33.156 -12.0981
   vertex -2.65977 -32.656 -12.294
   vertex -2.76832 -33.156 -12.294
  endloop
 endfacet
 facet normal -0.97711 0.212129 0.0160221
  outer loop
   vertex -2.76832 -33.156 -12.294
   vertex -2.65977 -32.656 -12.294
   vertex -2.77652 -33.156 -12.794
  endloop
 endfacet
 facet normal -0.980441 -0.196156 0.0160768
  outer loop
   vertex -2.76832 -33.156 -12.294
   vertex -2.77652 -33.156 -12.794
   vertex -2.67649 -33.656 -12.794
  endloop
 endfacet
 facet normal -0.830018 -0.166061 -0.532442
  outer loop
   vertex -2.67649 -33.656 -12.794
   vertex -2.77652 -33.156 -12.794
   vertex -2.6295 -33.156 -13.0232
  endloop
 endfacet
 facet normal -0.881357 -0.125907 -0.455365
  outer loop
   vertex -2.67649 -33.656 -12.794
   vertex -2.6295 -33.156 -13.0232
   vertex -2.6295 -33.656 -12.8849
  endloop
 endfacet
 facet normal -0.790364 -0.163267 -0.590482
  outer loop
   vertex -2.6295 -33.656 -12.8849
   vertex -2.6295 -33.156 -13.0232
   vertex -2.32389 -33.656 -13.294
  endloop
 endfacet
 facet normal -0.605967 -0.654102 -0.452719
  outer loop
   vertex -2.6295 -33.656 -12.8849
   vertex -2.32389 -33.656 -13.294
   vertex -2.1295 -33.8361 -13.294
  endloop
 endfacet
 facet normal -0.429368 -0.463475 -0.775135
  outer loop
   vertex -2.1295 -33.8361 -13.294
   vertex -2.32389 -33.656 -13.294
   vertex -2.1295 -33.656 -13.4017
  endloop
 endfacet
 facet normal -0.0903468 -0.511089 -0.854766
  outer loop
   vertex -2.1295 -33.8361 -13.294
   vertex -2.1295 -33.656 -13.4017
   vertex -1.6295 -33.9245 -13.294
  endloop
 endfacet
 facet normal -0.107951 -0.536689 -0.836846
  outer loop
   vertex -1.6295 -33.9245 -13.294
   vertex -2.1295 -33.656 -13.4017
   vertex -1.6295 -33.656 -13.4662
  endloop
 endfacet
 facet normal 0.256623 -0.521765 -0.813576
  outer loop
   vertex -1.6295 -33.9245 -13.294
   vertex -1.6295 -33.656 -13.4662
   vertex -1.1295 -33.6786 -13.294
  endloop
 endfacet
 facet normal 0.221403 -0.648899 -0.727949
  outer loop
   vertex -1.1295 -33.6786 -13.294
   vertex -1.6295 -33.656 -13.4662
   vertex -1.1295 -33.656 -13.3141
  endloop
 endfacet
 facet normal 0.515423 -0.570217 -0.639681
  outer loop
   vertex -1.1295 -33.6786 -13.294
   vertex -1.1295 -33.656 -13.3141
   vertex -1.10455 -33.656 -13.294
  endloop
 endfacet
 facet normal 0.54892 -0.484335 -0.681254
  outer loop
   vertex -1.10455 -33.656 -13.294
   vertex -1.1295 -33.656 -13.3141
   vertex -0.663381 -33.156 -13.294
  endloop
 endfacet
 facet normal 0.743856 -0.656335 -0.126108
  outer loop
   vertex -1.10455 -33.656 -13.294
   vertex -0.663381 -33.156 -13.294
   vertex -1.01978 -33.656 -12.794
  endloop
 endfacet
 facet normal 0.7111 -0.68115 -0.174272
  outer loop
   vertex -1.01978 -33.656 -12.794
   vertex -0.663381 -33.156 -13.294
   vertex -0.629501 -33.2486 -12.794
  endloop
 endfacet
 facet normal 0.641692 -0.614666 0.458712
  outer loop
   vertex -1.01978 -33.656 -12.794
   vertex -0.629501 -33.2486 -12.794
   vertex -0.629501 -33.156 -12.67
  endloop
 endfacet
 facet normal 0.722988 -0.553676 0.413196
  outer loop
   vertex -0.629501 -33.156 -12.67
   vertex -0.629501 -33.2486 -12.794
   vertex -0.55862 -33.156 -12.794
  endloop
 endfacet
 facet normal 0.796921 -0.396842 0.45545
  outer loop
   vertex -0.629501 -33.156 -12.67
   vertex -0.55862 -33.156 -12.794
   vertex -0.629501 -32.7245 -12.294
  endloop
 endfacet
 facet normal 0.786573 -0.407939 0.46356
  outer loop
   vertex -0.629501 -32.7245 -12.294
   vertex -0.55862 -33.156 -12.794
   vertex -0.593977 -32.656 -12.294
  endloop
 endfacet
 facet normal 0.747681 -0.387769 0.539082
  outer loop
   vertex -0.629501 -32.7245 -12.294
   vertex -0.593977 -32.656 -12.294
   vertex -0.629501 -32.656 -12.2447
  endloop
 endfacet
 facet normal 0.800434 0.161992 0.577117
  outer loop
   vertex -0.629501 -32.656 -12.2447
   vertex -0.593977 -32.656 -12.294
   vertex -0.629501 -32.4805 -12.294
  endloop
 endfacet
 facet normal 0.710483 0.190177 0.67753
  outer loop
   vertex -0.629501 -32.656 -12.2447
   vertex -0.629501 -32.4805 -12.294
   vertex -1.05933 -32.656 -11.794
  endloop
 endfacet
 facet normal 0.719146 0.163057 0.675456
  outer loop
   vertex -1.05933 -32.656 -11.794
   vertex -0.629501 -32.4805 -12.294
   vertex -0.70307 -32.156 -12.294
  endloop
 endfacet
 facet normal -0.791731 -0.241743 0.561001
  outer loop
   vertex -2.6295 -33.156 -12.0981
   vertex -2.76832 -33.156 -12.294
   vertex -2.6295 -33.6106 -12.294
  endloop
 endfacet
 facet normal -0.9519 -0.290648 0.0970078
  outer loop
   vertex -2.6295 -33.6106 -12.294
   vertex -2.76832 -33.156 -12.294
   vertex -2.6295 -33.656 -12.4299
  endloop
 endfacet
 facet normal -0.4114 -0.86457 0.288562
  outer loop
   vertex -2.6295 -33.6106 -12.294
   vertex -2.6295 -33.656 -12.4299
   vertex -2.5342 -33.656 -12.294
  endloop
 endfacet
 facet normal -0.159872 -0.980748 0.112137
  outer loop
   vertex -2.5342 -33.656 -12.294
   vertex -2.6295 -33.656 -12.4299
   vertex -2.6295 -33.6976 -12.794
  endloop
 endfacet
 facet normal -0.136104 -0.984796 0.107943
  outer loop
   vertex -2.5342 -33.656 -12.294
   vertex -2.6295 -33.6976 -12.794
   vertex -2.1295 -33.7119 -12.294
  endloop
 endfacet
 facet normal -0.284365 -0.923359 0.257962
  outer loop
   vertex -2.1295 -33.7119 -12.294
   vertex -2.6295 -33.6976 -12.794
   vertex -2.1295 -33.8516 -12.794
  endloop
 endfacet
 facet normal -0.104183 -0.957879 0.267606
  outer loop
   vertex -2.1295 -33.7119 -12.294
   vertex -2.1295 -33.8516 -12.794
   vertex -1.6295 -33.906 -12.794
  endloop
 endfacet
 facet normal -0.108075 -0.993663 -0.03087
  outer loop
   vertex -1.6295 -33.906 -12.794
   vertex -2.1295 -33.8516 -12.794
   vertex -2.1295 -33.8361 -13.294
  endloop
 endfacet
 facet normal -0.173959 -0.984082 0.0363535
  outer loop
   vertex -1.6295 -33.906 -12.794
   vertex -2.1295 -33.8361 -13.294
   vertex -1.6295 -33.9245 -13.294
  endloop
 endfacet
 facet normal -0.953171 0.302265 0.0100137
  outer loop
   vertex -2.6295 -32.5605 -12.294
   vertex -2.66503 -32.656 -12.794
   vertex -2.65977 -32.656 -12.294
  endloop
 endfacet
 facet normal -0.975977 0.217633 0.0102533
  outer loop
   vertex -2.65977 -32.656 -12.294
   vertex -2.66503 -32.656 -12.794
   vertex -2.77652 -33.156 -12.794
  endloop
 endfacet
 facet normal -0.942205 0.335024 0.00298033
  outer loop
   vertex -2.6295 -32.5605 -12.294
   vertex -2.6295 -32.5561 -12.794
   vertex -2.66503 -32.656 -12.794
  endloop
 endfacet
 facet normal -0.805376 0.286371 -0.519
  outer loop
   vertex -2.66503 -32.656 -12.794
   vertex -2.6295 -32.5561 -12.794
   vertex -2.6295 -32.656 -12.8491
  endloop
 endfacet
 facet normal -0.826192 0.184233 -0.532414
  outer loop
   vertex -2.66503 -32.656 -12.794
   vertex -2.6295 -32.656 -12.8491
   vertex -2.77652 -33.156 -12.794
  endloop
 endfacet
 facet normal -0.827218 0.184729 -0.530646
  outer loop
   vertex -2.77652 -33.156 -12.794
   vertex -2.6295 -32.656 -12.8491
   vertex -2.6295 -33.156 -13.0232
  endloop
 endfacet
 facet normal -0.947268 -0.296216 0.122229
  outer loop
   vertex -2.76832 -33.156 -12.294
   vertex -2.67649 -33.656 -12.794
   vertex -2.6295 -33.656 -12.4299
  endloop
 endfacet
 facet normal -0.660786 -0.745716 0.0852635
  outer loop
   vertex -2.6295 -33.656 -12.4299
   vertex -2.67649 -33.656 -12.794
   vertex -2.6295 -33.6976 -12.794
  endloop
 endfacet
 facet normal -0.627392 -0.708029 -0.324151
  outer loop
   vertex -2.67649 -33.656 -12.794
   vertex -2.6295 -33.656 -12.8849
   vertex -2.6295 -33.6976 -12.794
  endloop
 endfacet
 facet normal -0.55549 -0.756055 -0.346138
  outer loop
   vertex -2.6295 -33.6976 -12.794
   vertex -2.6295 -33.656 -12.8849
   vertex -2.1295 -33.8361 -13.294
  endloop
 endfacet
 facet normal -0.294197 -0.955284 -0.0296777
  outer loop
   vertex -2.6295 -33.6976 -12.794
   vertex -2.1295 -33.8361 -13.294
   vertex -2.1295 -33.8516 -12.794
  endloop
 endfacet
 facet normal -0.465058 -0.340335 0.817247
  outer loop
   vertex -2.1295 -32.656 -11.2807
   vertex -2.5187 -32.156 -11.294
   vertex -2.15279 -32.656 -11.294
  endloop
 endfacet
 facet normal -0.64623 -0.47292 0.598943
  outer loop
   vertex -2.15279 -32.656 -11.294
   vertex -2.5187 -32.156 -11.294
   vertex -2.61621 -32.656 -11.794
  endloop
 endfacet
 facet normal -0.373272 -0.656046 0.655951
  outer loop
   vertex -2.1295 -32.656 -11.2807
   vertex -2.15279 -32.656 -11.294
   vertex -2.1295 -32.6693 -11.294
  endloop
 endfacet
 facet normal -0.977599 -0.0189763 0.209621
  outer loop
   vertex -2.5187 -32.156 -11.294
   vertex -2.62591 -32.156 -11.794
   vertex -2.61621 -32.656 -11.794
  endloop
 endfacet
 facet normal -0.966332 -0.0187576 -0.256612
  outer loop
   vertex -2.61621 -32.656 -11.794
   vertex -2.62591 -32.156 -11.794
   vertex -2.49314 -32.156 -12.294
  endloop
 endfacet
 facet normal -0.937273 0.333191 0.102489
  outer loop
   vertex -2.61621 -32.656 -11.794
   vertex -2.49314 -32.156 -12.294
   vertex -2.6295 -32.656 -11.9156
  endloop
 endfacet
 facet normal -0.944549 0.318396 0.0803188
  outer loop
   vertex -2.6295 -32.656 -11.9156
   vertex -2.49314 -32.156 -12.294
   vertex -2.6295 -32.5605 -12.294
  endloop
 endfacet
 facet normal -0.38855 -0.585042 0.711867
  outer loop
   vertex -2.1295 -33.156 -11.7609
   vertex -2.19014 -33.156 -11.794
   vertex -2.1295 -33.1963 -11.794
  endloop
 endfacet
 facet normal -0.432146 -0.650685 0.624386
  outer loop
   vertex -2.1295 -33.1963 -11.794
   vertex -2.19014 -33.156 -11.794
   vertex -2.6295 -33.156 -12.0981
  endloop
 endfacet
 facet normal -0.447762 -0.607887 0.655731
  outer loop
   vertex -2.1295 -33.1963 -11.794
   vertex -2.6295 -33.156 -12.0981
   vertex -2.1295 -33.656 -12.2202
  endloop
 endfacet
 facet normal -0.16901 -0.390043 0.905153
  outer loop
   vertex -2.1295 -33.656 -12.2202
   vertex -2.6295 -33.156 -12.0981
   vertex -2.6295 -33.6106 -12.294
  endloop
 endfacet
 facet normal -0.167901 -0.352849 0.920493
  outer loop
   vertex -2.1295 -33.656 -12.2202
   vertex -2.6295 -33.6106 -12.294
   vertex -2.5342 -33.656 -12.294
  endloop
 endfacet
 facet normal -0.109494 -0.792257 0.600283
  outer loop
   vertex -2.5342 -33.656 -12.294
   vertex -2.1295 -33.7119 -12.294
   vertex -2.1295 -33.656 -12.2202
  endloop
 endfacet
 facet normal 0.0931491 -0.793584 0.601288
  outer loop
   vertex -2.1295 -33.656 -12.2202
   vertex -2.1295 -33.7119 -12.294
   vertex -1.653 -33.656 -12.294
  endloop
 endfacet
 facet normal 0.119061 -0.628612 0.768552
  outer loop
   vertex -2.1295 -33.656 -12.2202
   vertex -1.653 -33.656 -12.294
   vertex -1.6295 -33.156 -11.8887
  endloop
 endfacet
 facet normal 0.0944524 -0.62958 0.771173
  outer loop
   vertex -1.6295 -33.156 -11.8887
   vertex -1.653 -33.656 -12.294
   vertex -1.6295 -33.6525 -12.294
  endloop
 endfacet
 facet normal 0.333938 -0.596104 0.730168
  outer loop
   vertex -1.6295 -33.156 -11.8887
   vertex -1.6295 -33.6525 -12.294
   vertex -1.1295 -33.156 -12.1174
  endloop
 endfacet
 facet normal 0.355298 -0.609869 0.708395
  outer loop
   vertex -1.1295 -33.156 -12.1174
   vertex -1.6295 -33.6525 -12.294
   vertex -1.1295 -33.3612 -12.294
  endloop
 endfacet
 facet normal 0.529686 -0.553394 0.642796
  outer loop
   vertex -1.1295 -33.156 -12.1174
   vertex -1.1295 -33.3612 -12.294
   vertex -0.915133 -33.156 -12.294
  endloop
 endfacet
 facet normal 0.596262 -0.62295 0.506364
  outer loop
   vertex -0.915133 -33.156 -12.294
   vertex -1.1295 -33.3612 -12.294
   vertex -1.1295 -33.656 -12.6567
  endloop
 endfacet
 facet normal 0.627803 -0.615132 0.476945
  outer loop
   vertex -0.915133 -33.156 -12.294
   vertex -1.1295 -33.656 -12.6567
   vertex -0.629501 -33.156 -12.67
  endloop
 endfacet
 facet normal 0.620592 -0.607418 0.495892
  outer loop
   vertex -0.629501 -33.156 -12.67
   vertex -1.1295 -33.656 -12.6567
   vertex -1.01978 -33.656 -12.794
  endloop
 endfacet
 facet normal -0.921448 0.388487 0.00345593
  outer loop
   vertex -2.6295 -32.5561 -12.794
   vertex -2.6295 -32.5605 -12.294
   vertex -2.46082 -32.156 -12.794
  endloop
 endfacet
 facet normal -0.945838 0.318831 -0.06113
  outer loop
   vertex -2.46082 -32.156 -12.794
   vertex -2.6295 -32.5605 -12.294
   vertex -2.49314 -32.156 -12.294
  endloop
 endfacet
 facet normal -0.611792 0.386052 -0.690416
  outer loop
   vertex -2.1295 -32.4645 -13.294
   vertex -2.25033 -32.656 -13.294
   vertex -2.1295 -32.156 -13.1215
  endloop
 endfacet
 facet normal -0.704746 0.377548 -0.600659
  outer loop
   vertex -2.1295 -32.156 -13.1215
   vertex -2.25033 -32.656 -13.294
   vertex -2.6295 -32.656 -12.8491
  endloop
 endfacet
 facet normal -0.670398 0.300944 -0.678232
  outer loop
   vertex -2.1295 -32.156 -13.1215
   vertex -2.6295 -32.656 -12.8491
   vertex -2.46082 -32.156 -12.794
  endloop
 endfacet
 facet normal -0.75344 0.317654 -0.575694
  outer loop
   vertex -2.46082 -32.156 -12.794
   vertex -2.6295 -32.656 -12.8491
   vertex -2.6295 -32.5561 -12.794
  endloop
 endfacet
 facet normal -0.708054 0.232163 -0.666903
  outer loop
   vertex -2.6295 -33.156 -13.0232
   vertex -2.6295 -32.656 -12.8491
   vertex -2.37443 -33.156 -13.294
  endloop
 endfacet
 facet normal -0.747848 0.185608 -0.637395
  outer loop
   vertex -2.37443 -33.156 -13.294
   vertex -2.6295 -32.656 -12.8491
   vertex -2.25033 -32.656 -13.294
  endloop
 endfacet
 facet normal -0.568957 0.141209 -0.810153
  outer loop
   vertex -2.37443 -33.156 -13.294
   vertex -2.25033 -32.656 -13.294
   vertex -2.1295 -32.656 -13.3789
  endloop
 endfacet
 facet normal -0.540284 0.340929 -0.769325
  outer loop
   vertex -2.1295 -32.656 -13.3789
   vertex -2.25033 -32.656 -13.294
   vertex -2.1295 -32.4645 -13.294
  endloop
 endfacet
 facet normal -0.354888 0.378781 -0.854739
  outer loop
   vertex -2.1295 -32.656 -13.3789
   vertex -2.1295 -32.4645 -13.294
   vertex -1.6295 -32.156 -13.3649
  endloop
 endfacet
 facet normal -0.359986 0.388547 -0.848199
  outer loop
   vertex -1.6295 -32.156 -13.3649
   vertex -2.1295 -32.4645 -13.294
   vertex -1.79651 -32.156 -13.294
  endloop
 endfacet
 facet normal -0.319315 0.576176 -0.752369
  outer loop
   vertex -1.6295 -32.156 -13.3649
   vertex -1.79651 -32.156 -13.294
   vertex -1.6295 -32.0634 -13.294
  endloop
 endfacet
 facet normal -0.380239 0.686109 -0.620219
  outer loop
   vertex -1.6295 -32.0634 -13.294
   vertex -1.79651 -32.156 -13.294
   vertex -1.6295 -31.656 -12.8433
  endloop
 endfacet
 facet normal 0.353999 0.693793 -0.627165
  outer loop
   vertex -1.6295 -32.0634 -13.294
   vertex -1.6295 -31.656 -12.8433
   vertex -1.54221 -31.656 -12.794
  endloop
 endfacet
 facet normal -0.725982 -0.073378 -0.683788
  outer loop
   vertex -2.6295 -33.156 -13.0232
   vertex -2.37443 -33.156 -13.294
   vertex -2.32389 -33.656 -13.294
  endloop
 endfacet
 facet normal -0.532934 -0.0538659 -0.84444
  outer loop
   vertex -2.32389 -33.656 -13.294
   vertex -2.37443 -33.156 -13.294
   vertex -2.1295 -33.156 -13.4486
  endloop
 endfacet
 facet normal -0.482931 -0.0817741 -0.871832
  outer loop
   vertex -2.32389 -33.656 -13.294
   vertex -2.1295 -33.156 -13.4486
   vertex -2.1295 -33.656 -13.4017
  endloop
 endfacet
 facet normal -0.127388 -0.0926251 -0.987519
  outer loop
   vertex -2.1295 -33.656 -13.4017
   vertex -2.1295 -33.156 -13.4486
   vertex -1.6295 -33.656 -13.4662
  endloop
 endfacet
 facet normal -0.530037 0.117104 -0.83985
  outer loop
   vertex -2.37443 -33.156 -13.294
   vertex -2.1295 -32.656 -13.3789
   vertex -2.1295 -33.156 -13.4486
  endloop
 endfacet
 facet normal -0.17307 0.136015 -0.975473
  outer loop
   vertex -2.1295 -33.156 -13.4486
   vertex -2.1295 -32.656 -13.3789
   vertex -1.6295 -33.156 -13.5373
  endloop
 endfacet
 facet normal -0.173005 -0.13868 -0.975109
  outer loop
   vertex -2.1295 -33.156 -13.4486
   vertex -1.6295 -33.156 -13.5373
   vertex -1.6295 -33.656 -13.4662
  endloop
 endfacet
 facet normal 0.288328 -0.134823 -0.947992
  outer loop
   vertex -1.6295 -33.656 -13.4662
   vertex -1.6295 -33.156 -13.5373
   vertex -1.1295 -33.656 -13.3141
  endloop
 endfacet
 facet normal 0.392541 0.546195 0.739988
  outer loop
   vertex -2.1295 -31.8113 -11.294
   vertex -2.1295 -32.156 -11.0396
   vertex -1.64994 -32.156 -11.294
  endloop
 endfacet
 facet normal 0.431931 -0.387873 0.814242
  outer loop
   vertex -1.64994 -32.156 -11.294
   vertex -2.1295 -32.156 -11.0396
   vertex -2.09894 -32.656 -11.294
  endloop
 endfacet
 facet normal 0.495042 -0.444547 0.746533
  outer loop
   vertex -1.64994 -32.156 -11.294
   vertex -2.09894 -32.656 -11.294
   vertex -1.6295 -32.156 -11.3076
  endloop
 endfacet
 facet normal 0.379037 0.727743 0.571595
  outer loop
   vertex -1.64994 -32.156 -11.294
   vertex -1.6295 -32.156 -11.3076
   vertex -1.6295 -31.7739 -11.794
  endloop
 endfacet
 facet normal 0.409355 0.717514 0.563561
  outer loop
   vertex -1.6295 -31.7739 -11.794
   vertex -1.6295 -32.156 -11.3076
   vertex -1.1295 -32.0592 -11.794
  endloop
 endfacet
 facet normal 0.430034 0.75376 0.496907
  outer loop
   vertex -1.6295 -31.7739 -11.794
   vertex -1.1295 -32.0592 -11.794
   vertex -1.1295 -31.7296 -12.294
  endloop
 endfacet
 facet normal 0.657781 0.628856 0.414565
  outer loop
   vertex -1.1295 -31.7296 -12.294
   vertex -1.1295 -32.0592 -11.794
   vertex -1.03695 -32.156 -11.794
  endloop
 endfacet
 facet normal 0.490573 0.6826 0.541659
  outer loop
   vertex -1.64994 -32.156 -11.294
   vertex -1.6295 -31.7739 -11.794
   vertex -2.1295 -31.8113 -11.294
  endloop
 endfacet
 facet normal 0.121141 0.973494 0.193998
  outer loop
   vertex -2.1295 -31.8113 -11.294
   vertex -1.6295 -31.7739 -11.794
   vertex -2.1295 -31.7117 -11.794
  endloop
 endfacet
 facet normal 0.189603 -0.631029 0.752232
  outer loop
   vertex -1.6295 -32.656 -11.4706
   vertex -2.01071 -33.156 -11.794
   vertex -1.6295 -33.0415 -11.794
  endloop
 endfacet
 facet normal 0.18802 -0.625761 0.757015
  outer loop
   vertex -1.6295 -33.0415 -11.794
   vertex -2.01071 -33.156 -11.794
   vertex -1.6295 -33.156 -11.8887
  endloop
 endfacet
 facet normal 0.332453 -0.600885 0.72692
  outer loop
   vertex -1.6295 -33.0415 -11.794
   vertex -1.6295 -33.156 -11.8887
   vertex -1.1295 -33.156 -12.1174
  endloop
 endfacet
 facet normal 0.206781 -0.637581 0.742113
  outer loop
   vertex -1.6295 -32.656 -11.4706
   vertex -2.1295 -33.156 -11.7609
   vertex -2.01071 -33.156 -11.794
  endloop
 endfacet
 facet normal 0.210447 -0.620711 0.755268
  outer loop
   vertex -2.01071 -33.156 -11.794
   vertex -2.1295 -33.156 -11.7609
   vertex -2.1295 -33.1963 -11.794
  endloop
 endfacet
 facet normal 0.224607 -0.662476 0.714617
  outer loop
   vertex -2.01071 -33.156 -11.794
   vertex -2.1295 -33.1963 -11.794
   vertex -2.1295 -33.656 -12.2202
  endloop
 endfacet
 facet normal -0.29248 0.896262 0.333422
  outer loop
   vertex -1.6295 -31.5711 -12.294
   vertex -1.88954 -31.656 -12.294
   vertex -1.6295 -31.656 -12.0659
  endloop
 endfacet
 facet normal -0.329555 0.866172 0.375686
  outer loop
   vertex -1.6295 -31.656 -12.0659
   vertex -1.88954 -31.656 -12.294
   vertex -1.6295 -31.7739 -11.794
  endloop
 endfacet
 facet normal 0.301767 0.874654 0.379365
  outer loop
   vertex -1.6295 -31.656 -12.0659
   vertex -1.6295 -31.7739 -11.794
   vertex -1.1295 -31.7296 -12.294
  endloop
 endfacet
 facet normal -0.349259 0.855039 0.383308
  outer loop
   vertex -1.6295 -31.7739 -11.794
   vertex -1.88954 -31.656 -12.294
   vertex -2.1295 -31.754 -12.294
  endloop
 endfacet
 facet normal -0.376252 0.92112 -0.0998593
  outer loop
   vertex -2.1295 -31.754 -12.294
   vertex -1.88954 -31.656 -12.294
   vertex -1.75684 -31.656 -12.794
  endloop
 endfacet
 facet normal -0.34105 0.937403 -0.0704311
  outer loop
   vertex -2.1295 -31.754 -12.294
   vertex -1.75684 -31.656 -12.794
   vertex -2.1295 -31.7916 -12.794
  endloop
 endfacet
 facet normal 0.123054 0.988866 -0.0836755
  outer loop
   vertex -2.1295 -31.754 -12.294
   vertex -2.1295 -31.7117 -11.794
   vertex -1.6295 -31.7739 -11.794
  endloop
 endfacet
 facet normal 0.180554 -0.662525 0.726953
  outer loop
   vertex -2.1295 -33.656 -12.2202
   vertex -1.6295 -33.156 -11.8887
   vertex -2.01071 -33.156 -11.794
  endloop
 endfacet
 facet normal -0.309186 0.947455 -0.0820597
  outer loop
   vertex -1.88954 -31.656 -12.294
   vertex -1.6295 -31.5711 -12.294
   vertex -1.75684 -31.656 -12.794
  endloop
 endfacet
 facet normal -0.267512 0.958898 -0.0946154
  outer loop
   vertex -1.75684 -31.656 -12.794
   vertex -1.6295 -31.5711 -12.294
   vertex -1.6295 -31.6205 -12.794
  endloop
 endfacet
 facet normal 0.122518 -0.816657 0.563969
  outer loop
   vertex -1.6295 -33.6525 -12.294
   vertex -1.653 -33.656 -12.294
   vertex -1.6295 -33.656 -12.2991
  endloop
 endfacet
 facet normal 0.102722 -0.875139 0.472843
  outer loop
   vertex -1.6295 -33.656 -12.2991
   vertex -1.653 -33.656 -12.294
   vertex -2.1295 -33.7119 -12.294
  endloop
 endfacet
 facet normal 0.103883 -0.887749 0.448452
  outer loop
   vertex -1.6295 -33.656 -12.2991
   vertex -2.1295 -33.7119 -12.294
   vertex -1.6295 -33.906 -12.794
  endloop
 endfacet
 facet normal -0.332818 0.690296 -0.642435
  outer loop
   vertex -1.6295 -31.656 -12.8433
   vertex -1.79651 -32.156 -13.294
   vertex -2.1295 -32.156 -13.1215
  endloop
 endfacet
 facet normal -0.412008 0.444697 -0.795295
  outer loop
   vertex -2.1295 -32.156 -13.1215
   vertex -1.79651 -32.156 -13.294
   vertex -2.1295 -32.4645 -13.294
  endloop
 endfacet
 facet normal -0.264278 0.28999 -0.919817
  outer loop
   vertex -2.1295 -32.656 -13.3789
   vertex -1.6295 -32.156 -13.3649
   vertex -1.6295 -32.656 -13.5225
  endloop
 endfacet
 facet normal -0.0281628 0.300561 -0.953347
  outer loop
   vertex -1.6295 -32.656 -13.5225
   vertex -1.6295 -32.156 -13.3649
   vertex -1.1295 -32.656 -13.5373
  endloop
 endfacet
 facet normal -0.0294988 -0.0445301 -0.998572
  outer loop
   vertex -1.6295 -32.656 -13.5225
   vertex -1.1295 -32.656 -13.5373
   vertex -1.1295 -33.156 -13.515
  endloop
 endfacet
 facet normal 0.332042 -0.042022 -0.942328
  outer loop
   vertex -1.1295 -33.156 -13.515
   vertex -1.1295 -32.656 -13.5373
   vertex -0.629501 -32.656 -13.3611
  endloop
 endfacet
 facet normal 0.430946 -0.157484 -0.888529
  outer loop
   vertex -1.1295 -33.156 -13.515
   vertex -0.629501 -32.656 -13.3611
   vertex -0.629501 -33.0346 -13.294
  endloop
 endfacet
 facet normal 0.714494 -0.122102 -0.688905
  outer loop
   vertex -0.629501 -33.0346 -13.294
   vertex -0.629501 -32.656 -13.3611
   vertex -0.5648 -32.656 -13.294
  endloop
 endfacet
 facet normal 0.968464 -0.165504 -0.186239
  outer loop
   vertex -0.629501 -33.0346 -13.294
   vertex -0.5648 -32.656 -13.294
   vertex -0.629501 -33.156 -13.1861
  endloop
 endfacet
 facet normal 0.970812 -0.163488 -0.175487
  outer loop
   vertex -0.629501 -33.156 -13.1861
   vertex -0.5648 -32.656 -13.294
   vertex -0.55862 -33.156 -12.794
  endloop
 endfacet
 facet normal 0.78588 -0.60184 -0.142058
  outer loop
   vertex -0.629501 -33.156 -13.1861
   vertex -0.55862 -33.156 -12.794
   vertex -0.629501 -33.2486 -12.794
  endloop
 endfacet
 facet normal -0.276032 0.0283809 -0.960729
  outer loop
   vertex -2.1295 -32.656 -13.3789
   vertex -1.6295 -32.656 -13.5225
   vertex -1.6295 -33.156 -13.5373
  endloop
 endfacet
 facet normal 0.0445301 0.0294988 -0.998572
  outer loop
   vertex -1.6295 -33.156 -13.5373
   vertex -1.6295 -32.656 -13.5225
   vertex -1.1295 -33.156 -13.515
  endloop
 endfacet
 facet normal 0.0413436 -0.372489 -0.927115
  outer loop
   vertex -1.6295 -33.156 -13.5373
   vertex -1.1295 -33.156 -13.515
   vertex -1.1295 -33.656 -13.3141
  endloop
 endfacet
 facet normal 0.402681 -0.341246 -0.849353
  outer loop
   vertex -1.1295 -33.656 -13.3141
   vertex -1.1295 -33.156 -13.515
   vertex -0.663381 -33.156 -13.294
  endloop
 endfacet
 facet normal 0.527574 0.545873 0.650914
  outer loop
   vertex -1.6295 -32.156 -11.3076
   vertex -1.1295 -32.156 -11.7128
   vertex -1.1295 -32.0592 -11.794
  endloop
 endfacet
 facet normal 0.557836 0.533306 0.635928
  outer loop
   vertex -1.1295 -32.0592 -11.794
   vertex -1.1295 -32.156 -11.7128
   vertex -1.03695 -32.156 -11.794
  endloop
 endfacet
 facet normal 0.379857 -0.594514 0.708704
  outer loop
   vertex -1.6295 -32.656 -11.4706
   vertex -1.6295 -33.0415 -11.794
   vertex -1.1295 -32.656 -11.7386
  endloop
 endfacet
 facet normal 0.351097 -0.562889 0.748256
  outer loop
   vertex -1.1295 -32.656 -11.7386
   vertex -1.6295 -33.0415 -11.794
   vertex -1.1295 -32.7296 -11.794
  endloop
 endfacet
 facet normal 0.533279 -0.508544 0.676015
  outer loop
   vertex -1.1295 -32.656 -11.7386
   vertex -1.1295 -32.7296 -11.794
   vertex -1.05933 -32.656 -11.794
  endloop
 endfacet
 facet normal 0.535224 -0.5104 0.673073
  outer loop
   vertex -1.05933 -32.656 -11.794
   vertex -1.1295 -32.7296 -11.794
   vertex -1.1295 -33.156 -12.1174
  endloop
 endfacet
 facet normal 0.634677 -0.48049 0.605239
  outer loop
   vertex -1.05933 -32.656 -11.794
   vertex -1.1295 -33.156 -12.1174
   vertex -0.629501 -32.656 -12.2447
  endloop
 endfacet
 facet normal 0.582227 -0.402229 0.706557
  outer loop
   vertex -0.629501 -32.656 -12.2447
   vertex -1.1295 -33.156 -12.1174
   vertex -0.915133 -33.156 -12.294
  endloop
 endfacet
 facet normal 0.661538 -0.437902 0.608777
  outer loop
   vertex -0.629501 -32.656 -12.2447
   vertex -0.915133 -33.156 -12.294
   vertex -0.629501 -32.7245 -12.294
  endloop
 endfacet
 facet normal 0.704414 -0.466283 0.535146
  outer loop
   vertex -0.629501 -32.7245 -12.294
   vertex -0.915133 -33.156 -12.294
   vertex -0.629501 -33.156 -12.67
  endloop
 endfacet
 facet normal 0.263722 0.904066 0.336325
  outer loop
   vertex -1.6295 -31.5711 -12.294
   vertex -1.6295 -31.656 -12.0659
   vertex -1.33859 -31.656 -12.294
  endloop
 endfacet
 facet normal 0.305649 0.8687 0.389794
  outer loop
   vertex -1.33859 -31.656 -12.294
   vertex -1.6295 -31.656 -12.0659
   vertex -1.1295 -31.7296 -12.294
  endloop
 endfacet
 facet normal 0.352668 -0.565408 0.745613
  outer loop
   vertex -1.6295 -33.0415 -11.794
   vertex -1.1295 -33.156 -12.1174
   vertex -1.1295 -32.7296 -11.794
  endloop
 endfacet
 facet normal 0.278788 0.955712 -0.094301
  outer loop
   vertex -1.6295 -31.5711 -12.294
   vertex -1.33859 -31.656 -12.294
   vertex -1.6295 -31.6205 -12.794
  endloop
 endfacet
 facet normal 0.411934 -0.707085 0.574753
  outer loop
   vertex -1.1295 -33.3612 -12.294
   vertex -1.6295 -33.6525 -12.294
   vertex -1.1295 -33.656 -12.6567
  endloop
 endfacet
 facet normal 0.376497 -0.762308 0.526437
  outer loop
   vertex -1.1295 -33.656 -12.6567
   vertex -1.6295 -33.6525 -12.294
   vertex -1.6295 -33.656 -12.2991
  endloop
 endfacet
 facet normal 0.306906 -0.849502 0.429132
  outer loop
   vertex -1.1295 -33.656 -12.6567
   vertex -1.6295 -33.656 -12.2991
   vertex -1.6295 -33.906 -12.794
  endloop
 endfacet
 facet normal 0.255386 -0.804933 0.535593
  outer loop
   vertex -1.6295 -33.906 -12.794
   vertex -1.1295 -33.7474 -12.794
   vertex -1.1295 -33.656 -12.6567
  endloop
 endfacet
 facet normal 0.569742 -0.684202 0.45526
  outer loop
   vertex -1.1295 -33.656 -12.6567
   vertex -1.1295 -33.7474 -12.794
   vertex -1.01978 -33.656 -12.794
  endloop
 endfacet
 facet normal 0.284503 0.718249 -0.634962
  outer loop
   vertex -1.54221 -31.656 -12.794
   vertex -1.1295 -31.8195 -12.794
   vertex -1.6295 -32.0634 -13.294
  endloop
 endfacet
 facet normal 0.0112361 0.894192 -0.447543
  outer loop
   vertex -1.6295 -32.0634 -13.294
   vertex -1.1295 -31.8195 -12.794
   vertex -1.1295 -32.0697 -13.294
  endloop
 endfacet
 facet normal 0.00869019 0.691585 -0.722243
  outer loop
   vertex -1.6295 -32.0634 -13.294
   vertex -1.1295 -32.0697 -13.294
   vertex -1.1295 -32.156 -13.3766
  endloop
 endfacet
 facet normal 0.334641 0.651737 -0.680628
  outer loop
   vertex -1.1295 -32.156 -13.3766
   vertex -1.1295 -32.0697 -13.294
   vertex -0.961478 -32.156 -13.294
  endloop
 endfacet
 facet normal 0.407753 0.382032 -0.82933
  outer loop
   vertex -1.1295 -32.156 -13.3766
   vertex -0.961478 -32.156 -13.294
   vertex -0.629501 -32.656 -13.3611
  endloop
 endfacet
 facet normal 0.418655 0.388155 -0.821014
  outer loop
   vertex -0.629501 -32.656 -13.3611
   vertex -0.961478 -32.156 -13.294
   vertex -0.629501 -32.5141 -13.294
  endloop
 endfacet
 facet normal 0.683994 0.311794 -0.659498
  outer loop
   vertex -0.629501 -32.656 -13.3611
   vertex -0.629501 -32.5141 -13.294
   vertex -0.5648 -32.656 -13.294
  endloop
 endfacet
 facet normal 0.891666 0.406459 -0.199307
  outer loop
   vertex -0.5648 -32.656 -13.294
   vertex -0.629501 -32.5141 -13.294
   vertex -0.453039 -32.656 -12.794
  endloop
 endfacet
 facet normal 0.955833 -0.201836 -0.21365
  outer loop
   vertex -0.5648 -32.656 -13.294
   vertex -0.453039 -32.656 -12.794
   vertex -0.55862 -33.156 -12.794
  endloop
 endfacet
 facet normal 0.94321 -0.199171 0.265868
  outer loop
   vertex -0.55862 -33.156 -12.794
   vertex -0.453039 -32.656 -12.794
   vertex -0.593977 -32.656 -12.294
  endloop
 endfacet
 facet normal 0.302232 -0.952585 0.0351899
  outer loop
   vertex -1.6295 -33.906 -12.794
   vertex -1.6295 -33.9245 -13.294
   vertex -1.1295 -33.7474 -12.794
  endloop
 endfacet
 facet normal 0.438016 -0.890573 -0.12256
  outer loop
   vertex -1.1295 -33.7474 -12.794
   vertex -1.6295 -33.9245 -13.294
   vertex -1.1295 -33.6786 -13.294
  endloop
 endfacet
 facet normal 0.667097 -0.738015 -0.101565
  outer loop
   vertex -1.1295 -33.7474 -12.794
   vertex -1.1295 -33.6786 -13.294
   vertex -1.10455 -33.656 -13.294
  endloop
 endfacet
 facet normal -0.0186227 0.607901 -0.793795
  outer loop
   vertex -1.6295 -32.0634 -13.294
   vertex -1.1295 -32.156 -13.3766
   vertex -1.6295 -32.156 -13.3649
  endloop
 endfacet
 facet normal -0.0223299 0.305865 -0.951813
  outer loop
   vertex -1.6295 -32.156 -13.3649
   vertex -1.1295 -32.156 -13.3766
   vertex -1.1295 -32.656 -13.5373
  endloop
 endfacet
 facet normal 0.623129 0.782103 -0.00505242
  outer loop
   vertex -1.1295 -31.8195 -12.794
   vertex -0.70307 -32.156 -12.294
   vertex -0.707124 -32.156 -12.794
  endloop
 endfacet
 facet normal 0.828282 0.560271 -0.00671582
  outer loop
   vertex -0.707124 -32.156 -12.794
   vertex -0.70307 -32.156 -12.294
   vertex -0.629501 -32.2708 -12.794
  endloop
 endfacet
 facet normal 0.799131 0.540553 -0.263043
  outer loop
   vertex -0.707124 -32.156 -12.794
   vertex -0.629501 -32.2708 -12.794
   vertex -0.629501 -32.5141 -13.294
  endloop
 endfacet
 facet normal 0.89105 0.408146 -0.198611
  outer loop
   vertex -0.629501 -32.5141 -13.294
   vertex -0.629501 -32.2708 -12.794
   vertex -0.453039 -32.656 -12.794
  endloop
 endfacet
 facet normal 0.971078 0.220179 0.0923486
  outer loop
   vertex -0.70307 -32.156 -12.294
   vertex -0.629501 -32.4805 -12.294
   vertex -0.629501 -32.2708 -12.794
  endloop
 endfacet
 facet normal 0.976755 0.197675 0.0829102
  outer loop
   vertex -0.629501 -32.2708 -12.794
   vertex -0.629501 -32.4805 -12.294
   vertex -0.593977 -32.656 -12.294
  endloop
 endfacet
 facet normal 0.880702 0.403406 0.248248
  outer loop
   vertex -0.629501 -32.2708 -12.794
   vertex -0.593977 -32.656 -12.294
   vertex -0.453039 -32.656 -12.794
  endloop
 endfacet
 facet normal 0.444914 0.866502 -0.226332
  outer loop
   vertex -1.1295 -32.0697 -13.294
   vertex -0.707124 -32.156 -12.794
   vertex -0.961478 -32.156 -13.294
  endloop
 endfacet
 facet normal 0.687064 0.63701 -0.349516
  outer loop
   vertex -0.961478 -32.156 -13.294
   vertex -0.707124 -32.156 -12.794
   vertex -0.629501 -32.5141 -13.294
  endloop
 endfacet
 facet normal 0.580263 0.728302 -0.364515
  outer loop
   vertex -1.1295 -31.8195 -12.794
   vertex -0.707124 -32.156 -12.794
   vertex -1.1295 -32.0697 -13.294
  endloop
 endfacet
 facet normal 0.921938 -0.257297 -0.289532
  outer loop
   vertex -0.629501 -33.156 -13.1861
   vertex -0.663381 -33.156 -13.294
   vertex -0.629501 -33.0346 -13.294
  endloop
 endfacet
 facet normal 0.425366 -0.118712 -0.897202
  outer loop
   vertex -0.629501 -33.0346 -13.294
   vertex -0.663381 -33.156 -13.294
   vertex -1.1295 -33.156 -13.515
  endloop
 endfacet
 facet normal 0.590404 -0.785522 -0.185414
  outer loop
   vertex -0.629501 -33.2486 -12.794
   vertex -0.663381 -33.156 -13.294
   vertex -0.629501 -33.156 -13.1861
  endloop
 endfacet
 facet normal 0.636169 -0.763974 -0.107852
  outer loop
   vertex -1.01978 -33.656 -12.794
   vertex -1.1295 -33.7474 -12.794
   vertex -1.10455 -33.656 -13.294
  endloop
 endfacet
 facet normal 0.318049 0.290055 -0.902615
  outer loop
   vertex -1.1295 -32.156 -13.3766
   vertex -0.629501 -32.656 -13.3611
   vertex -1.1295 -32.656 -13.5373
  endloop
 endfacet
endsolid
