solid ascii
 facet normal -0.622919 0.685515 0.376883
  outer loop
   vertex -26.6295 -23.5061 -25.294
   vertex -26.7945 -23.656 -25.294
   vertex -26.6295 -23.656 -25.0213
  endloop
 endfacet
 facet normal -0.70651 -0.564025 0.427458
  outer loop
   vertex -26.6295 -23.656 -25.0213
   vertex -26.7945 -23.656 -25.294
   vertex -26.6295 -23.8627 -25.294
  endloop
 endfacet
 facet normal -0.710178 -0.561091 0.425234
  outer loop
   vertex -26.6295 -23.656 -25.0213
   vertex -26.6295 -23.8627 -25.294
   vertex -26.1295 -24.156 -24.846
  endloop
 endfacet
 facet normal -0.718469 -0.521194 0.460608
  outer loop
   vertex -26.1295 -24.156 -24.846
   vertex -26.6295 -23.8627 -25.294
   vertex -26.4167 -24.156 -25.294
  endloop
 endfacet
 facet normal -0.628764 -0.664956 0.403099
  outer loop
   vertex -26.1295 -24.156 -24.846
   vertex -26.4167 -24.156 -25.294
   vertex -26.1295 -24.4276 -25.294
  endloop
 endfacet
 facet normal -0.628764 -0.664956 -0.403099
  outer loop
   vertex -26.1295 -24.4276 -25.294
   vertex -26.4167 -24.156 -25.294
   vertex -26.1295 -24.156 -25.742
  endloop
 endfacet
 facet normal -0.649918 -0.649913 -0.393979
  outer loop
   vertex -26.1295 -24.4276 -25.294
   vertex -26.1295 -24.156 -25.742
   vertex -25.9011 -24.656 -25.294
  endloop
 endfacet
 facet normal -0.649914 -0.649914 -0.393983
  outer loop
   vertex -25.9011 -24.656 -25.294
   vertex -26.1295 -24.156 -25.742
   vertex -25.6295 -24.656 -25.742
  endloop
 endfacet
 facet normal -0.649912 -0.649917 -0.393982
  outer loop
   vertex -25.9011 -24.656 -25.294
   vertex -25.6295 -24.656 -25.742
   vertex -25.6295 -24.9276 -25.294
  endloop
 endfacet
 facet normal -0.649918 -0.649913 -0.393979
  outer loop
   vertex -25.6295 -24.9276 -25.294
   vertex -25.6295 -24.656 -25.742
   vertex -25.4011 -25.156 -25.294
  endloop
 endfacet
 facet normal -0.649917 -0.649911 0.393984
  outer loop
   vertex -25.6295 -24.9276 -25.294
   vertex -25.4011 -25.156 -25.294
   vertex -25.1295 -25.156 -24.846
  endloop
 endfacet
 facet normal -0.649912 -0.649917 0.393982
  outer loop
   vertex -25.1295 -25.156 -24.846
   vertex -25.4011 -25.156 -25.294
   vertex -25.1295 -25.4276 -25.294
  endloop
 endfacet
 facet normal -0.649915 -0.649915 0.393981
  outer loop
   vertex -25.1295 -25.156 -24.846
   vertex -25.1295 -25.4276 -25.294
   vertex -24.6295 -25.656 -24.846
  endloop
 endfacet
 facet normal -0.649917 -0.649911 0.393984
  outer loop
   vertex -24.6295 -25.656 -24.846
   vertex -25.1295 -25.4276 -25.294
   vertex -24.9011 -25.656 -25.294
  endloop
 endfacet
 facet normal -0.649912 -0.649917 0.393982
  outer loop
   vertex -24.6295 -25.656 -24.846
   vertex -24.9011 -25.656 -25.294
   vertex -24.6295 -25.9276 -25.294
  endloop
 endfacet
 facet normal -0.649912 -0.649917 -0.393982
  outer loop
   vertex -24.6295 -25.9276 -25.294
   vertex -24.9011 -25.656 -25.294
   vertex -24.6295 -25.656 -25.742
  endloop
 endfacet
 facet normal -0.649918 -0.649913 -0.393979
  outer loop
   vertex -24.6295 -25.9276 -25.294
   vertex -24.6295 -25.656 -25.742
   vertex -24.4011 -26.156 -25.294
  endloop
 endfacet
 facet normal -0.649914 -0.649914 -0.393983
  outer loop
   vertex -24.4011 -26.156 -25.294
   vertex -24.6295 -25.656 -25.742
   vertex -24.1295 -26.156 -25.742
  endloop
 endfacet
 facet normal -0.649912 -0.649917 -0.393982
  outer loop
   vertex -24.4011 -26.156 -25.294
   vertex -24.1295 -26.156 -25.742
   vertex -24.1295 -26.4276 -25.294
  endloop
 endfacet
 facet normal -0.649918 -0.649913 -0.393979
  outer loop
   vertex -24.1295 -26.4276 -25.294
   vertex -24.1295 -26.156 -25.742
   vertex -23.9011 -26.656 -25.294
  endloop
 endfacet
 facet normal -0.649917 -0.649911 0.393984
  outer loop
   vertex -24.1295 -26.4276 -25.294
   vertex -23.9011 -26.656 -25.294
   vertex -23.6295 -26.656 -24.846
  endloop
 endfacet
 facet normal -0.649912 -0.649917 0.393982
  outer loop
   vertex -23.6295 -26.656 -24.846
   vertex -23.9011 -26.656 -25.294
   vertex -23.6295 -26.9276 -25.294
  endloop
 endfacet
 facet normal -0.649915 -0.649915 0.393981
  outer loop
   vertex -23.6295 -26.656 -24.846
   vertex -23.6295 -26.9276 -25.294
   vertex -23.1295 -27.156 -24.846
  endloop
 endfacet
 facet normal -0.649917 -0.649911 0.393984
  outer loop
   vertex -23.1295 -27.156 -24.846
   vertex -23.6295 -26.9276 -25.294
   vertex -23.4011 -27.156 -25.294
  endloop
 endfacet
 facet normal -0.664954 -0.628766 0.4031
  outer loop
   vertex -23.1295 -27.156 -24.846
   vertex -23.4011 -27.156 -25.294
   vertex -23.1295 -27.4432 -25.294
  endloop
 endfacet
 facet normal -0.664954 -0.628766 -0.4031
  outer loop
   vertex -23.1295 -27.4432 -25.294
   vertex -23.4011 -27.156 -25.294
   vertex -23.1295 -27.156 -25.742
  endloop
 endfacet
 facet normal 0.0602162 -0.840324 -0.538729
  outer loop
   vertex -23.1295 -27.4432 -25.294
   vertex -23.1295 -27.156 -25.742
   vertex -22.6295 -27.156 -25.6861
  endloop
 endfacet
 facet normal 0.110404 0.110404 -0.987736
  outer loop
   vertex -22.6295 -27.156 -25.6861
   vertex -23.1295 -27.156 -25.742
   vertex -23.1295 -26.656 -25.6861
  endloop
 endfacet
 facet normal 0.697459 0.697459 -0.164628
  outer loop
   vertex -22.6295 -27.156 -25.6861
   vertex -23.1295 -26.656 -25.6861
   vertex -23.0369 -26.656 -25.294
  endloop
 endfacet
 facet normal 0.697459 0.697459 -0.164628
  outer loop
   vertex -23.0369 -26.656 -25.294
   vertex -23.1295 -26.656 -25.6861
   vertex -23.1295 -26.5634 -25.294
  endloop
 endfacet
 facet normal 0.617275 0.617275 0.487793
  outer loop
   vertex -23.0369 -26.656 -25.294
   vertex -23.1295 -26.5634 -25.294
   vertex -23.1295 -26.656 -25.1769
  endloop
 endfacet
 facet normal 0.617275 0.617275 0.487793
  outer loop
   vertex -23.1295 -26.656 -25.1769
   vertex -23.1295 -26.5634 -25.294
   vertex -23.6295 -26.156 -25.1769
  endloop
 endfacet
 facet normal 0.483174 0.483174 0.730128
  outer loop
   vertex -23.1295 -26.656 -25.1769
   vertex -23.6295 -26.156 -25.1769
   vertex -23.6295 -26.656 -24.846
  endloop
 endfacet
 facet normal 0.483174 0.483174 0.730128
  outer loop
   vertex -23.6295 -26.656 -24.846
   vertex -23.6295 -26.156 -25.1769
   vertex -24.1295 -26.156 -24.846
  endloop
 endfacet
 facet normal -0.649915 -0.649915 0.393981
  outer loop
   vertex -23.6295 -26.656 -24.846
   vertex -24.1295 -26.156 -24.846
   vertex -24.1295 -26.4276 -25.294
  endloop
 endfacet
 facet normal -0.649912 -0.649917 0.393982
  outer loop
   vertex -24.1295 -26.4276 -25.294
   vertex -24.1295 -26.156 -24.846
   vertex -24.4011 -26.156 -25.294
  endloop
 endfacet
 facet normal -0.65954 0.725816 -0.195446
  outer loop
   vertex -26.6295 -23.5061 -25.294
   vertex -26.6463 -23.656 -25.794
   vertex -26.7945 -23.656 -25.294
  endloop
 endfacet
 facet normal -0.573538 -0.801354 -0.16996
  outer loop
   vertex -26.7945 -23.656 -25.294
   vertex -26.6463 -23.656 -25.794
   vertex -26.6295 -23.668 -25.794
  endloop
 endfacet
 facet normal -0.759431 -0.606273 -0.236002
  outer loop
   vertex -26.7945 -23.656 -25.294
   vertex -26.6295 -23.668 -25.794
   vertex -26.6295 -23.8627 -25.294
  endloop
 endfacet
 facet normal -0.789096 -0.572429 -0.222828
  outer loop
   vertex -26.6295 -23.8627 -25.294
   vertex -26.6295 -23.668 -25.794
   vertex -26.4167 -24.156 -25.294
  endloop
 endfacet
 facet normal -0.859447 0.496922 -0.120083
  outer loop
   vertex -26.6295 -23.5061 -25.294
   vertex -26.6295 -23.6269 -25.794
   vertex -26.6463 -23.656 -25.794
  endloop
 endfacet
 facet normal -0.45582 0.26355 -0.850158
  outer loop
   vertex -26.6463 -23.656 -25.794
   vertex -26.6295 -23.6269 -25.794
   vertex -26.6295 -23.656 -25.803
  endloop
 endfacet
 facet normal -0.394335 -0.55097 -0.735481
  outer loop
   vertex -26.6463 -23.656 -25.794
   vertex -26.6295 -23.656 -25.803
   vertex -26.6295 -23.668 -25.794
  endloop
 endfacet
 facet normal 0.0868895 -0.597286 -0.797308
  outer loop
   vertex -26.6295 -23.668 -25.794
   vertex -26.6295 -23.656 -25.803
   vertex -26.5467 -23.656 -25.794
  endloop
 endfacet
 facet normal 0.140207 -0.963794 -0.226811
  outer loop
   vertex -26.6295 -23.668 -25.794
   vertex -26.5467 -23.656 -25.794
   vertex -26.1295 -23.656 -25.5361
  endloop
 endfacet
 facet normal 0.292244 0.831319 -0.47276
  outer loop
   vertex -26.1295 -23.656 -25.5361
   vertex -26.5467 -23.656 -25.794
   vertex -26.6295 -23.6269 -25.794
  endloop
 endfacet
 facet normal 0.140096 0.9769 -0.161367
  outer loop
   vertex -26.1295 -23.656 -25.5361
   vertex -26.6295 -23.6269 -25.794
   vertex -26.1295 -23.616 -25.294
  endloop
 endfacet
 facet normal 0.209007 0.950553 -0.229705
  outer loop
   vertex -26.1295 -23.616 -25.294
   vertex -26.6295 -23.6269 -25.794
   vertex -26.6295 -23.5061 -25.294
  endloop
 endfacet
 facet normal 0.189199 0.86047 0.47307
  outer loop
   vertex -26.1295 -23.616 -25.294
   vertex -26.6295 -23.5061 -25.294
   vertex -26.6295 -23.656 -25.0213
  endloop
 endfacet
 facet normal 0.228449 0.811497 0.537851
  outer loop
   vertex -26.1295 -23.616 -25.294
   vertex -26.6295 -23.656 -25.0213
   vertex -26.1295 -23.656 -25.2337
  endloop
 endfacet
 facet normal 0.318219 0.58089 0.749202
  outer loop
   vertex -26.1295 -23.656 -25.2337
   vertex -26.6295 -23.656 -25.0213
   vertex -26.1295 -24.156 -24.846
  endloop
 endfacet
 facet normal 0.463432 0.542971 0.700296
  outer loop
   vertex -26.1295 -23.656 -25.2337
   vertex -26.1295 -24.156 -24.846
   vertex -25.6295 -24.156 -25.1769
  endloop
 endfacet
 facet normal 0.483174 0.483174 0.730128
  outer loop
   vertex -25.6295 -24.156 -25.1769
   vertex -26.1295 -24.156 -24.846
   vertex -25.6295 -24.656 -24.846
  endloop
 endfacet
 facet normal 0.483174 0.483174 0.730128
  outer loop
   vertex -25.6295 -24.156 -25.1769
   vertex -25.6295 -24.656 -24.846
   vertex -25.1295 -24.656 -25.1769
  endloop
 endfacet
 facet normal 0.483174 0.483174 0.730128
  outer loop
   vertex -25.1295 -24.656 -25.1769
   vertex -25.6295 -24.656 -24.846
   vertex -25.1295 -25.156 -24.846
  endloop
 endfacet
 facet normal 0.483174 0.483174 0.730128
  outer loop
   vertex -25.1295 -24.656 -25.1769
   vertex -25.1295 -25.156 -24.846
   vertex -24.6295 -25.156 -25.1769
  endloop
 endfacet
 facet normal 0.483174 0.483174 0.730128
  outer loop
   vertex -24.6295 -25.156 -25.1769
   vertex -25.1295 -25.156 -24.846
   vertex -24.6295 -25.656 -24.846
  endloop
 endfacet
 facet normal 0.483174 0.483174 0.730128
  outer loop
   vertex -24.6295 -25.156 -25.1769
   vertex -24.6295 -25.656 -24.846
   vertex -24.1295 -25.656 -25.1769
  endloop
 endfacet
 facet normal 0.483174 0.483174 0.730128
  outer loop
   vertex -24.1295 -25.656 -25.1769
   vertex -24.6295 -25.656 -24.846
   vertex -24.1295 -26.156 -24.846
  endloop
 endfacet
 facet normal 0.483174 0.483174 0.730128
  outer loop
   vertex -24.1295 -25.656 -25.1769
   vertex -24.1295 -26.156 -24.846
   vertex -23.6295 -26.156 -25.1769
  endloop
 endfacet
 facet normal -0.821797 0.216974 -0.526851
  outer loop
   vertex -26.1295 -24.156 -25.742
   vertex -26.4167 -24.156 -25.294
   vertex -26.1295 -23.656 -25.5361
  endloop
 endfacet
 facet normal 0.386775 -0.572294 -0.723108
  outer loop
   vertex -26.1295 -23.656 -25.5361
   vertex -26.4167 -24.156 -25.294
   vertex -26.6295 -23.668 -25.794
  endloop
 endfacet
 facet normal 0.103532 0.294509 -0.950024
  outer loop
   vertex -26.6295 -23.6269 -25.794
   vertex -26.5467 -23.656 -25.794
   vertex -26.6295 -23.656 -25.803
  endloop
 endfacet
 facet normal 0.56034 0.690389 0.457582
  outer loop
   vertex -26.1295 -23.616 -25.294
   vertex -26.1295 -23.656 -25.2337
   vertex -26.0802 -23.656 -25.294
  endloop
 endfacet
 facet normal 0.588172 0.650657 0.480311
  outer loop
   vertex -26.0802 -23.656 -25.294
   vertex -26.1295 -23.656 -25.2337
   vertex -25.6295 -24.0634 -25.294
  endloop
 endfacet
 facet normal 0.660539 0.730712 -0.172477
  outer loop
   vertex -26.0802 -23.656 -25.294
   vertex -25.6295 -24.0634 -25.294
   vertex -25.6295 -24.156 -25.6861
  endloop
 endfacet
 facet normal 0.697459 0.697459 -0.164628
  outer loop
   vertex -25.6295 -24.156 -25.6861
   vertex -25.6295 -24.0634 -25.294
   vertex -25.5369 -24.156 -25.294
  endloop
 endfacet
 facet normal 0.697459 0.697459 -0.164628
  outer loop
   vertex -25.6295 -24.156 -25.6861
   vertex -25.5369 -24.156 -25.294
   vertex -25.1295 -24.656 -25.6861
  endloop
 endfacet
 facet normal 0.697459 0.697459 -0.164628
  outer loop
   vertex -25.1295 -24.656 -25.6861
   vertex -25.5369 -24.156 -25.294
   vertex -25.1295 -24.5634 -25.294
  endloop
 endfacet
 facet normal 0.697459 0.697459 -0.164628
  outer loop
   vertex -25.1295 -24.656 -25.6861
   vertex -25.1295 -24.5634 -25.294
   vertex -25.0369 -24.656 -25.294
  endloop
 endfacet
 facet normal 0.617275 0.617275 0.487793
  outer loop
   vertex -25.0369 -24.656 -25.294
   vertex -25.1295 -24.5634 -25.294
   vertex -25.1295 -24.656 -25.1769
  endloop
 endfacet
 facet normal 0.617275 0.617275 0.487793
  outer loop
   vertex -25.0369 -24.656 -25.294
   vertex -25.1295 -24.656 -25.1769
   vertex -24.6295 -25.0634 -25.294
  endloop
 endfacet
 facet normal 0.617275 0.617275 0.487793
  outer loop
   vertex -24.6295 -25.0634 -25.294
   vertex -25.1295 -24.656 -25.1769
   vertex -24.6295 -25.156 -25.1769
  endloop
 endfacet
 facet normal 0.617275 0.617275 0.487793
  outer loop
   vertex -24.6295 -25.0634 -25.294
   vertex -24.6295 -25.156 -25.1769
   vertex -24.5369 -25.156 -25.294
  endloop
 endfacet
 facet normal 0.617275 0.617275 0.487793
  outer loop
   vertex -24.5369 -25.156 -25.294
   vertex -24.6295 -25.156 -25.1769
   vertex -24.1295 -25.5634 -25.294
  endloop
 endfacet
 facet normal 0.697459 0.697459 -0.164628
  outer loop
   vertex -24.5369 -25.156 -25.294
   vertex -24.1295 -25.5634 -25.294
   vertex -24.1295 -25.656 -25.6861
  endloop
 endfacet
 facet normal 0.697459 0.697459 -0.164628
  outer loop
   vertex -24.1295 -25.656 -25.6861
   vertex -24.1295 -25.5634 -25.294
   vertex -24.0369 -25.656 -25.294
  endloop
 endfacet
 facet normal 0.697459 0.697459 -0.164628
  outer loop
   vertex -24.1295 -25.656 -25.6861
   vertex -24.0369 -25.656 -25.294
   vertex -23.6295 -26.156 -25.6861
  endloop
 endfacet
 facet normal 0.697459 0.697459 -0.164628
  outer loop
   vertex -23.6295 -26.156 -25.6861
   vertex -24.0369 -25.656 -25.294
   vertex -23.6295 -26.0634 -25.294
  endloop
 endfacet
 facet normal 0.697459 0.697459 -0.164628
  outer loop
   vertex -23.6295 -26.156 -25.6861
   vertex -23.6295 -26.0634 -25.294
   vertex -23.5369 -26.156 -25.294
  endloop
 endfacet
 facet normal 0.617275 0.617275 0.487793
  outer loop
   vertex -23.5369 -26.156 -25.294
   vertex -23.6295 -26.0634 -25.294
   vertex -23.6295 -26.156 -25.1769
  endloop
 endfacet
 facet normal 0.617275 0.617275 0.487793
  outer loop
   vertex -23.5369 -26.156 -25.294
   vertex -23.6295 -26.156 -25.1769
   vertex -23.1295 -26.5634 -25.294
  endloop
 endfacet
 facet normal 0.581177 0.638483 0.504552
  outer loop
   vertex -26.1295 -23.656 -25.2337
   vertex -25.6295 -24.156 -25.1769
   vertex -25.6295 -24.0634 -25.294
  endloop
 endfacet
 facet normal 0.617275 0.617275 0.487793
  outer loop
   vertex -25.6295 -24.0634 -25.294
   vertex -25.6295 -24.156 -25.1769
   vertex -25.5369 -24.156 -25.294
  endloop
 endfacet
 facet normal -0.649917 -0.649911 0.393984
  outer loop
   vertex -26.1295 -24.4276 -25.294
   vertex -25.9011 -24.656 -25.294
   vertex -25.6295 -24.656 -24.846
  endloop
 endfacet
 facet normal -0.649912 -0.649917 0.393982
  outer loop
   vertex -25.6295 -24.656 -24.846
   vertex -25.9011 -24.656 -25.294
   vertex -25.6295 -24.9276 -25.294
  endloop
 endfacet
 facet normal -0.649915 -0.649915 0.393981
  outer loop
   vertex -25.6295 -24.656 -24.846
   vertex -25.6295 -24.9276 -25.294
   vertex -25.1295 -25.156 -24.846
  endloop
 endfacet
 facet normal -0.649915 -0.649915 0.393981
  outer loop
   vertex -26.1295 -24.4276 -25.294
   vertex -25.6295 -24.656 -24.846
   vertex -26.1295 -24.156 -24.846
  endloop
 endfacet
 facet normal 0.625065 0.770137 -0.127213
  outer loop
   vertex -26.1295 -23.616 -25.294
   vertex -26.0802 -23.656 -25.294
   vertex -26.1295 -23.656 -25.5361
  endloop
 endfacet
 facet normal 0.679269 0.720751 -0.138245
  outer loop
   vertex -26.1295 -23.656 -25.5361
   vertex -26.0802 -23.656 -25.294
   vertex -25.6295 -24.156 -25.6861
  endloop
 endfacet
 facet normal 0.102805 0.378784 -0.919757
  outer loop
   vertex -26.1295 -23.656 -25.5361
   vertex -25.6295 -24.156 -25.6861
   vertex -26.1295 -24.156 -25.742
  endloop
 endfacet
 facet normal 0.110404 0.110404 -0.987736
  outer loop
   vertex -26.1295 -24.156 -25.742
   vertex -25.6295 -24.156 -25.6861
   vertex -25.6295 -24.656 -25.742
  endloop
 endfacet
 facet normal 0.617275 0.617275 0.487793
  outer loop
   vertex -25.5369 -24.156 -25.294
   vertex -25.6295 -24.156 -25.1769
   vertex -25.1295 -24.5634 -25.294
  endloop
 endfacet
 facet normal 0.617275 0.617275 0.487793
  outer loop
   vertex -25.1295 -24.5634 -25.294
   vertex -25.6295 -24.156 -25.1769
   vertex -25.1295 -24.656 -25.1769
  endloop
 endfacet
 facet normal 0.110404 0.110404 -0.987736
  outer loop
   vertex -25.6295 -24.156 -25.6861
   vertex -25.1295 -24.656 -25.6861
   vertex -25.6295 -24.656 -25.742
  endloop
 endfacet
 facet normal 0.110404 0.110404 -0.987736
  outer loop
   vertex -25.6295 -24.656 -25.742
   vertex -25.1295 -24.656 -25.6861
   vertex -25.1295 -25.156 -25.742
  endloop
 endfacet
 facet normal -0.649914 -0.649914 -0.393983
  outer loop
   vertex -25.6295 -24.656 -25.742
   vertex -25.1295 -25.156 -25.742
   vertex -25.4011 -25.156 -25.294
  endloop
 endfacet
 facet normal -0.649912 -0.649917 -0.393982
  outer loop
   vertex -25.4011 -25.156 -25.294
   vertex -25.1295 -25.156 -25.742
   vertex -25.1295 -25.4276 -25.294
  endloop
 endfacet
 facet normal 0.697459 0.697459 -0.164628
  outer loop
   vertex -25.0369 -24.656 -25.294
   vertex -24.6295 -25.0634 -25.294
   vertex -24.6295 -25.156 -25.6861
  endloop
 endfacet
 facet normal 0.697459 0.697459 -0.164628
  outer loop
   vertex -24.6295 -25.156 -25.6861
   vertex -24.6295 -25.0634 -25.294
   vertex -24.5369 -25.156 -25.294
  endloop
 endfacet
 facet normal 0.697459 0.697459 -0.164628
  outer loop
   vertex -24.6295 -25.156 -25.6861
   vertex -24.5369 -25.156 -25.294
   vertex -24.1295 -25.656 -25.6861
  endloop
 endfacet
 facet normal 0.697459 0.697459 -0.164628
  outer loop
   vertex -25.0369 -24.656 -25.294
   vertex -24.6295 -25.156 -25.6861
   vertex -25.1295 -24.656 -25.6861
  endloop
 endfacet
 facet normal 0.110404 0.110404 -0.987736
  outer loop
   vertex -25.1295 -24.656 -25.6861
   vertex -24.6295 -25.156 -25.6861
   vertex -25.1295 -25.156 -25.742
  endloop
 endfacet
 facet normal -0.649918 -0.649913 -0.393979
  outer loop
   vertex -25.1295 -25.4276 -25.294
   vertex -25.1295 -25.156 -25.742
   vertex -24.9011 -25.656 -25.294
  endloop
 endfacet
 facet normal -0.649914 -0.649914 -0.393983
  outer loop
   vertex -24.9011 -25.656 -25.294
   vertex -25.1295 -25.156 -25.742
   vertex -24.6295 -25.656 -25.742
  endloop
 endfacet
 facet normal 0.110404 0.110404 -0.987736
  outer loop
   vertex -25.1295 -25.156 -25.742
   vertex -24.6295 -25.156 -25.6861
   vertex -24.6295 -25.656 -25.742
  endloop
 endfacet
 facet normal 0.110404 0.110404 -0.987736
  outer loop
   vertex -24.6295 -25.656 -25.742
   vertex -24.6295 -25.156 -25.6861
   vertex -24.1295 -25.656 -25.6861
  endloop
 endfacet
 facet normal 0.110404 0.110404 -0.987736
  outer loop
   vertex -24.6295 -25.656 -25.742
   vertex -24.1295 -25.656 -25.6861
   vertex -24.1295 -26.156 -25.742
  endloop
 endfacet
 facet normal 0.110404 0.110404 -0.987736
  outer loop
   vertex -24.1295 -26.156 -25.742
   vertex -24.1295 -25.656 -25.6861
   vertex -23.6295 -26.156 -25.6861
  endloop
 endfacet
 facet normal 0.110404 0.110404 -0.987736
  outer loop
   vertex -24.1295 -26.156 -25.742
   vertex -23.6295 -26.156 -25.6861
   vertex -23.6295 -26.656 -25.742
  endloop
 endfacet
 facet normal 0.110404 0.110404 -0.987736
  outer loop
   vertex -23.6295 -26.656 -25.742
   vertex -23.6295 -26.156 -25.6861
   vertex -23.1295 -26.656 -25.6861
  endloop
 endfacet
 facet normal 0.110404 0.110404 -0.987736
  outer loop
   vertex -23.6295 -26.656 -25.742
   vertex -23.1295 -26.656 -25.6861
   vertex -23.1295 -27.156 -25.742
  endloop
 endfacet
 facet normal 0.617275 0.617275 0.487793
  outer loop
   vertex -24.6295 -25.156 -25.1769
   vertex -24.1295 -25.656 -25.1769
   vertex -24.1295 -25.5634 -25.294
  endloop
 endfacet
 facet normal 0.617275 0.617275 0.487793
  outer loop
   vertex -24.1295 -25.5634 -25.294
   vertex -24.1295 -25.656 -25.1769
   vertex -24.0369 -25.656 -25.294
  endloop
 endfacet
 facet normal -0.649917 -0.649911 0.393984
  outer loop
   vertex -24.4011 -26.156 -25.294
   vertex -24.1295 -26.156 -24.846
   vertex -24.6295 -25.9276 -25.294
  endloop
 endfacet
 facet normal -0.649915 -0.649915 0.393981
  outer loop
   vertex -24.6295 -25.9276 -25.294
   vertex -24.1295 -26.156 -24.846
   vertex -24.6295 -25.656 -24.846
  endloop
 endfacet
 facet normal 0.617275 0.617275 0.487793
  outer loop
   vertex -24.0369 -25.656 -25.294
   vertex -24.1295 -25.656 -25.1769
   vertex -23.6295 -26.0634 -25.294
  endloop
 endfacet
 facet normal 0.617275 0.617275 0.487793
  outer loop
   vertex -23.6295 -26.0634 -25.294
   vertex -24.1295 -25.656 -25.1769
   vertex -23.6295 -26.156 -25.1769
  endloop
 endfacet
 facet normal -0.649914 -0.649914 -0.393983
  outer loop
   vertex -24.1295 -26.156 -25.742
   vertex -23.6295 -26.656 -25.742
   vertex -23.9011 -26.656 -25.294
  endloop
 endfacet
 facet normal -0.649912 -0.649917 -0.393982
  outer loop
   vertex -23.9011 -26.656 -25.294
   vertex -23.6295 -26.656 -25.742
   vertex -23.6295 -26.9276 -25.294
  endloop
 endfacet
 facet normal 0.483174 0.483174 0.730128
  outer loop
   vertex -23.6295 -26.656 -24.846
   vertex -23.1295 -27.156 -24.846
   vertex -23.1295 -26.656 -25.1769
  endloop
 endfacet
 facet normal 0.483174 0.483174 0.730128
  outer loop
   vertex -23.1295 -26.656 -25.1769
   vertex -23.1295 -27.156 -24.846
   vertex -22.6295 -27.156 -25.1769
  endloop
 endfacet
 facet normal 0.617275 0.617275 0.487793
  outer loop
   vertex -23.1295 -26.656 -25.1769
   vertex -22.6295 -27.156 -25.1769
   vertex -22.6295 -27.0634 -25.294
  endloop
 endfacet
 facet normal 0.617275 0.617275 0.487793
  outer loop
   vertex -22.6295 -27.0634 -25.294
   vertex -22.6295 -27.156 -25.1769
   vertex -22.5369 -27.156 -25.294
  endloop
 endfacet
 facet normal 0.697459 0.697459 -0.164628
  outer loop
   vertex -22.6295 -27.0634 -25.294
   vertex -22.5369 -27.156 -25.294
   vertex -22.6295 -27.156 -25.6861
  endloop
 endfacet
 facet normal 0.953586 0.200025 -0.225084
  outer loop
   vertex -22.6295 -27.156 -25.6861
   vertex -22.5369 -27.156 -25.294
   vertex -22.6295 -27.2774 -25.794
  endloop
 endfacet
 facet normal -0.946014 0.215307 -0.242282
  outer loop
   vertex -22.6295 -27.156 -25.6861
   vertex -22.6295 -27.2774 -25.794
   vertex -22.7157 -27.656 -25.794
  endloop
 endfacet
 facet normal -0.608502 0.138492 -0.781374
  outer loop
   vertex -22.7157 -27.656 -25.794
   vertex -22.6295 -27.2774 -25.794
   vertex -22.6295 -27.656 -25.8611
  endloop
 endfacet
 facet normal -0.587038 -0.295218 -0.753812
  outer loop
   vertex -22.7157 -27.656 -25.794
   vertex -22.6295 -27.656 -25.8611
   vertex -22.6295 -27.8273 -25.794
  endloop
 endfacet
 facet normal -0.468088 -0.322248 -0.82283
  outer loop
   vertex -22.6295 -27.8273 -25.794
   vertex -22.6295 -27.656 -25.8611
   vertex -22.4032 -28.156 -25.794
  endloop
 endfacet
 facet normal -0.797193 -0.548815 -0.251565
  outer loop
   vertex -22.6295 -27.8273 -25.794
   vertex -22.4032 -28.156 -25.794
   vertex -22.561 -28.156 -25.294
  endloop
 endfacet
 facet normal -0.738285 -0.632975 -0.232976
  outer loop
   vertex -22.561 -28.156 -25.294
   vertex -22.4032 -28.156 -25.794
   vertex -22.1295 -28.4753 -25.794
  endloop
 endfacet
 facet normal -0.727997 -0.651995 -0.211951
  outer loop
   vertex -22.561 -28.156 -25.294
   vertex -22.1295 -28.4753 -25.794
   vertex -22.1295 -28.6378 -25.294
  endloop
 endfacet
 facet normal 0.563327 -0.785758 -0.255435
  outer loop
   vertex -22.1295 -28.6378 -25.294
   vertex -22.1295 -28.4753 -25.794
   vertex -21.6295 -28.156 -25.6735
  endloop
 endfacet
 facet normal -0.213907 -0.457718 -0.862982
  outer loop
   vertex -22.1295 -28.6378 -25.294
   vertex -21.6295 -28.156 -25.6735
   vertex -22.0906 -28.656 -25.294
  endloop
 endfacet
 facet normal -0.748283 0.21334 -0.628139
  outer loop
   vertex -22.0906 -28.656 -25.294
   vertex -21.6295 -28.156 -25.6735
   vertex -21.6709 -28.656 -25.794
  endloop
 endfacet
 facet normal -0.359067 -0.8833 -0.301415
  outer loop
   vertex -22.0906 -28.656 -25.294
   vertex -21.6709 -28.656 -25.794
   vertex -21.6295 -28.6728 -25.794
  endloop
 endfacet
 facet normal -0.188636 -0.464043 -0.865494
  outer loop
   vertex -21.6295 -28.6728 -25.794
   vertex -21.6709 -28.656 -25.794
   vertex -21.6295 -28.656 -25.803
  endloop
 endfacet
 facet normal 0.595477 -0.379615 -0.708026
  outer loop
   vertex -21.6295 -28.6728 -25.794
   vertex -21.6295 -28.656 -25.803
   vertex -21.6188 -28.656 -25.794
  endloop
 endfacet
 facet normal 0.641431 0.0831161 -0.762665
  outer loop
   vertex -21.6188 -28.656 -25.794
   vertex -21.6295 -28.656 -25.803
   vertex -21.6295 -28.5732 -25.794
  endloop
 endfacet
 facet normal 0.941432 0.12199 -0.314364
  outer loop
   vertex -21.6188 -28.656 -25.794
   vertex -21.6295 -28.5732 -25.794
   vertex -21.5166 -28.156 -25.294
  endloop
 endfacet
 facet normal 0.955249 0.0820832 -0.284184
  outer loop
   vertex -21.5166 -28.156 -25.294
   vertex -21.6295 -28.5732 -25.794
   vertex -21.6295 -28.156 -25.6735
  endloop
 endfacet
 facet normal 0.771564 0.593297 -0.229538
  outer loop
   vertex -21.5166 -28.156 -25.294
   vertex -21.6295 -28.156 -25.6735
   vertex -21.6295 -28.0092 -25.294
  endloop
 endfacet
 facet normal 0.672637 0.690124 -0.266999
  outer loop
   vertex -21.6295 -28.0092 -25.294
   vertex -21.6295 -28.156 -25.6735
   vertex -21.9919 -27.656 -25.294
  endloop
 endfacet
 facet normal 0.611483 0.62738 0.482165
  outer loop
   vertex -21.6295 -28.0092 -25.294
   vertex -21.9919 -27.656 -25.294
   vertex -22.1295 -27.656 -25.1194
  endloop
 endfacet
 facet normal 0.594988 0.652595 0.469159
  outer loop
   vertex -22.1295 -27.656 -25.1194
   vertex -21.9919 -27.656 -25.294
   vertex -22.1295 -27.5305 -25.294
  endloop
 endfacet
 facet normal 0.597383 0.65115 0.46812
  outer loop
   vertex -22.1295 -27.656 -25.1194
   vertex -22.1295 -27.5305 -25.294
   vertex -22.6295 -27.156 -25.1769
  endloop
 endfacet
 facet normal 0.596755 0.64923 0.471577
  outer loop
   vertex -22.6295 -27.156 -25.1769
   vertex -22.1295 -27.5305 -25.294
   vertex -22.5369 -27.156 -25.294
  endloop
 endfacet
 facet normal 0.697459 0.697459 -0.164628
  outer loop
   vertex -23.1295 -26.5634 -25.294
   vertex -23.1295 -26.656 -25.6861
   vertex -23.5369 -26.156 -25.294
  endloop
 endfacet
 facet normal 0.697459 0.697459 -0.164628
  outer loop
   vertex -23.5369 -26.156 -25.294
   vertex -23.1295 -26.656 -25.6861
   vertex -23.6295 -26.156 -25.6861
  endloop
 endfacet
 facet normal -0.649918 -0.649913 -0.393979
  outer loop
   vertex -23.6295 -26.9276 -25.294
   vertex -23.6295 -26.656 -25.742
   vertex -23.4011 -27.156 -25.294
  endloop
 endfacet
 facet normal -0.649914 -0.649914 -0.393983
  outer loop
   vertex -23.4011 -27.156 -25.294
   vertex -23.6295 -26.656 -25.742
   vertex -23.1295 -27.156 -25.742
  endloop
 endfacet
 facet normal 0.617275 0.617275 0.487793
  outer loop
   vertex -23.1295 -26.656 -25.1769
   vertex -22.6295 -27.0634 -25.294
   vertex -23.0369 -26.656 -25.294
  endloop
 endfacet
 facet normal 0.697459 0.697459 -0.164628
  outer loop
   vertex -23.0369 -26.656 -25.294
   vertex -22.6295 -27.0634 -25.294
   vertex -22.6295 -27.156 -25.6861
  endloop
 endfacet
 facet normal -0.666204 -0.591808 0.453801
  outer loop
   vertex -22.6295 -27.656 -24.8375
   vertex -23.1295 -27.4432 -25.294
   vertex -22.9405 -27.656 -25.294
  endloop
 endfacet
 facet normal -0.708652 -0.629516 -0.318624
  outer loop
   vertex -22.9405 -27.656 -25.294
   vertex -23.1295 -27.4432 -25.294
   vertex -22.7157 -27.656 -25.794
  endloop
 endfacet
 facet normal -0.82901 -0.416904 -0.372739
  outer loop
   vertex -22.9405 -27.656 -25.294
   vertex -22.7157 -27.656 -25.794
   vertex -22.6295 -27.8273 -25.794
  endloop
 endfacet
 facet normal -0.648114 -0.641107 0.411012
  outer loop
   vertex -23.1295 -27.4432 -25.294
   vertex -22.6295 -27.656 -24.8375
   vertex -23.1295 -27.156 -24.846
  endloop
 endfacet
 facet normal 0.480257 0.492629 0.72572
  outer loop
   vertex -23.1295 -27.156 -24.846
   vertex -22.6295 -27.656 -24.8375
   vertex -22.6295 -27.156 -25.1769
  endloop
 endfacet
 facet normal -0.700884 -0.529932 0.477425
  outer loop
   vertex -22.6295 -27.656 -24.8375
   vertex -22.9405 -27.656 -25.294
   vertex -22.6295 -28.0673 -25.294
  endloop
 endfacet
 facet normal -0.766214 -0.579328 -0.278022
  outer loop
   vertex -22.6295 -28.0673 -25.294
   vertex -22.9405 -27.656 -25.294
   vertex -22.6295 -27.8273 -25.794
  endloop
 endfacet
 facet normal -0.759589 -0.586376 -0.281404
  outer loop
   vertex -22.6295 -28.0673 -25.294
   vertex -22.6295 -27.8273 -25.794
   vertex -22.561 -28.156 -25.294
  endloop
 endfacet
 facet normal -0.684617 0.26453 -0.679208
  outer loop
   vertex -23.1295 -27.4432 -25.294
   vertex -22.6295 -27.156 -25.6861
   vertex -22.7157 -27.656 -25.794
  endloop
 endfacet
 facet normal -0.322806 0.465189 0.824255
  outer loop
   vertex -22.1295 -28.0371 -24.794
   vertex -22.3008 -28.156 -24.794
   vertex -22.1295 -28.156 -24.7269
  endloop
 endfacet
 facet normal -0.350319 -0.277733 0.894506
  outer loop
   vertex -22.1295 -28.156 -24.7269
   vertex -22.3008 -28.156 -24.794
   vertex -22.1295 -28.3721 -24.794
  endloop
 endfacet
 facet normal 0.271634 -0.285375 0.919117
  outer loop
   vertex -22.1295 -28.156 -24.7269
   vertex -22.1295 -28.3721 -24.794
   vertex -21.9024 -28.156 -24.794
  endloop
 endfacet
 facet normal 0.496016 -0.521108 0.694561
  outer loop
   vertex -21.9024 -28.156 -24.794
   vertex -22.1295 -28.3721 -24.794
   vertex -21.6295 -28.156 -24.9889
  endloop
 endfacet
 facet normal 0.389027 0.742907 0.544746
  outer loop
   vertex -21.9024 -28.156 -24.794
   vertex -21.6295 -28.156 -24.9889
   vertex -22.1295 -28.0371 -24.794
  endloop
 endfacet
 facet normal 0.357934 0.841384 0.404916
  outer loop
   vertex -22.1295 -28.0371 -24.794
   vertex -21.6295 -28.156 -24.9889
   vertex -21.6295 -28.0092 -25.294
  endloop
 endfacet
 facet normal 0.586535 0.525963 0.615905
  outer loop
   vertex -22.1295 -28.0371 -24.794
   vertex -21.6295 -28.0092 -25.294
   vertex -22.1295 -27.656 -25.1194
  endloop
 endfacet
 facet normal 0.422842 0.508959 0.749777
  outer loop
   vertex -22.6295 -27.156 -25.1769
   vertex -22.6295 -27.656 -24.8375
   vertex -22.1295 -27.656 -25.1194
  endloop
 endfacet
 facet normal 0.353156 -0.695083 0.626211
  outer loop
   vertex -22.1295 -27.656 -25.1194
   vertex -22.6295 -27.656 -24.8375
   vertex -22.6295 -28.0673 -25.294
  endloop
 endfacet
 facet normal -0.643096 0.560214 0.522099
  outer loop
   vertex -22.1295 -27.656 -25.1194
   vertex -22.6295 -28.0673 -25.294
   vertex -22.3008 -28.156 -24.794
  endloop
 endfacet
 facet normal -0.731918 -0.565015 0.38086
  outer loop
   vertex -22.3008 -28.156 -24.794
   vertex -22.6295 -28.0673 -25.294
   vertex -22.561 -28.156 -25.294
  endloop
 endfacet
 facet normal -0.694566 -0.622054 0.361424
  outer loop
   vertex -22.3008 -28.156 -24.794
   vertex -22.561 -28.156 -25.294
   vertex -22.1295 -28.6378 -25.294
  endloop
 endfacet
 facet normal -0.410845 0.59206 0.693305
  outer loop
   vertex -22.1295 -27.656 -25.1194
   vertex -22.3008 -28.156 -24.794
   vertex -22.1295 -28.0371 -24.794
  endloop
 endfacet
 facet normal -0.744111 -0.589933 0.313492
  outer loop
   vertex -22.3008 -28.156 -24.794
   vertex -22.1295 -28.6378 -25.294
   vertex -22.1295 -28.3721 -24.794
  endloop
 endfacet
 facet normal 0.491676 -0.768949 0.408622
  outer loop
   vertex -22.1295 -28.3721 -24.794
   vertex -22.1295 -28.6378 -25.294
   vertex -21.6295 -28.156 -24.9889
  endloop
 endfacet
 facet normal 0.647466 0.7044 -0.290875
  outer loop
   vertex -22.5369 -27.156 -25.294
   vertex -22.1295 -27.5305 -25.294
   vertex -22.6295 -27.2774 -25.794
  endloop
 endfacet
 facet normal 0.569832 0.805637 -0.161992
  outer loop
   vertex -22.6295 -27.2774 -25.794
   vertex -22.1295 -27.5305 -25.294
   vertex -22.1295 -27.631 -25.794
  endloop
 endfacet
 facet normal 0.405634 0.573491 -0.711736
  outer loop
   vertex -22.6295 -27.2774 -25.794
   vertex -22.1295 -27.631 -25.794
   vertex -22.1295 -27.656 -25.8141
  endloop
 endfacet
 facet normal 0.531506 0.531466 -0.65958
  outer loop
   vertex -22.1295 -27.656 -25.8141
   vertex -22.1295 -27.631 -25.794
   vertex -22.1046 -27.656 -25.794
  endloop
 endfacet
 facet normal 0.616436 0.186604 -0.764974
  outer loop
   vertex -22.1295 -27.656 -25.8141
   vertex -22.1046 -27.656 -25.794
   vertex -22.1295 -28.156 -25.9361
  endloop
 endfacet
 facet normal 0.326361 0.243255 -0.913409
  outer loop
   vertex -22.1295 -28.156 -25.9361
   vertex -22.1046 -27.656 -25.794
   vertex -21.7319 -28.156 -25.794
  endloop
 endfacet
 facet normal 0.310325 -0.386468 -0.868528
  outer loop
   vertex -22.1295 -28.156 -25.9361
   vertex -21.7319 -28.156 -25.794
   vertex -22.1295 -28.4753 -25.794
  endloop
 endfacet
 facet normal 0.552783 -0.688418 -0.469587
  outer loop
   vertex -22.1295 -28.4753 -25.794
   vertex -21.7319 -28.156 -25.794
   vertex -21.6295 -28.156 -25.6735
  endloop
 endfacet
 facet normal 0.0921615 0.173778 -0.980463
  outer loop
   vertex -22.6295 -27.2774 -25.794
   vertex -22.1295 -27.656 -25.8141
   vertex -22.6295 -27.656 -25.8611
  endloop
 endfacet
 facet normal 0.0909418 0.236004 -0.967487
  outer loop
   vertex -22.6295 -27.656 -25.8611
   vertex -22.1295 -27.656 -25.8141
   vertex -22.1295 -28.156 -25.9361
  endloop
 endfacet
 facet normal -0.437766 -0.311297 -0.843478
  outer loop
   vertex -22.6295 -27.656 -25.8611
   vertex -22.1295 -28.156 -25.9361
   vertex -22.4032 -28.156 -25.794
  endloop
 endfacet
 facet normal -0.42845 -0.367335 -0.825528
  outer loop
   vertex -22.4032 -28.156 -25.794
   vertex -22.1295 -28.156 -25.9361
   vertex -22.1295 -28.4753 -25.794
  endloop
 endfacet
 facet normal 0.249254 0.475988 0.843391
  outer loop
   vertex -22.1295 -28.156 -24.7269
   vertex -21.9024 -28.156 -24.794
   vertex -22.1295 -28.0371 -24.794
  endloop
 endfacet
 facet normal -0.208961 0.192711 0.958748
  outer loop
   vertex -21.6295 -28.6111 -24.794
   vertex -21.6709 -28.656 -24.794
   vertex -21.6295 -28.656 -24.785
  endloop
 endfacet
 facet normal -0.195353 -0.398079 0.896309
  outer loop
   vertex -21.6295 -28.656 -24.785
   vertex -21.6709 -28.656 -24.794
   vertex -21.6295 -28.6763 -24.794
  endloop
 endfacet
 facet normal 0.609416 -0.321818 0.7246
  outer loop
   vertex -21.6295 -28.656 -24.785
   vertex -21.6295 -28.6763 -24.794
   vertex -21.6188 -28.656 -24.794
  endloop
 endfacet
 facet normal 0.857919 -0.453046 0.242331
  outer loop
   vertex -21.6188 -28.656 -24.794
   vertex -21.6295 -28.6763 -24.794
   vertex -21.4775 -28.656 -25.294
  endloop
 endfacet
 facet normal 0.959638 0.0749681 0.271062
  outer loop
   vertex -21.6188 -28.656 -24.794
   vertex -21.4775 -28.656 -25.294
   vertex -21.5166 -28.156 -25.294
  endloop
 endfacet
 facet normal 0.959638 0.0749681 -0.271062
  outer loop
   vertex -21.5166 -28.156 -25.294
   vertex -21.4775 -28.656 -25.294
   vertex -21.6188 -28.656 -25.794
  endloop
 endfacet
 facet normal -0.730728 0.299623 0.613402
  outer loop
   vertex -22.0906 -28.656 -25.294
   vertex -21.6709 -28.656 -24.794
   vertex -21.6295 -28.156 -24.9889
  endloop
 endfacet
 facet normal -0.392616 0.362084 0.845427
  outer loop
   vertex -21.6295 -28.156 -24.9889
   vertex -21.6709 -28.656 -24.794
   vertex -21.6295 -28.6111 -24.794
  endloop
 endfacet
 facet normal 0.854823 0.204297 0.477012
  outer loop
   vertex -21.6295 -28.156 -24.9889
   vertex -21.6295 -28.6111 -24.794
   vertex -21.6188 -28.656 -24.794
  endloop
 endfacet
 facet normal 0.636175 0.152042 0.756416
  outer loop
   vertex -21.6188 -28.656 -24.794
   vertex -21.6295 -28.6111 -24.794
   vertex -21.6295 -28.656 -24.785
  endloop
 endfacet
 facet normal -0.180296 -0.385797 0.904795
  outer loop
   vertex -22.0906 -28.656 -25.294
   vertex -21.6295 -28.156 -24.9889
   vertex -22.1295 -28.6378 -25.294
  endloop
 endfacet
 facet normal -0.418 -0.851779 0.31583
  outer loop
   vertex -21.6709 -28.656 -24.794
   vertex -21.6295 -28.8617 -25.294
   vertex -21.6295 -28.6763 -24.794
  endloop
 endfacet
 facet normal 0.7855 -0.580258 0.215153
  outer loop
   vertex -21.6295 -28.6763 -24.794
   vertex -21.6295 -28.8617 -25.294
   vertex -21.4775 -28.656 -25.294
  endloop
 endfacet
 facet normal -0.385489 -0.864109 0.323594
  outer loop
   vertex -21.6709 -28.656 -24.794
   vertex -22.0906 -28.656 -25.294
   vertex -21.6295 -28.8617 -25.294
  endloop
 endfacet
 facet normal -0.385134 -0.863315 -0.326127
  outer loop
   vertex -21.6295 -28.8617 -25.294
   vertex -22.0906 -28.656 -25.294
   vertex -21.6295 -28.6728 -25.794
  endloop
 endfacet
 facet normal 0.826362 -0.526804 -0.199006
  outer loop
   vertex -21.6295 -28.8617 -25.294
   vertex -21.6295 -28.6728 -25.794
   vertex -21.6188 -28.656 -25.794
  endloop
 endfacet
 facet normal 0.698321 0.698268 -0.157385
  outer loop
   vertex -22.1295 -27.631 -25.794
   vertex -21.9919 -27.656 -25.294
   vertex -22.1046 -27.656 -25.794
  endloop
 endfacet
 facet normal 0.789005 0.588091 -0.177823
  outer loop
   vertex -22.1046 -27.656 -25.794
   vertex -21.9919 -27.656 -25.294
   vertex -21.7319 -28.156 -25.794
  endloop
 endfacet
 facet normal 0.666422 0.730945 -0.146973
  outer loop
   vertex -22.1295 -27.5305 -25.294
   vertex -21.9919 -27.656 -25.294
   vertex -22.1295 -27.631 -25.794
  endloop
 endfacet
 facet normal 0.527258 0.722068 -0.447903
  outer loop
   vertex -21.6295 -28.156 -25.6735
   vertex -21.7319 -28.156 -25.794
   vertex -21.9919 -27.656 -25.294
  endloop
 endfacet
 facet normal -0.485247 0.242635 -0.840038
  outer loop
   vertex -21.6295 -28.156 -25.6735
   vertex -21.6295 -28.5732 -25.794
   vertex -21.6709 -28.656 -25.794
  endloop
 endfacet
 facet normal -0.211756 0.105883 -0.97157
  outer loop
   vertex -21.6709 -28.656 -25.794
   vertex -21.6295 -28.5732 -25.794
   vertex -21.6295 -28.656 -25.803
  endloop
 endfacet
 facet normal 0.760674 0.584923 0.281495
  outer loop
   vertex -21.6295 -28.0092 -25.294
   vertex -21.6295 -28.156 -24.9889
   vertex -21.5166 -28.156 -25.294
  endloop
 endfacet
 facet normal 0.926718 0.153573 0.342941
  outer loop
   vertex -21.5166 -28.156 -25.294
   vertex -21.6295 -28.156 -24.9889
   vertex -21.6188 -28.656 -24.794
  endloop
 endfacet
 facet normal 0.784349 -0.579407 -0.22155
  outer loop
   vertex -21.4775 -28.656 -25.294
   vertex -21.6295 -28.8617 -25.294
   vertex -21.6188 -28.656 -25.794
  endloop
 endfacet
 facet normal -0.279669 0.358822 0.890523
  outer loop
   vertex 0.870499 -29.9088 -24.294
   vertex 0.553365 -30.156 -24.294
   vertex 0.870499 -30.156 -24.1944
  endloop
 endfacet
 facet normal -0.260346 -0.494964 0.828994
  outer loop
   vertex 0.870499 -30.156 -24.1944
   vertex 0.553365 -30.156 -24.294
   vertex 0.870499 -30.3228 -24.294
  endloop
 endfacet
 facet normal 0.201013 -0.502179 0.841077
  outer loop
   vertex 0.870499 -30.156 -24.1944
   vertex 0.870499 -30.3228 -24.294
   vertex 1.28723 -30.156 -24.294
  endloop
 endfacet
 facet normal 0.371616 -0.928387 -7.088e-07
  outer loop
   vertex 1.28723 -30.156 -24.294
   vertex 0.870499 -30.3228 -24.294
   vertex 1.28723 -30.156 -24.794
  endloop
 endfacet
 facet normal 0.371616 0.928386 -7.08802e-07
  outer loop
   vertex 1.28723 -30.156 -24.294
   vertex 1.28723 -30.156 -24.794
   vertex 0.870499 -29.9892 -24.794
  endloop
 endfacet
 facet normal 0.201013 0.502178 -0.841077
  outer loop
   vertex 0.870499 -29.9892 -24.794
   vertex 1.28723 -30.156 -24.794
   vertex 0.870499 -30.156 -24.8936
  endloop
 endfacet
 facet normal -0.228497 0.49908 -0.835888
  outer loop
   vertex 0.870499 -29.9892 -24.794
   vertex 0.870499 -30.156 -24.8936
   vertex 0.506156 -30.156 -24.794
  endloop
 endfacet
 facet normal -0.245772 -0.362272 -0.899086
  outer loop
   vertex 0.506156 -30.156 -24.794
   vertex 0.870499 -30.156 -24.8936
   vertex 0.870499 -30.4032 -24.794
  endloop
 endfacet
 facet normal -0.560628 -0.826374 0.0529331
  outer loop
   vertex 0.506156 -30.156 -24.794
   vertex 0.870499 -30.4032 -24.794
   vertex 0.553365 -30.156 -24.294
  endloop
 endfacet
 facet normal -0.46088 -0.876216 0.140839
  outer loop
   vertex 0.553365 -30.156 -24.294
   vertex 0.870499 -30.4032 -24.794
   vertex 0.870499 -30.3228 -24.294
  endloop
 endfacet
 facet normal -0.613709 0.787403 0.0579449
  outer loop
   vertex 0.553365 -30.156 -24.294
   vertex 0.870499 -29.9088 -24.294
   vertex 0.506156 -30.156 -24.794
  endloop
 endfacet
 facet normal -0.411905 0.899679 -0.144611
  outer loop
   vertex 0.506156 -30.156 -24.794
   vertex 0.870499 -29.9088 -24.294
   vertex 0.870499 -29.9892 -24.794
  endloop
 endfacet
 facet normal -0.26934 0.591725 0.759814
  outer loop
   vertex 1.3705 -29.5698 -24.294
   vertex 1.1812 -29.656 -24.294
   vertex 1.3705 -29.656 -24.2269
  endloop
 endfacet
 facet normal -0.329545 -0.164772 0.929651
  outer loop
   vertex 1.3705 -29.656 -24.2269
   vertex 1.1812 -29.656 -24.294
   vertex 1.3705 -30.0346 -24.294
  endloop
 endfacet
 facet normal -0.0638555 -0.174165 0.982644
  outer loop
   vertex 1.3705 -29.656 -24.2269
   vertex 1.3705 -30.0346 -24.294
   vertex 1.8705 -29.656 -24.1944
  endloop
 endfacet
 facet normal 0.287388 -0.580042 0.762207
  outer loop
   vertex 1.8705 -29.656 -24.1944
   vertex 1.3705 -30.0346 -24.294
   vertex 1.8705 -29.7869 -24.294
  endloop
 endfacet
 facet normal 0.186838 -0.594925 0.781764
  outer loop
   vertex 1.8705 -29.656 -24.1944
   vertex 1.8705 -29.7869 -24.294
   vertex 2.28723 -29.656 -24.294
  endloop
 endfacet
 facet normal 0.299624 -0.954057 0
  outer loop
   vertex 2.28723 -29.656 -24.294
   vertex 1.8705 -29.7869 -24.294
   vertex 2.28723 -29.656 -24.794
  endloop
 endfacet
 facet normal 0.447197 -0.894435 0
  outer loop
   vertex 2.28723 -29.656 -24.294
   vertex 2.28723 -29.656 -24.794
   vertex 2.3705 -29.6144 -24.294
  endloop
 endfacet
 facet normal 0.447197 -0.894435 0
  outer loop
   vertex 2.3705 -29.6144 -24.294
   vertex 2.28723 -29.656 -24.794
   vertex 2.3705 -29.6144 -24.794
  endloop
 endfacet
 facet normal 0.635354 -0.772221 0
  outer loop
   vertex 2.3705 -29.6144 -24.294
   vertex 2.3705 -29.6144 -24.794
   vertex 2.8705 -29.203 -24.294
  endloop
 endfacet
 facet normal 0.635354 -0.772221 0
  outer loop
   vertex 2.8705 -29.203 -24.294
   vertex 2.3705 -29.6144 -24.794
   vertex 2.8705 -29.203 -24.794
  endloop
 endfacet
 facet normal 0.648677 -0.761064 0
  outer loop
   vertex 2.8705 -29.203 -24.294
   vertex 2.8705 -29.203 -24.794
   vertex 2.92562 -29.156 -24.794
  endloop
 endfacet
 facet normal 0.473588 -0.555641 -0.683358
  outer loop
   vertex 2.92562 -29.156 -24.794
   vertex 2.8705 -29.203 -24.794
   vertex 2.8705 -29.156 -24.8322
  endloop
 endfacet
 facet normal 0.454769 -0.60215 -0.656202
  outer loop
   vertex 2.92562 -29.156 -24.794
   vertex 2.8705 -29.156 -24.8322
   vertex 3.3705 -28.82 -24.794
  endloop
 endfacet
 facet normal 0.433038 -0.564524 -0.702703
  outer loop
   vertex 3.3705 -28.82 -24.794
   vertex 2.8705 -29.156 -24.8322
   vertex 3.3705 -28.656 -24.9258
  endloop
 endfacet
 facet normal 0.229004 -0.609648 -0.758872
  outer loop
   vertex 3.3705 -28.82 -24.794
   vertex 3.3705 -28.656 -24.9258
   vertex 3.80713 -28.656 -24.794
  endloop
 endfacet
 facet normal 0.264462 -0.402533 -0.876372
  outer loop
   vertex 3.80713 -28.656 -24.794
   vertex 3.3705 -28.656 -24.9258
   vertex 3.8705 -28.6144 -24.794
  endloop
 endfacet
 facet normal 0.549092 -0.835762 0
  outer loop
   vertex 3.80713 -28.656 -24.794
   vertex 3.8705 -28.6144 -24.794
   vertex 3.8705 -28.6144 -24.294
  endloop
 endfacet
 facet normal 0.536209 -0.844085 0
  outer loop
   vertex 3.8705 -28.6144 -24.294
   vertex 3.8705 -28.6144 -24.794
   vertex 4.3705 -28.2967 -24.294
  endloop
 endfacet
 facet normal 0.375894 -0.591722 0.71314
  outer loop
   vertex 3.8705 -28.6144 -24.294
   vertex 4.3705 -28.2967 -24.294
   vertex 4.3705 -28.156 -24.1772
  endloop
 endfacet
 facet normal 0.341197 -0.600234 0.723398
  outer loop
   vertex 4.3705 -28.156 -24.1772
   vertex 4.3705 -28.2967 -24.294
   vertex 4.61809 -28.156 -24.294
  endloop
 endfacet
 facet normal 0.385724 -0.427097 0.817805
  outer loop
   vertex 4.3705 -28.156 -24.1772
   vertex 4.61809 -28.156 -24.294
   vertex 4.8705 -27.656 -24.1519
  endloop
 endfacet
 facet normal 0.381666 -0.425783 0.82039
  outer loop
   vertex 4.8705 -27.656 -24.1519
   vertex 4.61809 -28.156 -24.294
   vertex 4.8705 -27.9297 -24.294
  endloop
 endfacet
 facet normal 0.34276 -0.43275 0.833813
  outer loop
   vertex 4.8705 -27.656 -24.1519
   vertex 4.8705 -27.9297 -24.294
   vertex 5.21611 -27.656 -24.294
  endloop
 endfacet
 facet normal 0.59717 -0.753954 -0.273752
  outer loop
   vertex 5.21611 -27.656 -24.294
   vertex 4.8705 -27.9297 -24.294
   vertex 4.9869 -27.656 -24.794
  endloop
 endfacet
 facet normal 0.8345 0.39657 -0.382548
  outer loop
   vertex 5.21611 -27.656 -24.294
   vertex 4.9869 -27.656 -24.794
   vertex 4.8705 -27.411 -24.794
  endloop
 endfacet
 facet normal 0.424187 0.201582 -0.882854
  outer loop
   vertex 4.8705 -27.411 -24.794
   vertex 4.9869 -27.656 -24.794
   vertex 4.8705 -27.656 -24.8499
  endloop
 endfacet
 facet normal -0.0436457 0.222389 -0.973981
  outer loop
   vertex 4.8705 -27.411 -24.794
   vertex 4.8705 -27.656 -24.8499
   vertex 4.3705 -27.5092 -24.794
  endloop
 endfacet
 facet normal 0.0899554 0.607102 -0.789516
  outer loop
   vertex 4.3705 -27.5092 -24.794
   vertex 4.8705 -27.656 -24.8499
   vertex 4.3705 -27.656 -24.9069
  endloop
 endfacet
 facet normal -0.205048 0.596621 -0.775886
  outer loop
   vertex 4.3705 -27.5092 -24.794
   vertex 4.3705 -27.656 -24.9069
   vertex 3.9433 -27.656 -24.794
  endloop
 endfacet
 facet normal -0.233279 0.407923 -0.882711
  outer loop
   vertex 3.9433 -27.656 -24.794
   vertex 4.3705 -27.656 -24.9069
   vertex 3.8705 -27.6976 -24.794
  endloop
 endfacet
 facet normal -0.496428 0.868078 0
  outer loop
   vertex 3.9433 -27.656 -24.794
   vertex 3.8705 -27.6976 -24.794
   vertex 3.8705 -27.6976 -24.294
  endloop
 endfacet
 facet normal -0.536209 0.844085 0
  outer loop
   vertex 3.8705 -27.6976 -24.294
   vertex 3.8705 -27.6976 -24.794
   vertex 3.3705 -28.0153 -24.794
  endloop
 endfacet
 facet normal -0.588687 0.804634 0.07754
  outer loop
   vertex 3.8705 -27.6976 -24.294
   vertex 3.3705 -28.0153 -24.794
   vertex 3.3705 -28.0634 -24.294
  endloop
 endfacet
 facet normal -0.464553 0.881462 0.0849438
  outer loop
   vertex 3.3705 -28.0634 -24.294
   vertex 3.3705 -28.0153 -24.794
   vertex 3.10345 -28.156 -24.794
  endloop
 endfacet
 facet normal -0.563742 0.812074 0.150764
  outer loop
   vertex 3.3705 -28.0634 -24.294
   vertex 3.10345 -28.156 -24.794
   vertex 3.23717 -28.156 -24.294
  endloop
 endfacet
 facet normal -0.619432 0.767373 0.165658
  outer loop
   vertex 3.23717 -28.156 -24.294
   vertex 3.10345 -28.156 -24.794
   vertex 2.8705 -28.452 -24.294
  endloop
 endfacet
 facet normal -0.39341 0.487369 0.779551
  outer loop
   vertex 3.23717 -28.156 -24.294
   vertex 2.8705 -28.452 -24.294
   vertex 2.8705 -28.656 -24.1664
  endloop
 endfacet
 facet normal -0.215417 0.51767 0.828018
  outer loop
   vertex 2.8705 -28.656 -24.1664
   vertex 2.8705 -28.452 -24.294
   vertex 2.38022 -28.656 -24.294
  endloop
 endfacet
 facet normal -0.236192 0.346379 0.907874
  outer loop
   vertex 2.8705 -28.656 -24.1664
   vertex 2.38022 -28.656 -24.294
   vertex 2.3705 -29.156 -24.1058
  endloop
 endfacet
 facet normal -0.219078 0.347498 0.911729
  outer loop
   vertex 2.3705 -29.156 -24.1058
   vertex 2.38022 -28.656 -24.294
   vertex 2.3705 -28.6621 -24.294
  endloop
 endfacet
 facet normal -0.269974 0.342925 0.899731
  outer loop
   vertex 2.3705 -29.156 -24.1058
   vertex 2.3705 -28.6621 -24.294
   vertex 1.8705 -29.156 -24.2558
  endloop
 endfacet
 facet normal -0.491158 0.549536 0.67585
  outer loop
   vertex 1.8705 -29.156 -24.2558
   vertex 2.3705 -28.6621 -24.294
   vertex 1.8705 -29.109 -24.294
  endloop
 endfacet
 facet normal -0.493213 0.548803 0.674949
  outer loop
   vertex 1.8705 -29.156 -24.2558
   vertex 1.8705 -29.109 -24.294
   vertex 1.81822 -29.156 -24.294
  endloop
 endfacet
 facet normal -0.668428 0.743766 -0.00402621
  outer loop
   vertex 1.81822 -29.156 -24.294
   vertex 1.8705 -29.109 -24.294
   vertex 1.82123 -29.156 -24.794
  endloop
 endfacet
 facet normal -0.678766 0.734344 -0.00408848
  outer loop
   vertex 1.81822 -29.156 -24.294
   vertex 1.82123 -29.156 -24.794
   vertex 1.3705 -29.5698 -24.294
  endloop
 endfacet
 facet normal -0.722046 0.686927 -0.0823492
  outer loop
   vertex 1.3705 -29.5698 -24.294
   vertex 1.82123 -29.156 -24.794
   vertex 1.3705 -29.6298 -24.794
  endloop
 endfacet
 facet normal -0.538958 0.836345 -0.100262
  outer loop
   vertex 1.3705 -29.5698 -24.294
   vertex 1.3705 -29.6298 -24.794
   vertex 1.3298 -29.656 -24.794
  endloop
 endfacet
 facet normal -0.357297 0.554447 -0.751617
  outer loop
   vertex 1.3298 -29.656 -24.794
   vertex 1.3705 -29.6298 -24.794
   vertex 1.3705 -29.656 -24.8133
  endloop
 endfacet
 facet normal -0.428147 -0.0741941 -0.900658
  outer loop
   vertex 1.3298 -29.656 -24.794
   vertex 1.3705 -29.656 -24.8133
   vertex 1.3705 -29.8908 -24.794
  endloop
 endfacet
 facet normal 0.0170699 -0.0820876 -0.996479
  outer loop
   vertex 1.3705 -29.8908 -24.794
   vertex 1.3705 -29.656 -24.8133
   vertex 1.8705 -29.7869 -24.794
  endloop
 endfacet
 facet normal 0.203592 -0.979056 0
  outer loop
   vertex 1.3705 -29.8908 -24.794
   vertex 1.8705 -29.7869 -24.794
   vertex 1.8705 -29.7869 -24.294
  endloop
 endfacet
 facet normal 0.299624 -0.954057 0
  outer loop
   vertex 1.8705 -29.7869 -24.294
   vertex 1.8705 -29.7869 -24.794
   vertex 2.28723 -29.656 -24.794
  endloop
 endfacet
 facet normal 0.216422 0.364878 0.905553
  outer loop
   vertex 0.870499 -30.156 -24.1944
   vertex 1.28723 -30.156 -24.294
   vertex 0.870499 -29.9088 -24.294
  endloop
 endfacet
 facet normal 0.505341 0.851984 -0.136945
  outer loop
   vertex 0.870499 -29.9088 -24.294
   vertex 1.28723 -30.156 -24.294
   vertex 0.870499 -29.9892 -24.794
  endloop
 endfacet
 facet normal -0.411175 0.903328 -0.122206
  outer loop
   vertex 1.3705 -29.5698 -24.294
   vertex 1.3298 -29.656 -24.794
   vertex 1.1812 -29.656 -24.294
  endloop
 endfacet
 facet normal -0.864406 -0.432203 -0.256911
  outer loop
   vertex 1.1812 -29.656 -24.294
   vertex 1.3298 -29.656 -24.794
   vertex 1.3705 -30.0346 -24.294
  endloop
 endfacet
 facet normal -0.98413 -0.170541 -0.0490329
  outer loop
   vertex 1.3298 -29.656 -24.794
   vertex 1.3705 -29.8908 -24.794
   vertex 1.3705 -30.0346 -24.294
  endloop
 endfacet
 facet normal 0.429919 -0.867715 -0.24948
  outer loop
   vertex 1.3705 -30.0346 -24.294
   vertex 1.3705 -29.8908 -24.794
   vertex 1.8705 -29.7869 -24.294
  endloop
 endfacet
 facet normal 0.505342 -0.851983 0.136944
  outer loop
   vertex 0.870499 -30.3228 -24.294
   vertex 0.870499 -30.4032 -24.794
   vertex 1.28723 -30.156 -24.794
  endloop
 endfacet
 facet normal 0.216422 -0.364878 -0.905553
  outer loop
   vertex 1.28723 -30.156 -24.794
   vertex 0.870499 -30.4032 -24.794
   vertex 0.870499 -30.156 -24.8936
  endloop
 endfacet
 facet normal -0.493843 0.534279 0.68605
  outer loop
   vertex 1.3705 -29.5698 -24.294
   vertex 1.3705 -29.656 -24.2269
   vertex 1.81822 -29.156 -24.294
  endloop
 endfacet
 facet normal -0.497693 0.53706 0.681079
  outer loop
   vertex 1.81822 -29.156 -24.294
   vertex 1.3705 -29.656 -24.2269
   vertex 1.8705 -29.156 -24.2558
  endloop
 endfacet
 facet normal -0.0643653 0.121616 0.990488
  outer loop
   vertex 1.3705 -29.656 -24.2269
   vertex 1.8705 -29.656 -24.1944
   vertex 1.8705 -29.156 -24.2558
  endloop
 endfacet
 facet normal -0.285434 0.116799 0.951255
  outer loop
   vertex 1.8705 -29.156 -24.2558
   vertex 1.8705 -29.656 -24.1944
   vertex 2.3705 -29.156 -24.1058
  endloop
 endfacet
 facet normal -0.690134 0.723682 0
  outer loop
   vertex 1.8705 -29.109 -24.294
   vertex 1.8705 -29.109 -24.794
   vertex 1.82123 -29.156 -24.794
  endloop
 endfacet
 facet normal -0.515522 0.540582 -0.664837
  outer loop
   vertex 1.82123 -29.156 -24.794
   vertex 1.8705 -29.109 -24.794
   vertex 1.8705 -29.156 -24.8322
  endloop
 endfacet
 facet normal -0.529385 0.503637 -0.682716
  outer loop
   vertex 1.82123 -29.156 -24.794
   vertex 1.8705 -29.156 -24.8322
   vertex 1.3705 -29.6298 -24.794
  endloop
 endfacet
 facet normal -0.529379 0.503629 -0.682727
  outer loop
   vertex 1.3705 -29.6298 -24.794
   vertex 1.8705 -29.156 -24.8322
   vertex 1.3705 -29.656 -24.8133
  endloop
 endfacet
 facet normal -0.15732 0.120351 -0.980187
  outer loop
   vertex 1.3705 -29.656 -24.8133
   vertex 1.8705 -29.156 -24.8322
   vertex 1.8705 -29.656 -24.8936
  endloop
 endfacet
 facet normal -0.285434 0.116799 -0.951255
  outer loop
   vertex 1.8705 -29.656 -24.8936
   vertex 1.8705 -29.156 -24.8322
   vertex 2.3705 -29.156 -24.9822
  endloop
 endfacet
 facet normal 0.211029 -0.371324 -0.904204
  outer loop
   vertex 1.8705 -29.656 -24.8936
   vertex 2.3705 -29.156 -24.9822
   vertex 2.3705 -29.6144 -24.794
  endloop
 endfacet
 facet normal 0.298318 -0.362581 -0.882916
  outer loop
   vertex 2.3705 -29.6144 -24.794
   vertex 2.3705 -29.156 -24.9822
   vertex 2.8705 -29.203 -24.794
  endloop
 endfacet
 facet normal -0.126693 -0.600709 -0.789365
  outer loop
   vertex 1.3705 -29.656 -24.8133
   vertex 1.8705 -29.656 -24.8936
   vertex 1.8705 -29.7869 -24.794
  endloop
 endfacet
 facet normal 0.186838 -0.594925 -0.781764
  outer loop
   vertex 1.8705 -29.7869 -24.794
   vertex 1.8705 -29.656 -24.8936
   vertex 2.28723 -29.656 -24.794
  endloop
 endfacet
 facet normal 0.186595 -0.373207 0.90879
  outer loop
   vertex 2.28723 -29.656 -24.294
   vertex 2.3705 -29.6144 -24.294
   vertex 2.3705 -29.156 -24.1058
  endloop
 endfacet
 facet normal 0.267455 -0.36604 0.891338
  outer loop
   vertex 2.3705 -29.156 -24.1058
   vertex 2.3705 -29.6144 -24.294
   vertex 2.8705 -29.156 -24.2558
  endloop
 endfacet
 facet normal 0.283282 -0.1687 0.944083
  outer loop
   vertex 2.3705 -29.156 -24.1058
   vertex 2.8705 -29.156 -24.2558
   vertex 2.8705 -28.656 -24.1664
  endloop
 endfacet
 facet normal 0.0288356 -0.175832 0.983998
  outer loop
   vertex 2.8705 -28.656 -24.1664
   vertex 2.8705 -29.156 -24.2558
   vertex 3.3705 -28.656 -24.1811
  endloop
 endfacet
 facet normal 0.0292008 0.0788141 0.996462
  outer loop
   vertex 2.8705 -28.656 -24.1664
   vertex 3.3705 -28.656 -24.1811
   vertex 3.3705 -28.156 -24.2206
  endloop
 endfacet
 facet normal -0.22327 0.0768573 0.971722
  outer loop
   vertex 3.3705 -28.156 -24.2206
   vertex 3.3705 -28.656 -24.1811
   vertex 3.8705 -28.156 -24.1058
  endloop
 endfacet
 facet normal -0.207899 0.371578 0.904825
  outer loop
   vertex 3.3705 -28.156 -24.2206
   vertex 3.8705 -28.156 -24.1058
   vertex 3.8705 -27.6976 -24.294
  endloop
 endfacet
 facet normal -0.242151 0.368573 0.897506
  outer loop
   vertex 3.8705 -27.6976 -24.294
   vertex 3.8705 -28.156 -24.1058
   vertex 3.93387 -27.656 -24.294
  endloop
 endfacet
 facet normal -0.549062 0.835717 -0.0103584
  outer loop
   vertex 3.8705 -27.6976 -24.294
   vertex 3.93387 -27.656 -24.294
   vertex 3.9433 -27.656 -24.794
  endloop
 endfacet
 facet normal -0.351636 0.936113 -0.00663381
  outer loop
   vertex 3.9433 -27.656 -24.794
   vertex 3.93387 -27.656 -24.294
   vertex 4.3705 -27.492 -24.294
  endloop
 endfacet
 facet normal -0.324851 0.945207 -0.0325016
  outer loop
   vertex 3.9433 -27.656 -24.794
   vertex 4.3705 -27.492 -24.294
   vertex 4.3705 -27.5092 -24.794
  endloop
 endfacet
 facet normal -0.423101 0.905548 -0.0311379
  outer loop
   vertex 4.3705 -27.5092 -24.794
   vertex 4.3705 -27.492 -24.294
   vertex 4.8705 -27.2584 -24.294
  endloop
 endfacet
 facet normal -0.184481 0.939989 -0.287034
  outer loop
   vertex 4.3705 -27.5092 -24.794
   vertex 4.8705 -27.2584 -24.294
   vertex 4.8705 -27.411 -24.794
  endloop
 endfacet
 facet normal 0.740046 0.643236 -0.196418
  outer loop
   vertex 4.8705 -27.411 -24.794
   vertex 4.8705 -27.2584 -24.294
   vertex 5.21611 -27.656 -24.294
  endloop
 endfacet
 facet normal 0.215459 -0.375278 0.901523
  outer loop
   vertex 2.28723 -29.656 -24.294
   vertex 2.3705 -29.156 -24.1058
   vertex 1.8705 -29.656 -24.1944
  endloop
 endfacet
 facet normal -0.670065 0.741299 0.038595
  outer loop
   vertex 2.3705 -28.6334 -24.794
   vertex 2.34555 -28.656 -24.794
   vertex 2.3705 -28.656 -24.3608
  endloop
 endfacet
 facet normal -0.845871 0.531158 0.0487212
  outer loop
   vertex 2.3705 -28.656 -24.3608
   vertex 2.34555 -28.656 -24.794
   vertex 2.3705 -28.6621 -24.294
  endloop
 endfacet
 facet normal -0.531708 0.843387 0.0773608
  outer loop
   vertex 2.3705 -28.656 -24.3608
   vertex 2.3705 -28.6621 -24.294
   vertex 2.38022 -28.656 -24.294
  endloop
 endfacet
 facet normal -0.689477 0.723014 0.0432694
  outer loop
   vertex 2.3705 -28.6621 -24.294
   vertex 2.34555 -28.656 -24.794
   vertex 1.8705 -29.109 -24.794
  endloop
 endfacet
 facet normal -0.524168 0.549665 -0.650474
  outer loop
   vertex 1.8705 -29.109 -24.794
   vertex 2.34555 -28.656 -24.794
   vertex 2.3705 -28.656 -24.8141
  endloop
 endfacet
 facet normal -0.516251 0.540305 -0.664496
  outer loop
   vertex 1.8705 -29.109 -24.794
   vertex 2.3705 -28.656 -24.8141
   vertex 1.8705 -29.156 -24.8322
  endloop
 endfacet
 facet normal -0.273563 0.306564 -0.911692
  outer loop
   vertex 1.8705 -29.156 -24.8322
   vertex 2.3705 -28.656 -24.8141
   vertex 2.3705 -29.156 -24.9822
  endloop
 endfacet
 facet normal -0.666394 0.7456 0
  outer loop
   vertex 1.8705 -29.109 -24.794
   vertex 1.8705 -29.109 -24.294
   vertex 2.3705 -28.6621 -24.294
  endloop
 endfacet
 facet normal -0.515443 0.570239 -0.639646
  outer loop
   vertex 2.34555 -28.656 -24.794
   vertex 2.3705 -28.6334 -24.794
   vertex 2.3705 -28.656 -24.8141
  endloop
 endfacet
 facet normal -0.213851 0.650054 -0.729176
  outer loop
   vertex 2.3705 -28.656 -24.8141
   vertex 2.3705 -28.6334 -24.794
   vertex 2.8705 -28.656 -24.9607
  endloop
 endfacet
 facet normal -0.273233 -0.23951 -0.931654
  outer loop
   vertex 2.3705 -28.656 -24.8141
   vertex 2.8705 -28.656 -24.9607
   vertex 2.8705 -29.156 -24.8322
  endloop
 endfacet
 facet normal 0.0676069 -0.248414 -0.966292
  outer loop
   vertex 2.8705 -29.156 -24.8322
   vertex 2.8705 -28.656 -24.9607
   vertex 3.3705 -28.656 -24.9258
  endloop
 endfacet
 facet normal 0.210782 -0.421583 -0.881952
  outer loop
   vertex 2.3705 -29.6144 -24.794
   vertex 2.28723 -29.656 -24.794
   vertex 1.8705 -29.656 -24.8936
  endloop
 endfacet
 facet normal 0.460696 -0.559938 0.688643
  outer loop
   vertex 2.3705 -29.6144 -24.294
   vertex 2.8705 -29.203 -24.294
   vertex 2.8705 -29.156 -24.2558
  endloop
 endfacet
 facet normal 0.473588 -0.555641 0.683358
  outer loop
   vertex 2.8705 -29.156 -24.2558
   vertex 2.8705 -29.203 -24.294
   vertex 2.92562 -29.156 -24.294
  endloop
 endfacet
 facet normal 0.468311 -0.569259 0.675743
  outer loop
   vertex 2.8705 -29.156 -24.2558
   vertex 2.92562 -29.156 -24.294
   vertex 3.3705 -28.656 -24.1811
  endloop
 endfacet
 facet normal 0.435606 -0.548699 0.713566
  outer loop
   vertex 3.3705 -28.656 -24.1811
   vertex 2.92562 -29.156 -24.294
   vertex 3.3705 -28.8028 -24.294
  endloop
 endfacet
 facet normal 0.205048 -0.596621 0.775886
  outer loop
   vertex 3.3705 -28.656 -24.1811
   vertex 3.3705 -28.8028 -24.294
   vertex 3.7977 -28.656 -24.294
  endloop
 endfacet
 facet normal 0.325016 -0.945689 0.00613162
  outer loop
   vertex 3.7977 -28.656 -24.294
   vertex 3.3705 -28.8028 -24.294
   vertex 3.80713 -28.656 -24.794
  endloop
 endfacet
 facet normal 0.496406 -0.86804 0.00936499
  outer loop
   vertex 3.7977 -28.656 -24.294
   vertex 3.80713 -28.656 -24.794
   vertex 3.8705 -28.6144 -24.294
  endloop
 endfacet
 facet normal -0.383593 0.921814 0.0558108
  outer loop
   vertex 2.38022 -28.656 -24.294
   vertex 2.8705 -28.452 -24.294
   vertex 2.3705 -28.656 -24.3608
  endloop
 endfacet
 facet normal -0.382856 0.922558 0.0480321
  outer loop
   vertex 2.3705 -28.656 -24.3608
   vertex 2.8705 -28.452 -24.294
   vertex 2.3705 -28.6334 -24.794
  endloop
 endfacet
 facet normal -0.501721 0.842547 0.195936
  outer loop
   vertex 2.3705 -28.6334 -24.794
   vertex 2.8705 -28.452 -24.294
   vertex 2.8705 -28.3357 -24.794
  endloop
 endfacet
 facet normal -0.600702 0.778694 0.181087
  outer loop
   vertex 2.8705 -28.3357 -24.794
   vertex 2.8705 -28.452 -24.294
   vertex 3.10345 -28.156 -24.794
  endloop
 endfacet
 facet normal -0.355563 0.46092 -0.813098
  outer loop
   vertex 2.8705 -28.3357 -24.794
   vertex 3.10345 -28.156 -24.794
   vertex 3.3705 -28.156 -24.9108
  endloop
 endfacet
 facet normal -0.318956 0.6052 -0.729383
  outer loop
   vertex 3.3705 -28.156 -24.9108
   vertex 3.10345 -28.156 -24.794
   vertex 3.3705 -28.0153 -24.794
  endloop
 endfacet
 facet normal -0.109324 0.634724 -0.764966
  outer loop
   vertex 3.3705 -28.156 -24.9108
   vertex 3.3705 -28.0153 -24.794
   vertex 3.8705 -28.156 -24.9822
  endloop
 endfacet
 facet normal -0.234585 0.369278 -0.899224
  outer loop
   vertex 3.8705 -28.156 -24.9822
   vertex 3.3705 -28.0153 -24.794
   vertex 3.8705 -27.6976 -24.794
  endloop
 endfacet
 facet normal -0.233833 0.369347 -0.899391
  outer loop
   vertex 3.8705 -28.156 -24.9822
   vertex 3.8705 -27.6976 -24.794
   vertex 4.3705 -27.656 -24.9069
  endloop
 endfacet
 facet normal -0.265135 0.445244 -0.855255
  outer loop
   vertex 2.3705 -28.6334 -24.794
   vertex 2.8705 -28.3357 -24.794
   vertex 2.8705 -28.656 -24.9607
  endloop
 endfacet
 facet normal -0.349586 0.432635 -0.831033
  outer loop
   vertex 2.8705 -28.656 -24.9607
   vertex 2.8705 -28.3357 -24.794
   vertex 3.3705 -28.156 -24.9108
  endloop
 endfacet
 facet normal 0.0697636 0.0298818 -0.997116
  outer loop
   vertex 2.8705 -28.656 -24.9607
   vertex 3.3705 -28.156 -24.9108
   vertex 3.3705 -28.656 -24.9258
  endloop
 endfacet
 facet normal -0.141414 0.0296538 -0.989506
  outer loop
   vertex 3.3705 -28.656 -24.9258
   vertex 3.3705 -28.156 -24.9108
   vertex 3.8705 -28.156 -24.9822
  endloop
 endfacet
 facet normal 0.265515 -0.366244 -0.891834
  outer loop
   vertex 3.3705 -28.656 -24.9258
   vertex 3.8705 -28.156 -24.9822
   vertex 3.8705 -28.6144 -24.794
  endloop
 endfacet
 facet normal 0.267777 -0.366006 -0.891255
  outer loop
   vertex 3.8705 -28.6144 -24.794
   vertex 3.8705 -28.156 -24.9822
   vertex 4.3705 -28.2486 -24.794
  endloop
 endfacet
 facet normal 0.588687 -0.804634 -0.07754
  outer loop
   vertex 3.8705 -28.6144 -24.794
   vertex 4.3705 -28.2486 -24.794
   vertex 4.3705 -28.2967 -24.294
  endloop
 endfacet
 facet normal 0.618248 -0.782359 -0.0753935
  outer loop
   vertex 4.3705 -28.2967 -24.294
   vertex 4.3705 -28.2486 -24.794
   vertex 4.48762 -28.156 -24.794
  endloop
 endfacet
 facet normal 0.490121 -0.862222 -0.127887
  outer loop
   vertex 4.3705 -28.2967 -24.294
   vertex 4.48762 -28.156 -24.794
   vertex 4.61809 -28.156 -24.294
  endloop
 endfacet
 facet normal 0.657577 -0.733588 -0.171581
  outer loop
   vertex 4.61809 -28.156 -24.294
   vertex 4.48762 -28.156 -24.794
   vertex 4.8705 -27.9297 -24.294
  endloop
 endfacet
 facet normal 0.273563 0.306564 -0.911692
  outer loop
   vertex 2.3705 -28.656 -24.8141
   vertex 2.8705 -29.156 -24.8322
   vertex 2.3705 -29.156 -24.9822
  endloop
 endfacet
 facet normal 0.226748 -0.614443 -0.755676
  outer loop
   vertex 2.3705 -29.156 -24.9822
   vertex 2.8705 -29.156 -24.8322
   vertex 2.8705 -29.203 -24.794
  endloop
 endfacet
 facet normal -0.395936 0.570348 0.719679
  outer loop
   vertex 3.3705 -28.0634 -24.294
   vertex 3.23717 -28.156 -24.294
   vertex 3.3705 -28.156 -24.2206
  endloop
 endfacet
 facet normal -0.417508 0.499771 0.758891
  outer loop
   vertex 3.3705 -28.156 -24.2206
   vertex 3.23717 -28.156 -24.294
   vertex 2.8705 -28.656 -24.1664
  endloop
 endfacet
 facet normal 0.621772 -0.783198 0
  outer loop
   vertex 2.92562 -29.156 -24.294
   vertex 2.92562 -29.156 -24.794
   vertex 3.3705 -28.8028 -24.294
  endloop
 endfacet
 facet normal 0.602447 -0.797688 0.027429
  outer loop
   vertex 3.3705 -28.8028 -24.294
   vertex 2.92562 -29.156 -24.794
   vertex 3.3705 -28.82 -24.794
  endloop
 endfacet
 facet normal 0.351461 -0.935649 0.0321729
  outer loop
   vertex 3.3705 -28.8028 -24.294
   vertex 3.3705 -28.82 -24.794
   vertex 3.80713 -28.656 -24.794
  endloop
 endfacet
 facet normal 0.648677 -0.761064 0
  outer loop
   vertex 2.92562 -29.156 -24.294
   vertex 2.8705 -29.203 -24.294
   vertex 2.92562 -29.156 -24.794
  endloop
 endfacet
 facet normal -0.413704 0.565462 0.713514
  outer loop
   vertex 3.3705 -28.0634 -24.294
   vertex 3.3705 -28.156 -24.2206
   vertex 3.8705 -27.6976 -24.294
  endloop
 endfacet
 facet normal 0.21229 -0.37122 0.903952
  outer loop
   vertex 3.7977 -28.656 -24.294
   vertex 3.8705 -28.6144 -24.294
   vertex 3.8705 -28.156 -24.1058
  endloop
 endfacet
 facet normal 0.13106 -0.376602 0.917057
  outer loop
   vertex 3.8705 -28.156 -24.1058
   vertex 3.8705 -28.6144 -24.294
   vertex 4.3705 -28.156 -24.1772
  endloop
 endfacet
 facet normal 0.141414 -0.0296538 0.989506
  outer loop
   vertex 3.8705 -28.156 -24.1058
   vertex 4.3705 -28.156 -24.1772
   vertex 4.3705 -27.656 -24.1622
  endloop
 endfacet
 facet normal -0.0206086 -0.0299485 0.999339
  outer loop
   vertex 4.3705 -27.656 -24.1622
   vertex 4.3705 -28.156 -24.1772
   vertex 4.8705 -27.656 -24.1519
  endloop
 endfacet
 facet normal -0.0194162 0.336404 0.941518
  outer loop
   vertex 4.3705 -27.656 -24.1622
   vertex 4.8705 -27.656 -24.1519
   vertex 4.8705 -27.2584 -24.294
  endloop
 endfacet
 facet normal 0.361003 0.313778 0.878192
  outer loop
   vertex 4.8705 -27.2584 -24.294
   vertex 4.8705 -27.656 -24.1519
   vertex 5.21611 -27.656 -24.294
  endloop
 endfacet
 facet normal 0.237133 -0.372331 0.897295
  outer loop
   vertex 3.7977 -28.656 -24.294
   vertex 3.8705 -28.156 -24.1058
   vertex 3.3705 -28.656 -24.1811
  endloop
 endfacet
 facet normal -0.229004 0.609648 0.758872
  outer loop
   vertex 4.3705 -27.492 -24.294
   vertex 3.93387 -27.656 -24.294
   vertex 4.3705 -27.656 -24.1622
  endloop
 endfacet
 facet normal -0.268512 0.36901 0.889793
  outer loop
   vertex 4.3705 -27.656 -24.1622
   vertex 3.93387 -27.656 -24.294
   vertex 3.8705 -28.156 -24.1058
  endloop
 endfacet
 facet normal 0.22327 -0.0768573 -0.971722
  outer loop
   vertex 3.8705 -28.156 -24.9822
   vertex 4.3705 -27.656 -24.9069
   vertex 4.3705 -28.156 -24.8673
  endloop
 endfacet
 facet normal 0.112857 -0.0783439 -0.990518
  outer loop
   vertex 4.3705 -28.156 -24.8673
   vertex 4.3705 -27.656 -24.9069
   vertex 4.8705 -27.656 -24.8499
  endloop
 endfacet
 facet normal 0.474502 -0.448103 -0.757662
  outer loop
   vertex 4.3705 -28.156 -24.8673
   vertex 4.8705 -27.656 -24.8499
   vertex 4.8705 -27.7506 -24.794
  endloop
 endfacet
 facet normal 0.382166 -0.470419 -0.795396
  outer loop
   vertex 4.8705 -27.7506 -24.794
   vertex 4.8705 -27.656 -24.8499
   vertex 4.9869 -27.656 -24.794
  endloop
 endfacet
 facet normal 0.607483 -0.747769 -0.267965
  outer loop
   vertex 4.8705 -27.7506 -24.794
   vertex 4.9869 -27.656 -24.794
   vertex 4.8705 -27.9297 -24.294
  endloop
 endfacet
 facet normal 0.177224 -0.611274 -0.771321
  outer loop
   vertex 3.8705 -28.156 -24.9822
   vertex 4.3705 -28.156 -24.8673
   vertex 4.3705 -28.2486 -24.794
  endloop
 endfacet
 facet normal 0.440609 -0.557566 -0.703551
  outer loop
   vertex 4.3705 -28.2486 -24.794
   vertex 4.3705 -28.156 -24.8673
   vertex 4.48762 -28.156 -24.794
  endloop
 endfacet
 facet normal -0.280846 0.601085 0.748213
  outer loop
   vertex 4.3705 -27.492 -24.294
   vertex 4.3705 -27.656 -24.1622
   vertex 4.8705 -27.2584 -24.294
  endloop
 endfacet
 facet normal 0.705989 -0.666708 -0.238916
  outer loop
   vertex 4.8705 -27.9297 -24.294
   vertex 4.48762 -28.156 -24.794
   vertex 4.8705 -27.7506 -24.794
  endloop
 endfacet
 facet normal 0.474499 -0.448098 -0.757666
  outer loop
   vertex 4.8705 -27.7506 -24.794
   vertex 4.48762 -28.156 -24.794
   vertex 4.3705 -28.156 -24.8673
  endloop
 endfacet
 facet normal -0.169707 0.587038 0.791572
  outer loop
   vertex 5.3705 -27.0655 -24.294
   vertex 5.0575 -27.156 -24.294
   vertex 5.3705 -27.156 -24.2269
  endloop
 endfacet
 facet normal -0.202521 -0.258199 0.944626
  outer loop
   vertex 5.3705 -27.156 -24.2269
   vertex 5.0575 -27.156 -24.294
   vertex 5.3705 -27.4015 -24.294
  endloop
 endfacet
 facet normal 0.274158 -0.25356 0.927655
  outer loop
   vertex 5.3705 -27.156 -24.2269
   vertex 5.3705 -27.4015 -24.294
   vertex 5.59756 -27.156 -24.294
  endloop
 endfacet
 facet normal 0.720833 -0.666676 -0.189588
  outer loop
   vertex 5.59756 -27.156 -24.294
   vertex 5.3705 -27.4015 -24.294
   vertex 5.46605 -27.156 -24.794
  endloop
 endfacet
 facet normal 0.29431 0.95257 -0.0774069
  outer loop
   vertex 5.59756 -27.156 -24.294
   vertex 5.46605 -27.156 -24.794
   vertex 5.3705 -27.1265 -24.794
  endloop
 endfacet
 facet normal 0.166969 0.540417 -0.824664
  outer loop
   vertex 5.3705 -27.1265 -24.794
   vertex 5.46605 -27.156 -24.794
   vertex 5.3705 -27.156 -24.8133
  endloop
 endfacet
 facet normal -0.136511 0.54298 -0.828576
  outer loop
   vertex 5.3705 -27.1265 -24.794
   vertex 5.3705 -27.156 -24.8133
   vertex 5.25307 -27.156 -24.794
  endloop
 endfacet
 facet normal -0.149242 -0.396445 -0.905847
  outer loop
   vertex 5.25307 -27.156 -24.794
   vertex 5.3705 -27.156 -24.8133
   vertex 5.3705 -27.2002 -24.794
  endloop
 endfacet
 facet normal -0.329688 -0.87578 -0.352585
  outer loop
   vertex 5.25307 -27.156 -24.794
   vertex 5.3705 -27.2002 -24.794
   vertex 5.3705 -27.4015 -24.294
  endloop
 endfacet
 facet normal 0.394371 -0.85246 -0.343196
  outer loop
   vertex 5.3705 -27.4015 -24.294
   vertex 5.3705 -27.2002 -24.794
   vertex 5.46605 -27.156 -24.794
  endloop
 endfacet
 facet normal -0.276094 0.955044 -0.107993
  outer loop
   vertex 5.3705 -27.0655 -24.294
   vertex 5.25307 -27.156 -24.794
   vertex 5.0575 -27.156 -24.294
  endloop
 endfacet
 facet normal -0.599929 -0.764866 -0.23466
  outer loop
   vertex 5.0575 -27.156 -24.294
   vertex 5.25307 -27.156 -24.794
   vertex 5.3705 -27.4015 -24.294
  endloop
 endfacet
 facet normal -0.242137 0.96311 -0.117428
  outer loop
   vertex 5.25307 -27.156 -24.794
   vertex 5.3705 -27.0655 -24.294
   vertex 5.3705 -27.1265 -24.794
  endloop
 endfacet
 facet normal 0.367845 0.923051 -0.112543
  outer loop
   vertex 5.3705 -27.1265 -24.794
   vertex 5.3705 -27.0655 -24.294
   vertex 5.59756 -27.156 -24.294
  endloop
 endfacet
 facet normal 0.230965 0.579573 0.781505
  outer loop
   vertex 5.3705 -27.156 -24.2269
   vertex 5.59756 -27.156 -24.294
   vertex 5.3705 -27.0655 -24.294
  endloop
 endfacet
 facet normal 0.182373 -0.394211 -0.900743
  outer loop
   vertex 5.3705 -27.2002 -24.794
   vertex 5.3705 -27.156 -24.8133
   vertex 5.46605 -27.156 -24.794
  endloop
 endfacet
endsolid
